<?xml version="1.0" encoding="UTF-8" standalone="no"?><!DOCTYPE svg PUBLIC "-//W3C//DTD SVG 1.1//EN" "http://www.w3.org/Graphics/SVG/1.1/DTD/svg11.dtd"><svg width="100%" height="100%" viewBox="0 0 5120 5120" version="1.1" xmlns="http://www.w3.org/2000/svg" xmlns:xlink="http://www.w3.org/1999/xlink" xml:space="preserve" xmlns:serif="http://www.serif.com/" style="fill-rule:evenodd;clip-rule:evenodd;stroke-linejoin:round;stroke-miterlimit:2;"><rect x="-187.89" y="-100.655" width="5529.332" height="5308.997" style="fill:#ebebeb;"/><path d="M1406.666,536.099c56.573,65.762 78.305,79.128 151.331,156.437c16.295,44.482 10.723,45.986 11.336,704.392c0.15,160.27 -8.472,222.822 25.994,229.225c110.323,20.494 470.298,3.637 717.109,387.381c67.437,104.853 95.353,241.856 99.861,263.981c8.786,43.121 29.773,30.002 59.56,-2.565c48.401,-52.921 184.893,-376.417 617.448,-495.767c120.216,-33.17 298.389,-9.94 481.846,-259.102l24.194,18.449l-7.987,15.725c-187.154,354.532 -427.836,327.365 -608.872,425.559c-31.328,16.992 -2.754,26.124 0.605,33.458c-205.053,89.607 -263.836,220.28 -348.756,341.841c-136.268,195.062 -345.352,189.284 -473.301,67.67c7.208,-4.311 0.701,-17.061 34.77,-20.794c81.805,-8.965 178.078,-31.496 202.679,-47.865c64.559,-42.954 -17.836,-27.464 -92.633,-45.483c0.177,-3.721 20.293,-15.606 -7.164,-40.335c-82.524,-74.328 -281.213,-179.183 -512.662,-204.301c-402.998,-43.735 -636.698,62.849 -665.685,29.569c-6.578,-7.552 -5.54,-8.907 -5.697,-492.135c-0.264,-817.115 4.256,-817.794 7.06,-821.14c12.499,-14.91 156.18,-53.763 167.792,-14.417c7.393,25.051 -2.967,1098.206 4.926,1121.048c15.661,45.33 193.623,-49.619 585.457,50.065c290.01,73.779 427.686,265.016 453.094,300.308c24.323,33.786 29.657,9.505 29.953,7.061c2.579,-21.248 -121.614,-240.183 -374.453,-353.485c-397.341,-178.055 -591.71,-37.171 -593.116,-132.251c-8.501,-574.548 11.22,-573.957 0.652,-1147.911c-0.755,-40.961 -15.116,-46.566 14.66,-74.62l-0.003,0.001Z" style="fill:#2298ad;"/><path d="M2791.258,4009.176c10.831,-49.216 24.346,-154.873 142.59,-239.075c89.725,-63.894 162.158,-72.572 260.264,-69.167c244.327,8.481 364.736,230.372 349.559,377.404c-43.735,423.7 -556.257,419.897 -700.991,175.732c-66.812,-112.71 -53.976,-204.716 -51.422,-244.894Zm164.847,10.212c-38.756,342.071 430.207,336.258 422.104,35.678c-7.337,-272.161 -384.196,-290.901 -422.104,-35.678Z" style="fill:#17356a;"/><path d="M2994.208,756.789c5.918,-35.835 11.795,-33.239 16.152,-34.408c59.154,-15.886 249.786,-75.509 489.79,38.34c182.391,86.52 237.263,211.52 276.71,260.433c19.81,24.564 9.45,28.11 11.291,29.882c2.109,2.03 2.372,1.312 32.019,17.71c3.808,27.108 18.948,111.748 22.42,155.292c14.314,179.513 -80.064,358.955 -105.664,395.814c-40.954,58.966 -18.399,66.996 32.584,117.787c50.533,50.343 70.088,17.456 124.499,63.553c64.266,54.447 60.252,57.62 121.979,114.618c79.421,73.337 269.943,239.748 310.723,286.207c100.214,114.172 -41.362,359.618 -232.544,170.3c-342.135,-338.799 -343.676,-336.059 -372.869,-365.971c-58.288,-59.724 -22.141,-85.532 -71.233,-133.349c-65.839,-64.129 -73.85,-70.251 -104.245,-48.901c-231.364,162.525 -268.105,70.873 -566.729,189.179c-3.36,-7.333 -31.933,-16.465 -0.605,-33.458c181.036,-98.194 421.718,-71.027 608.872,-425.559l7.987,-15.725l-24.194,-18.449c54.271,-89.785 149.175,-286.286 4.893,-547.983c-94.928,-172.178 -297.715,-220.106 -328.846,-227.464c-74.004,-17.49 -115.255,-23.315 -252.989,12.154l0,-0.001Z" style="fill:#17376b;"/><path d="M2252.034,4411.187c-12.645,-3.69 -103.989,-30.35 -149.82,-68.301c-6.141,-5.084 -125.382,-93.229 -134.875,-252.677c-24.041,-403.808 466.002,-495.653 661.911,-273.18c192.24,218.306 54.811,507.216 -123.304,572.501c-139.397,51.094 -225.158,25.484 -253.912,21.657Zm92.103,-131.4c22.646,-1.184 187.755,-9.818 210.61,-189.72c33.573,-264.273 -331.074,-361.077 -418.705,-92.829c-20.836,63.781 -8.164,270.64 208.095,282.549Z" style="fill:#17356a;"/><path d="M3729.242,4407.806c-10.233,-0.037 -77.852,6.12 -84.458,-14.094c-3.66,-11.199 -1.362,-665.08 -1.285,-665.475c4.67,-23.97 43.493,-19.616 132.245,-18.966c39.328,0.287 30.278,31.811 30.354,159.525c0.076,127.979 -6.529,128.388 -2.676,138.805c0.6,1.623 7.403,20.017 21.01,5.183c11.226,-12.239 133.321,-145.344 140.594,-152.731c129.626,-131.672 123.624,-150.324 183.263,-150.643c126.998,-0.679 128.062,-0.973 133.588,4.714c14.059,14.468 -0.42,14.264 -14.909,28.645c-7.473,7.418 -56.741,56.315 -90.606,95.466c-114.396,132.25 -158.797,159.53 -158.075,181.943c0.548,16.998 281.117,361.945 282.573,372.113c2.791,19.49 -23.645,16.185 -152.626,15.283c-43.232,-0.303 -49.783,-25.385 -80.398,-62.383c-56.606,-68.404 -149.986,-198.396 -162.929,-200.68c-8.038,-1.418 -15.438,-2.723 -77.8,66.015c-46.758,51.541 -4.085,171.692 -29.022,192.404c-11.819,9.817 -13.785,4.291 -68.842,4.876Z" style="fill:#17366b;"/><path d="M2301.849,2308.643c74.797,18.02 157.192,2.531 92.633,45.483c-24.601,16.367 -120.875,38.899 -202.679,47.865c-34.07,3.734 -27.564,16.484 -34.77,20.794c-25.682,-27.716 -45.047,-65.33 -155.778,-91.442c-355.442,-83.816 -839.137,40.459 -909.775,58.609c-208.85,53.66 -252.578,91.25 -254.074,45.202c-2.166,-66.663 0.119,-66.293 0.902,-833.721c0.534,-524.299 -2.053,-565.805 5.119,-579.59c11.915,-22.9 126.264,-51.48 137.416,-52.715c34.444,-3.815 24.083,20.01 24.841,412.155c1.604,831.181 -5.837,835.766 8.454,846.888c16.845,13.109 211.711,-50.829 407.389,-72.917c599.527,-67.673 800.227,109.932 880.322,153.387l0,0.001Z" style="fill:#18366a;"/><path d="M3369.746,567.106l-29.904,10.672c-108.193,10.979 -209.57,-29.256 -422.42,99.603c-141.74,85.809 -229.9,241.027 -231.684,250.957c-1.37,7.624 -1.862,6.8 -5.685,13.001c-18.031,29.259 -14.019,30.68 -10.406,64.965c-0.678,3.697 4.463,6.925 3.785,10.621c-0.46,2.505 -5.162,1.873 -6.476,4.054c-2.521,4.183 -1.592,9.978 -4.394,13.978c-1.495,2.134 -6.505,0.27 -7.316,2.746c-1.193,3.637 3.45,7.38 2.761,11.144c-1.003,5.473 -8.384,2.842 -22.978,65.653c-30.462,131.106 -3.744,245.16 1.108,265.868c-4.658,7.176 -14.894,9.455 -19.552,16.631c-6.928,10.673 3.612,12.383 1.13,62.895c-5.199,105.756 1.19,426.03 -0.253,456.121c-2.665,55.579 -119.963,135.153 -156.496,237.626c-3.645,10.226 -33.572,33.727 -29.869,-17.846c13.104,-182.483 1.474,-836.743 6.492,-943.56c12.65,-269.228 184.917,-455.03 262.592,-511.645c292.372,-213.101 535.803,-154.734 669.567,-113.487l-0.001,0.001Z" style="fill:#eb8546;"/><path d="M3798.065,2211.869c222.94,228.998 250.019,231.135 228.437,247.24c-17.011,12.695 -327.114,-125.35 -734.016,-150.191c-456.895,-27.893 -556.484,102.866 -574.145,74.87c-7.329,-11.616 -9.964,-18.856 101.315,-138.604c111.714,-7.403 110.642,-87.865 457.11,-89.887c300.829,-1.755 492.607,66.059 502.786,64.424c6.619,-1.062 11.896,-6.789 18.514,-7.852l0,-0.001Z" style="fill:#8bcae5;"/><path d="M1406.666,536.099c26.323,-8.353 90.473,-28.71 345.097,8.978c434.852,64.362 653.81,351.522 639.384,410.615c-19.056,78.051 -23.278,76.603 -30.347,157.046c-1.109,12.619 0.35,15.77 -11.819,17.034c-53.983,5.61 -36.645,-249.569 -455.704,-378.876c-163.115,-50.331 -166.339,-32.327 -335.278,-58.359c-73.027,-77.31 -94.759,-90.676 -151.331,-156.437l0,-0.001Z" style="fill:#f6bc82;"/><path d="M2066.498,2887.472c-0.935,40.307 -11.215,483.997 6.431,503.919c22.178,25.037 508.492,-8.033 528.61,20.084c2.844,3.975 26.356,91.575 -24.116,93.924c-19.385,0.903 -593.918,0.449 -598.522,-0.06c-38.134,-4.215 -30.55,-22.464 -30.94,-287.614c-0.939,-637.533 1.07,-637.569 3.914,-642.517c11.667,-20.302 108.364,-23.938 112.965,12c3.31,25.859 0.272,256.534 1.658,300.264Z" style="fill:#18356b;"/><path d="M3143.073,3505.863c-380.877,-0.231 -390.841,3.625 -397.707,-19.184c-2.694,-8.948 -1.431,-898.494 -1.3,-899.194c2.802,-14.932 9.321,-29.22 84.246,-25.347c43.2,2.233 33.329,25.001 33.35,372.518c0.026,448.85 -1.106,453.604 11.424,459.651c36.646,17.685 497.122,-6.66 519.245,14.555c12.202,11.703 12.934,77.024 -0.259,88.992c-10.533,9.556 -31.243,8.148 -248.998,8.009Z" style="fill:#163469;"/><path d="M3339.841,577.778c10.203,3.008 6.826,7.595 16.47,10.439c1.254,0.369 7.863,2.318 16.328,-0.769c5.812,-2.119 9.343,-8.594 15.156,-10.713c12.781,7.948 12.717,6.148 27.612,9.562c12.625,2.893 164.848,76.787 232.285,156.273c115.088,135.651 140.308,185.104 172.478,326.176c-29.647,-16.398 -29.909,-15.681 -32.019,-17.71c-1.842,-1.772 8.517,-5.318 -11.291,-29.882c-39.447,-48.913 -94.318,-173.913 -276.71,-260.433c-240.002,-113.849 -430.634,-54.226 -489.79,-38.34c-4.357,1.171 -10.234,-1.427 -16.152,34.408c-205.73,43.356 -303.263,234.958 -314.973,247.102c-2.288,2.372 -7.299,0.043 -9.586,2.414c-3.614,-34.284 -7.625,-35.706 10.406,-64.965c3.821,-6.201 4.314,-5.377 5.685,-13.001c1.784,-9.929 89.944,-165.148 231.684,-250.957c212.85,-128.859 314.227,-88.623 422.42,-99.603l-0.001,-0.001Z" style="fill:#49b6b1;"/><path d="M3798.065,2211.869c-6.619,1.062 -11.896,6.789 -18.514,7.852c-10.179,1.635 -201.957,-66.18 -502.786,-64.424c-346.468,2.022 -345.396,82.484 -457.11,89.887c122.762,-178.015 370.875,-199.085 457.914,-214.906c224.024,-40.72 281.946,-138.296 306.882,-79.495c72.597,171.201 121.543,134.913 213.615,261.085l0,0.001Z" style="fill:#f3ad78;"/><path d="M1444.684,3262.663c-377.37,0.635 -385.693,-4.569 -401.525,22.088c-24.973,42.044 -78.614,212.386 -116.628,220.125c-116.734,23.766 -98.725,-28.096 -96.035,-35.844c18.739,-53.964 206.979,-446.495 225.483,-485.081c191.45,-399.226 182.076,-419.916 231.615,-422.117c60.786,-2.7 92.857,-7.853 118.34,46.268c196.439,417.198 194.666,417.12 394.839,832.248c14.596,30.269 36.366,29.062 17.627,57.747c-2.248,3.442 -102.735,36.609 -134.807,-30.18c-33.547,-69.859 -29.692,-70.611 -63.23,-141.376c-44.816,-94.568 -71.377,-63.892 -175.677,-63.881l-0.001,0Zm-78.621,-98.356c113.325,0.091 156.809,5.096 165.868,-11.988c8.941,-16.859 -115.34,-262.082 -126.595,-284.289c-49.608,-97.881 -68.003,-166.402 -85.807,-174.206c-21.997,-9.641 -6.7,15.915 -131.257,269.995c-89.659,182.896 -87.028,193.414 -71.326,199.868c3.67,1.51 3.773,0.596 249.116,0.618l0,0.001Z" style="fill:#183568;"/><path d="M3858.492,1585.657c12.838,-33.42 117.951,-236.943 56.057,-533.12c-3.246,-15.534 -44.315,-95.887 20.42,-72.468c84.847,30.693 103.28,22.207 103.964,70.728c2.503,177.484 -3.586,472.563 3.395,723.189c0.863,31.004 -15.917,34.124 -37.178,10.802c-49.155,-53.921 -70.858,-69.081 -132.694,-101.407c1.241,-25.506 3.777,-24.638 2.461,-50.583c-2.216,-43.675 -13.163,-40.375 -16.425,-47.141Z" style="fill:#89c7e3;"/><path d="M3015.92,1367.104c5.211,-27.465 30.75,-40.948 -25.509,-92.404c-37.942,-34.703 -38.197,-34.29 -41.416,-37.382c-53.12,-51.035 66.777,-43.624 91.466,-47.667c59.5,-9.747 66.453,-106.855 81.976,-120.11c29.447,-25.144 50.097,59.74 57.124,77.103c30.203,74.631 146.378,33.342 155.589,63.322c1.721,5.604 3.636,11.833 -47.066,56.165c-81.05,70.868 -30.394,88.639 -25.244,162.491c2.904,41.639 -56.058,-0.163 -93.148,-21.402c-73.72,-42.214 -115.268,53.734 -162.426,39.766c-7.196,-2.131 -9.914,-5.628 8.653,-79.882Z" style="fill:#193668;"/><path d="M1634.142,4407.783c-359.785,0.267 -361.873,-0.078 -367.909,-7.531c-9.931,-12.263 -6.941,-672.075 -1.668,-681.051c6.864,-11.681 10.806,-9.781 264.807,-10.032c32.301,-0.031 349.359,-32.911 344.284,194.37c-1.705,76.312 -51.838,115.062 -60.44,121.71c-16.567,12.804 -9.061,18.968 -9.06,19.02c0.762,25.248 40.756,4.15 84.101,93.133c22.278,45.734 57.087,228.815 -161.772,262.555c-55.973,8.629 -55.559,6.609 -92.343,7.828l-0,-0.001Zm76.53,-492.439c-4.68,-30.356 -5.185,-44.076 -43.558,-66.001c-37.332,-21.328 -226.946,-15.045 -234.582,-8.424c-14.786,12.821 -8.023,136.095 -4.205,141.787c6.426,9.583 50.071,8.894 54.486,8.823c174.138,-2.754 215.418,8.374 227.86,-76.186Zm-146.384,364.815c11.309,-0.031 123.616,7.537 158.468,-30.995c1.369,-1.514 73.525,-129.035 -100.291,-135.067c-13.955,-0.485 -129.806,-4.505 -174.549,-0.564c-24.304,2.141 -24.837,11.697 -23.65,139.369c0.337,36.225 39.486,27.157 140.022,27.257Z" style="fill:#17356a;"/><path d="M3337.564,866.332c234.794,125.096 240.919,364.6 203.816,384.355c-78.139,41.605 -27.314,-111.436 -154.425,-246.944c-101.393,-108.091 -256.916,-95.84 -269.806,-124.367c-4.071,-9.01 -15.788,-55.775 49.403,-57.529c55.589,-1.496 157.879,39.254 171.012,44.486Z" style="fill:#8dcae3;"/><path d="M3858.492,1585.657c3.261,6.766 14.209,3.467 16.425,47.141c1.316,25.944 -1.22,25.077 -2.461,50.583c-13.042,-6.201 -75.943,-8.381 -13.964,-97.723l0,-0.001Z" style="fill:#d8b493;"/><path d="M3369.746,567.106c6.017,3.21 12.032,6.419 18.049,9.629c-5.812,2.119 -9.343,8.594 -15.156,10.713c-8.464,3.087 -15.073,1.138 -16.328,0.769c-9.644,-2.844 -6.268,-7.43 -16.47,-10.439l29.904,-10.672l0.001,0Z" style="fill:#a6a487;"/></svg>