<?xml version="1.0" encoding="UTF-8" standalone="no"?><!DOCTYPE svg PUBLIC "-//W3C//DTD SVG 1.1//EN" "http://www.w3.org/Graphics/SVG/1.1/DTD/svg11.dtd"><svg width="100%" height="100%" viewBox="0 0 5172 2373" version="1.1" xmlns="http://www.w3.org/2000/svg" xmlns:xlink="http://www.w3.org/1999/xlink" xml:space="preserve" xmlns:serif="http://www.serif.com/" style="fill-rule:evenodd;clip-rule:evenodd;stroke-linejoin:round;stroke-miterlimit:2;"><path d="M1836.783,9.491c41.221,47.917 57.056,57.656 110.266,113.986c11.873,32.411 7.813,33.507 8.26,513.248c0.109,116.779 -6.173,162.357 18.94,167.022c80.386,14.933 342.678,2.65 522.514,282.261c49.137,76.4 69.478,176.226 72.763,192.347c6.402,31.42 21.694,21.861 43.398,-1.869c35.267,-38.56 134.72,-274.272 449.897,-361.235c87.594,-24.169 217.418,-7.243 351.092,-188.792l17.629,13.443l-5.82,11.458c-136.368,258.326 -311.738,238.531 -443.648,310.079c-22.827,12.381 -2.007,19.035 0.441,24.379c-149.41,65.291 -192.241,160.505 -254.117,249.079c-99.29,142.13 -251.637,137.92 -344.866,49.307c5.252,-3.141 0.511,-12.431 25.335,-15.151c59.606,-6.532 129.755,-22.949 147.68,-34.876c47.04,-31.298 -12.996,-20.011 -67.496,-33.141c0.129,-2.711 14.786,-11.371 -5.22,-29.39c-60.13,-54.158 -204.903,-130.56 -373.546,-148.862c-293.64,-31.867 -463.923,45.794 -485.044,21.545c-4.793,-5.503 -4.037,-6.49 -4.151,-358.589c-0.192,-595.382 3.101,-595.877 5.144,-598.315c9.107,-10.864 113.799,-39.174 122.26,-10.505c5.387,18.253 -2.162,800.196 3.589,816.84c11.411,33.029 141.081,-36.154 426.587,36.479c211.313,53.758 311.629,193.101 330.142,218.816c17.723,24.618 21.609,6.926 21.825,5.145c1.879,-15.482 -88.613,-175.007 -272.841,-257.563c-289.518,-129.738 -431.143,-27.084 -432.168,-96.363c-6.194,-418.638 8.175,-418.208 0.475,-836.413c-0.55,-29.846 -11.014,-33.93 10.682,-54.371l-0.002,0.001Z" style="fill:#2298ad;"/><path d="M3685.39,1966.65c10.662,-48.449 23.967,-152.461 140.369,-235.351c88.328,-62.899 159.632,-71.442 256.21,-68.09c240.522,8.349 359.055,226.784 344.115,371.526c-43.054,417.101 -547.593,413.357 -690.073,172.995c-65.771,-110.955 -53.135,-201.528 -50.621,-241.08Zm162.28,10.053c-38.152,336.743 423.507,331.021 415.53,35.122c-7.223,-267.922 -378.212,-286.37 -415.53,-35.122Z" style="fill:#17356a;"/><path d="M2993.529,170.294c4.312,-26.111 8.594,-24.219 11.769,-25.071c43.102,-11.575 182.004,-55.019 356.88,27.936c132.897,63.042 172.879,154.122 201.622,189.762c14.434,17.898 6.886,20.482 8.227,21.773c1.537,1.479 1.728,0.956 23.33,12.904c2.775,19.752 13.806,81.424 16.336,113.152c10.43,130.8 -58.338,261.549 -76.991,288.406c-29.841,42.965 -13.406,48.816 23.742,85.824c36.82,36.682 51.069,12.719 90.715,46.307c46.827,39.672 43.902,41.984 88.879,83.515c57.869,53.436 196.691,174.69 226.405,208.542c73.02,83.19 -30.138,262.032 -169.441,124.087c-249.293,-246.862 -250.416,-244.866 -271.687,-266.661c-42.471,-43.517 -16.133,-62.322 -51.903,-97.163c-47.973,-46.727 -53.81,-51.188 -75.957,-35.631c-168.581,118.422 -195.352,51.641 -412.941,137.843c-2.448,-5.343 -23.268,-11.997 -0.441,-24.379c131.91,-71.548 307.28,-51.753 443.648,-310.079l5.82,-11.458l-17.629,-13.443c39.544,-65.421 108.695,-208.599 3.565,-399.282c-69.168,-125.456 -216.927,-160.378 -239.61,-165.739c-53.922,-12.744 -83.979,-16.988 -184.338,8.856l0,-0.001Z" style="fill:#17376b;"/><path d="M3154.564,2362.399c-12.448,-3.633 -102.369,-29.877 -147.487,-67.237c-6.045,-5.005 -123.429,-91.777 -132.774,-248.742c-23.667,-397.519 458.744,-487.933 651.602,-268.925c189.246,214.906 53.957,499.316 -121.384,563.584c-137.226,50.298 -221.651,25.087 -249.957,21.32Zm90.669,-129.353c22.293,-1.166 184.831,-9.665 207.33,-186.765c33.05,-260.157 -325.918,-355.453 -412.184,-91.383c-20.511,62.788 -8.037,266.425 204.854,278.148Z" style="fill:#17356a;"/><path d="M4608.765,2359.071c-10.074,-0.036 -76.639,6.025 -83.143,-13.874c-3.603,-11.025 -1.341,-654.722 -1.265,-655.11c4.597,-23.597 42.816,-19.31 130.185,-18.671c38.715,0.283 29.806,31.316 29.881,157.04c0.075,125.986 -6.427,126.388 -2.634,136.643c0.591,1.598 7.288,19.705 20.683,5.102c11.051,-12.048 131.245,-143.08 138.404,-150.352c127.607,-129.621 121.699,-147.983 180.409,-148.297c125.02,-0.668 126.067,-0.958 131.507,4.641c13.84,14.243 -0.413,14.042 -14.677,28.199c-7.357,7.302 -55.857,55.438 -89.195,93.979c-112.614,130.19 -156.324,157.045 -155.613,179.109c0.539,16.733 276.739,356.308 278.172,366.317c2.748,19.186 -23.277,15.933 -150.249,15.045c-42.559,-0.298 -49.008,-24.99 -79.146,-61.411c-55.724,-67.339 -147.65,-195.306 -160.391,-197.554c-7.913,-1.396 -15.198,-2.681 -76.588,64.987c-46.03,50.738 -4.021,169.018 -28.57,189.407c-11.635,9.664 -13.57,4.224 -67.77,4.8Z" style="fill:#17366b;"/><path d="M2489.049,1301.036c54.5,13.13 114.536,1.844 67.496,33.141c-17.925,11.926 -88.074,28.343 -147.68,34.876c-24.825,2.721 -20.084,12.011 -25.335,15.151c-18.713,-20.195 -32.823,-47.602 -113.506,-66.628c-258.989,-61.072 -611.428,29.48 -662.898,42.705c-152.176,39.099 -184.038,66.488 -185.128,32.936c-1.578,-48.573 0.087,-48.304 0.657,-607.482c0.389,-382.025 -1.496,-412.268 3.73,-422.312c8.682,-16.686 92.001,-37.51 100.127,-38.41c25.097,-2.78 17.548,14.58 18.1,300.312c1.169,605.631 -4.253,608.972 6.16,617.076c12.274,9.552 154.261,-37.036 296.84,-53.13c436.839,-49.309 583.077,80.101 641.437,111.764l0,0.001Z" style="fill:#18366a;"/><path d="M3267.161,32.084l-21.789,7.776c-78.834,8 -152.701,-21.317 -307.792,72.575c-103.277,62.524 -167.514,175.622 -168.814,182.857c-0.998,5.555 -1.357,4.955 -4.142,9.473c-13.138,21.319 -10.215,22.355 -7.582,47.336c-0.494,2.694 3.252,5.046 2.758,7.739c-0.335,1.825 -3.761,1.365 -4.719,2.954c-1.837,3.048 -1.16,7.27 -3.202,10.185c-1.089,1.555 -4.74,0.197 -5.331,2.001c-0.869,2.65 2.514,5.377 2.012,8.12c-0.731,3.988 -6.109,2.071 -16.743,47.837c-22.196,95.529 -2.728,178.633 0.807,193.722c-3.394,5.229 -10.852,6.889 -14.246,12.118c-5.048,7.777 2.632,9.023 0.823,45.828c-3.788,77.058 0.867,310.422 -0.184,332.348c-1.942,40.497 -87.41,98.478 -114.029,173.144c-2.656,7.451 -24.462,24.575 -21.764,-13.003c9.548,-132.964 1.074,-609.684 4.73,-687.515c9.217,-196.17 134.738,-331.553 191.335,-372.805c213.034,-155.274 390.407,-112.745 487.873,-82.691l-0.001,0.001Z" style="fill:#eb8546;"/><path d="M3579.251,1230.523c162.443,166.857 182.174,168.414 166.448,180.149c-12.395,9.25 -238.348,-91.335 -534.833,-109.435c-332.912,-20.324 -405.476,74.952 -418.345,54.553c-5.34,-8.464 -7.26,-13.739 73.822,-100.992c81.399,-5.394 80.618,-64.022 333.068,-65.495c219.196,-1.279 358.933,48.133 366.35,46.942c4.823,-0.774 8.668,-4.947 13.49,-5.721l0,-0.001Z" style="fill:#8bcae5;"/><path d="M1836.783,9.491c19.18,-6.086 65.922,-20.919 251.451,6.542c316.85,46.897 476.392,256.133 465.88,299.19c-13.885,56.871 -16.961,55.816 -22.112,114.43c-0.808,9.195 0.255,11.491 -8.612,12.412c-39.334,4.088 -26.701,-181.846 -332.044,-276.064c-118.852,-36.673 -121.201,-23.555 -244.297,-42.523c-53.21,-56.331 -69.045,-66.07 -110.266,-113.986l0,-0.001Z" style="fill:#f6bc82;"/><path d="M902.477,1908.642c-0.681,29.369 -8.172,352.659 4.686,367.175c16.16,18.243 370.507,-5.853 385.166,14.634c2.072,2.896 19.204,66.725 -17.572,68.437c-14.125,0.658 -432.752,0.327 -436.107,-0.044c-27.786,-3.071 -22.26,-16.368 -22.544,-209.567c-0.684,-464.532 0.78,-464.558 2.852,-468.163c8.501,-14.793 78.958,-17.442 82.311,8.744c2.412,18.842 0.198,186.921 1.208,218.784Z" style="fill:#18356b;"/><path d="M1686.912,2359.226c-277.522,-0.168 -284.782,2.641 -289.785,-13.978c-1.963,-6.52 -1.043,-654.678 -0.947,-655.188c2.042,-10.88 6.792,-21.291 61.385,-18.469c31.477,1.627 24.285,18.217 24.3,271.431c0.019,327.05 -0.806,330.514 8.324,334.92c26.702,12.886 362.223,-4.853 378.342,10.605c8.891,8.527 9.424,56.123 -0.189,64.843c-7.675,6.963 -22.765,5.937 -181.43,5.836Z" style="fill:#163469;"/><path d="M3245.371,39.86c7.434,2.192 4.974,5.534 12.001,7.606c0.914,0.269 5.729,1.689 11.897,-0.56c4.235,-1.544 6.808,-6.262 11.043,-7.806c9.313,5.791 9.266,4.48 20.119,6.967c9.199,2.108 120.115,55.95 169.252,113.867c83.858,98.841 102.234,134.874 125.674,237.665c-21.602,-11.948 -21.793,-11.426 -23.33,-12.904c-1.342,-1.291 6.206,-3.875 -8.227,-21.773c-28.743,-35.64 -68.724,-126.72 -201.622,-189.762c-174.875,-82.955 -313.777,-39.511 -356.88,-27.936c-3.175,0.853 -7.457,-1.04 -11.769,25.071c-149.903,31.591 -220.969,171.2 -229.502,180.048c-1.667,1.728 -5.318,0.031 -6.985,1.759c-2.633,-24.981 -5.556,-26.017 7.582,-47.336c2.784,-4.518 3.143,-3.918 4.142,-9.473c1.3,-7.235 65.537,-120.333 168.814,-182.857c155.091,-93.892 228.958,-64.574 307.792,-72.575l-0.001,-0.001Z" style="fill:#49b6b1;"/><path d="M3579.251,1230.523c-4.823,0.774 -8.668,4.947 -13.49,5.721c-7.417,1.191 -147.154,-48.221 -366.35,-46.942c-252.45,1.473 -251.669,60.101 -333.068,65.495c89.449,-129.709 270.234,-145.061 333.654,-156.589c163.233,-29.67 205.437,-100.768 223.606,-57.923c52.897,124.744 88.561,98.303 155.648,190.237l0,0.001Z" style="fill:#f3ad78;"/><path d="M449.399,2182.021c-274.967,0.463 -281.031,-3.329 -292.567,16.094c-18.196,30.635 -57.281,154.753 -84.98,160.392c-85.057,17.317 -71.935,-20.472 -69.975,-26.117c13.654,-39.32 150.813,-325.334 164.296,-353.449c139.498,-290.892 132.668,-305.967 168.764,-307.571c44.291,-1.967 67.659,-5.722 86.227,33.713c143.133,303.987 141.841,303.93 287.695,606.409c10.635,22.055 26.498,21.176 12.844,42.077c-1.638,2.508 -74.857,26.675 -98.226,-21.99c-24.444,-50.902 -21.635,-51.45 -46.072,-103.012c-32.655,-68.906 -52.008,-46.554 -128.005,-46.546l-0.001,0Zm-57.286,-71.666c82.573,0.066 114.257,3.713 120.858,-8.735c6.515,-12.284 -84.041,-190.963 -92.242,-207.144c-36.146,-71.32 -49.55,-121.247 -62.522,-126.933c-16.028,-7.025 -4.882,11.596 -95.639,196.729c-65.329,133.265 -63.412,140.929 -51.971,145.632c2.674,1.1 2.749,0.434 181.516,0.45l0,0.001Z" style="fill:#183568;"/><path d="M3623.28,774.24c9.354,-24.351 85.944,-172.646 40.845,-388.452c-2.365,-11.319 -32.29,-69.867 14.879,-52.803c61.823,22.364 75.254,16.181 75.752,51.535c1.824,129.322 -2.613,344.328 2.474,526.944c0.629,22.591 -11.598,24.864 -27.089,7.871c-35.816,-39.289 -51.63,-50.335 -96.686,-73.889c0.904,-18.585 2.752,-17.952 1.793,-36.857c-1.615,-31.823 -9.591,-29.419 -11.968,-34.349Z" style="fill:#89c7e3;"/><path d="M3009.349,614.994c3.797,-20.012 22.406,-29.836 -18.587,-67.329c-27.646,-25.286 -27.832,-24.985 -30.177,-27.238c-38.705,-37.186 48.656,-31.786 66.646,-34.732c43.354,-7.102 48.42,-77.859 59.731,-87.517c21.456,-18.321 36.503,43.529 41.623,56.18c22.007,54.379 106.657,24.294 113.368,46.139c1.254,4.083 2.649,8.622 -34.294,40.924c-59.056,51.637 -22.146,64.586 -18.394,118.397c2.116,30.34 -40.846,-0.119 -67.871,-15.594c-53.715,-30.759 -83.989,39.153 -118.35,28.975c-5.243,-1.553 -7.224,-4.101 6.305,-58.205Z" style="fill:#193668;"/><path d="M2546.296,2359.048c-354.181,0.263 -356.237,-0.077 -362.179,-7.414c-9.776,-12.072 -6.833,-661.608 -1.642,-670.444c6.757,-11.499 10.638,-9.629 260.683,-9.876c31.798,-0.031 343.918,-32.398 338.922,191.343c-1.678,75.123 -51.031,113.27 -59.499,119.814c-16.309,12.605 -8.92,18.673 -8.919,18.724c0.75,24.855 40.121,4.085 82.791,91.682c21.931,45.022 56.198,225.251 -159.252,258.466c-55.101,8.495 -54.694,6.506 -90.905,7.706l-0,-0.001Zm75.338,-484.769c-4.607,-29.883 -5.104,-43.39 -42.88,-64.973c-36.751,-20.996 -223.411,-14.811 -230.928,-8.293c-14.556,12.621 -7.898,133.975 -4.14,139.579c6.326,9.434 49.291,8.755 53.637,8.686c171.426,-2.711 212.063,8.244 224.311,-74.999Zm-144.104,359.133c11.133,-0.031 121.691,7.42 156,-30.512c1.348,-1.49 72.38,-127.025 -98.729,-132.963c-13.738,-0.477 -127.784,-4.435 -171.83,-0.555c-23.925,2.108 -24.45,11.515 -23.282,137.198c0.332,35.661 38.871,26.734 137.841,26.832Z" style="fill:#17356a;"/><path d="M3243.712,250.112c171.08,91.15 175.543,265.662 148.508,280.056c-56.935,30.315 -19.902,-81.197 -112.52,-179.933c-73.879,-78.759 -187.199,-69.833 -196.591,-90.619c-2.966,-6.565 -11.504,-40.64 35.997,-41.918c40.504,-1.09 115.037,28.602 124.606,32.414Z" style="fill:#8dcae3;"/><path d="M3623.28,774.24c2.376,4.93 10.353,2.526 11.968,34.349c0.959,18.904 -0.889,18.272 -1.793,36.857c-9.503,-4.518 -55.335,-6.107 -10.175,-71.205l0,-0.001Z" style="fill:#d8b493;"/><path d="M3267.161,32.084c4.384,2.339 8.767,4.677 13.151,7.016c-4.235,1.544 -6.808,6.262 -11.043,7.806c-6.167,2.249 -10.983,0.829 -11.897,0.56c-7.027,-2.072 -4.567,-5.414 -12.001,-7.606l21.789,-7.776l0.001,0Z" style="fill:#a6a487;"/></svg>