<?xml version="1.0" encoding="UTF-8" standalone="no"?><!DOCTYPE svg PUBLIC "-//W3C//DTD SVG 1.1//EN" "http://www.w3.org/Graphics/SVG/1.1/DTD/svg11.dtd"><svg width="100%" height="100%" viewBox="0 0 5172 2949" version="1.1" xmlns="http://www.w3.org/2000/svg" xmlns:xlink="http://www.w3.org/1999/xlink" xml:space="preserve" xmlns:serif="http://www.serif.com/" style="fill-rule:evenodd;clip-rule:evenodd;stroke-linejoin:round;stroke-miterlimit:2;"><path d="M1836.783,9.491c41.221,47.917 57.056,57.656 110.266,113.986c11.873,32.411 7.813,33.507 8.26,513.248c0.109,116.779 -6.173,162.357 18.94,167.022c80.386,14.933 342.678,2.65 522.514,282.261c49.137,76.4 69.478,176.226 72.763,192.347c6.402,31.42 21.694,21.861 43.398,-1.869c35.267,-38.56 134.72,-274.272 449.897,-361.235c87.594,-24.169 217.418,-7.243 351.092,-188.792l17.629,13.443l-5.82,11.458c-136.368,258.326 -311.738,238.531 -443.648,310.079c-22.827,12.381 -2.007,19.035 0.441,24.379c-149.41,65.291 -192.241,160.505 -254.117,249.079c-99.29,142.13 -251.637,137.92 -344.866,49.307c5.252,-3.141 0.511,-12.431 25.335,-15.151c59.606,-6.532 129.755,-22.949 147.68,-34.876c47.04,-31.298 -12.996,-20.011 -67.496,-33.141c0.129,-2.711 14.786,-11.371 -5.22,-29.39c-60.13,-54.158 -204.903,-130.56 -373.546,-148.862c-293.64,-31.867 -463.923,45.794 -485.044,21.545c-4.793,-5.503 -4.037,-6.49 -4.151,-358.589c-0.192,-595.382 3.101,-595.877 5.144,-598.315c9.107,-10.864 113.799,-39.174 122.26,-10.505c5.387,18.253 -2.162,800.196 3.589,816.84c11.411,33.029 141.081,-36.154 426.587,36.479c211.313,53.758 311.629,193.101 330.142,218.816c17.723,24.618 21.609,6.926 21.825,5.145c1.879,-15.482 -88.613,-175.007 -272.841,-257.563c-289.518,-129.738 -431.143,-27.084 -432.168,-96.363c-6.194,-418.638 8.175,-418.208 0.475,-836.413c-0.55,-29.846 -11.014,-33.93 10.682,-54.371l-0.002,0.001Z" style="fill:#2298ad;"/><path d="M3685.39,1966.65c10.662,-48.449 23.967,-152.461 140.369,-235.351c88.328,-62.899 159.632,-71.442 256.21,-68.09c240.522,8.349 359.055,226.784 344.115,371.526c-43.054,417.101 -547.593,413.357 -690.073,172.995c-65.771,-110.955 -53.135,-201.528 -50.621,-241.08Zm162.28,10.053c-38.152,336.743 423.507,331.021 415.53,35.122c-7.223,-267.922 -378.212,-286.37 -415.53,-35.122Z" style="fill:#17356a;"/><path d="M2993.529,170.294c4.312,-26.111 8.594,-24.219 11.769,-25.071c43.102,-11.575 182.004,-55.019 356.88,27.936c132.897,63.042 172.879,154.122 201.622,189.762c14.434,17.898 6.886,20.482 8.227,21.773c1.537,1.479 1.728,0.956 23.33,12.904c2.775,19.752 13.806,81.424 16.336,113.152c10.43,130.8 -58.338,261.549 -76.991,288.406c-29.841,42.965 -13.406,48.816 23.742,85.824c36.82,36.682 51.069,12.719 90.715,46.307c46.827,39.672 43.902,41.984 88.879,83.515c57.869,53.436 196.691,174.69 226.405,208.542c73.02,83.19 -30.138,262.032 -169.441,124.087c-249.293,-246.862 -250.416,-244.866 -271.687,-266.661c-42.471,-43.517 -16.133,-62.322 -51.903,-97.163c-47.973,-46.727 -53.81,-51.188 -75.957,-35.631c-168.581,118.422 -195.352,51.641 -412.941,137.843c-2.448,-5.343 -23.268,-11.997 -0.441,-24.379c131.91,-71.548 307.28,-51.753 443.648,-310.079l5.82,-11.458l-17.629,-13.443c39.544,-65.421 108.695,-208.599 3.565,-399.282c-69.168,-125.456 -216.927,-160.378 -239.61,-165.739c-53.922,-12.744 -83.979,-16.988 -184.338,8.856l-0,-0.001Z" style="fill:#17376b;"/><path d="M3154.564,2362.399c-12.448,-3.633 -102.369,-29.877 -147.487,-67.237c-6.045,-5.005 -123.429,-91.777 -132.774,-248.742c-23.667,-397.519 458.744,-487.933 651.602,-268.925c189.246,214.906 53.957,499.316 -121.384,563.584c-137.226,50.298 -221.651,25.087 -249.957,21.32Zm90.669,-129.353c22.293,-1.166 184.831,-9.665 207.33,-186.765c33.05,-260.157 -325.918,-355.453 -412.184,-91.383c-20.511,62.788 -8.037,266.425 204.854,278.148Z" style="fill:#17356a;"/><path d="M4608.765,2359.071c-10.074,-0.036 -76.639,6.025 -83.143,-13.874c-3.603,-11.025 -1.341,-654.722 -1.265,-655.11c4.597,-23.597 42.816,-19.31 130.185,-18.671c38.715,0.283 29.806,31.316 29.881,157.04c0.075,125.986 -6.427,126.388 -2.634,136.643c0.591,1.598 7.288,19.705 20.683,5.102c11.051,-12.048 131.245,-143.08 138.404,-150.352c127.607,-129.621 121.699,-147.983 180.409,-148.297c125.02,-0.668 126.067,-0.958 131.507,4.641c13.84,14.243 -0.413,14.042 -14.677,28.199c-7.357,7.302 -55.857,55.438 -89.195,93.979c-112.614,130.19 -156.324,157.045 -155.613,179.109c0.539,16.733 276.739,356.308 278.172,366.317c2.748,19.186 -23.277,15.933 -150.249,15.045c-42.559,-0.298 -49.008,-24.99 -79.146,-61.411c-55.724,-67.339 -147.65,-195.306 -160.391,-197.554c-7.913,-1.396 -15.198,-2.681 -76.588,64.987c-46.03,50.738 -4.021,169.018 -28.57,189.407c-11.635,9.664 -13.57,4.224 -67.77,4.8Z" style="fill:#17366b;"/><path d="M2489.049,1301.036c54.5,13.13 114.536,1.844 67.496,33.141c-17.925,11.926 -88.074,28.343 -147.68,34.876c-24.825,2.721 -20.084,12.011 -25.335,15.151c-18.713,-20.195 -32.823,-47.602 -113.506,-66.628c-258.989,-61.072 -611.428,29.48 -662.898,42.705c-152.176,39.099 -184.038,66.488 -185.128,32.936c-1.578,-48.573 0.087,-48.304 0.657,-607.482c0.389,-382.025 -1.496,-412.268 3.73,-422.312c8.682,-16.686 92.001,-37.51 100.127,-38.41c25.097,-2.78 17.548,14.58 18.1,300.312c1.169,605.631 -4.253,608.972 6.16,617.076c12.274,9.552 154.261,-37.036 296.84,-53.13c436.839,-49.309 583.077,80.101 641.437,111.764l0,0.001Z" style="fill:#18366a;"/><path d="M3267.161,32.084l-21.789,7.776c-78.834,8 -152.701,-21.317 -307.792,72.575c-103.277,62.524 -167.514,175.622 -168.814,182.857c-0.998,5.555 -1.357,4.955 -4.142,9.473c-13.138,21.319 -10.215,22.355 -7.582,47.336c-0.494,2.694 3.252,5.046 2.758,7.739c-0.335,1.825 -3.761,1.365 -4.719,2.954c-1.837,3.048 -1.16,7.27 -3.202,10.185c-1.089,1.555 -4.74,0.197 -5.331,2.001c-0.869,2.65 2.514,5.377 2.012,8.12c-0.731,3.988 -6.109,2.071 -16.743,47.837c-22.196,95.529 -2.728,178.633 0.807,193.722c-3.394,5.229 -10.852,6.889 -14.246,12.118c-5.048,7.777 2.632,9.023 0.823,45.828c-3.788,77.058 0.867,310.422 -0.184,332.348c-1.942,40.497 -87.41,98.478 -114.029,173.144c-2.656,7.451 -24.462,24.575 -21.764,-13.003c9.548,-132.964 1.074,-609.684 4.73,-687.515c9.217,-196.17 134.738,-331.553 191.335,-372.805c213.034,-155.274 390.407,-112.745 487.873,-82.691l-0.001,0.001Z" style="fill:#eb8546;"/><path d="M3579.251,1230.523c162.443,166.857 182.174,168.414 166.448,180.149c-12.395,9.25 -238.348,-91.335 -534.833,-109.435c-332.912,-20.324 -405.476,74.952 -418.345,54.553c-5.34,-8.464 -7.26,-13.739 73.822,-100.992c81.399,-5.394 80.618,-64.022 333.068,-65.495c219.196,-1.279 358.933,48.133 366.35,46.942c4.823,-0.774 8.668,-4.947 13.49,-5.721l0,-0.001Z" style="fill:#8bcae5;"/><path d="M1836.783,9.491c19.18,-6.086 65.922,-20.919 251.451,6.542c316.85,46.897 476.392,256.133 465.88,299.19c-13.885,56.871 -16.961,55.816 -22.112,114.43c-0.808,9.195 0.255,11.491 -8.612,12.412c-39.334,4.088 -26.701,-181.846 -332.044,-276.064c-118.852,-36.673 -121.201,-23.555 -244.297,-42.523c-53.21,-56.331 -69.045,-66.07 -110.266,-113.986l0,-0.001Z" style="fill:#f6bc82;"/><path d="M902.477,1908.642c-0.681,29.369 -8.172,352.659 4.686,367.175c16.16,18.243 370.507,-5.853 385.166,14.634c2.072,2.896 19.204,66.725 -17.572,68.437c-14.125,0.658 -432.752,0.327 -436.107,-0.044c-27.786,-3.071 -22.26,-16.368 -22.544,-209.567c-0.684,-464.532 0.78,-464.558 2.852,-468.163c8.501,-14.793 78.958,-17.442 82.311,8.744c2.412,18.842 0.198,186.921 1.208,218.784Z" style="fill:#18356b;"/><path d="M1686.912,2359.226c-277.522,-0.168 -284.782,2.641 -289.785,-13.978c-1.963,-6.52 -1.043,-654.678 -0.947,-655.188c2.042,-10.88 6.792,-21.291 61.385,-18.469c31.477,1.627 24.285,18.217 24.3,271.431c0.019,327.05 -0.806,330.514 8.324,334.92c26.702,12.886 362.223,-4.853 378.342,10.605c8.891,8.527 9.424,56.123 -0.189,64.843c-7.675,6.963 -22.765,5.937 -181.43,5.836Z" style="fill:#163469;"/><path d="M3245.371,39.86c7.434,2.192 4.974,5.534 12.001,7.606c0.914,0.269 5.729,1.689 11.897,-0.56c4.235,-1.544 6.808,-6.262 11.043,-7.806c9.313,5.791 9.266,4.48 20.119,6.967c9.199,2.108 120.115,55.95 169.252,113.867c83.858,98.841 102.234,134.874 125.674,237.665c-21.602,-11.948 -21.793,-11.426 -23.33,-12.904c-1.342,-1.291 6.206,-3.875 -8.227,-21.773c-28.743,-35.64 -68.724,-126.72 -201.622,-189.762c-174.875,-82.955 -313.777,-39.511 -356.88,-27.936c-3.175,0.853 -7.457,-1.04 -11.769,25.071c-149.903,31.591 -220.969,171.2 -229.502,180.048c-1.667,1.728 -5.318,0.031 -6.985,1.759c-2.633,-24.981 -5.556,-26.017 7.582,-47.336c2.784,-4.518 3.143,-3.918 4.142,-9.473c1.3,-7.235 65.537,-120.333 168.814,-182.857c155.091,-93.892 228.958,-64.574 307.792,-72.575l-0.001,-0.001Z" style="fill:#49b6b1;"/><path d="M3579.251,1230.523c-4.823,0.774 -8.668,4.947 -13.49,5.721c-7.417,1.191 -147.154,-48.221 -366.35,-46.942c-252.45,1.473 -251.669,60.101 -333.068,65.495c89.449,-129.709 270.234,-145.061 333.654,-156.589c163.233,-29.67 205.437,-100.768 223.606,-57.923c52.897,124.744 88.561,98.303 155.648,190.237l-0,0.001Z" style="fill:#f3ad78;"/><path d="M449.399,2182.021c-274.967,0.463 -281.031,-3.329 -292.567,16.094c-18.196,30.635 -57.281,154.753 -84.98,160.392c-85.057,17.317 -71.935,-20.472 -69.975,-26.117c13.654,-39.32 150.813,-325.334 164.296,-353.449c139.498,-290.892 132.668,-305.967 168.764,-307.571c44.291,-1.967 67.659,-5.722 86.227,33.713c143.133,303.987 141.841,303.93 287.695,606.409c10.635,22.055 26.498,21.176 12.844,42.077c-1.638,2.508 -74.857,26.675 -98.226,-21.99c-24.444,-50.902 -21.635,-51.45 -46.072,-103.012c-32.655,-68.906 -52.008,-46.554 -128.005,-46.546Zm-57.286,-71.666c82.573,0.066 114.257,3.713 120.858,-8.735c6.515,-12.284 -84.041,-190.963 -92.242,-207.144c-36.146,-71.32 -49.55,-121.247 -62.522,-126.933c-16.028,-7.025 -4.882,11.596 -95.639,196.729c-65.329,133.265 -63.412,140.929 -51.971,145.632c2.674,1.1 2.749,0.434 181.516,0.45Z" style="fill:#183568;"/><path d="M3623.28,774.24c9.354,-24.351 85.944,-172.646 40.845,-388.452c-2.365,-11.319 -32.29,-69.867 14.879,-52.803c61.823,22.364 75.254,16.181 75.752,51.535c1.824,129.322 -2.613,344.328 2.474,526.944c0.629,22.591 -11.598,24.864 -27.089,7.871c-35.816,-39.289 -51.63,-50.335 -96.686,-73.889c0.904,-18.585 2.752,-17.952 1.793,-36.857c-1.615,-31.823 -9.591,-29.419 -11.968,-34.349Z" style="fill:#89c7e3;"/><path d="M3009.349,614.994c3.797,-20.012 22.406,-29.836 -18.587,-67.329c-27.646,-25.286 -27.832,-24.985 -30.177,-27.238c-38.705,-37.186 48.656,-31.786 66.646,-34.732c43.354,-7.102 48.42,-77.859 59.731,-87.517c21.456,-18.321 36.503,43.529 41.623,56.18c22.007,54.379 106.657,24.294 113.368,46.139c1.254,4.083 2.649,8.622 -34.294,40.924c-59.056,51.637 -22.146,64.586 -18.394,118.397c2.116,30.34 -40.846,-0.119 -67.871,-15.594c-53.715,-30.759 -83.989,39.153 -118.35,28.975c-5.243,-1.553 -7.224,-4.101 6.305,-58.205Z" style="fill:#193668;"/><path d="M2546.296,2359.048c-354.181,0.263 -356.237,-0.077 -362.179,-7.414c-9.776,-12.072 -6.833,-661.608 -1.642,-670.444c6.757,-11.499 10.638,-9.629 260.683,-9.876c31.798,-0.031 343.918,-32.398 338.922,191.343c-1.678,75.123 -51.031,113.27 -59.499,119.814c-16.309,12.605 -8.92,18.673 -8.919,18.724c0.75,24.855 40.121,4.085 82.791,91.682c21.931,45.022 56.198,225.251 -159.252,258.466c-55.101,8.495 -54.694,6.506 -90.905,7.706Zm75.338,-484.769c-4.607,-29.883 -5.104,-43.39 -42.88,-64.973c-36.751,-20.996 -223.411,-14.811 -230.928,-8.293c-14.556,12.621 -7.898,133.975 -4.14,139.579c6.326,9.434 49.291,8.755 53.637,8.686c171.426,-2.711 212.063,8.244 224.311,-74.999Zm-144.104,359.133c11.133,-0.031 121.691,7.42 156,-30.512c1.348,-1.49 72.38,-127.025 -98.729,-132.963c-13.738,-0.477 -127.784,-4.435 -171.83,-0.555c-23.925,2.108 -24.45,11.515 -23.282,137.198c0.332,35.661 38.871,26.734 137.841,26.832Z" style="fill:#17356a;"/><path d="M1480.69,2730.88c-2.647,-0.21 -27.521,-2.188 -31.608,-10.111c-4.152,-8.049 -4.04,-8.526 -3.094,-113.166c0.208,-22.974 4.545,-27.869 46.129,-28.796c201.293,-4.486 210.154,0.787 209.24,17.56c-1.332,24.463 -116.226,11.372 -197.304,14.569c-2.127,0.084 -20.821,0.821 -15.782,21.419c4.356,17.807 182.629,1.176 196.906,11.581c2.751,2.005 22.76,26.978 -32.642,27.297c-110.385,0.637 -167.434,-6.95 -165.604,17.403c2.285,30.419 208.383,0.338 214.506,20.474c12.786,42.043 -104.438,7.699 -108.613,35.435c-6.462,42.929 147.682,0.054 151.466,34.927c3.089,28.462 -79.727,18.761 -91.875,18.43c-230.534,-6.275 -252,12.887 -249.632,-18.17c1.727,-22.644 75.962,-14.832 112.232,-15.074c58.533,-0.39 35.567,-26.985 32.832,-29.192c-9.765,-7.881 -11.013,-3.409 -67.158,-4.586l0.001,0Z" style="fill:#1e3662;"/><path d="M2275.675,2664.917c1.161,-49.249 -8.536,-55.208 9.435,-64.477c4.935,-2.545 39.963,-2.629 43.445,-2.637c185.442,-0.442 199.663,-1.958 203.164,10.864c7.896,28.917 -14.903,15.687 -191.731,21.382c-19.553,0.63 -23.357,11.353 -23.931,23.313c-2.525,52.579 -2.878,86.645 24.277,87.699c87.005,3.378 194.738,-10.4 196.552,15.285c2.027,28.692 -84.499,17.946 -94.425,19.66c-25.885,4.47 -18.628,65.737 -17.933,71.602c4.749,40.096 148.304,-4.564 148.34,35.058c0.014,15.173 -6.911,19.624 -164.1,17.165c-137.796,-2.156 -173.332,6.128 -173.754,-17.165c-0.494,-27.303 95.692,-16.147 128.752,-17.831c6.097,-0.311 34.091,-1.736 20.444,-73.525c-4.813,-25.318 -75.638,-13.921 -91.219,-17.797c-25.331,-6.303 -17.262,-68.169 -17.317,-108.595l0.001,-0.001Z" style="fill:#1f3865;"/><path d="M3376.234,2848.243c-0.171,41.919 11.039,91.536 -27.842,92.62c-203.094,5.662 -209.702,3.127 -213.899,-13.497c-1.666,-6.599 -1.504,-110.46 -0.554,-112.82c8.654,-21.494 51.188,-17.403 145.706,-17c8.102,0.035 89.913,-1.871 95.252,15.011c0.861,2.724 0.099,2.635 1.337,35.686Zm-203.803,22.929c2.675,49.676 23.227,36.709 72.801,36.772c38.296,0.048 90.577,10.365 92.085,-25.308c0.685,-16.21 6.179,-49.015 -22.745,-50.258c-10.223,-0.44 -105.903,-4.551 -127.902,0.889c-17.96,4.442 -14.001,28.757 -14.239,37.905Z" style="fill:#1c3563;"/><path d="M3243.712,250.112c171.08,91.15 175.543,265.662 148.508,280.056c-56.935,30.315 -19.902,-81.197 -112.52,-179.933c-73.879,-78.759 -187.199,-69.833 -196.591,-90.619c-2.966,-6.565 -11.504,-40.64 35.997,-41.918c40.504,-1.09 115.037,28.602 124.606,32.414Z" style="fill:#8dcae3;"/><path d="M1606.323,2947.149c-27.954,0.493 -74.109,6.991 -126.468,-17.032c-54.073,-24.81 -59.318,-103.299 69.313,-108.206c189.518,-7.23 160.767,80.021 124.942,104.314c-24.933,16.907 -26.774,11.46 -67.787,20.924Zm12.862,-36.064c2.915,-0.855 30.382,-8.912 34.286,-16.331c30.391,-57.749 -149.409,-47.952 -162.205,-24.238c-30.351,56.249 117.235,41.627 127.919,40.569Z" style="fill:#1d3561;"/><path d="M2050.094,2805.315l9.528,20.319c7.782,109.722 -8.277,113.035 -17.383,114.913c-6.11,1.261 -180.174,1.385 -194.982,-0.119c-21.533,-2.186 -24.096,-25.078 -21.328,-114.977c0.832,-27.008 28.367,-18.133 28.617,-18.019c15.908,7.255 1.281,31.922 38.455,32.207c118.991,0.914 119.086,-2.404 122.556,-6.448c8.125,-9.47 -2.928,-25.816 34.537,-27.876Zm-122.563,103.673c23.036,-0.07 89.67,6.05 92.526,-14.764c4.047,-29.496 -53.313,-23.607 -126.892,-22.768c-43.249,0.493 -22.253,32.648 -21.927,32.935c10.397,9.154 11.842,3.97 56.293,4.597Z" style="fill:#1a3361;"/><path d="M3748.832,2790.438c-20.329,-1.281 -28.13,8.63 -32.878,-11.175c-0.892,-3.72 -0.561,-66.297 -1.023,-68.508c-4.045,-19.354 -30.602,-15.773 -34.738,-12.195c-10.565,9.14 -5.597,11.388 -7.472,69.762c-0.615,19.157 -11.703,19.665 -15.778,19.819c-18.612,0.703 -22.145,-1.773 -21.166,-20.246c3.983,-75.175 -21.744,-208.298 22.93,-197.776c22.625,5.329 10.838,15.027 13.082,71.572c0.639,16.118 16.068,23.128 30.437,18.816c19.155,-5.748 10.117,-13.515 13.63,-75.701c1.099,-19.453 25.561,-22.459 34.82,-12.731c10.805,11.352 6.364,13.315 5.54,195.826c-0.081,17.885 -6.182,18.869 -7.384,22.537Z" style="fill:#1c3462;"/><path d="M1893.66,2783.796c-7.726,-0.352 -83.734,3.49 -100.03,-51.184c-4.717,-15.828 -3.328,-69.155 66.013,-75.915c139.996,-13.648 137.415,104.686 45.53,125.238c-3.794,0.849 -7.72,1.014 -11.513,1.861Zm-24.058,-33.753c100.184,-1.52 53.011,-60.554 24.122,-65.18c-51.068,-8.177 -103.142,42.781 -24.122,65.18Z" style="fill:#1d3563;"/><path d="M2832.741,2730.22c-2.837,-0.274 -31.617,-3.054 -34.771,-7.771c-21.041,-31.466 64.416,-26.759 67.066,-27.891c16.639,-7.107 9.552,-91.663 10.817,-110.274c0.175,-2.58 1.784,-26.254 27.997,-16.148c14.605,5.631 11.797,48.171 11.531,119.694c-0.876,235.494 6.616,268.819 -27.19,257.071c-22.562,-7.841 -10.868,-17.606 -13.027,-188.245c-0.385,-30.431 -12.597,-23.56 -42.423,-26.436Z" style="fill:#1b3669;"/><path d="M2718.627,2765.085c-2.919,2.076 -6.16,-7.823 -9.079,-5.747c-1.713,1.219 -11.041,40.162 -47.689,78.377c-3.038,3.168 -44.801,46.716 -54.15,8.821c-9.126,-36.991 82.407,-30.867 87.035,-204.557c1.694,-63.581 28.023,-43.806 31.284,-41.252c25.407,19.894 -27.701,105.729 83.149,213.822c28.882,28.164 1.226,55.289 -29.352,28.583c-35.144,-30.694 -49.006,-67.528 -51.554,-74.3c-3.215,-1.249 -6.43,-2.498 -9.645,-3.747l0.001,-0Z" style="fill:#1e3868;"/><path d="M3163.341,2754.008c-5.736,3.135 -64.164,35.065 -77.917,24.614c-24.882,-18.907 -8.024,-26.667 20.93,-37.367c10.136,-3.746 73.545,-27.179 101.658,-88.943c14.24,-31.284 -17.148,-29.443 -20.206,-29.436c-13.359,0.031 -111.065,10.369 -97.636,-24.536c6.356,-16.521 155.712,-13.537 165.549,-1.524c9.569,11.686 -12.678,102.199 -71.379,143.381c-1.646,1.155 -1.555,1.023 -20.999,13.811Z" style="fill:#203866;"/><path d="M3726.583,2816.249c44.919,0.115 29.767,21.389 29.634,66.33c-0.014,4.69 -0.156,52.589 -5.723,58.34c-9.015,9.315 -34.243,6.4 -35.373,-12.49c-0.603,-10.07 10.033,-81.069 -22.776,-82.347c-48.565,-1.893 -193.032,6.871 -197.723,-7.721c-7.675,-23.873 22.779,-24.438 25.614,-24.491c16.506,-0.306 150.435,-2.789 206.348,2.379l-0.001,0Z" style="fill:#162d59;"/><path d="M3502.096,2666.372c12.204,-60.379 -1.095,-68.677 19.205,-77.45c50.522,-21.833 -13.17,68.349 80.186,143.435c21.909,17.621 1.824,35.571 -0.893,36.199c-39.727,9.179 -59.695,-86.566 -87.108,-43.249c-51.544,81.449 -76.431,36.809 -76.502,31.427c-0.372,-28.338 33.397,-10.166 65.112,-90.362Z" style="fill:#1e3768;"/><path d="M3291.083,2695.939c-2.505,-0.244 -30.662,-2.99 -29.249,-11.573c4.791,-29.105 56.459,-21.054 62.176,-23.158c21.899,-8.061 -1.009,-105.594 35.388,-95.312c20.031,5.659 16.932,13.876 16.855,179.259c-0.012,25.576 -0.369,34.604 -25.413,29.835c-22.918,-4.364 -10.369,-60.921 -18.515,-71.991c-7,-9.513 -9.37,-5.114 -41.242,-7.06Z" style="fill:#193365;"/><path d="M2053.754,2779.634c-30.83,11.275 -33.98,-1.542 -33.938,-34.523c0.221,-171.194 1.52,-175.35 12.342,-178.592c37.212,-11.145 26.172,57.241 28.015,76.303c3.147,32.562 50.452,13.627 54.486,32.073c6.042,27.632 -10.105,19.115 -38.447,22.922c-25.554,3.432 -7.482,17.668 -22.459,81.816l0.001,0.001Z" style="fill:#1c3667;"/><path d="M1801.754,2637.453c-27.433,-5.803 -45.015,-11.638 -23.023,-29.607c6.539,-5.343 7.185,-2.618 56.998,-3.162c32.075,-0.351 21.109,-23.316 31.631,-34.335c24.15,-25.288 33.543,12.127 34.272,15.031c7.752,30.879 56.7,16.866 72.234,19.807c18.091,3.425 26.475,33.475 -12.155,32.639c-80.356,-1.738 -79.902,-5.259 -159.957,-0.373Z" style="fill:#1d3563;"/><path d="M3623.28,774.24c2.376,4.93 10.353,2.526 11.968,34.349c0.959,18.904 -0.889,18.272 -1.793,36.857c-9.503,-4.518 -55.335,-6.107 -10.175,-71.205l0,-0.001Z" style="fill:#d8b493;"/><path d="M3267.161,32.084c4.384,2.339 8.767,4.677 13.151,7.016c-4.235,1.544 -6.808,6.262 -11.043,7.806c-6.167,2.249 -10.983,0.829 -11.897,0.56c-7.027,-2.072 -4.567,-5.414 -12.001,-7.606l21.789,-7.776l0.001,0Z" style="fill:#a6a487;"/></svg>