<?xml version="1.0" encoding="UTF-8"?>
<svg xmlns="http://www.w3.org/2000/svg" version="1.1" xmlns:cc="http://creativecommons.org/ns#" xmlns:dc="http://purl.org/dc/elements/1.1/" xmlns:inkscape="http://www.inkscape.org/namespaces/inkscape" xmlns:rdf="http://www.w3.org/1999/02/22-rdf-syntax-ns#" xmlns:sodipodi="http://sodipodi.sourceforge.net/DTD/sodipodi-0.dtd" xmlns:svg="http://www.w3.org/2000/svg" viewBox="0 0 850.4 566.9">
  <!-- Generator: Adobe Illustrator 29.3.1, SVG Export Plug-In . SVG Version: 2.1.0 Build 151)  -->
  <defs>
    <style>
      .st0 {
        fill: #1c8852;
      }

      .st1 {
        fill: #0f408f;
      }

      .st2 {
        fill: #fff;
      }
    </style>
  </defs>
  <g id="svg8" inkscape:version="1.0.1 (3bc2e813f5, 2020-09-07)">
    <path id="path1386" class="st2" d="M850.4,566.9H0V0h850.4v566.9Z"/>
    <path d="M471.9,445h-40.7v-7.4h30.4v-36.8h-19.2v11.5h-40.5v-11.5h-23.3v3.9c.2,1.4,1.4,3.5,4.3,3.6v22.9c0,.2.8,7.1,10.2,7.1h17.6v7.4c-.2,0-.4.1-.5.2h-38.1v6.9h25c-6.3,5.2-10.3,12.3-10.3,20.1,0,15.2,15.5,27.5,34.6,27.5s34.2-12.4,34.2-27.5-3.9-14.9-10.2-20.1h26.6v-7.6ZM405.8,430.3h0s-1.6.2-2.8-.8c-1-.9-1.5-2.4-1.5-4.4,0,0,.1-4.3.1-6.3h40.8v10.7c0,0,0,.2,0,.3s0,.2,0,.3c0,0-.3.3-1.1.3h-35.5ZM421.3,491.3c-10.7,0-17.9-9.6-17.9-18.6s6.8-20.1,17.9-20.1,18.3,11.7,18.3,20.1-7.4,18.6-18.3,18.6ZM557.2,448.2c2.3-1.9,4.4-5.4,4.4-12.3v-27.8s.5-1.9,2-1.9h1.3l-.6-3.9h-82.6c-.2.2-1.6.8-1.9,2.3-.2,1.2.3,2.4,1.6,3.7l.3.3h60.7s.9-.3,1.5.2c.6.4.7,1.4.7,2.2v28.1c0,.3-.4,9.2-7.9,9.2h-60.1v6h38.4v45h17.4v-45.6h40.6v-5.4h-15.6ZM333.9,484c0-2,.1-27.8.1-29.8h33.5v-7h-61s-1.3.3-2.3-.5c-1.2-.9-1.8-3-1.8-6v-31h63.5v-6.3h-84.8l-.6,1.6v.2c0,1.7.5,3,1.5,3.9.8.7,1.6.8,2.3.9v37.4c-.2.7-.3,1.9.4,3,1.2,1.8,4,2.7,8.3,2.7h22.3c0,2-.3,29-.3,30.9h-37.3v6.4h95.9v-6.7h-39.7Z"/>
    <path id="path38" class="st0" d="M211.6,383.2h422.2s-77.3-50.2-208.1-50.8c0,0-116.6-6.5-214.2,50.8"/>
    <path id="path34" class="st1" d="M368.1,192.1l8.1,13.9,33.9-57.6s5.1-9.5,15.6-9.5c0,0,9.5,0,15.2,8.8l25.1,53.2-54.6,98.9h12.5l57.3-103.7s3.7-8.8,11.9-8.1c0,0,8.8,0,11.2,8.5l69.1,146.1c40.3-29.2,65.4-69.8,65.4-115.2,0-88.5-95.6-160.6-213.4-160.6s-213.1,72.2-213.1,160.6,24.4,85.7,64,114.5c0,0,63.4-139.6,69.8-149.1,0,0,3.7-6.1,10.5-6.1,0,0,7.1-.7,11.5,5.4"/>
  </g>
</svg>