<?xml version="1.0" encoding="UTF-8" standalone="no"?><!DOCTYPE svg PUBLIC "-//W3C//DTD SVG 1.1//EN" "http://www.w3.org/Graphics/SVG/1.1/DTD/svg11.dtd"><svg width="100%" height="100%" viewBox="0 0 1781 1807" version="1.1" xmlns="http://www.w3.org/2000/svg" xmlns:xlink="http://www.w3.org/1999/xlink" xml:space="preserve" xmlns:serif="http://www.serif.com/" style="fill-rule:evenodd;clip-rule:evenodd;stroke-linejoin:round;stroke-miterlimit:2;"><g id="svg8"><path d="M1085,1575.833l-169.583,0l0,-30.833l126.667,0l0,-153.333l-80,0l0,47.917l-168.75,0l0,-47.917l-97.083,0l0,16.25c0.833,5.833 5.833,14.583 17.917,15l0,95.417c0,0.833 3.333,29.583 42.5,29.583l73.333,0l0,30.833c-0.833,0 -1.667,0.417 -2.083,0.833l-158.75,0l0,28.75l104.167,0c-26.25,21.667 -42.917,51.25 -42.917,83.75c0,63.333 64.583,114.583 144.167,114.583c79.583,0 142.5,-51.667 142.5,-114.583c0,-62.917 -16.25,-62.083 -42.5,-83.75l110.833,0l0,-31.667l-0.417,-0.833Zm-275.417,-61.25c0,0 -6.667,0.833 -11.667,-3.333c-4.167,-3.75 -6.25,-10 -6.25,-18.333c0,0 0.417,-17.917 0.417,-26.25l170,0l0,47.083c0,0 -1.25,1.25 -4.583,1.25l-147.917,0l0,-0.417Zm64.583,254.167c-44.583,0 -74.583,-40 -74.583,-77.5c0,-37.5 28.333,-83.75 74.583,-83.75c46.25,0 76.25,48.75 76.25,83.75c0,35 -30.833,77.5 -76.25,77.5Zm566.25,-179.583c9.583,-7.917 18.333,-22.5 18.333,-51.25l0,-115.833c0,0 2.083,-7.917 8.333,-7.917l5.417,0l-2.5,-16.25l-344.167,0c-0.833,0.833 -6.667,3.333 -7.917,9.583c-0.833,5 1.25,10 6.667,15.417l1.25,1.25l252.917,0c0,0 3.75,-1.25 6.25,0.833c2.5,1.667 2.917,5.833 2.917,9.167l0,117.083c0,1.25 -1.667,38.333 -32.917,38.333l-250.417,0l0,25l160,0l0,187.5l72.5,0l0,-190l169.167,0l0,-22.5l-65,0l-0.833,-0.417Zm-930.417,149.167c0,-8.333 0.417,-115.833 0.417,-124.167l139.583,0l0,-29.167l-254.167,0c0,0 -5.417,1.25 -9.583,-2.083c-5,-3.75 -7.5,-12.5 -7.5,-25l0,-129.167l264.583,0l0,-26.25l-353.333,0l-2.5,6.667l0,0.833c0,7.083 2.083,12.5 6.25,16.25c3.333,2.917 6.667,3.333 9.583,3.75l0,155.833c-0.833,2.917 -1.25,7.917 1.667,12.5c5,7.5 16.667,11.25 34.583,11.25l92.917,0c0,8.333 -1.25,120.833 -1.25,128.75l-155.417,0l0,26.667l399.583,0l0,-27.917l-165.417,0l0,1.25Z" style="fill-rule:nonzero;"/><path id="path38" d="M0.417,1318.333l1759.167,0c0,0 -322.083,-209.167 -867.083,-211.667c0,0 -485.833,-27.083 -892.5,211.667" style="fill:#1c8852;fill-rule:nonzero;"/><path id="path34" d="M652.5,522.083l33.75,57.917l141.25,-240c0,0 21.25,-39.583 65,-39.583c0,0 39.583,0 63.333,36.667l104.583,221.667l-227.5,412.083l52.083,0l238.75,-432.083c0,0 15.417,-36.667 49.583,-33.75c0,0 36.667,0 46.667,35.417l287.917,608.75c167.917,-121.667 272.5,-290.833 272.5,-480c0,-368.75 -398.333,-669.167 -889.167,-669.167c-490.833,0 -887.917,300.833 -887.917,669.167c0,368.333 101.667,357.083 266.667,477.083c0,0 264.167,-581.667 290.833,-621.25c0,0 15.417,-25.417 43.75,-25.417c0,0 29.583,-2.917 47.917,22.5" style="fill:#0f408f;fill-rule:nonzero;"/></g></svg>