<?xml version="1.0" encoding="UTF-8" standalone="no"?><!DOCTYPE svg PUBLIC "-//W3C//DTD SVG 1.1//EN" "http://www.w3.org/Graphics/SVG/1.1/DTD/svg11.dtd"><svg width="100%" height="100%" viewBox="0 0 1589 1795" version="1.1" xmlns="http://www.w3.org/2000/svg" xmlns:xlink="http://www.w3.org/1999/xlink" xml:space="preserve" xmlns:serif="http://www.serif.com/" style="fill-rule:evenodd;clip-rule:evenodd;stroke-linejoin:round;stroke-miterlimit:2;"><g id="svg8"><g id="g31"><g id="g30"><path id="path1" d="M66.344,0l0,763.15l0.032,0c58.182,-7.613 228.667,-45.319 282.74,-67.77l35.073,-128c176.146,34.693 378.512,37.386 411.215,37.386c32.725,0 235.047,-2.693 411.215,-37.386l35.041,128c54.072,22.451 224.568,60.157 282.772,67.77l0.032,0l0,-763.15l-1458.12,0Z" style="fill:#00ac5b;fill-rule:nonzero;"/><path id="path2" d="M128.671,947.765l-62.313,-103.538l1458.096,0l-62.313,103.538l-1333.47,0Z" style="fill:#5a2a00;fill-rule:nonzero;"/></g><path id="path5" d="M92.42,1153.359l0,219.976l116.499,0l0,62.828l-208.918,0l0,64.127l498.375,0l0,-64.127l-203.342,0l0,-62.828l111.905,0l0,-64.127l-228.593,0l0,-91.754l229.227,0l0,-64.095l-315.152,0Zm1088.409,29.053l0,64.127l212.087,0l0,159.841l88.523,0l0,-223.968l-300.609,0Zm-281.346,52.467l0,268.197l85.893,0l0,-99.77l81.932,0l0,-64.127l-81.932,0l0,-104.301l-85.893,0Zm-307.801,2.725l0,64.127l132.784,0c-6.965,52.277 -65.87,118.724 -153.251,135.097l0,64.127c53.078,-7.722 103.094,-28.822 144.665,-60.768l5.671,-5.069c25.479,25.565 68.678,58.303 134.495,70.653l0,-63.778c-39.3,-9.538 -67.067,-26.427 -87.16,-50.63c28.658,-37.548 46.161,-82.983 46.226,-118.368l0.19,-0.222l0,-35.168l-223.619,0Zm498.882,219.437l0,64.095l205.623,0l0,141.909l88.142,0l0,-141.909l204.578,0l0,-64.095l-498.343,0Zm-839.412,82.281c-70.381,0 -127.429,57.049 -127.429,127.429c0,70.381 57.049,127.429 127.429,127.429c70.381,0 127.429,-57.049 127.429,-127.429c0,-70.381 -57.049,-127.429 -127.429,-127.429Zm450.692,11.374l0,64.475l197.639,0l0,158.447l85.893,0l0,-222.922l-283.532,0Zm-450.692,63.715c27.988,0 50.661,23.444 50.661,52.34c0,28.918 -22.673,52.372 -50.661,52.372c-27.988,0 -50.693,-23.454 -50.693,-52.372c0,-28.896 22.705,-52.34 50.693,-52.34Z" style="fill:#907e79;fill-rule:nonzero;"/></g></g></svg>