<?xml version="1.0" encoding="UTF-8" standalone="no"?>
<svg
   version="1.1"
   viewBox="0 0 850.4 566.9"
   id="svg1"
   sodipodi:docname="Flag of Dongjak, Seoul.svg"
   inkscape:version="1.4.2 (f4327f4, 2025-05-13)"
   xmlns:inkscape="http://www.inkscape.org/namespaces/inkscape"
   xmlns:sodipodi="http://sodipodi.sourceforge.net/DTD/sodipodi-0.dtd"
   xmlns="http://www.w3.org/2000/svg"
   xmlns:svg="http://www.w3.org/2000/svg">
  <sodipodi:namedview
     id="namedview1"
     pagecolor="#ffffff"
     bordercolor="#000000"
     borderopacity="0.25"
     inkscape:showpageshadow="2"
     inkscape:pageopacity="0.0"
     inkscape:pagecheckerboard="0"
     inkscape:deskcolor="#d1d1d1"
     showgrid="false"
     inkscape:zoom="0.5"
     inkscape:cx="425"
     inkscape:cy="283"
     inkscape:window-width="1904"
     inkscape:window-height="993"
     inkscape:window-x="436"
     inkscape:window-y="224"
     inkscape:window-maximized="0"
     inkscape:current-layer="svg8" />
  <!-- Generator: Adobe Illustrator 29.3.1, SVG Export Plug-In . SVG Version: 2.1.0 Build 151)  -->
  <defs
     id="defs1">
    <style
       id="style1">
      .st0 {
        fill: #fff;
      }

      .st1 {
        fill: #00a0e4;
      }
    </style>
    <clipPath
       clipPathUnits="userSpaceOnUse"
       id="clipPath6">
      <path
         d="M 0,132.865 H 123.175 V 0 H 0 Z"
         transform="translate(-89.213102,-39.961203)"
         id="path6" />
    </clipPath>
  </defs>
  <g
     id="svg8"
     inkscape:version="1.0.1 (3bc2e813f5, 2020-09-07)">
    <path
       id="path1386"
       class="st0"
       d="M850.4,566.9H0V0h850.4v566.9Z" />
    <g
       id="g31"
       transform="matrix(3.8932172,0,0,3.8932172,105.72809,-76.577525)">
      <g
         id="g30">
        <path
           id="path1"
           style="fill:#00ac5b;fill-opacity:1;fill-rule:nonzero;stroke:none"
           d="M 27.880372,104.98463 V 69.700937 h 0.0015 c 2.69,0.352 10.572266,2.095301 13.072266,3.133301 l 1.621582,5.917969 c 8.144,-1.604 17.500207,-1.728516 19.012207,-1.728516 1.513,0 10.867208,0.124516 19.012208,1.728516 l 1.620117,-5.917969 c 2.5,-1.038 10.382731,-2.781301 13.073731,-3.133301 h 0.0015 v 35.283693 z"
           transform="matrix(1.3333333,0,0,-1.3333333,0,177.15333)" />
        <path
           id="path2"
           d="M 0,0 -2.881,4.787 H 64.533 L 61.652,0 Z"
           style="fill:#5a2a00;fill-opacity:1;fill-rule:nonzero;stroke:none"
           transform="matrix(1.3333333,0,0,-1.3333333,41.016,95.599467)" />
      </g>
      <path
         id="path5"
         clip-path="url(#clipPath6)"
         style="fill:#907e79;fill-opacity:1;fill-rule:nonzero;stroke:none"
         d="M -60.127164,11.69872 V 1.5283093 h 5.386231 V -1.376476 h -9.65918 v -2.9648438 h 23.041992 v 2.9648438 h -9.401367 v 2.9047853 h 5.173828 v 2.9648438 h -10.568848 v 4.2421876 h 10.598145 V 11.69872 Z M -9.8053854,10.355458 V 7.3906141 H 2.7890626e-4 V 4.7718751e-4 H 4.0930524 V 10.355458 Z M -22.813198,7.9296766 V -4.470226 h 3.971191 v 4.61279303 h 3.788086 V 3.1074109 h -3.788086 V 7.9296766 Z M -37.044156,7.8037 V 4.8388562 h 6.139161 c -0.322,-2.417 -3.04545,-5.48909389 -7.08545,-6.2460939 v -2.9648438 c 2.454,0.357 4.766477,1.3325704 6.688477,2.8095704 l 0.262207,0.234375 c 1.178,-1.182 3.175262,-2.6956017 6.218262,-3.2666017 v 2.9487306 c -1.817,0.441 -3.100785,1.22182034 -4.029785,2.34082034 1.325,1.73599996 2.134207,3.83665636 2.137207,5.47265636 l 0.0088,0.010254 V 7.8037 Z m 23.065431,-10.145508 v -2.963379 h 9.5068358 v -6.561035 h 4.07519544 v 6.561035 H 9.0618026 v 2.963379 z m -38.809572,-3.8041993 c -3.254,0 -5.891601,-2.6376018 -5.891601,-5.8916017 0,-3.254 2.637601,-5.891602 5.891601,-5.891602 3.254,0 5.891602,2.637602 5.891602,5.891602 0,3.2539999 -2.637602,5.8916017 -5.891602,5.8916017 z m 20.837403,-0.525879 v -2.9809571 h 9.137696 v -7.3256836 h 3.971191 v 10.3066407 z m -20.837403,-2.9458008 c 1.294,0 2.342286,-1.0839219 2.342286,-2.4199219 0,-1.337 -1.048286,-2.421387 -2.342286,-2.421387 -1.294,0 -2.34375,1.084387 -2.34375,2.421387 0,1.336 1.04975,2.4199219 2.34375,2.4199219 z"
         transform="matrix(1.3333333,0,0,-1.3333333,118.9508,123.87173)" />
    </g>
  </g>
</svg>
