<?xml version="1.0" encoding="UTF-8" standalone="no"?><!DOCTYPE svg PUBLIC "-//W3C//DTD SVG 1.1//EN" "http://www.w3.org/Graphics/SVG/1.1/DTD/svg11.dtd"><svg width="100%" height="100%" viewBox="0 0 443 427" version="1.1" xmlns="http://www.w3.org/2000/svg" xmlns:xlink="http://www.w3.org/1999/xlink" xml:space="preserve" xmlns:serif="http://www.serif.com/" style="fill-rule:evenodd;clip-rule:evenodd;stroke-linejoin:round;stroke-miterlimit:2;"><g id="svg8"><path id="path304" d="M41.9,349.817c-3.4,0 -6.6,0.5 -9.5,1.6c-3,1.1 -5.5,2.6 -7.7,4.5c-2.2,1.9 -3.9,4.2 -5.1,6.9c-1.3,2.7 -1.9,5.6 -1.9,8.7c0,3.1 0.6,6.1 1.9,8.7c0.9,1.9 2.1,3.6 3.5,5.1l-23.1,0l0,20.2c0,3.5 0.3,6.3 0.9,8.5c0.6,2.2 1.6,3.9 3,5.2c1.4,1.3 3.2,2.1 5.5,2.6c2.3,0.5 5.2,0.7 8.7,0.7l60.6,0l0,-8.7l-60.6,0c-1.7,0 -3.1,-0.1 -4.1,-0.4c-1,-0.3 -1.9,-0.7 -2.5,-1.4c-0.6,-0.6 -1,-1.5 -1.2,-2.6c-0.2,-1.1 -0.3,-2.4 -0.3,-4.1l0,-11.5l73.5,0l0,-8.7l-22.6,0c1.4,-1.5 2.6,-3.2 3.5,-5.1c1.3,-2.6 1.9,-5.5 1.9,-8.7c0,-3.2 -0.6,-6.1 -1.9,-8.8c-1.3,-2.6 -3,-4.9 -5.1,-6.9c-2.2,-1.9 -4.7,-3.4 -7.7,-4.5c-2.9,-1.1 -6.1,-1.6 -9.4,-1.6l-0.3,0.3Zm197,0.3l0,8.8l8.4,0c2.6,0 4.3,0.5 5.2,1.5c0.9,1 1.4,2.8 1.4,5.3l0,6.6l-14.7,0l0,8.8l14.7,0l0,12.8c-1,-1.5 -2.1,-2.9 -3.5,-4.1c-2.1,-1.9 -4.5,-3.3 -7.3,-4.4c-2.8,-1.1 -5.8,-1.6 -9,-1.6c-3.2,0 -5.9,0.5 -8.5,1.4l-0.7,0l0,-26.3l10,0l0,-8.6l-55.3,0l0,8.6l9.9,0l0,26.3l-9.9,0l0,8.5l34.9,0c-0.5,0.8 -1,1.7 -1.4,2.6c-1.2,2.6 -1.8,5.5 -1.8,8.6c0,3.1 0.6,6.1 1.8,8.7c1.2,2.6 2.8,4.9 4.9,6.7c2.1,1.9 4.5,3.3 7.3,4.3c2.8,1 5.8,1.5 9,1.5c3.2,0 6.1,-0.5 8.9,-1.5c2.8,-1 5.2,-2.5 7.3,-4.3c2.1,-1.8 3.7,-4.1 4.9,-6.7c1.2,-2.6 1.8,-5.5 1.8,-8.7c0,-3.2 -0.6,-6 -1.8,-8.5c-0.4,-0.8 -0.8,-1.6 -1.3,-2.4l9.6,0l0,-24.3c0,-3.5 -0.2,-6.4 -0.5,-8.7c-0.3,-2.3 -0.9,-4.2 -1.8,-5.7c-2.8,-4.6 -9.8,-5.1 -14.7,-5.1l-7.9,0l0.1,-0.1Zm121.8,0.5l0,8.8l66,0c2.6,0 4.3,0.5 5.2,1.5c0.9,1 1.4,2.8 1.4,5.3l0,18.3l-73,0l0,8.7l36.7,0l0,28.5l9.9,0l0,-28.5l36.1,0l0,-23.7c0,-3.5 -0.2,-5.6 -0.5,-8c-0.4,-3 -1.3,-6.2 -3.9,-7.9c-3.5,-2.4 -8.4,-2.9 -12.6,-2.9l-65.5,0l0.2,-0.1Zm-318.8,7.7c2.1,0 4,0.4 5.8,1.1c1.7,0.7 3.2,1.7 4.5,2.8c1.3,1.2 2.2,2.6 2.9,4.2c0.7,1.6 1,3.3 1,5.1c0,3.8 -1.3,6.9 -3.9,9.2c-2.6,2.3 -6,3.5 -10.3,3.5c-4.3,0 -8.1,-1.2 -10.5,-3.5c-2.5,-2.3 -3.7,-5.4 -3.7,-9.2c0,-3.8 0.3,-3.4 1,-5c0.6,-1.6 1.6,-3 2.8,-4.2c1.2,-1.2 2.7,-2.2 4.5,-2.9c1.8,-0.7 3.8,-1.1 6,-1.1l-0.1,-0Zm157.4,0.5l15.9,0l0,26.3l-15.9,0l0,-26.3Zm34.9,33.4c1.8,0 3.5,0.3 5.1,0.9c1.6,0.6 3,1.5 4.2,2.6c1.2,1.1 2.1,2.5 2.8,4.1c0.7,1.6 1,3.3 1,5.2c0,1.9 -0.3,3.9 -1,5.4c-0.7,1.6 -1.6,2.9 -2.8,4c-1.2,1.1 -2.6,1.9 -4.2,2.4c-1.6,0.5 -3.3,0.8 -5.1,0.8c-3.7,0 -6.8,-1.1 -9.3,-3.3c-2.5,-2.2 -3.8,-5.3 -3.8,-9.5c0,-4.2 1.2,-7.1 3.7,-9.4c2.5,-2.3 5.6,-3.5 9.4,-3.5l0,0.3Z" style="fill-rule:nonzero;"/><path id="path294" d="M372.1,306.617c0,5.2 -59.3,9.4 -132.5,9.4c-73.2,0 -132.5,-4.2 -132.5,-9.4c0,-5.2 59.3,-9.4 132.5,-9.4c73.2,0 132.5,4.2 132.5,9.4" style="fill:#176613;fill-rule:nonzero;"/><path d="M372.3,38.817c33.6,52.4 -6.7,138.2 -89.9,191.6c-83.3,53.4 -178,54.1 -211.6,1.7c-33.6,-52.5 6.7,-138.2 89.9,-191.6c83.3,-53.4 178,-54.1 211.6,-1.6m-39,14c-33.7,-8.1 -45,35 -45,35c-91.2,-56.9 -156.8,10.6 -156.8,10.6c62.5,17.5 98.1,51.9 98.1,51.9c-19.4,-31.9 -78.7,-56.2 -78.7,-56.2c8.8,-6.3 20.6,-11.3 20.6,-11.3c61.9,-27.5 121.8,18.8 121.8,18.8c4.4,-16.3 13.8,-30.6 13.8,-30.6c15.6,-21.9 36.9,-1.9 36.9,-1.9c-6.9,10.6 -11.9,29.4 -11.9,29.4c-16.2,56.2 -51.2,85.6 -51.2,85.6c-58.7,52.5 -140,38.1 -140,38.1l-8.8,18.7c18.8,-6.2 47.5,-9.4 47.5,-9.4c60,-8.1 90,-29.4 90,-29.4c56.2,-35 74.3,-109.3 74.3,-109.3c3.8,-13.1 11.9,-26.9 11.9,-26.9c-10.6,-10.6 -22.5,-13.1 -22.5,-13.1Z" style="fill:#081059;fill-rule:nonzero;"/></g></svg>