<?xml version="1.0" encoding="UTF-8"?>
<svg xmlns="http://www.w3.org/2000/svg" version="1.1" xmlns:cc="http://creativecommons.org/ns#" xmlns:dc="http://purl.org/dc/elements/1.1/" xmlns:inkscape="http://www.inkscape.org/namespaces/inkscape" xmlns:rdf="http://www.w3.org/1999/02/22-rdf-syntax-ns#" xmlns:sodipodi="http://sodipodi.sourceforge.net/DTD/sodipodi-0.dtd" xmlns:svg="http://www.w3.org/2000/svg" xmlns:xlink="http://www.w3.org/1999/xlink" viewBox="0 0 850.4 566.9">
  <!-- Generator: Adobe Illustrator 29.3.1, SVG Export Plug-In . SVG Version: 2.1.0 Build 151)  -->
  <defs>
    <style>
      .st0 {
        fill: #fff;
      }

      .st1 {
        fill: #176613;
      }

      .st2 {
        fill: #081059;
      }
    </style>
  </defs>
  <g id="svg8" inkscape:version="1.0.1 (3bc2e813f5, 2020-09-07)">
    <path id="path1386" class="st0" d="M850.4,566.9H0V0h850.4v566.9Z"/>
    <path id="path304" d="M245.6,420.2c-3.4,0-6.6.5-9.5,1.6-3,1.1-5.5,2.6-7.7,4.5-2.2,1.9-3.9,4.2-5.1,6.9-1.3,2.7-1.9,5.6-1.9,8.7s.6,6.1,1.9,8.7c.9,1.9,2.1,3.6,3.5,5.1h-23.1v8.5h0v11.7c0,3.5.3,6.3.9,8.5.6,2.2,1.6,3.9,3,5.2,1.4,1.3,3.2,2.1,5.5,2.6,2.3.5,5.2.7,8.7.7h60.6v-8.7h-60.6c-1.7,0-3.1-.1-4.1-.4s-1.9-.7-2.5-1.4c-.6-.6-1-1.5-1.2-2.6-.2-1.1-.3-2.4-.3-4.1v-11.5h73.5v-8.7h-22.6c1.4-1.5,2.6-3.2,3.5-5.1,1.3-2.6,1.9-5.5,1.9-8.7s-.6-6.1-1.9-8.8c-1.3-2.6-3-4.9-5.1-6.9-2.2-1.9-4.7-3.4-7.7-4.5-2.9-1.1-6.1-1.6-9.4-1.6ZM442.6,420.5v8.8h8.4c2.6,0,4.3.5,5.2,1.5.9,1,1.4,2.8,1.4,5.3v6.6h-14.7v8.8h14.7v12.8c-1-1.5-2.1-2.9-3.5-4.1-2.1-1.9-4.5-3.3-7.3-4.4-2.8-1.1-5.8-1.6-9-1.6s-5.9.5-8.5,1.4h-.7v-26.3h10v-8.6h-55.3v8.6h9.9v26.3h-9.9v8.5h34.9c-.5.8-1,1.7-1.4,2.6-1.2,2.6-1.8,5.5-1.8,8.6s.6,6.1,1.8,8.7c1.2,2.6,2.8,4.9,4.9,6.7,2.1,1.9,4.5,3.3,7.3,4.3s5.8,1.5,9,1.5,6.1-.5,8.9-1.5c2.8-1,5.2-2.5,7.3-4.3s3.7-4.1,4.9-6.7c1.2-2.6,1.8-5.5,1.8-8.7s-.6-6-1.8-8.5c-.4-.8-.8-1.6-1.3-2.4h9.6v-24.3c0-3.5-.2-6.4-.5-8.7-.3-2.3-.9-4.2-1.8-5.7-2.8-4.6-9.8-5.1-14.7-5.1h-7.9ZM564.4,421v8.8h66c2.6,0,4.3.5,5.2,1.5.9,1,1.4,2.8,1.4,5.3v18.3h-73v8.7h36.7v28.5h9.9v-28.5h36.1v-23.7c0-3.5-.2-5.6-.5-8-.4-3-1.3-6.2-3.9-7.9-3.5-2.4-8.4-2.9-12.6-2.9h-65.5ZM245.6,428.7c2.1,0,4,.4,5.8,1.1,1.7.7,3.2,1.7,4.5,2.8,1.3,1.2,2.2,2.6,2.9,4.2.7,1.6,1,3.3,1,5.1,0,3.8-1.3,6.9-3.9,9.2-2.6,2.3-6,3.5-10.3,3.5s-8.1-1.2-10.5-3.5c-2.5-2.3-3.7-5.4-3.7-9.2s.3-3.4,1-5c.6-1.6,1.6-3,2.8-4.2,1.2-1.2,2.7-2.2,4.5-2.9,1.8-.7,3.8-1.1,6-1.1ZM403,429.2h15.9v26.3h-15.9v-26.3ZM437.9,462.6c1.8,0,3.5.3,5.1.9,1.6.6,3,1.5,4.2,2.6,1.2,1.1,2.1,2.5,2.8,4.1.7,1.6,1,3.3,1,5.2s-.3,3.9-1,5.4c-.7,1.6-1.6,2.9-2.8,4-1.2,1.1-2.6,1.9-4.2,2.4-1.6.5-3.3.8-5.1.8-3.7,0-6.8-1.1-9.3-3.3-2.5-2.2-3.8-5.3-3.8-9.5s1.2-7.1,3.7-9.4c2.5-2.3,5.6-3.5,9.4-3.5Z"/>
    <path id="path294" class="st1" d="M575.8,377c0,5.2-59.3,9.4-132.5,9.4s-132.5-4.2-132.5-9.4,59.3-9.4,132.5-9.4,132.5,4.2,132.5,9.4"/>
    <path class="st2" d="M576,109.2c33.6,52.4-6.7,138.2-89.9,191.6-83.3,53.4-178,54.1-211.6,1.7-33.6-52.5,6.7-138.2,89.9-191.6,83.3-53.4,178-54.1,211.6-1.6M537,123.3c-33.7-8.1-45,35-45,35-91.2-56.9-156.8,10.6-156.8,10.6,62.5,17.5,98.1,51.9,98.1,51.9-19.4-31.9-78.7-56.2-78.7-56.2,8.8-6.3,20.6-11.3,20.6-11.3,61.9-27.5,121.8,18.8,121.8,18.8,4.4-16.3,13.8-30.6,13.8-30.6,15.6-21.9,36.9-1.9,36.9-1.9-6.9,10.6-11.9,29.4-11.9,29.4-16.2,56.2-51.2,85.6-51.2,85.6-58.7,52.5-140,38.1-140,38.1l-8.8,18.7c18.8-6.2,47.5-9.4,47.5-9.4,60-8.1,90-29.4,90-29.4,56.2-35,74.3-109.3,74.3-109.3,3.8-13.1,11.9-26.9,11.9-26.9-10.6-10.6-22.5-13.1-22.5-13.1Z"/>
  </g>
</svg>