<?xml version="1.0" encoding="UTF-8" standalone="no"?><!DOCTYPE svg PUBLIC "-//W3C//DTD SVG 1.1//EN" "http://www.w3.org/Graphics/SVG/1.1/DTD/svg11.dtd"><svg width="100%" height="100%" viewBox="0 0 3454 3412" version="1.1" xmlns="http://www.w3.org/2000/svg" xmlns:xlink="http://www.w3.org/1999/xlink" xml:space="preserve" xmlns:serif="http://www.serif.com/" style="fill-rule:evenodd;clip-rule:evenodd;stroke-linejoin:round;stroke-miterlimit:2;"><g id="Background"><path d="M1623.795,0l202.676,-0c1.586,0.517 1.988,2.984 3.574,3.502c9.82,3.203 10.535,-3.685 128.349,14.023c427.384,64.235 545.753,204.795 579.951,248.282c130.266,165.657 3.747,312.06 57.465,278.459c44.708,-27.965 336.789,-261.572 685.477,427.414c192.352,380.075 211.186,840.262 118.068,1029.146c-108.973,221.045 -284.75,156.286 -283.872,179.708c0.446,11.898 301.398,161.027 -1.466,581.302c-103.853,144.113 -219.317,244.498 -225.809,250.708c-258.062,246.871 -838.064,535.355 -1072.45,317.031c-77.65,-72.329 -77.984,-173.179 -93.14,-128.665c-69.599,204.424 -239.197,200.08 -260.732,207.154c-1.624,0.533 -1.986,3.108 -3.609,3.641l-91.204,-0c-2.414,-0.995 -1.547,-3.754 -20.216,-5.582c-204.461,-20.02 -544.212,-177.86 -752.382,-368.609c-627.804,-575.268 -303.976,-806 -281.678,-827.052c10.414,-9.832 41.336,-29.314 24.06,-30.256c-60.497,-3.298 -256.931,5.208 -319.961,-290.517c-47.585,-223.259 8.474,-607.937 128.831,-857.072c75.462,-156.204 170.379,-347.186 350.134,-479.915c82.498,-60.915 223.938,-101.343 347.308,-13.458c9.467,6.744 26.036,19.233 25.724,9.5c-0.351,-10.935 -77.067,-179.764 80.393,-326.186c68.07,-63.298 158.886,-101.2 173.985,-107.502c256.087,-106.878 472.505,-103.934 496.977,-111.628c1.568,-0.493 1.978,-2.935 3.546,-3.428Zm1461.056,1697.456c7.327,439.466 -174.124,712.72 -273.501,850.064c-80.443,111.176 -205.535,216.797 -225.374,233.547c-31.15,26.301 -549.89,474.839 -1283.172,237.393c-43.058,-13.943 -278.596,-90.213 -488.562,-285.264c-603.962,-561.06 -578.038,-1468.691 -8.547,-1999.182c354.858,-330.556 753.761,-356.417 892.412,-363.453c26.09,-1.324 165.874,0.285 300.773,28.84c807.314,170.891 1011.984,885.828 1017.566,902.453c67.197,200.161 67.546,371.852 68.406,395.6Zm-2676.163,477.821l4.63,-0.097c57.597,149.843 154.992,410.238 477.682,660.303c352.917,273.488 751.25,279.58 820.625,280.641c0.946,2.226 1.892,4.452 2.839,6.677c-19.242,85.276 -50.531,209.393 -212.436,231.952c-158.126,22.033 -307.178,-138.768 -352.392,-176.495c-78.556,-65.547 -201.815,-225.786 -333.895,-300.648c-195.706,-110.924 -540.138,-236.405 -560.148,-433.661c-10.457,-103.078 0.405,-159.587 104.522,-236.938c16.175,-12.017 36.079,-22.58 48.574,-31.734Zm1336.682,940.765c165.399,-2.697 618.579,-32.384 1007.421,-451.853c184.446,-198.974 262.892,-416.139 277.407,-456.32c11.316,-31.326 10.5,-31.802 12.795,-33.528c5.31,-3.992 158.537,78.197 162.619,195.238c5.516,158.181 -54.891,248.227 -385.499,413.201c-226.243,112.896 -231.584,109.506 -407.816,290.84c-225.195,231.715 -365.52,335.432 -544.824,251.017c-93.064,-43.814 -116.529,-169.808 -124.376,-202.047c0.758,-2.183 1.516,-4.366 2.274,-6.548Zm-1403.384,-1384.853c-3.96,231.245 64.078,410.392 61.302,415.031c-2.224,3.717 -27.704,3.838 -63.072,5.505c-190.87,8.996 -264.65,-156.961 -248.615,-275.051c35.057,-258.185 233.895,-471.734 265.814,-672.383c51.123,-321.373 61.865,-361.24 70.154,-392.001c61.191,-227.092 143.037,-255.02 223.529,-283.21c87.808,-30.752 172.894,28.601 185.295,37.252c23.484,16.382 55.395,43.446 58.385,46.259c8.335,7.84 -12.166,12.92 -69.216,63.488c-121.099,107.339 -482.747,441.817 -483.576,1055.11Zm2741.165,417.373c-16.629,-1.85 -21.473,8.944 -29.344,-5.656c-1.144,-2.123 47.041,-145.352 58.662,-320.58c43.15,-650.627 -364.666,-1037.304 -433.439,-1102.512c-108.196,-102.588 -133.889,-99 -117.414,-111.544c44.095,-33.573 136.137,-138.225 291.062,-64.721c201.303,95.508 197.626,453.578 246.286,671.061c62.709,280.279 401.187,624.298 203.814,857.877c-71.117,84.163 -152.449,77.343 -219.627,76.076Zm-1378.374,-1878.469c250.245,6.091 631.355,-161.179 803.547,29.288c36.826,40.734 104.028,119.908 25.981,292.753c-5.76,12.756 -18.729,-12.513 -125.988,-71.713c-137.371,-75.821 -505.818,-260.667 -1017.547,-136.795c-237.513,57.494 -406.921,174.917 -441.63,197.134c-9.969,6.381 -8.777,7.447 -18.879,13.956c-12.899,8.311 -13.421,-2.775 -20.778,-21.515c-37.404,-95.281 -62.892,-192.229 58.91,-301.382c132.608,-118.837 447.135,-36.088 665.331,-8.435c35.583,4.51 35.366,4.327 71.053,6.71Zm6.848,2846.03c7.886,-2.536 15.458,-7.439 33.745,-0.081c-0.758,2.183 -1.516,4.366 -2.274,6.548c-3.134,-1.117 -2.5,-3.02 -14.586,-3.065c-10.655,-0.039 -10.575,-0.872 -11.419,-0.519c-1.42,0.593 -1.208,3.201 -2.628,3.795c-0.946,-2.226 -1.892,-4.452 -2.839,-6.677Zm-1302.937,-940.846c-1.007,-7.835 -0.938,-7.541 -3.648,-15.29c-1.714,-4.899 1.68,-3.099 2.558,-3.548c1.221,-0.624 1.61,-2.933 2.978,-2.839c1.209,0.084 3.875,12.585 2.742,21.579l-4.63,0.097Z" style="fill:#006e38;fill-opacity:1;"/><path d="M2679.254,1727.792c5.241,348.139 -199.673,614.472 -321.406,713.947c-56.121,45.86 -55.937,45.729 -115.264,87.611c-65.033,45.91 -245.432,134.775 -419.327,145.892c-19.412,1.241 -20.034,3.397 -19.164,4.715c4.201,6.371 67.575,16.415 111.778,100.979c66.163,126.579 -16.111,317.181 -210.605,299.844c-202.17,-18.021 -254.78,-299.186 -68.688,-391.781c4.303,-2.141 29.808,-10.853 14.339,-12.21c-123.74,-10.848 -261.672,-34.295 -451.796,-156.622c-86.439,-55.616 -197.965,-164.601 -249.064,-244.078c-22.31,-34.7 -108.43,-141.622 -156.143,-362.642c-23.772,-110.119 -34.146,-340.409 51.967,-540.745c5.598,-13.024 79.387,-218.398 285.218,-384.014c221.443,-178.177 440.882,-197.895 492.891,-205.52c7.237,-1.061 55.354,1.412 17.672,-9.515c-9.81,-2.845 -49.391,-24.856 -77.686,-59.959c-117.64,-145.945 7.416,-382.779 221.966,-330.326c160.131,39.149 218.637,285.468 40.204,384.419c-4.591,2.546 -40.881,14.532 -20.109,14.673c154.11,1.05 525.372,104.615 735.198,452.999c134.55,223.4 136.927,416.887 138.018,492.331Zm-908.636,-293.861c0.118,-8.58 0.217,-8.388 0.233,-16.89c0.047,-25.593 2.787,-39.499 24.703,-25.922c6.594,4.085 1.223,75.963 3.554,83.471c1.312,4.224 18.956,3.96 20.637,3.935c10.596,-0.158 7.903,-7.859 7.991,-78.363c0.016,-13.225 5.623,-9.862 18.98,-9.758c11.548,0.09 6.984,19.898 7.581,80.641c0.1,10.117 22.959,8.711 26.075,6.538c5.44,-3.794 1.662,-69.77 2.861,-80.887c1.063,-9.844 23.076,-6.089 23.843,-5.628c7.64,4.595 0.557,237.746 3.22,245.786c3.216,9.709 186.67,-1.166 190.367,6.089c2.177,4.272 0.945,60.558 0.553,61.749c-2.234,6.789 -46.854,2.431 -54.96,3.799c-8.592,1.449 -3.325,53.395 -4.686,69.847c-0.452,5.46 -17.585,5.482 -19.181,5.484c-106.487,0.132 -112.472,-2.35 -112.586,8.126c-0.116,10.656 -5.041,28.193 11.242,28.212c12.177,0.014 150.641,0.178 152.209,-0.116c12.993,-2.432 -1.527,-75.403 9.747,-76.09c0.911,-0.056 161.315,-0.156 162.45,0.036c13.04,2.216 -1.462,72.773 9.755,75.857c9.245,2.543 211.568,0.498 229.965,0.312c17.891,-0.181 9.419,-10.064 11.417,-68.646c0.383,-11.221 21.416,-7.62 22.357,-7.62c125.119,-0.003 130.613,-1.517 130.249,7.572c-4.499,112.346 -19.097,177.698 -41.317,250.211c-96.391,314.576 -349.719,533.283 -623.104,612.891c-21.789,6.345 -11.844,-9.248 -15.429,-35.664c-3.993,-29.421 -12.731,-147.438 -15.501,-168.581c-14.728,-112.385 1.445,-228.155 -74.512,-313.233c-64.709,-72.479 -209.196,-115.509 -313.996,15.033c-59.299,73.865 -49.009,184.651 -67.712,355.314c-7.953,72.568 -5.153,72.548 -13.108,145.151c-1.263,11.524 -86.351,-23.347 -107.882,-32.04c-268.533,-108.411 -525.577,-377.697 -565.435,-758.369c-7.841,-74.886 -4.465,-77.94 1.788,-78.224c1.297,-0.059 141.498,-0.139 142.171,-0.006c9.796,1.928 0.233,69.586 6.612,74.996c2.663,2.258 237.476,1.455 239.977,0.448c7.789,-3.136 -1.89,-72.323 6.431,-75.001c9.325,-3.002 149.354,-0.714 162.339,-0.502c10.689,0.175 6.648,21.303 7.073,68.352c0.072,7.941 3.868,7.886 9.733,7.917c12.453,0.067 149.358,0.805 155.66,-0.308c6.824,-1.204 4.883,-32.021 2.753,-34.27c-3.425,-3.616 -103.933,-1.013 -124.545,-1.772c-10.919,-0.402 -5.77,-6.566 -7.349,-69.456c-0.272,-10.826 -45.169,-4.619 -53.642,-6.169c-10.212,-1.868 -4.392,-64.374 -3.902,-65.322c2.299,-4.445 117.187,-1.422 183.08,-2.223c14.116,-0.172 7.925,-7.074 7.935,-20.923c0.013,-17.564 0.159,-216.19 0.202,-219.555c0.025,-1.926 0.174,-13.61 22.09,-9.57c9.188,1.694 2.364,75.662 4.666,83.587c1.445,4.973 20.732,4.37 22.57,4.312c11.156,-0.349 5.424,-40.761 6.596,-81.728c0.199,-6.957 18.617,-6.373 20.319,-6.319c10.243,0.325 5.29,6.395 6.565,80.659c0.034,2.003 0.221,12.856 23.988,7.183c10.097,-2.41 1.139,-75.769 5.891,-85.438c1.555,-3.165 19.233,-2.407 20.915,-2.335c10.558,0.453 2.62,74.045 5.864,84.477c1.246,4.008 19.6,3.55 21.329,3.506c8.615,-0.215 4.775,-5.177 6.853,-81.709c0.247,-9.089 21.565,-6.717 23.135,-5.856c7.515,4.124 1.581,74.401 3.954,83.458c1.415,5.403 21.619,4.098 23.524,3.975c6.835,-0.441 4.846,-20.028 4.846,-44.437Zm-21.864,-626.746c89.554,6.641 309.066,13.813 541.424,193.222c56.427,43.568 260.234,205.411 334.587,517.663c21.949,92.176 26.326,185.594 22.195,189.068c-4.828,4.059 -182.683,-2.62 -185.571,3.703c-2.953,6.466 1.993,69.145 -2.804,71.587c-3.239,1.649 -3.517,1.396 -149.072,1.394c-1.872,-0 -22.567,-0 -22.751,-5.466c-2.147,-64.055 2.377,-69.962 -7.689,-70.057c-123.661,-1.171 -131.459,5.202 -131.59,-7.519c-0.793,-76.676 -2.873,-78.856 3.196,-81.181c6.197,-2.373 109.88,-14.222 186.172,-77.186c22.243,-18.357 22.906,-21.845 13.582,-47.816c-2.345,-6.531 -1.434,-20.619 -13.767,-21.343c-95.9,-5.63 -113.205,-17.465 -121.362,-23.043c-8.144,-5.569 -67.164,-37.952 -99.09,-62.631c-27.548,-21.294 -8.577,-48.114 -26.27,-48.077c-21.018,0.044 -24.713,5.087 -26.575,-3.662c-1.966,-9.241 -0.496,-9.345 -0.23,-118.097c0.061,-24.986 20.049,-2.535 125.113,-49.97c3.423,-1.546 3.626,-0.928 43.147,-18.507c3.132,-1.393 13.941,-6.201 -3.612,-42.694c-7.516,-15.625 -122.933,-17.962 -142.962,-42.212c-2.878,-3.484 -40.147,-59.912 -43.69,-68.964c-5.968,-15.251 3.167,-19.784 -12.916,-33.318c-18.111,-15.241 -31.796,-0.612 -73.368,5.842c-52.859,8.206 -65.316,18.911 -307.391,15.244c-152.813,-2.315 -199.519,-37.889 -215.305,-24.446c-21.187,18.042 -12.355,22.781 -16.039,35.6c-1.198,4.168 -38.094,62.843 -45.822,71.279c-11.742,12.819 -14.492,8.55 -125.073,32.936c-6.393,1.41 -13.683,-1.87 -19.013,14.81c-9.918,31.037 -7.388,33.06 -0.65,36.046c137.691,61.031 142.399,47.366 168.782,57.668c5.185,2.025 4.133,4.189 4.15,108.645c0,1.934 0.004,23.618 -4.365,23.781c-24.917,0.934 -33.362,-8.736 -36.328,10.099c-5.343,33.938 -8.941,34.348 -57.712,65.02c-76.829,48.317 -78.768,48.64 -128.918,53.324c-53.954,5.04 -58.396,4.831 -61.25,13.11c-12.932,37.514 -9.399,41.89 -7.123,44.707c24.245,30.02 93.705,69.916 159.42,84.385c13.202,2.907 34.05,6.854 37.017,7.416c0.757,0.143 9.008,0.996 9.339,8.982c0.256,6.182 2.868,69.381 -0.181,77.341c-3.154,8.235 -66.805,3.297 -130.466,4.431c-6.104,0.109 -7.886,-0.411 -8.161,5.76c-1.145,25.731 3.761,67.158 -4.965,69.366c-2.966,0.75 -164.859,0.439 -165.545,0.166c-11.773,-4.673 5.404,-75.061 -10.564,-75.288c-76.465,-1.086 -177.948,3.228 -180.356,-3.358c-1.876,-5.131 -0.982,-129.606 46.641,-270.522c30.727,-90.922 78.256,-171.932 83.431,-179.316c55.167,-78.718 62.63,-114.316 208.855,-240.332c105.876,-91.243 276.774,-166.164 392.337,-187.602c90.52,-16.792 138.222,-19.456 209.156,-19.991Zm-43.783,1836.046c-0.856,1.558 0.009,1.631 -0.866,3.224c-0.186,0.339 0,0 -2.551,4.102c-48.576,-2.565 -61.936,-1.355 -52.388,-11.829c86.363,-94.742 -0.234,-130.972 14.246,-178.177c11.795,-38.451 22.104,-40.963 10.58,-49.713c-10.277,-7.802 -16.269,-13.274 -21.722,-3.208c-57.545,106.235 23.02,115.731 0.394,174.209c-9.95,25.716 -42.807,55.163 -43.081,57.604c-0.158,1.404 2.227,4.006 0.822,4.159c-7.778,0.844 -65.625,-11.599 -71.29,-12.818c-12.721,-2.736 -19.38,1.587 -18.027,-11.333c17.694,-168.972 19.53,-284.36 29.445,-296.274c84.891,-102.006 82.405,-103.86 89.927,-112.596c5.028,-5.839 7.5,1.402 14.503,9.751c56.239,67.058 69.911,95.612 77.323,85.468c22.728,-31.107 67.457,-84.72 73.489,-91.951c11.219,-13.447 12.04,1.775 51.816,50.462c0.481,0.589 0.333,0.28 6.159,7.246c46.874,56.046 46.994,57.884 47.412,64.258c7.096,108.269 19.366,239.163 21.313,259.937c2.064,22.018 10.361,30.717 -11.364,34.401c-87.223,14.789 -93.02,16.962 -91.81,9.676c2.302,-13.867 40.835,-75.05 -3.134,-128.086c-35.307,-42.588 -56.905,-43.502 -36.239,-87.789c1.727,-3.701 13.839,-10.245 -11.109,-23.2c-12.449,-6.465 -45.277,46.296 -18.893,79.585c25.919,32.703 89.94,59.203 37.168,160.066c-2.206,4.217 -7.013,13.405 -58.63,10.094c-23.467,-1.505 73.611,-72.319 6.871,-145.711c-25.838,-28.414 -36.655,-45.806 -8.865,-87.307c1.002,-1.497 5.365,-8.012 -15.026,-16.772c-12.432,-5.341 -53.328,59.461 -19.665,100.439c13.782,16.777 59.325,46.764 17.374,115.466c-7.931,12.989 -7.979,12.737 -14.181,26.619Zm36.876,-1869.614c-23.74,0.105 -64.392,4.888 -123.75,-33.643c-130.111,-84.459 -103.551,-327.922 96.89,-346.599c135.182,-12.596 258.993,140.21 177.496,286.39c-45.854,82.248 -136.524,92.289 -150.636,93.852Zm171.601,2066.992c-1.828,-3.938 -1.886,-3.666 -3.518,-7.579c-19.36,-46.408 -80.281,-68.436 -128.263,-42.856c-57.088,30.435 -51.988,83.847 -52.273,92.95c-1.047,33.414 -37.523,94.293 -105.383,86.504c-109.675,-12.589 -106.007,-159.494 -23.21,-234.461c78.842,-71.386 169.151,-47.025 178.196,-44.066c105.336,34.46 123.159,99.045 140.037,148.371l-5.586,1.137Zm-6.782,-572.51l-2.627,2.678c-10.407,-8.033 -73.37,-90.242 -79.519,-98.271c-8.856,-11.563 -11.621,-19.271 -20.292,-7.761c-20.856,27.683 -25.793,33.747 -30.592,28.027c-3.333,-3.973 -25.768,-30.713 -40.401,-50.694c-8.309,-11.345 -9.723,0.582 -35.839,31.033c-13.466,15.702 -15.69,29.52 -28.891,13.473c-18.136,-22.047 -21.248,-34.401 -33.904,-19.084c-57.212,69.242 -71.844,90.347 -77.562,98.595c-8.604,12.41 -4.763,-10.395 -4.6,-11.362c0.926,-5.497 0.584,-104.348 82.185,-161.102c75.602,-52.582 205.51,-37.282 253.981,86.281c16.597,42.31 10.174,43.631 18.061,88.187Zm-196.561,-976.041c-0.008,24.195 3.836,47.6 -8.612,47.675c-51.279,0.31 -60.94,1.564 -61.084,-7.119c-0.13,-7.787 -1.568,-94.06 1.088,-97.349c3.016,-3.736 3.878,-3.596 59.969,-2.364c12.138,0.267 7.685,17.488 8.639,59.156Zm-105.571,6.756c0.002,20.83 3.493,40.89 -7.743,40.953c-57.356,0.322 -61.417,1.079 -61.551,-7.114c-0.125,-7.584 -1.43,-87.089 0.064,-94.809c1.573,-8.128 31.213,-2.571 61.432,-4.955c10.436,-0.823 7.798,12.667 7.798,65.925Zm419.581,-30.401c0,61.257 2.709,71.336 -8.464,71.362c-52.117,0.118 -60.708,1.833 -60.857,-7.178c-1.562,-94.641 -1.283,-98.932 6.662,-99.123c59.617,-1.432 61.793,-0.754 62.061,4.215c0.132,2.455 -0.897,2.424 0.598,30.724Zm-105.463,27.023c0.002,23.861 3.448,44.261 -7.713,44.33c-54.414,0.335 -61.289,1.14 -61.427,-7.124c-0.126,-7.58 -1.449,-86.851 0.062,-94.764c0.923,-4.833 2.612,-6.222 61.308,-4.989c10.483,0.22 7.77,12.78 7.77,62.547Zm-418.931,27.023c-0.342,11.588 4.159,17.213 -7.643,17.302c-57.142,0.43 -60.866,0.76 -60.997,-7.155c-0.126,-7.568 -1.431,-86.294 0.069,-94.619c1.531,-8.492 66.198,-4.3 67.348,-3.072c1.591,1.699 1.223,2.817 1.223,87.544Zm314.009,-40.535c0,44.446 2.745,57.731 -7.503,57.832c-56.586,0.558 -60.175,0.401 -60.287,-7.2c-1.394,-94.392 -1.879,-98.776 6.055,-99.052c59.02,-2.056 60.733,-0.53 61.675,4.326c0.672,3.463 0.097,3.295 0.06,44.094Zm-322.527,168.896c0,-35.842 -0.259,-56.136 0.717,-57.493c3.13,-4.354 22.047,-3.13 23.41,-2.366c3.479,1.949 3.478,23.975 3.478,26.08c-0.005,166.888 0.144,167.092 -0.702,168.448c-2.931,4.701 -21.747,3.205 -22.453,2.925c-5.306,-2.103 -4.45,-4.301 -4.45,-137.594Zm-111.536,10.134c0,-59.096 -2.5,-70.48 7.691,-70.555c12.628,-0.092 18.372,-6.009 19.332,6.455c0.372,4.834 0.062,167.733 0.034,182.318c-0.004,1.95 -0.025,13.217 -22.554,9.259c-5.425,-0.953 -4.503,-3.813 -4.503,-127.478Zm670.99,37.157c0,-32.65 0,-65.3 0,-97.95c0.02,-15.359 7.135,-10.3 22.3,-9.656c7.09,0.301 4.683,17.7 4.683,26.535c0,54.053 0.001,108.107 0.001,162.16c-0.035,14.605 -6.823,9.822 -21.371,9.336c-7.125,-0.238 -5.613,-6.06 -5.613,-90.425Zm-41.779,90.506c-18.259,-0.647 -13.802,-8.146 -13.827,-26.325c-0.018,-13.244 -0.222,-163.101 0.037,-165.549c1.04,-9.848 26.546,-9.18 26.772,0.081c0.038,1.572 0.087,184.71 -0.013,185.677c-0.854,8.233 -12.107,6.067 -12.968,6.116Zm-572.908,-107.395c0,-82.974 -0.751,-87.979 2.777,-89.939c0.54,-0.3 22.761,-5.14 23.86,5.374c0.425,4.066 0.067,167.937 0.035,182.54c-0.032,14.422 -6.516,10.05 -21.15,9.333c-6.823,-0.334 -5.523,-4.335 -5.523,-107.307Zm503.223,16.89c-0,-103.089 -0.096,-103.183 0.4,-104.181c2.27,-4.569 25.019,-7.517 26.109,2.756c0.433,4.08 0.068,167.905 0.036,182.506c-0.032,14.352 -6.558,10.019 -20.939,9.344c-7.115,-0.334 -5.606,-5.788 -5.606,-90.425Zm-433.627,-484.849c2.133,0.35 11.731,-3.057 11.815,8.513c0.091,12.695 1.081,150.359 0.202,158.692c-0.97,9.194 -26.366,9.169 -26.719,0.309c-0.504,-12.669 0.772,-140.6 -0.64,-158.932c-0.83,-10.776 4.604,-7.044 15.343,-8.581Zm445.888,-0c1.206,0.076 14.01,0.88 14.242,5.03c0.255,4.558 0.149,161.053 0.1,162.406c-0.317,8.638 -23.337,7.025 -25.057,3.707c-4.018,-7.749 -1.592,-149.562 -1.37,-162.565c0.196,-11.454 11.158,-8.429 12.085,-8.579Zm-54.047,176.097c-3.215,-0.583 -6.585,0.386 -9.8,-0.197c-5.493,-0.996 -4.347,-4.001 -4.407,-147.071c-0.001,-3.224 -3.177,-17.328 7.413,-17.47c13.216,-0.177 19.793,-5.98 19.967,7.358c0.161,12.369 1.953,149.611 -0.893,154.627c-1.491,2.629 -2.07,1.558 -12.28,2.753Zm-337.793,-0c-19.805,-0.569 -13.697,-9.406 -13.697,-29.041c-0.004,-131.431 -0.688,-133.085 3.528,-135.207c0.921,-0.463 19.848,-1.531 22.296,1.324c1.58,1.842 1.305,1.897 1.305,127.128c0,0.17 0.511,30.689 -0.972,33.119c-1.654,2.712 -2.297,1.59 -12.46,2.677Zm111.472,3.803c-7.156,-0.326 -8.575,3.023 -12.474,-2.964c-3.877,-5.954 -1.021,-139.347 -0.761,-151.461c0.258,-12.063 21.373,-6.863 23.246,-6.401c3.374,0.831 4.232,2.216 3.996,134.739c-0.032,18.199 4.115,25.573 -14.007,26.088Zm343.805,-164.242c8.365,17.639 7.565,18.098 7.45,141.532c-0.014,15.183 -5.244,13.751 -20.203,13.343c-8.228,-0.224 -6.853,-4.986 -6.853,-131.57c-0,-10.909 -3.147,-39.315 6.817,-39.193c6.749,0.083 10.715,12.177 12.789,15.889Zm-228.955,164.242c-11.452,-2.128 -14.1,0.005 -14.336,-5.697c-0.111,-2.66 -0.071,-148.546 -0.054,-148.844c0.583,-10.697 26.901,-9.556 27.075,0.156c0.217,12.102 2.612,145.798 -0.611,151.298c-3.342,5.705 -4.841,2.656 -12.073,3.086Zm-345.315,-161.568c7.297,-15.254 7.033,-15.166 7.991,-16.098c4.383,-4.263 12.011,-2.296 12.259,3.054c0.24,5.182 0.088,142.852 0.074,155.274c-0.008,7.16 1.046,9.62 -6.07,9.932c-11.783,0.517 -20.472,4.619 -20.488,-13.304c-0.107,-123.946 -0.648,-124.335 6.233,-138.859Zm272.574,47.654c0.473,-41.091 -0.368,-41.099 1.003,-44.375c1.531,-3.657 19.35,-2.886 21.047,-2.813c5.643,0.244 4.618,3.631 4.618,114.746c-0,30.93 12.749,46.339 -18.092,46.354c-10.455,0.005 -8.575,-5.817 -8.575,-113.912Zm-84.217,91.204c-0.665,9.911 7.543,25.908 -21.853,22.571c-5.107,-0.58 -4.746,-3.431 -4.662,-147.555c0.016,-27.98 22.13,-13.616 23.94,-12.441c4.775,3.102 1.165,76.109 2.575,137.424Zm198.962,-97.96c0.543,-31.539 0.193,-31.295 0.286,-34.015c0.318,-9.24 25.173,-10.593 26.059,0.155c0.019,0.227 0.055,146.148 -0.055,148.818c-0.072,1.727 -0.34,8.215 -20.863,5.623c-6.567,-0.83 -5.428,-4.35 -5.428,-120.581Zm-475.952,462.776c-0,30.665 2.12,52.941 -5.309,53.235c-1.777,0.07 -20.457,0.81 -21.998,-3.161c-3.502,-9.025 -0.881,-9.419 -0.521,-121.003c0.045,-14.064 11.206,-15.034 22.387,-24.505c3.749,-3.176 5.218,-1.288 5.159,3.677c-0.088,7.34 -0.628,52.17 0.282,91.757Zm768.138,-90.801c18.822,11.549 13.367,18.149 13.367,53.644c0,85.678 1.73,89.804 -6.453,90.472c-12.768,1.041 -20.001,-0.416 -20.186,-6.025c-2.266,-69.056 -0.642,-127.473 -0.335,-138.553c0.252,-9.054 12.845,-0.028 13.606,0.463Zm69.78,114.446c-1.562,14.183 3.607,18.735 -8.439,21.701c-11.85,2.917 -17.933,11.241 -18.517,-1.129c-0.423,-8.956 0.893,-82.147 -0.631,-98.253c-1.825,-19.289 16.143,-1.085 20.084,1.691c9.733,6.857 7.502,9.338 7.502,75.99Zm-895.006,-13.512c0.044,25.59 9.78,41.213 -15.421,36.135c-18.371,-3.702 -11.17,-10.779 -11.161,-29.379c0.028,-60.333 -2.655,-62.737 7.942,-70.343c16.574,-11.897 18.595,-8.574 18.768,-6.981c0.61,5.612 -0.127,5.604 -0.127,70.569Zm111.263,-391.84c-0.181,17.75 2.748,18.778 -2.37,23.057c-0.361,0.302 -23.739,6.544 -25.487,-6.226c-0.016,-0.115 -0.006,-53.926 -0.005,-53.983c0.276,-15.78 7.169,-14.472 21.944,-31.49c7.83,-9.018 5.918,10.599 5.918,68.643Zm644.495,-10.134c0,-52.697 -1.267,-52.724 -0.465,-57.232c1.372,-7.706 9.565,1.833 23.288,16.315c3.752,3.959 5.111,5.393 4.232,68.051c-0.15,10.672 -18.071,7.387 -21.625,7.142c-8.139,-0.56 -5.429,-30.279 -5.431,-34.277Zm-332.354,1053.854c4.434,-5.297 4.071,-5.381 4.449,-5.83c6.36,-7.536 8.098,-1.466 25.71,19.652c13.877,16.639 2.325,18.101 -14.606,42.538c-7.307,10.547 -9.941,0.347 -24.868,-16.375c-16.143,-18.086 -5.708,-20.876 9.315,-39.984Zm-492.848,-628.877c-10.97,-3.688 -11.967,-5.621 -12.486,-6.626c-1.091,-2.115 -0.603,-45.356 -0.307,-46.567c0.47,-1.922 1.711,-6.999 22.692,-9.851c6.341,-0.862 4.145,26.084 4.194,40.041c0.063,17.752 6.101,29.378 -11.11,24.088c-1.011,-0.311 -1.972,-0.774 -2.983,-1.085Zm1006.202,0.235c-8.871,2.415 -13.338,6.245 -13.498,-2.949c-1.004,-57.666 -1.243,-59.85 3.569,-60.263c9.238,-0.793 19.087,4.91 20.566,5.766c3.06,1.772 7.955,51.48 -3.554,54.983c-3.713,1.13 -3.487,1.212 -7.083,2.463Zm-897.991,-402.989c-7.276,-3.22 -10.618,-0.853 -10.832,-8.686c-0.888,-32.595 0.631,-37.706 4.06,-39.78c0.173,-0.105 18.872,-4.102 19.762,-3.643c3.561,1.838 4.341,2.833 2.781,50.014c-0.284,8.603 -4.523,3.562 -15.772,2.094Zm786.427,0.598c-8.467,1.115 -12.624,5.943 -12.937,-2.617c-1.756,-48.046 -0.827,-49.589 3.153,-50.159c1.083,-0.155 19.023,3.481 19.657,3.915c4.685,3.198 7.873,44.657 -2.659,47.096c-3.801,0.88 -3.513,0.859 -7.215,1.765Zm-936.673,362.264c-0.304,18.538 1.003,19.475 -1.7,20.809c-4.392,2.166 -24.373,-3.603 -24.683,-10.585c-0.098,-2.206 -1.159,-26.101 3.916,-27.321c2.265,-0.544 18.05,-0.467 19.933,0.824c2.742,1.881 1.559,2.483 2.534,16.273Zm1117.906,-0c-1.491,11.576 0.21,14.123 -11.693,18.159c-9.76,3.309 -14.579,8.999 -14.962,-1.066c-0.665,-17.49 -2.338,-34.473 7.796,-34.47c1.461,0 16.74,0.005 17.96,3.298c1.205,3.25 0.612,3.14 0.898,14.08Zm-111.306,-395.218c-1.416,11.752 -1.675,14.82 -22.405,17.361c-6.637,0.814 -3.529,-3.309 -5.264,-24.072c-0.634,-7.589 4.491,-7.388 5.212,-7.359c14.04,0.552 19.706,-3.193 22.457,14.071Zm-923.167,0c2.569,-15.464 6.821,-13.577 22.621,-13.974c6.424,-0.161 6.704,31.68 -0.042,31.274c-28.185,-1.698 -22.478,-15.36 -22.58,-17.3Zm646.596,1707.313l5.586,-1.137c0.335,1.138 5.672,19.287 -1.814,14.715c-4.715,-2.88 -2.418,-3.998 -3.772,-13.578Z" style="fill:#006e38;fill-opacity:1;"/><path d="M1117.105,2016.862c47.897,0 65.017,3.414 58.603,-9.175c-13.223,-25.955 -24.301,-28.58 -10.853,-39.452c11.126,-8.995 14.09,-15.22 22.704,-3.617c23.69,31.912 19.433,37.36 17.282,40.114c-0.714,0.914 -16.777,12.626 -6.437,12.596c52.758,-0.152 53.406,0.226 56.586,-3.006c9.151,-9.299 15.49,-59.022 24.019,-55.944c31.031,11.199 27.612,21.389 11.782,50.453c-9.574,17.578 67.246,0.18 70.155,12.711c6.926,29.838 -4.944,29.963 -7.415,29.989c-104.972,1.107 -112.055,-5.002 -112.672,7.21c-0.898,17.763 7.222,13.419 24.876,13.451c55.242,0.101 70.833,-2.56 71.041,6.915c0.049,2.23 0.577,26.234 -3.144,27.698c-9.304,3.66 -91.257,-5.036 -92.628,5.86c-2.07,16.453 3.162,16.666 4.547,16.722c33.635,1.368 116.316,-3.28 118.829,3.451c1.019,2.73 2.869,30.244 -3.725,31.746c-7.032,1.601 -114.651,-2.086 -118.706,2.232c-0.469,0.499 -4.814,20.916 3.271,21.333c23.385,1.207 107.192,-2.913 110.6,2.95c1.038,1.785 3.948,32.203 -5.709,32.365c-82.149,1.383 -107.542,-9.321 -92.071,11.632c29.175,39.514 82.127,54.271 102.353,59.926c8.085,2.261 25.872,-0.72 13.26,13.657c-11.983,13.66 -15.211,23.73 -23.729,21.429c-19.252,-5.202 -84.525,-27.614 -120.21,-79.741c-9.099,-13.291 -10.358,15.689 -64.302,49.836c-1.425,0.902 -58.279,39.343 -70.16,27.043c-24.943,-25.821 -20.864,-29.81 -18.165,-30.747c0.58,-0.201 34.571,-2.203 86.58,-36.057c11.328,-7.373 45.268,-38.38 28.029,-37.318c-8.857,0.546 -93.212,0.522 -94.508,0.059c-5.628,-2.013 -7.877,-34.854 3.091,-34.982c101.716,-1.186 109.424,5.508 110.004,-7.8c0.81,-18.587 -7.138,-14.825 -25.618,-14.893c-91.342,-0.336 -100.01,3.3 -100.472,-8.726c-0.082,-2.125 -0.922,-23.998 2.806,-26.435c4.912,-3.211 119.345,2.506 122.077,-3.415c9.886,-21.43 -4.287,-19.433 -27.788,-19.433c-56.068,-0.001 -68.265,2.752 -68.359,-8.084c-0.019,-2.175 -0.224,-25.727 4.24,-26.859c7.755,-1.966 89.424,2.676 91.965,-3.032c8.561,-19.229 -3.622,-17.931 -24.467,-17.995c-81.721,-0.252 -94.497,2.434 -94.769,-6.173c-0.071,-2.239 -0.83,-26.278 3.165,-27.828c0,0 22.121,-0.614 24.045,-0.667Z" style="fill:#006e38;fill-opacity:0.99;"/><path d="M2378.646,2190.587c-0.361,12.139 4.019,17.749 -8.308,17.834c-22.986,0.157 -279.577,1.909 -287.333,-0.403c-5.725,-1.707 -8.736,-33.362 3.605,-33.461c46.484,-0.371 68.892,3.699 66.308,-7.39c-3.778,-16.218 -5.843,-25.96 -15.717,-26.299c-46.134,-1.584 -52.461,3.948 -52.957,-7.75c-0.088,-2.071 -0.998,-23.546 2.88,-25.744c5.904,-3.347 122.802,4.074 125.149,-4.351c5.393,-19.356 -7.827,-11.59 -27.743,-11.573c-53.108,0.045 -67.995,1.743 -68.369,-5.423c-0.12,-2.292 -1.391,-26.612 3.536,-28.465c11.306,-4.253 90.713,4.008 92.733,-5.212c3.44,-15.704 -13.648,-11.965 -71.812,-11.965c-24.32,0 -50.265,2.193 -50.614,-5.192c-0.105,-2.222 -1.228,-25.98 2.999,-27.65c6.617,-2.614 81.113,2.252 84.202,-2.978c4.02,-6.805 -25.884,-31.346 -15.431,-39.185c15.504,-11.627 20.303,-18.32 30.672,-1.882c14.431,22.877 21.678,29.869 8.606,37.634c-6.667,3.961 -0.656,6.363 0.551,6.348c49.187,-0.607 50.206,-0.169 52.254,-3.826c11.792,-21.051 12.116,-55.122 24.775,-48.427c17.189,9.091 26.232,7.453 19.678,25.508c-6.678,18.395 -16.699,25.791 -2.268,26.14c64.84,1.568 71.825,-4.188 72.016,8.001c0.269,17.141 4.548,25.115 -11.245,25.276c-102.625,1.047 -112.343,-7.324 -112.395,8.588c-0.033,10.036 5.726,7.701 88.731,7.737c0.876,0 9.121,0.004 9.258,5.843c0.054,2.31 0.641,27.333 -3.053,28.716c-6.285,2.354 -6.561,-0.11 -83.885,-0.143c-17.816,-0.008 -13.17,15.798 -3.418,15.875c114.532,0.907 121.077,-4.492 121.356,6.155c0.057,2.183 0.674,25.663 -3.028,27.125c-8.814,3.481 -52.09,-5.124 -56.806,6.87c-10.348,26.317 -6.62,27.7 -4.37,27.85c4.877,0.325 4.809,-0.615 61.097,-0.207c11.014,0.08 7.441,4.937 8.343,16.026Zm-116.423,-49.754c15.233,0.287 15.278,-0.307 16.44,0.31c0.422,0.224 3.382,1.796 2.652,5.346c-4.772,23.182 -5.416,28.229 -29.278,28.097c-12.76,-0.071 -9.01,-32.67 -3.071,-33.562c4.371,-0.656 8.887,0.465 13.257,-0.191Zm-79.737,19.028c-3.886,-12.315 -3.909,-12.223 -4.197,-13.301c-1.949,-7.293 23.622,-7.362 30.739,-4.801c3.671,1.321 3.558,23.207 3.548,25.246c-0.058,11.214 -18.39,7.61 -21.414,7.38c-5.014,-0.381 -3.571,-2.422 -8.675,-14.524Z" style="fill:#006e38;fill-opacity:1;"/><path d="M674.842,1594.242c-49.067,5.852 -82.654,-27.543 -86.146,-51.775c-3.487,-24.204 -19.725,36.279 -82.283,8.222c-87.616,-39.295 -22.817,-211.874 75.93,-152.266c22.056,13.314 19.108,41.655 30.895,28.207c49.063,-55.976 174.526,-6.167 128.357,111.794c-18.169,46.421 -59.918,54.496 -66.753,55.818Zm-62.956,-89.386c1.129,-10.116 -0.041,-54.143 46.04,-62.59c16.126,-2.956 58.829,7.569 61.388,42.253c6.099,82.661 -98.39,101.675 -107.428,20.337Zm-114.788,-23.66c0.881,-5.928 0.345,-24.325 13.794,-41.629c11.55,-14.862 24.111,-14.95 25.282,-15.052c63.569,-5.562 60.83,91.409 6.639,96.625c-37.931,3.651 -44.86,-35.162 -45.714,-39.943Z" style="fill:#006e38;fill-opacity:1;"/><path d="M440.039,1707.528c0.3,-8.8 2.81,-82.405 68.977,-85.766c51.562,-2.619 58.086,41.472 65.158,29.385c37.944,-64.855 145.749,-42.961 151.776,46.224c8.391,124.149 -125.103,131.149 -151.585,70.295c-5.89,-13.535 -7.998,0.302 -18.46,10.329c-24,23.002 -114.351,31.3 -115.866,-70.468Zm194.126,59.371c-75.357,-15.436 -54.747,-131.193 23.353,-112.602c51.814,12.334 56.634,111.503 -23.353,112.602Zm-121.643,-10.224c-2.273,-0.672 -4.724,-0.602 -6.997,-1.275c-54.32,-16.062 -35.015,-80.314 -10.232,-92.31c61.212,-29.628 92.537,87.737 17.229,93.584Z" style="fill:#006e38;fill-opacity:1;"/><path d="M840.017,974.693c-1.419,0.009 -2.012,-2.529 -3.431,-2.521c0,0 -2.571,5.332 -2.795,5.795c0.148,5.068 1.801,61.794 -10.739,62.461c-2.145,0.114 -27.205,1.447 -26.375,-5.034c0.938,-7.323 10.305,-18.15 7.112,-74.592c-1.364,-24.109 -36.287,41.54 -48.407,31.019c-12.537,-10.884 -19.612,-13.363 -7.904,-25.416c38.479,-39.611 39.392,-40.823 37.141,-44.905c-13.894,-25.194 -26.021,22.389 -42.527,19.595c-21.178,-3.585 -29.827,-5.623 -20.759,-14.353c30.7,-29.556 64.913,-89.025 71.623,-89.841c3.029,-0.368 29.071,1.597 30.116,2.711c9.267,9.884 -37.901,37.851 -22.815,53.171c12.454,12.648 14.952,2.744 43.552,-26.042c9.144,-9.204 11.716,-10.532 20.96,-1.289c8.918,8.918 10.264,11.233 1.566,20.563c-19.658,21.085 -36.323,31.351 -19.471,27.944c4.346,-0.879 51.661,-10.444 55.42,-0.887c1.618,4.115 0.283,23.18 11.879,13.764c22.706,-18.437 21.355,1.729 24.892,6.442c11.06,14.737 15.736,6.387 36.718,-15.66c65.007,-68.303 66.735,-71.986 73.317,-67.489c27.416,18.731 9.111,25.612 -13.918,49.251c-26.301,26.998 -50.739,47.294 -36.355,45.273c40.45,-5.684 87.16,-31.659 94.2,-35.574c9.943,-5.529 7.493,6.832 7.7,18.154c0.303,16.561 -5.106,20.162 -71.56,40.051c-25.318,7.578 -54.368,2.886 -41.101,14.592c40.701,35.909 39.524,38.955 37.123,42.799c-3.496,5.596 -14.219,14.043 -15.583,15.118c-10.442,8.226 -53.548,-58.865 -49.727,-31.431c4.183,30.029 -20.298,112.893 -42.09,113.21c-23.102,0.336 -28.989,1.054 -25.239,-5.673c4.209,-7.552 27.134,-37.757 34.228,-70.728c0.561,-2.609 7.96,-36.994 -2.082,-33.289c-0.021,0.008 -54.877,56.887 -59.648,61.834c-8.795,9.119 -11.237,15.676 -23.263,3.844c-14.002,-13.776 -4.68,-16.991 17.633,-39.789c5.21,-5.324 63.609,-64.99 64.802,-66.863c4.045,-6.347 -14.588,-27.507 -30.213,-28.508c-16.554,-1.06 -47.793,-1.888 -32.382,10.566c31.961,25.829 31.242,28.372 30.286,31.75c-1.691,5.978 -2.881,5.16 -14.341,17.146c-5.327,5.572 -7.278,2.934 -24.158,-13.592c-6.838,-6.695 -6.673,-6.374 -13.386,-13.58Z" style="fill:#006e38;fill-opacity:1;"/><path d="M2301.001,2818.487c10.015,40.656 16.516,47.142 2.337,55.382c-19.473,11.317 -22.507,19.369 -38.788,3.548c-14.395,-13.988 -134.303,-130.506 -181.26,-173.468c-9.1,-8.326 29.245,-28.54 36.502,-22.889c11.803,9.191 66.167,67.382 71.773,73.383c5.963,6.383 72.946,78.081 77.094,77.329c6.776,-1.229 -2.276,-4.506 -19.071,-83.949c-13.592,-64.295 -34.297,-127.667 -26.682,-133.47c29.589,-22.547 36.355,-16.693 38.865,-14.522c39.546,34.215 127.46,118.01 138.393,128.432c15.086,14.38 18.177,21.266 19.024,13.819c0.249,-2.194 -60.486,-201.973 -58.176,-206.607c0.136,-0.272 33.827,-27.857 38.211,-16.668c3.871,9.881 56.395,223.484 61.181,242.947c6.188,25.165 -3.696,23.514 -26.245,36.102c-8.351,4.662 -18.748,-8.977 -64.977,-52.047c-102.398,-95.401 -110.859,-107.92 -108.473,-96.55c0.717,3.418 9.52,29.454 40.293,169.227Z" style="fill:#006e38;fill-opacity:1;"/><path d="M721.872,1384.629c-8.675,-1.008 -55.82,-6.488 -104.079,-32.927c-137.438,-75.298 -68.366,-206.334 16.227,-191.182c17.38,3.113 13.053,10.056 5.8,26.365c-9.129,20.529 -23.286,-2.758 -47.049,16.386c-61.718,49.721 36.365,120.526 48.163,119.621c7.55,-0.579 1.414,-3.906 -2.407,-10.927c-11.839,-21.754 -2.838,-55.684 4.838,-67.661c70.359,-109.775 188.357,-10.759 173.83,58.088c-17.925,84.953 -84.731,81.81 -95.323,82.238Zm-59.437,-95.876c3.493,-15.456 1.844,-15.84 10.043,-29.677c18.183,-30.687 57.175,-30.071 80.108,-14.837c68.374,45.419 14.721,106.654 -23.943,105.287c-61.283,-2.167 -65.606,-53.608 -66.208,-60.773Z" style="fill:#006e38;fill-opacity:1;"/><path d="M2184.613,790.687c1.026,-0.009 55.872,1.113 45.183,-16.106c-24.528,-39.513 -32.231,-38.941 -37.902,-35.441c-15.475,9.549 -18.068,6.775 -28.878,-6.731c-2.243,-2.802 -14.675,-11.026 -4.584,-16.296c6.75,-3.526 42.701,-22.304 78.486,-53.864c6.592,-5.814 -2.927,-8.898 -68.376,-44.068c-12.088,-6.495 -7.571,-10.327 1.38,-25.982c6.818,-11.926 9.929,-3.563 22.018,2.8c69.064,36.351 71.023,41.334 79.427,33.883c14.244,-12.629 47.511,-50.412 50.033,-54.28c7.763,-11.906 10.246,-2.281 21.932,11.439c8.628,10.131 7.718,13.275 -9.485,31.09c-30.313,31.391 -40.03,33.224 -30.365,38.741c34.895,19.918 86.732,46.95 94.336,50.916c43.141,22.498 46.973,24.846 41.853,33.829c-7.804,13.69 -8.016,21.251 -21.462,13.221c-48.904,-29.207 -50.406,-28.213 -54.416,-25.558c-2.101,1.391 -24.704,33.484 -71.756,62.913c-11.085,6.934 -3.213,9.837 6.539,28.38c34.554,65.701 32.571,69.526 27.095,72.4c-4.704,2.469 -24.197,6.904 -26.33,7.39c-9.693,2.206 -31.272,-91.445 -50.336,-85.975c-9.391,2.695 -65.89,18.906 -122.122,-0.342c-18.909,-6.473 -9.067,-14.206 -18.86,-41.349c-5.364,-14.867 19.435,8.769 49.377,14.33c8.503,1.579 25.037,4.301 27.216,4.66Zm118.448,-52.24c-27.476,20.018 -32.761,33.987 -45.505,13.996c-16.339,-25.632 -37.552,-33.849 -22.873,-45.425c35.508,-28.001 35.799,-33.171 45.283,-28.039c42.997,23.269 59.166,25.013 46.019,38.43c-8.28,8.45 -21.037,19.415 -22.924,21.037Z" style="fill:#006e38;fill-opacity:1;"/><path d="M2983.284,1447.435c-1.494,33.935 -5.054,37.195 -23.843,58.768c-48.112,55.243 -269.1,91.809 -262.358,-52.066c2.213,-47.226 54.537,-77.389 58.81,-60.888c4.855,18.749 12.45,23.397 -4.375,32.964c-41.324,23.499 -33.93,91.114 47.845,94.145c2.987,0.111 56.456,2.092 36.534,-7.839c-61.405,-30.611 -60.799,-153.561 54.632,-159.384c20.995,-1.059 49.636,6.957 66.621,24.287c21.578,22.018 25.568,64.061 26.133,70.012Zm-102.849,52.718c-3.987,-0.663 -37.781,0.661 -49.291,-39.602c-7.737,-27.066 4.301,-50.305 19.768,-58.887c77.834,-43.184 125.358,36.89 87.534,76.757c-22.073,23.266 -53.922,21.218 -58.012,21.732Z" style="fill:#006e38;fill-opacity:1;"/><path d="M1049.659,2525.194c-1.511,0.861 -182.054,88.661 -188.952,91.722c-31.754,14.091 -35.938,24.949 -49.327,7.764c-10.63,-13.643 -15.817,-15.041 -6.444,-29.705c4.598,-7.193 103.218,-155.227 113.837,-167.575c13.967,-16.241 -10.754,-1.787 -11.557,-1.317c-2.607,1.524 -184.875,87.925 -188.541,87.331c-2.682,-0.434 -8.348,-6.713 -21.037,-21.72c-6.382,-7.548 -4.026,-10.759 64.343,-105.486c6.273,-8.692 42.887,-59.421 76.068,-110.31c12.425,-19.056 17.574,-7.49 27.155,4.667c6.65,8.438 10.442,9.992 1.675,21.299c-14.295,18.436 -103.509,142.544 -118.635,158.705c-18.339,19.592 39.047,-14.994 94.448,-38.582c27.764,-11.821 97.051,-50.868 105.111,-45.007c2.069,1.504 20.124,22.81 20.364,23.238c3.65,6.506 -0.701,6.847 -75.424,120.467c-40.935,62.244 -48.95,64.511 -42.773,65.524c4.476,0.734 183.765,-100.794 192.714,-98.09c0.216,0.065 25.285,23.631 22.094,29.025c-0.698,1.179 -0.911,1.541 -15.12,8.05Z" style="fill:#006e38;fill-opacity:1;"/><path d="M1895.959,580.31l3.548,1.857c-20.416,12.974 -27.267,55.293 -70.061,28.177c-5.026,-3.184 -76.343,-7.656 -79.024,2.903c-1.017,4.007 0.455,58.996 0.592,64.125c0.146,5.445 25.269,35.042 -1.521,58.192c-21.897,18.922 -26.346,14.952 -28.207,13.291c-1.56,-1.392 -50.48,-24.434 -24.284,-62.208c6.033,-8.7 3.708,-75.297 1.586,-77.413c-1.995,-1.99 -68.918,-4.51 -77.434,1.548c-40.051,28.492 -52.974,-18.127 -67.439,-25.683c-10.458,-5.463 2.433,-4.732 4.597,-6.803c4.006,-3.835 18.726,-41.704 52.282,-30.057c10.727,3.723 9.241,8.296 23.333,8.417c62.32,0.535 66.378,0.503 66.433,-7.787c0.426,-64.214 0.435,-64.676 -6.962,-76.904c-21.135,-34.937 30.039,-53.745 29.69,-63.857c-0.336,-9.753 4.391,-4.397 4.541,-3.94c1.752,5.323 -1.974,7.32 6.988,13.928c4.602,3.393 35.239,16.76 24.568,49.863c-1.755,5.446 -7.952,11.07 -8.126,16.652c-2.145,68.739 -1.433,70.915 4.234,71.997c0.4,0.076 64.295,0.2 67.91,-0.181c15.669,-1.65 33.28,-34.204 64.93,15.588c0.489,0.77 0.58,0.614 7.826,8.295Z" style="fill:#006e38;fill-opacity:1;"/><path d="M2574.533,1048.931c-1.51,78.485 11.085,76.597 13.834,94.39c0.433,2.805 -40.532,3.52 -43.213,-6.347c-11.026,-40.567 -6.149,-128.938 5.638,-155.326c8.335,-18.659 -22.639,5.649 -82.569,0.308c-7.291,-0.65 -88.719,-7.907 -88.22,-24.292c1.161,-38.095 0.88,-40.987 3.691,-39.513c1.342,0.704 6.119,9.898 50.678,23.026c71.11,20.951 168.109,-14.405 151.246,-33.467c-6.197,-7.005 -7.185,-5.98 -79.273,-85.93c-1.518,-1.683 -9.468,-10.501 13.593,-24.857c5.235,-3.259 6.724,-0.868 80.097,79.634c10.158,11.145 12.265,16.822 23.539,6.675c46.859,-42.171 49.714,-51.669 60.349,-39.944c27.337,30.138 2.988,31.725 -11.702,41.62c-0.736,0.496 -27.107,25.461 -29.456,27.685c-9.572,9.062 12.233,20.179 39.686,53.945c3.028,3.725 4.612,2.194 40.591,44.19c5.747,6.709 -2.262,10.299 -10.918,18.55c-10.681,10.18 -12.504,2.43 -27.671,-14.2c-66.383,-72.783 -69.264,-77.551 -74.693,-71.323c-28.728,32.958 -34.776,102.537 -35.229,105.177Z" style="fill:#006e38;fill-opacity:1;"/><path d="M1831.287,1727.811c-0.001,24.792 2.137,49.599 -4.963,49.86c-2.036,0.075 -170.105,0.432 -171.854,-0.149c-4.744,-1.574 -4.247,-3.676 -4.185,-130.782c0.001,-1.659 0.009,-19.189 3.872,-20.374c0.945,-0.29 171.656,-1.865 175.059,0.863c2.566,2.057 2.071,2.72 2.071,100.581Zm-152.142,13.616c4.425,-8.249 6.75,-8.206 116.855,-6.039c0.91,0.018 7.598,0.15 6.571,9.286c-0.743,6.615 -4.031,6.159 -97.707,5.978c-16.245,-0.031 -22.45,6.643 -25.72,-9.225Zm-0.031,-81.113c2.815,-8.935 6.343,-9.032 116.923,-6.468c9.416,0.218 7.251,13.45 2.952,14.984c-0.786,0.28 -102.165,-0.281 -111.049,-0.33c-10.763,-0.06 -8.063,-5.46 -8.825,-8.186Zm106.821,49.282c-98.44,0 -113.883,2.981 -105.234,-12.647c1.328,-2.4 1.992,-1.939 108.612,-1.94c1.372,-0 20.688,-0 12.387,11.859c-3.863,5.519 -5.297,2.446 -15.764,2.728Z" style="fill:#006e38;fill-opacity:0.99;"/><path d="M1365.181,2721.004c-6.078,167.043 -6.172,173.926 -6.378,189.058c-0.623,45.699 -4.71,47.091 -8.276,45.973c-31.678,-9.93 -31.392,-15.998 -31.254,-18.917c1.597,-33.878 2.843,-33.463 4.159,-67.566c0.389,-10.072 -5.561,-8.781 -30.823,-19.947c-64.209,-28.383 -67.122,-25.313 -71.211,-21.005c-43.419,45.748 -41.781,57.57 -63.078,49.43c-14.402,-5.504 -24.266,-6.812 -13.428,-17.88c50.011,-51.074 178.462,-196.123 184.971,-196.982c2.014,-0.266 35.725,9.635 37.014,17.257c0.622,3.678 -1.492,37.337 -1.696,40.58Zm-40.141,87.562c-1.076,12.531 -0.682,18.833 -12.166,14.059c-51.623,-21.461 -66.824,-22.654 -56.547,-33.505c71.42,-75.415 72.246,-85.929 76.013,-78.069c0.779,1.625 -6.643,89.72 -7.3,97.515Z" style="fill:#006e38;fill-opacity:1;"/><path d="M2785.872,1739.473c-43.154,4.062 -45.864,1.649 -46.226,-1.81c-2.198,-21.02 -9.075,-30.114 12.242,-31.764c47.865,-3.706 52.902,0.375 52.911,-8.532c0.037,-37.838 -6.872,-110.646 -2.126,-114.836c0.97,-0.856 27.634,-3.928 36.769,0.659c13.075,6.565 106.476,70.211 115.641,76.456c3.581,2.44 26.842,17.299 29.182,18.794c24.733,15.799 31.815,13.148 33.834,42.638c0.365,5.329 -0.625,8.722 -6.121,9.144c-70.982,5.448 -170.369,3.956 -172.651,10.856c-2.351,7.107 6.712,37.288 -9.577,37.995c-14.133,0.614 -20.916,6.922 -21.343,-7.267c-0.068,-2.248 2.029,-30.277 -5.253,-32.168c-1.338,-0.348 -1.28,-0.012 -17.282,-0.164Zm48.754,-62.395c-0.958,-52.974 -1.745,-52.821 -1.688,-57.416c0.111,-8.913 23.985,10.436 31.701,15.379c76.185,48.803 78.514,50.024 85.683,53.781c27.104,14.205 -18.063,6.465 -100.194,13.094c-18.025,1.455 -13.384,-6.983 -15.501,-24.838Z" style="fill:#006e38;fill-opacity:1;"/><path d="M599.648,2158.749c13.167,-6.592 120.824,-60.491 166.376,-78.74c8.508,-3.408 12.997,14.645 18.168,25.441c22.816,47.631 22.83,47.511 24.798,51.651c3.47,7.298 43.157,90.756 43.221,91.299c0.646,5.497 -22.885,15.753 -25.559,15.658c-7.77,-0.277 -50.749,-103.958 -67.267,-134.523c-2.732,-5.054 -5.57,-4.299 -67.171,25.412c-9.884,4.767 0.888,21.322 51.83,127.479c1.011,2.107 4.986,10.389 -22.423,18.729c-7.111,2.164 -6.034,-3.242 -42.019,-77.583c-20.972,-43.325 -20.257,-53.904 -35.049,-45.818c-24.581,13.438 -67.26,26.669 -65.136,36.597c0.539,2.517 60.33,128.349 60.526,128.716c6.749,12.635 -0.629,12.081 -13.001,18.919c-15.277,8.445 -14.886,-1.837 -31.097,-35.767c-5.045,-10.559 -62.19,-130.165 -62.318,-132.347c-0.349,-5.979 1.145,-6.985 66.12,-35.122Z" style="fill:#006e38;fill-opacity:1;"/><path d="M2678.004,2563.337c-51.848,10.547 -57.522,-3.779 -186.307,-102.207c-25.812,-19.728 -31.385,-22.189 -22.481,-33.316c12.142,-15.173 13.253,-25.233 28.685,-13.213c3.026,2.357 30.274,23.581 37.783,29.528c91.567,72.518 100.837,75.451 111.231,78.741c61.991,19.617 124.252,-71.409 74.119,-122.271c-16.087,-16.321 -140.754,-107.271 -141.252,-112.061c-0.191,-1.837 17.078,-35.962 27.536,-27.91c144.424,111.197 174.412,124.727 168.661,183.328c-0.926,9.435 -5.639,57.457 -60.816,101.709c-16.228,13.015 -17.156,11.213 -37.159,17.673Z" style="fill:#006e38;fill-opacity:1;"/><path d="M1005.639,2629.722c7.778,-11.253 68.079,-104.186 73.385,-109.411c1.702,-1.677 4.461,-4.393 27.136,12.476c11.49,8.548 -53.066,83.62 -52.809,93.532c0.148,5.712 80.084,54.444 101.502,70.06c15.946,11.626 15.335,-4.727 39.149,-36.786c20.473,-27.561 24.534,-50.644 40.327,-41.731c1.491,0.842 13.055,7.368 17.639,12.124c2.49,2.584 4.325,4.488 -20.62,39.837c-8.863,12.56 -88.254,133.019 -90.29,135.755c-18.111,24.336 -25.731,49.354 -37.425,43.64c-1.821,-0.89 -19.698,-12.988 -20.207,-13.549c-9.768,-10.769 67.307,-97.382 60.022,-107.384c-0.37,-0.508 -106.612,-71.231 -107.459,-71.392c-7.847,-1.494 -29.656,40.719 -56.407,78.188c-9.663,13.534 -11.534,24.751 -21.86,17.226c-11.382,-8.295 -25.947,-11.589 -18.139,-23.561c5.202,-7.976 47.702,-73.14 66.054,-99.026Z" style="fill:#006e38;fill-opacity:1;"/><path d="M2905.435,1896.719c-0.443,3.922 2.287,30.228 -22.946,63.177c-48.689,63.577 -202.206,22.162 -155.993,-113.244c16.202,-47.473 84.468,-61.944 83.028,-44.528c-1.668,20.17 3.095,27.07 -16.953,30.47c-60.823,10.313 -59.656,119.655 23.635,118.242c35.38,-0.6 84.599,-42.115 42.222,-102.539c-1.55,-2.21 -7.937,-38.304 14.853,-31.49c118.744,35.504 119.021,34.675 128.827,39.131c8.457,3.843 -4.309,54.299 -10.306,98.185c-2.862,20.944 -3.597,46.048 -13.49,45.163c-20.984,-1.879 -29.196,-0.604 -25.803,-21.27c15.932,-97.045 14.762,-99.893 8.922,-101.509c-38.408,-10.633 -67.508,-25.553 -63.159,-13.834c6.134,16.532 5.311,16.444 7.162,34.045Z" style="fill:#006e38;fill-opacity:0.99;"/><path d="M1663.039,1824.94c-2.59,-4.883 -3.292,-4.418 -8.584,-3.836c-16.194,1.78 -46.808,0.943 -50.877,0.832c-7.323,-0.2 -5.954,-4.506 -5.954,-107.636c0,-80.925 -3.413,-91.626 12.74,-88.279c25.786,5.344 16.498,15.058 16.465,37.61c-0.184,124.45 0.191,125.739 3.974,127.578c1.957,0.952 240.067,-0.053 243.007,0.551c1.904,0.391 6.524,1.339 5.042,23.769c-0.966,14.624 -74.721,1.142 -78.375,7.278c-1.448,2.432 -0.214,3.187 29.737,19.181c22.775,12.162 39.108,13.815 36.132,20.708c-0.235,0.544 -15.519,25.071 -16.989,26.256c-10.457,8.424 -63.133,-28.491 -73.026,-36.844c-19.166,-16.182 12.764,-19.564 5.838,-29.411c-1.601,-2.277 -89.904,-1.15 -97.722,-1.05c-11.019,0.141 2.415,13.157 5.106,20.668c3.404,9.502 -38.731,29.769 -65.212,39.048c-16.622,5.824 -20.958,11.499 -29.204,-4.035c-7.962,-14.998 -18.448,-21.47 -2.014,-25.474c42.706,-10.404 41.288,-14.037 69.917,-26.913Z" style="fill:#006e38;fill-opacity:1;"/><path d="M2309.514,2323.783c-10.013,-0.903 -12.574,2.701 -15.827,-5.162c-3.231,-7.81 -6.062,-6.005 -102.4,-6.073c-18.334,-0.013 -24.787,-7.352 -29.39,10.185c-1.571,5.984 -30.195,8.55 -30.373,-3.822c-1.301,-90.403 -1.943,-94.56 5.657,-94.945c2.22,-0.112 181.767,-0.126 182.523,-0.018c7.524,1.075 8.707,4.497 5.706,94.833c-0.162,4.874 -14.562,4.991 -15.895,5.002Zm-94.582,-43.565c-38.196,-0.376 -53.502,2.26 -52.644,-8.58c0.84,-10.611 1.238,-14.241 5.141,-14.419c9.754,-0.444 67.153,-3.054 122.05,0.126c5.774,0.335 4.143,16.421 3.995,17.879c-0.654,6.452 -10.271,4.994 -78.542,4.994Z" style="fill:#006e38;fill-opacity:1;"/><path d="M1630.632,1510.138c0.488,0.076 23.581,-0.285 21.129,11.792c-1.907,9.393 -7.46,13.861 2.129,14.626c19.622,1.564 99.884,-6.248 152.37,-17.95c6.795,-1.515 8.907,-0.251 15.87,23.699c3.313,11.395 -13.935,9.999 -52.822,17.726c-40.829,8.112 -134.251,4.143 -118.345,18.993c2.961,2.765 9.427,2.331 138.349,2.324c21.35,-0.001 39.207,3.247 55.388,-21.596c5.003,-7.68 7.799,-10.23 18.557,-0.436c4.668,4.25 18.904,10.807 -1.946,34.302c-19.528,22.005 -23.595,19.488 -186.849,19.348c-26.755,-0.023 -53.103,2.928 -53.652,-30.414c-1.112,-67.529 -2.68,-69.273 2.554,-71.613c0.534,-0.239 0.538,-0.059 7.267,-0.802Z" style="fill:#006e38;fill-opacity:1;"/><path d="M1367.111,726.42c4.76,-0.3 24.175,-8.127 24.797,25.143c0.606,32.419 -28.235,48.728 -84.904,75.895c-48.17,23.093 -48.622,-0.668 -73.25,-47.997c-58.069,-111.593 -66.199,-116.278 -56.178,-119.658c23.267,-7.849 34.012,-10.45 34.858,-2.907c0.443,3.95 2.846,25.387 16.947,46.705c6.355,9.608 48.72,-40.887 55.09,-50.89c2.019,-3.17 3.396,-15.809 32.846,2.728c14.484,9.117 0.834,11.713 -17.276,32.424c-37.035,42.354 -59.835,36.875 -46.224,62.896c25.808,49.338 27.504,49.554 32.236,50.157c2.346,0.299 70.623,-25.043 68.025,-46c-3.142,-25.344 -5.571,-24.697 -5.767,-26.888c-0.556,-6.198 3.119,-2.631 18.802,-1.609Z" style="fill:#006e38;fill-opacity:1;"/><path d="M1124.184,684.518c-2.307,0.912 -4.615,1.824 -6.922,2.736c-4.352,-2.707 -3.472,-3.159 -11.451,-15.926c-5.596,-8.954 -66.619,30.785 -80.125,35.672c-9.265,3.353 -15.753,-20.778 -16.339,-22.955c-1.544,-5.742 61.917,-34.703 73.323,-41.51c12.31,-7.347 -23.641,-30.904 -1.95,-41.527c17.068,-8.358 25.505,-16.606 28.32,2.182c4.611,30.768 18.554,15.977 46.002,1.22c17.041,-9.161 6.711,-13.948 -0.669,-31.91c-0.932,-2.268 -4.32,-10.514 23.687,-19.457c14.523,-4.638 5.155,36.15 27.627,24.434c67.657,-35.274 67.248,-37.131 73.749,-36.172c5.11,0.754 14.329,22.303 14.17,24.57c-0.465,6.652 -65.436,33.447 -77.839,41.514c-10.813,7.032 12.984,18.945 0.217,27.367c-25.415,16.766 -26.636,4.38 -29.219,-0.736c-6.518,-12.908 -10.298,-5.33 -23.139,1.26c-23.346,11.982 -33.519,11.226 -24.903,27.768c7.612,14.614 0.835,15.455 -14.538,21.468Z" style="fill:#006e38;fill-opacity:1;"/><path d="M610.277,1864.922c50.034,-10.633 99.416,-15.828 108.121,-16.744c11.123,-1.17 11.613,32.112 10.455,35.178c-1.882,4.985 -179.452,27.571 -189.231,30.61c-7.157,2.224 -3.013,5.231 4.224,56.959c1.496,10.696 -26.854,17.559 -29.98,3.252c-11.321,-51.816 -27.265,-50.785 -55.454,-57.211c-12.014,-2.739 -8.479,-21.89 -8.113,-23.874c1.177,-6.378 26.611,-9.974 159.978,-28.169Z" style="fill:#006e38;fill-opacity:0.99;"/><path d="M2893.896,1226.349c13.064,-1.324 20.887,-8.03 29.645,18.581c2.912,8.849 -17.497,11.911 -101.055,49.474c-12.001,5.395 -145.02,65.192 -151.496,64.028c-2.301,-0.414 -4.411,-0.793 -13.839,-25.742c-4.892,-12.946 17.921,-14.967 36.919,-24.855c18.419,-9.586 138.468,-56.147 139.249,-63.032c0.839,-7.397 -27.599,-55.692 -19.682,-59.574c15.642,-7.671 19.729,-12.551 28.868,2.501c18.767,30.914 20.702,33.955 51.392,38.619Z" style="fill:#006e38;fill-opacity:1;"/><path d="M1117.262,687.254l2.641,4.52c8.933,0.064 25.897,-3.781 21.985,12.812c-4.786,20.305 -9.238,22.314 1.471,34.148c2.743,3.031 -1.549,5.022 21.727,46.244c4.027,7.132 47.44,84.015 46.056,91.431c-0.002,0.013 -25.251,22.57 -32.472,9.813c-4.061,-7.174 -39.83,-70.366 -47.175,-91.617c-3.465,-10.025 -7.569,4.908 -13.439,21.474c-5.17,14.59 -5.743,18.343 -21.061,15.469c-12.64,-2.371 -15.939,-4.204 -11.576,-16.303c24.087,-66.798 20.711,-104.958 19.894,-114.195c-0.917,-10.36 2.597,-9.215 11.949,-13.796Z" style="fill:#006e38;fill-opacity:1;"/><path d="M975.025,871.264c-10.436,-1.323 -14.046,1.531 -13.544,-4.846c0.047,-0.597 0.134,-1.705 4.345,-6.098c21.084,-22 -14.848,-37.809 -77.938,-102.458c-14.309,-14.663 25.947,-33.557 28.215,-24.049c3.207,13.445 17.385,23.507 38.8,44.862c40.858,40.744 60.188,50.271 53.115,73.949c-9.116,30.52 -29.144,19.228 -32.992,18.64Z" style="fill:#006e38;fill-opacity:1;"/><path d="M907.451,829.509c36.178,35.286 37.067,35.566 36.477,39.848c-0.089,0.643 -13.673,14.04 -14.886,15.236c-8.93,8.807 -10.107,-1.048 -90.041,-77.931c-11.216,-10.787 24.03,-31.604 28.28,-21.363c4.596,11.075 5.381,10.655 40.17,44.21Z" style="fill:#006e38;fill-opacity:1;"/><path d="M2586.354,2676.846c-14.188,13.333 -16.602,24.26 -29.762,9.852c-16.955,-18.563 -18.12,-20.635 -13.058,-25.527c24.257,-23.444 26.606,-22.037 29.048,-20.574c1.068,0.64 20.123,20.881 20.917,22.758c3.032,7.163 -3.593,10.34 -7.146,13.491Z" style="fill:#006e38;fill-opacity:1;"/><path d="M2864.43,2316.024c-4.956,9.804 -5.644,15.782 -20.531,8.303c-16.786,-8.432 -23.924,-9.664 -15.093,-26.116c8.865,-16.516 7.316,-27.454 23.839,-18.556c20.047,10.797 24.213,12.285 18.679,22.971c-1.996,3.855 -6.343,12.325 -6.893,13.397Z" style="fill:#006e38;fill-opacity:1;"/><path d="M1711.626,3116.123c7.886,-2.536 15.458,-7.439 33.745,-0.081c-0.758,2.183 -1.516,4.366 -2.274,6.548c-3.134,-1.117 -2.5,-3.02 -14.586,-3.065c-10.655,-0.039 -10.575,-0.872 -11.419,-0.519c-1.42,0.593 -1.208,3.201 -2.628,3.795c-0.946,-2.226 -1.892,-4.452 -2.839,-6.677Z" style="fill:#006a36;fill-opacity:0.46;"/><path d="M408.688,2175.277c-1.007,-7.835 -0.938,-7.541 -3.648,-15.29c-1.714,-4.899 1.68,-3.099 2.558,-3.548c1.221,-0.624 1.61,-2.933 2.978,-2.839c1.209,0.084 3.875,12.585 2.742,21.579l-4.63,0.097Z" style="fill:#006c37;fill-opacity:0.75;"/><path d="M1913.449,2840.609l5.586,-1.137c0.335,1.138 5.672,19.287 -1.814,14.715c-4.715,-2.88 -2.418,-3.998 -3.772,-13.578Z" style="fill:#006e38;fill-opacity:0.59;"/><path d="M1704.972,2643.231c2.945,5.655 9.409,7.641 2.932,8.665c0,0 -5.841,-1.232 -6.349,-1.34c2.551,-4.102 2.365,-3.763 2.551,-4.102c0.875,-1.592 0.009,-1.665 0.866,-3.224Z" style="fill:#006c37;fill-opacity:0.24;"/><path d="M1124.184,684.518c-3.592,2.967 -3.4,2.648 -3.592,2.967c-1.173,1.956 0.563,2.201 -0.69,4.289l-2.641,-4.52c2.307,-0.912 4.615,-1.824 6.922,-2.736Z" style="fill:#006e38;fill-opacity:0.61;"/><path d="M840.017,974.693c-4.819,2.126 -4.776,1.72 -6.225,3.275c0.224,-0.464 2.795,-5.795 2.795,-5.795c1.419,-0.009 2.012,2.529 3.431,2.521Z" style="fill:#00562c;fill-opacity:0.24;"/></g></svg>