<?xml version="1.0" encoding="UTF-8" standalone="no"?><!DOCTYPE svg PUBLIC "-//W3C//DTD SVG 1.1//EN" "http://www.w3.org/Graphics/SVG/1.1/DTD/svg11.dtd"><svg width="100%" height="100%" viewBox="0 0 654 736" version="1.1" xmlns="http://www.w3.org/2000/svg" xmlns:xlink="http://www.w3.org/1999/xlink" xml:space="preserve" xmlns:serif="http://www.serif.com/" style="fill-rule:evenodd;clip-rule:evenodd;stroke-linejoin:round;stroke-miterlimit:2;"><path d="M161.408,320.04l-152.516,0l0,43.375l109.141,0l0,13.996c0,38.454 -14.967,74.6 -42.15,101.787l-75.883,75.85l30.671,30.671l75.871,-75.854c35.383,-35.371 54.867,-82.412 54.867,-132.454l0,-57.371Z" style="fill:#4eb4e0;fill-rule:nonzero;"/><path d="M253.289,320.04l-43.375,0l0,144.525l118.471,0l0,-43.375l-75.096,0l0,-101.15Z" style="fill:#4eb4e0;fill-rule:nonzero;"/><clipPath id="_clip1"><path d="M-918.329,219.479l2129.72,0l0,620.165l-2129.716,0l-0.004,-620.165Z"/></clipPath><g clip-path="url(#_clip1)"><path d="M231.602,633.378c-23.812,0 -43.187,-19.371 -43.187,-43.187c0,-23.812 19.375,-43.187 43.187,-43.187c23.812,0 43.179,19.375 43.179,43.187c0,23.817 -19.367,43.187 -43.179,43.187m0,-129.746c-47.729,0 -86.562,38.829 -86.562,86.558c0,47.729 38.833,86.562 86.562,86.562c47.729,0 86.554,-38.833 86.554,-86.562c0,-47.729 -38.825,-86.558 -86.554,-86.558" style="fill:#4eb4e0;fill-rule:nonzero;"/></g><path d="M455.942,692.275c-23.812,0 -43.179,-19.375 -43.179,-43.187c0,-23.812 19.367,-43.187 43.179,-43.187c23.812,0 43.187,19.375 43.187,43.187c0,23.812 -19.375,43.187 -43.187,43.187m0,-129.746c-47.729,0 -86.554,38.829 -86.554,86.558c0,47.729 38.825,86.558 86.554,86.558c47.729,0 86.562,-38.829 86.562,-86.558c0,-47.729 -38.833,-86.558 -86.562,-86.558" style="fill:#4eb4e0;fill-rule:nonzero;"/><path d="M476.433,500.687l0,-36.121l59.237,0l0,-43.371l-118.466,0l0,-57.779l118.466,0l0,-43.375l-161.841,0l0,144.525l59.229,0l0,36.121l-64.179,0l0,43.375l284.995,0l0,-43.375l-177.441,0Z" style="fill:#4eb4e0;fill-rule:nonzero;"/><path d="M138.789,65.837l-30.667,30.667l62.2,62.204l28.3,28.3l30.667,-30.671l-90.5,-90.5Z" style="fill:#d83634;fill-rule:nonzero;"/><rect x="297.767" y="0" width="43.383" height="127.975" style="fill:#d83634;fill-rule:nonzero;"/><clipPath id="_clip2"><path d="M-1505.218,-25.685l2129.711,0l0,620.165l-2129.716,0l0.004,-620.165Z"/></clipPath><g clip-path="url(#_clip2)"><path d="M530.826,96.506l-30.667,-30.667l-90.504,90.5l30.671,30.667l90.5,-90.5Z" style="fill:#d83634;fill-rule:nonzero;"/></g><path d="M319.448,147.137c-65.337,0 -120.2,46.642 -132.816,108.375l71.858,0c8.904,-25.087 32.817,-43.067 60.958,-43.067c27.327,-0.015 51.842,17.305 60.958,43.067l71.862,0c-12.617,-61.733 -67.366,-108.375 -132.821,-108.375" style="fill:#d83634;fill-rule:nonzero;"/><clipPath id="_clip3"><path d="M-1505.219,-25.687l2129.711,0l-0,620.165l-2129.716,0l0.004,-620.165Z"/></clipPath><g clip-path="url(#_clip3)"><rect x="66.982" y="255.512" width="529.74" height="43.425" style="fill:#d83634;fill-rule:nonzero;"/></g></svg>