<svg xmlns="http://www.w3.org/2000/svg" viewBox="0 0 300 200"><defs><clipPath id="a" clipPathUnits="userSpaceOnUse"><path d="M0 841.89h595.276V0H0Z"/></clipPath></defs><path fill="#fff" d="M300 199.999986H.00001V-.000003H300z"/><path d="m144.30385292 146.79620377-12.96148246 19.03759905h5.58932294l7.36492582-11.00449713 7.05434996 11.07374388h5.5681351v11.08149352h5.0927106v-29.66433997h-6.52104785l.00826823.748792.17931606-.00310091c.68677632 0 1.24075297.5564214 1.24075297 1.24281936v1.29966244h-5.1717787v3.75687433l5.1717787.00516996v11.49955635zm-32.52824818.52296748.0087868.74982387.17931607-.00361685c.68677632 0 1.2433353.55655898 1.2433353 1.2433353l.00775229-.04599252v13.8342979h5.08186004v-8.7229818l5.15730862-.00878681V150.608376h-5.15730862v-3.28868883zm-19.68406875 1.27072231v3.58789554h11.14092159v10.91612894h5.08237862v-14.50402448zm88.83178812 0v3.58737696l17.42529171.00981868-.00774964 8.96172858h5.23998827v-12.55892422zm-3.1527803 13.90147562v3.64267222h13.65911463l.00155046 10.84998575h5.23999092l-.0020664-10.84998575h11.2396244v-3.64267222zm-67.00831177.247015c-4.41214406 0-7.98969438 3.57717197-7.98969438 7.98969174 0 4.412533 3.57755032 7.98969439 7.98969438 7.98969439 4.41251977 0 7.98969174-3.5771614 7.98969174-7.98969439 0-4.41251977-3.57717197-7.98969174-7.98969174-7.98969174m0 4.59765137c1.87336907 0 3.39204037 1.5186713 3.39204037 3.39204037 0 1.87299336-1.5186713 3.39152443-3.39204037 3.39152443-1.87337171 0-3.39152443-1.51853107-3.39152443-3.39152443 0-1.87336907 1.51815272-3.39204037 3.39152443-3.39204037"/><path fill="#e60013" d="M158.49610108 22.54304514c.0054371.39704447-.37978167.35485255-.59941346.4910248.09678044-.0315352.14381138.04893393.08726551.0758476-.14000541.06823564-.38747517-.03262262-.45266604.13049048-.0576333.14381138-.11988813.30113397-.2340673.3596372-.41623746.21204703-.75956335.50157279-1.12017923.77106282-.37306685.27813502-.67131916.68956064-.91204691 1.12594256-.01902987.0364286.08237211.13429645.06334225.17833699-.09786786.22645536-.46609569.23977626-.52364743.41525877-.08835293.26859291-.3414229.29444634-.42485526.482407-.039419.08726551.03751602.22645536.0364286.28580134-.01087421.41909193-.58117199.40854395-.81613641.70394178-.09678044.12260668.1207037.17453102.17561844.27810784-.34335308.06334225-.44309674.40759245-.65886819.61762776-.08345954.08155655.02718552.3328051-.05464289.44116657-.53993155.7106566-.85737683 1.3867876-.82956605 2.27964153.00815565.28675283-.39704448.48433717-.70394178.69820563-.16121011.11227618-.16392867.33565958-.07965356.4574507.2503786.36251886.37594851.70872642.23678585 1.0875566-.09977085.27430187-.40568947.36635203-.7193016.56007602-.1266845.07666316-.30977896.37021237-.22047454.62529408.14761736.42390377.68667898.56393636.80463694.90919243.20144468.59267146-.1073828 1.36183129.15359817 1.89697819.56583935 1.16237115.93697603 2.38131536.93123988 3.67314394-.00097868.1285875.18785192.2723717.35580405.27813503.6233639.02174841 1.05014933.84873184 1.76559059.40759245-.20796921-.0217484-.11689773.13239347-.08345954.18893935.26369951.45842937.52748058.92452506.91588007 1.22087438.62146091.47474068 1.42514635.76915983 1.85288328 1.44912398.53802856.85161351 1.7559941 1.11920055 2.74478572 1.45869329.85737684.29346766 1.8969782-.07476017 2.78602615.18513337.40278062.11689772.7470852.57638733 1.21029922.65310486.68379731.11227619 1.37047628.0497495 2.04948894-.0054371.60803128-.04893393 1.10193775-.4833585 1.76942375-.49485797.37499702-.0054371.70010862-.38842666 1.08948678-.4996698.53802856-.15441374 1.21511105.21476558 1.59872588.0345256.88230596-.4123771 1.6409178-1.46350512 2.1242763-2.36788571.3078488-.57638733 1.24387333-.61762776 1.62080052-1.25730298.2492912-.42485526.18513337-.9906946.38935098-1.4213132.25989354-.54857654.96769566-.86599464 1.14605984-1.42321618.37883018-1.18920326.72601641-2.31897897 1.08372345-3.52927819.11689772-.39514149.27718353-1.04248302-.0054371-1.51912669-.39704448-.66846468.0296322-1.63613315-.17561845-2.46762938-.16501608-.6665345-.8170879-1.09617441-.9916461-1.78766522-.17371545-.68953346.25880612-1.38292725.02718552-2.03796229-.23216432-.65693801-.3864965-1.37142777-.95138436-1.86533425-.1236941-.1084702-.30208546-.1400054-.47759516-.11227618.04023457-.37496984-.30591862-.5524097-.51307226-.63103022-.491052-.18594894-.6397024-.72408625-.9993396-.98014663-.65310487-.46321403-1.49803073-.33951992-2.21730514-.74230054-.3155423-.17752143-.18594894-.6320089-.49678814-.77011133-.52843208-.23597029-1.02329005-.54952804-1.50281538-.83630806-.9024776-.53993155-1.96700808-.44690271-3.0094911-.61281592-1.09138977-.17453102-2.1501841.11608216-3.22814422.02174841-.30496713-.02718552-.53226524-.39704447-.88233314-.33375659-.69241512.1236941-1.31963937.27427468-1.8873817.73941888-.35292238.2896345-.88423613-.00815566-1.25635149.31744528.03262263.03343818.08726551.06524524.08726551.09868343 0 .03262262-.07666315.06524524-.07666315.09786786"/><path fill="#014099" d="M183.3138782 45.11507575c-6.31340043 17.00674526-7.19475665 36.096071-1.82314328 54.10212638h19.44170841c-11.86914263-15.92109101-17.8075041-34.92603318-17.61856514-54.10212638m0 0c-18.20266198 15.61805313-29.7346196 38.76524068-29.7346196 64.63068342h21.33306657c-6.07938969-22.46372115-2.5238711-45.60707225 8.40155302-64.63068342m-11.99926737 9.35550298c-25.1950494 10.17929115-42.86608936 31.0434155-49.8987649 55.26122896h21.69635009c2.0398926-20.56766664 11.52749674-40.45646006 28.2024148-55.26122896m0 0c-32.33516165 0-60.46058006 18.19406301-74.88173752 44.74042157h19.36471202c10.6530779-21.58138598 30.34785764-38.37716306 55.5170255-44.74042157"/><path fill="#008842" d="M204.18505963 130.84440872c-15.89137552-9.76498334-34.62342008-15.19703023-54.67896435-15.19703023-19.64218848 0-38.01364435 5.6766078-53.6911514 15.19703023z"/></svg>