<?xml version="1.0" encoding="UTF-8" standalone="no"?><!DOCTYPE svg PUBLIC "-//W3C//DTD SVG 1.1//EN" "http://www.w3.org/Graphics/SVG/1.1/DTD/svg11.dtd"><svg width="100%" height="100%" viewBox="0 0 768 661" version="1.1" xmlns="http://www.w3.org/2000/svg" xmlns:xlink="http://www.w3.org/1999/xlink" xml:space="preserve" xmlns:serif="http://www.serif.com/" style="fill-rule:evenodd;clip-rule:evenodd;stroke-linejoin:round;stroke-miterlimit:2;"><g><path d="M585.973,243.142l-12.991,-4.586l1.069,-8.113c23.872,2.254 46.615,10.635 65.868,24.275c4.489,4.156 8.557,8.618 12.283,13.408c13.579,24.839 10.029,55.015 -9.053,76.318c-10.881,13.736 -24.413,25.288 -39.89,34.16c-13.695,8.442 -28.009,15.717 -42.963,21.646c-41.445,15.861 -84.801,26.556 -129.153,31.768c-54.246,6.697 -109.09,7.012 -163.443,0.805c-55.746,-5.105 -110.14,-19.753 -160.527,-43.384c-21.359,-10.487 -40.538,-24.557 -56.616,-41.621c-12.741,-13.186 -19.97,-30.407 -20.447,-48.406c0.949,-18.355 8.456,-35.905 21.183,-49.628c11.431,-12.672 24.867,-23.511 39.89,-32.096c21.822,-12.487 45.06,-22.446 69.158,-30.004l-71.121,103.161c-4.184,4.633 -6.424,10.575 -6.206,16.68c0.305,6.118 3.073,11.936 7.692,16.111c20.757,20.577 46.314,36.206 74.499,45.541c24.895,8.863 50.484,15.361 76.605,19.341c67.918,11.071 137.238,11.459 205.179,1.139c31.476,-5.151 62.332,-13.232 92.28,-24.043c20.132,-8.011 38.705,-18.98 55.246,-32.554c6.479,-5.744 11.862,-12.528 16.06,-20.017c6.526,-11.996 7.724,-25.955 3.582,-38.997c-4.286,-12.848 -13.699,-23.627 -26.223,-29.921c-0.62,-0.329 -1.24,-0.648 -1.962,-0.981m-51.622,-46.166l-139.14,-193.725c-1.962,-2.291 -4.966,-3.476 -7.997,-3.217c-3.073,0.259 -5.841,1.921 -7.345,4.489l-56.588,75.67l133.985,179.053l-17.517,14.218l1.888,0l-165.502,-224.242c-1.328,-2.559 -3.957,-4.29 -6.873,-4.61c-2.985,-0.342 -5.915,0.727 -7.849,2.934l-88.323,125.455c-33.887,9.094 -66.418,22.183 -96.913,39.052c-14.75,8.044 -28.315,17.781 -40.524,29.023c-11.978,10.696 -21.72,23.511 -28.852,37.585c-12.667,28.458 -7.359,61.364 13.639,84.769c11.256,14.319 25.126,26.598 40.843,36.326c19.975,12.542 41.218,23.326 63.197,32.124c63.211,24.034 130.134,37.872 198.066,41.107c84.732,5.54 169.908,-1.157 252.604,-20.003c46.082,-10.173 89.911,-27.857 129.713,-52.335c17.439,-11.121 32.837,-25.112 45.421,-41.084c11.057,-14.185 17.157,-31.277 17.318,-48.85c0.171,-10.233 -1.921,-20.382 -6.105,-29.777c-4.175,-9.627 -9.816,-18.614 -16.888,-26.538c-12.408,-14.912 -27.607,-27.524 -44.754,-37.238c-32.096,-19.614 -67.219,-34.072 -104.152,-42.833l-84.977,-124.33c-3.018,-4.17 -8.183,-6.424 -13.454,-6.105c-5.207,0.375 -9.955,3.392 -12.339,7.951l-20.766,30.379l78.9,108.169l-8.715,6.581Z" style="fill:#00652e;fill-rule:nonzero;"/></g><path d="M197.026,524.93c-2.82,0 -5.105,2.286 -5.105,5.105c0,2.82 2.286,5.105 5.105,5.105c1.214,0 2.194,0.64 2.194,2.12l0,67.736c-12.384,-4.543 -27.886,-7.026 -43.868,-7.025c-0.151,-0 -0.302,-0 -0.453,-0c-37.892,0.111 -68.934,14.16 -68.935,31.199c-0,0 -0,0.001 -0,0.001c0,17.116 31.323,31.201 69.388,31.201c0,0 0.001,0 0.002,0c38.065,0 69.388,-14.084 69.388,-31.201c0,-0 -0.002,-0.077 -0.003,-0.115l0.012,0l0,-58.696l24.165,0l0,-16.045l-24.165,0l0,-24.254c0,-0.004 0.003,-0.017 0.003,-0.021c0,-2.82 -2.286,-5.105 -5.105,-5.105l-15.968,0l-6.653,-0.003Zm105.721,0.729c-2.82,0 -5.105,2.286 -5.105,5.105c0,2.82 2.286,5.105 5.105,5.105c1.214,0 2.194,0.639 2.194,2.12l0,29.958c0,0.004 -0.003,0.017 -0.003,0.021c0,0.013 0.003,0.017 0.003,0.029l0,5.782c0,0.004 -0.003,0.017 -0.003,0.021c0,2.82 2.286,5.105 5.105,5.105l139.939,0c2.82,0 5.105,-2.286 5.105,-5.105c0,-0.004 -0.003,-0.017 -0.003,-0.021l0,-5.782c0,-0.012 0.003,-0.017 0.003,-0.029c0,-0.004 -0.003,-0.017 -0.003,-0.021l0,-37.158c0,-0.004 0.003,-0.017 0.003,-0.021c0,-2.82 -2.286,-5.105 -5.105,-5.105l-22.618,0c-2.82,0 -5.105,2.286 -5.105,5.105c0,2.82 2.286,5.105 5.105,5.105c1.214,0 2.194,0.64 2.194,2.12l0,2.886l-99.091,0l0,-10.086c0,-0.004 0.003,-0.017 0.003,-0.021c0,-2.82 -2.286,-5.105 -5.105,-5.105l-15.968,0l-6.649,-0.007Zm-222.188,4.661c-4.431,-0 -8.023,3.592 -8.023,8.023c0,4.431 3.592,8.023 8.023,8.023l49.452,0c5.241,0 6.166,3.033 5.034,6.954c-6.395,18.442 -29.373,29.025 -54.446,29.025c-6.186,0 -9.467,3.654 -9.404,7.706c0.063,4.056 2.129,6.208 8.495,6.535c35.888,1.847 85.333,-21.093 93.901,-53.07c2.075,-7.745 -0.978,-13.196 -9.997,-13.196l-83.035,0Zm463.241,2.447c-4.431,0 -8.023,3.592 -8.023,8.023c0,4.431 3.592,8.023 8.023,8.023l117.723,0c0,16.618 -1.58,43.222 -6.359,50.933l-122.148,0c-4.401,-0 -8.023,3.622 -8.023,8.023l0,0c0,4.401 3.622,8.023 8.023,8.023l65.295,-0l0,43.455l16.512,0c5.502,0.119 9.014,-3.924 9.014,-9.117l0,-34.338l72.576,0l0,-16.045l-14.401,0c3.054,-14.6 3.943,-43.952 3.943,-66.978l-142.156,0Zm-213.333,21.965l99.091,0l0,6.011c0,1.48 -0.98,2.122 -2.194,2.122l-94.704,0c-1.214,0 -2.194,-0.642 -2.194,-2.122l0,-6.011Zm-28.076,33.002c-4.401,-0 -8.023,3.622 -8.023,8.023l0,0c0,4.401 3.622,8.023 8.023,8.023l64.38,-0l0,8.769l-57.03,0c-4.431,0 -8.023,3.592 -8.023,8.023c0,4.431 3.592,8.023 8.023,8.023l116.561,0c1.689,0 3.373,1.219 3.373,3.447l0,26.293l16.512,0c5.502,0.118 9.014,-3.924 9.014,-9.117l0,-36.669l-62.904,0l0,-8.769l70.052,0l0,-16.045l-159.959,0Zm-147.569,23.515c0.177,-0.001 0.353,-0.001 0.53,0c21.099,-0 38.462,8.089 38.463,17.92c0,0.001 0,0.001 0,0.002c0,9.831 -17.363,17.921 -38.463,17.921c-0,0 -0.001,0 -0.001,0c-21.1,0 -38.463,-8.09 -38.463,-17.921c0,-0.001 0,-0.001 0,-0.002c-0.001,-9.738 17.035,-17.786 37.934,-17.92l0,0Z" style="fill:#231f20;fill-rule:nonzero;"/></svg>