<svg xmlns="http://www.w3.org/2000/svg" viewBox="0 0 300 200"><defs><clipPath id="a" clipPathUnits="userSpaceOnUse"><path d="M0 841.89h595.276V0H0Z"/></clipPath><clipPath id="b" clipPathUnits="userSpaceOnUse"><path d="M0 841.89h595.275V0H0Z"/></clipPath></defs><path fill="#fff" d="M300 199.999986H.00001V-.000003H300z"/><g clip-path="url(#b)" transform="matrix(1.1107528 0 0 -1.1107528 -203.8357469 556.9804633)"><path fill="#00652e" d="m362.23731 430.2226-2.807.991.231 1.753c5.158-.487 10.072-2.298 14.232-5.245.97-.898 1.849-1.862 2.654-2.897 2.934-5.367 2.167-11.887-1.956-16.49-2.351-2.968-5.275-5.464-8.619-7.381-2.959-1.824-6.052-3.396-9.283-4.677-8.955-3.427-18.323-5.738-27.906-6.864-11.721-1.447-23.571-1.515-35.315-.174-12.045 1.103-23.798 4.268-34.685 9.374-4.615 2.266-8.759 5.306-12.233 8.993-2.753 2.849-4.315 6.57-4.418 10.459.205 3.966 1.827 7.758 4.577 10.723 2.47 2.738 5.373 5.08 8.619 6.935 4.715 2.698 9.736 4.85 14.943 6.483l-15.367-22.29c-.904-1.001-1.388-2.285-1.341-3.604.066-1.322.664-2.579 1.662-3.481 4.485-4.446 10.007-7.823 16.097-9.84 5.379-1.915 10.908-3.319 16.552-4.179 14.675-2.392 29.653-2.476 44.333-.246 6.801 1.113 13.468 2.859 19.939 5.195 4.35 1.731 8.363 4.101 11.937 7.034 1.4 1.241 2.563 2.707 3.47 4.325 1.41 2.592 1.669 5.608.774 8.426-.926 2.776-2.96 5.105-5.666 6.465-.134.071-.268.14-.424.212m-11.154 9.975-30.064 41.858c-.424.495-1.073.751-1.728.695-.664-.056-1.262-.415-1.587-.97l-12.227-16.35 28.95-38.688-3.785-3.072h.408l-35.76 48.452c-.287.553-.855.927-1.485.996-.645.074-1.278-.157-1.696-.634l-19.084-27.107c-7.322-1.965-14.351-4.793-20.94-8.438-3.187-1.738-6.118-3.842-8.756-6.271-2.588-2.311-4.693-5.08-6.234-8.121-2.737-6.149-1.59-13.259 2.947-18.316 2.432-3.094 5.429-5.747 8.825-7.849 4.316-2.71 8.906-5.04 13.655-6.941 13.658-5.193 28.118-8.183 42.796-8.882 18.308-1.197 36.712.25 54.58 4.322 9.957 2.198 19.427 6.019 28.027 11.308 3.768 2.403 7.095 5.426 9.814 8.877 2.389 3.065 3.707 6.758 3.742 10.555.037 2.211-.415 4.404-1.319 6.434-.902 2.08-2.121 4.022-3.649 5.734-2.681 3.222-5.965 5.947-9.67 8.046-6.935 4.238-14.524 7.362-22.504 9.255l-18.361 26.864c-.652.901-1.768 1.388-2.907 1.319-1.125-.081-2.151-.733-2.666-1.718l-4.487-6.564 17.048-23.372z"/></g><path fill="#231f20" d="M295.72286 170.28895c-.67669 0-1.22526.54857-1.22526 1.22526 0 .6767.54857 1.22527 1.22526 1.22527.29138 0 .52649.15349.52649.50871v16.25667a16.653051 7.4881241 0 0 0-10.52828-1.68612 16.653051 7.4881241 0 0 0-.10876 0 16.653051 7.4881241 0 0 0-16.54451 7.48767 16.653051 7.4881241 0 0 0 16.65323 7.48835 16.653051 7.4881241 0 0 0 16.65324-7.48835 16.653051 7.4881241 0 0 0-.0007-.0274h.003v-14.08715h5.79952v-3.85083h-5.79956v-5.82102c.00002-.001.0007-.004.0007-.005 0-.6767-.54856-1.22526-1.22526-1.22526h-3.83236zm25.37301.17504c-.67669 0-1.22527.54858-1.22527 1.22526 0 .6767.54858 1.22528 1.22527 1.22528.29138 0 .52647.15348.52647.5087v7.18987c0 .001-.00068.004-.00068.005 0 .003.00068.004.00068.007v1.38763c0 .001-.00068.004-.00068.005 0 .6767.54856 1.22526 1.22526 1.22526h33.5854c.6767 0 1.22526-.54856 1.22526-1.22526 0-.001-.0007-.004-.0007-.005v-1.38763c0-.003.0007-.004.0007-.007 0-.001-.0007-.004-.0007-.005v-8.91801c.00001-.001.0007-.004.0007-.005 0-.6767-.54856-1.22527-1.22526-1.22527h-5.42821c-.67669 0-1.22526.54857-1.22526 1.22527 0 .67669.54857 1.22526 1.22526 1.22526.29138 0 .52649.1535.52649.50871v.69263h-23.78194v-2.42076c.00001-.001.0007-.004.0007-.005 0-.6767-.54858-1.22526-1.22527-1.22526h-3.83236zm-53.3251 1.1186c-1.06337-.00001-1.92541.86204-1.92541 1.92543 0 1.06338.86204 1.92542 1.92541 1.92542h11.86841c1.25791 0 1.4799.72798 1.20817 1.66901-1.53472 4.4261-7.04951 6.96596-13.067 6.96596-1.48473 0-2.27211.87686-2.25704 1.84953.0151.97341.51104 1.48985 2.03892 1.56851 8.61319.44338 20.47983-5.06241 22.53616-12.73676.49805-1.85875-.23474-3.1671-2.39925-3.1671zm111.17794.58734c-1.06338 0-1.92542.86204-1.92542 1.92542s.86204 1.92542 1.92542 1.92542h28.25361c0 3.98837-.3792 10.37331-1.52611 12.22395h-29.31547a1.9254194 1.9254194 0 0 0-1.92542 1.92542 1.9254194 1.9254194 0 0 0 1.92542 1.92542h15.6707v10.42912h3.96297c1.32054.0285 2.16337-.94185 2.16337-2.18797v-8.24115h17.41834v-3.85084h-3.45633c.73305-3.50396.94631-10.54848.94631-16.07479zm-51.20003 5.27165h23.78194v1.44269c0 .35522-.2351.50939-.52648.50939h-22.72897c-.29138 0-.52649-.15417-.52649-.50939zm-6.73828 7.92048a1.9254194 1.9254194 0 0 0-1.92542 1.92542 1.9254194 1.9254194 0 0 0 1.92542 1.92542h15.45122v2.10456h-13.68717c-1.06338 0-1.92542.86204-1.92542 1.92542s.86204 1.92541 1.92542 1.92541h27.97466c.40535 0 .80955.29254.80955.82734v6.31026h3.96297c1.32054.0284 2.16335-.94186 2.16335-2.18798v-8.80045h-15.09703v-2.10456h16.81256v-3.85084h-30.03682zm-35.41651 5.64361a9.2310768 4.3010302 0 0 1 .12716 0 9.2310768 4.3010302 0 0 1 9.2312 4.30074 9.2310768 4.3010302 0 0 1-9.2312 4.30142 9.2310768 4.3010302 0 0 1-9.23122-4.30142 9.2310768 4.3010302 0 0 1 9.10404-4.30074z" color="#000" font-family="sans-serif" font-weight="400" overflow="visible" style="line-height:normal;font-variant-ligatures:normal;font-variant-position:normal;font-variant-caps:normal;font-variant-numeric:normal;font-variant-alternates:normal;font-variant-east-asian:normal;font-feature-settings:normal;font-variation-settings:normal;text-indent:0;text-align:start;text-decoration-line:none;text-decoration-style:solid;text-decoration-color:#000;text-transform:none;text-orientation:mixed;white-space:normal;shape-padding:0;shape-margin:0;inline-size:0;isolation:auto;mix-blend-mode:normal;solid-color:#000;solid-opacity:1" transform="translate(-190.5496039 -23.5502267)"/></svg>