<?xml version="1.0" encoding="UTF-8" standalone="no"?><!DOCTYPE svg PUBLIC "-//W3C//DTD SVG 1.1//EN" "http://www.w3.org/Graphics/SVG/1.1/DTD/svg11.dtd"><svg width="100%" height="100%" viewBox="0 0 483 656" version="1.1" xmlns="http://www.w3.org/2000/svg" xmlns:xlink="http://www.w3.org/1999/xlink" xml:space="preserve" xmlns:serif="http://www.serif.com/" style="fill-rule:evenodd;clip-rule:evenodd;stroke-linejoin:round;stroke-miterlimit:2;"><path d="M217.551,522.974l-54.006,79.323l23.289,0l30.687,-45.852l29.393,46.141l23.201,0l0,46.173l21.22,0l0,-123.601l-27.171,0l0.034,3.12l0.747,-0.013c2.862,0 5.17,2.318 5.17,5.178l0,5.415l-21.549,0l0,15.654l21.549,0.022l0,47.915l-52.564,-79.474Zm-135.534,2.179l0.037,3.124l0.747,-0.015c2.862,0 5.181,2.319 5.181,5.181l0.032,-0.192l0,57.643l21.174,0l0,-36.346l21.489,-0.037l0,-15.654l-21.489,0l0,-13.703l-27.171,-0.002Zm-82.017,5.295l0,14.95l46.421,0l0,45.484l21.177,0l0,-60.433l-67.597,0Zm370.132,0l0,14.947l72.605,0.041l-0.032,37.341l21.833,0l0,-52.329l-94.406,0Zm-13.137,57.923l0,15.178l56.913,0l0.006,45.208l21.833,0l-0.009,-45.208l46.832,0l0,-15.178l-125.576,0Zm-279.201,1.029c-18.384,0 -33.29,14.905 -33.29,33.29c0,18.386 14.906,33.29 33.29,33.29c18.385,0 33.29,-14.905 33.29,-33.29c0,-18.385 -14.905,-33.29 -33.29,-33.29m0,19.157c7.806,0 14.134,6.328 14.134,14.134c0,7.804 -6.328,14.131 -14.134,14.131c-7.806,0 -14.131,-6.327 -14.131,-14.131c0,-7.806 6.326,-14.134 14.131,-14.134" style="fill-rule:nonzero;"/><path d="M276.686,5.253c0.023,1.654 -1.582,1.479 -2.498,2.046c0.403,-0.131 0.599,0.204 0.364,0.316c-0.583,0.284 -1.614,-0.136 -1.886,0.544c-0.24,0.599 -0.5,1.255 -0.975,1.498c-1.734,0.884 -3.165,2.09 -4.667,3.213c-1.554,1.159 -2.797,2.873 -3.8,4.691c-0.079,0.152 0.343,0.56 0.264,0.743c-0.408,0.944 -1.942,0.999 -2.182,1.73c-0.368,1.119 -1.423,1.227 -1.77,2.01c-0.164,0.364 0.156,0.944 0.152,1.191c-0.045,1.746 -2.422,1.702 -3.401,2.933c-0.403,0.511 0.503,0.727 0.732,1.159c-1.431,0.264 -1.846,1.698 -2.745,2.573c-0.348,0.34 0.113,1.387 -0.228,1.838c-2.25,2.961 -3.572,5.778 -3.457,9.499c0.034,1.195 -1.654,2.018 -2.933,2.909c-0.672,0.468 -0.683,1.399 -0.332,1.906c1.043,1.51 1.566,2.953 0.987,4.531c-0.416,1.143 -1.69,1.526 -2.997,2.334c-0.528,0.319 -1.291,1.543 -0.919,2.605c0.615,1.766 2.861,2.35 3.353,3.788c0.839,2.469 -0.447,5.674 0.64,7.904c2.358,4.843 3.904,9.922 3.88,15.305c-0.004,0.536 0.783,1.135 1.483,1.159c2.597,0.091 4.376,3.536 7.357,1.698c-0.867,-0.091 -0.487,0.552 -0.348,0.787c1.099,1.91 2.198,3.852 3.816,5.087c2.589,1.978 5.938,3.205 7.72,6.038c2.242,3.548 7.317,4.663 11.437,6.078c3.572,1.223 7.904,-0.312 11.608,0.771c1.678,0.487 3.113,2.402 5.043,2.721c2.849,0.468 5.71,0.207 8.54,-0.023c2.533,-0.204 4.591,-2.014 7.373,-2.062c1.562,-0.023 2.917,-1.618 4.54,-2.082c2.242,-0.643 5.063,0.895 6.661,0.144c3.676,-1.718 6.837,-6.098 8.851,-9.866c1.283,-2.402 5.183,-2.573 6.753,-5.239c1.039,-1.77 0.771,-4.128 1.622,-5.922c1.083,-2.286 4.032,-3.608 4.775,-5.93c1.578,-4.955 3.025,-9.662 4.516,-14.705c0.487,-1.646 1.155,-4.344 -0.023,-6.33c-1.654,-2.785 0.123,-6.817 -0.732,-10.282c-0.688,-2.777 -3.405,-4.567 -4.132,-7.449c-0.724,-2.873 1.078,-5.762 0.113,-8.492c-0.967,-2.737 -1.61,-5.714 -3.964,-7.772c-0.515,-0.452 -1.259,-0.583 -1.99,-0.468c0.168,-1.562 -1.275,-2.302 -2.138,-2.629c-2.046,-0.775 -2.665,-3.017 -4.164,-4.084c-2.721,-1.93 -6.242,-1.415 -9.239,-3.093c-1.315,-0.74 -0.775,-2.633 -2.07,-3.209c-2.202,-0.983 -4.264,-2.29 -6.262,-3.485c-3.76,-2.25 -8.196,-1.862 -12.54,-2.553c-4.547,-0.727 -8.959,0.484 -13.451,0.091c-1.271,-0.113 -2.218,-1.654 -3.676,-1.391c-2.885,0.515 -5.498,1.143 -7.864,3.081c-1.471,1.207 -3.684,-0.034 -5.235,1.323c0.136,0.139 0.364,0.272 0.364,0.411c0,0.136 -0.319,0.272 -0.319,0.408" style="fill:#e60013;fill-rule:nonzero;"/><path d="M380.093,99.303c-26.306,70.861 -29.978,150.4 -7.596,225.426l81.007,0c-49.455,-66.338 -74.198,-145.525 -73.411,-225.426m0,-0c-75.844,65.075 -123.894,161.522 -123.894,269.295l88.888,0c-25.331,-93.599 -10.516,-190.029 35.006,-269.295m-49.997,38.981c-104.979,42.414 -178.609,129.348 -207.912,230.255l90.401,0c8.5,-85.699 48.031,-168.569 117.51,-230.255m0,0c-134.73,0 -251.919,75.809 -312.007,186.418l80.686,0c44.388,-89.922 126.449,-159.905 231.321,-186.418" style="fill:#014099;fill-rule:nonzero;"/><path d="M467.056,456.508c-66.214,-40.687 -144.264,-63.321 -227.829,-63.321c-81.842,0 -158.39,23.653 -223.713,63.321l451.542,0Z" style="fill:#008842;fill-rule:nonzero;"/></svg>