<?xml version="1.0" encoding="UTF-8" standalone="no"?><!DOCTYPE svg PUBLIC "-//W3C//DTD SVG 1.1//EN" "http://www.w3.org/Graphics/SVG/1.1/DTD/svg11.dtd"><svg width="100%" height="100%" viewBox="0 0 1511 1550" version="1.1" xmlns="http://www.w3.org/2000/svg" xmlns:xlink="http://www.w3.org/1999/xlink" xml:space="preserve" xmlns:serif="http://www.serif.com/" style="fill-rule:evenodd;clip-rule:evenodd;stroke-linejoin:round;stroke-miterlimit:2;"><g id="Background"><path d="M1054.254,1549.642c-175.602,2.494 -336.73,-106.265 -408.249,-248.894c-42.731,-85.218 -30.654,-109.371 -48.005,-109.454c-132.515,-0.637 -476.361,1.6 -484.719,-1.468c-19.995,-7.341 -16.827,-14.132 -16.827,-141.618c-0,-636.742 0.295,-637.72 -2.416,-639.469c-10.575,-6.823 -94.058,15.138 -94.038,-26.157c0.01,-18.993 7.098,-17.798 265.853,-182.643c312.628,-199.165 313.44,-201.81 326.081,-199.597c10.176,1.781 125.911,78.33 209.878,131.136c29.293,18.422 349.684,219.909 364.654,232.656c14.808,12.609 9.788,42.518 -18.475,43.478c-61.891,2.102 -69.492,-4.127 -69.525,9.337c-0.042,17.01 -0.513,209.437 0.143,212.629c3.468,16.866 149.963,-12.415 306.962,146.679c216.563,219.452 151.182,636.779 -190.392,751.017c-61.894,20.7 -129.514,22.128 -140.927,22.369Z" style="fill-opacity:1;"/><path d="M979.231,407.746l0.821,2.961c-1.112,118.361 0.711,178.493 -0.613,228.896c-124.523,22.935 -195.377,73.401 -260.17,139.265c-6.725,6.836 -17.77,4.935 -52.528,4.935c-216.301,-0 -219.276,-1.423 -226.845,9.196c-6.503,9.122 -5.673,10.229 -5.673,245.833c0,96.945 1.824,102.386 -8.117,102.457c-22.182,0.158 -272.151,1.934 -277.276,-0.757c-2.913,-1.529 -2.59,-2.715 -2.59,-492.325c0,-236.329 -0.565,-239.425 4.919,-240.357c3.194,-0.543 761.826,-0.139 828.071,-0.104Z" style="fill:#ebeef0;"/><path d="M1373.867,1292.032c-3.036,12.727 -3.262,12.86 -13.724,21.075c-37.286,13.224 -45,-40.176 -177.681,-35.552c-80.807,2.816 -113.663,49.296 -144.151,33.748c-168.541,-85.946 -258.518,13.472 -287.477,3.435c-20.667,-7.163 -17.537,-14.334 -17.537,-157.156c0,-233.137 -0.956,-234.748 6.447,-242.734c15.154,-16.348 153.103,-84.673 296,-20.335c15.376,6.923 16.098,8.655 31.577,1.798c162.476,-71.969 296.71,10.149 303.336,23.347c4.085,8.137 3.495,8.621 3.495,162.924c-0,181.838 0.03,181.702 -0.285,209.45Z"/><path d="M1232.898,725.276l-0.532,5.585l3.125,2.335l4.193,2.511l2.057,1.576l3.125,2.361l3.681,2.312l2.569,1.873l3.125,2.654c1.153,0.734 62.694,44.693 107.46,119.738c122.85,205.943 29.907,389.285 21.357,410.492c-3.353,8.316 -4.045,7.608 -9.191,15.318c0.314,-27.747 0.285,-27.611 0.285,-209.45c-0,-154.303 0.59,-154.787 -3.495,-162.924c-6.626,-13.197 -140.86,-95.315 -303.336,-23.347c-15.479,6.857 -16.201,5.125 -31.577,-1.798c-142.897,-64.337 -280.846,3.988 -296,20.335c-7.403,7.985 -6.447,9.597 -6.447,242.734c0,142.822 -3.129,149.993 17.537,157.156c28.959,10.036 118.936,-89.381 287.477,-3.435c30.488,15.547 63.345,-30.932 144.151,-33.748c132.681,-4.624 140.395,48.776 177.681,35.552l0.806,3.85c-42.001,74.323 -116.341,125.114 -128.583,133.479c-3.138,2.144 -3.137,2.168 -3.125,2.488c0.128,3.437 3.284,1.793 3.411,5.232c-8,3.556 -187.24,100.813 -385.47,-14.804c-265.278,-154.723 -274.398,-549.508 9.457,-708.943c181.874,-102.155 349.099,-22.13 376.259,-9.133Z" style="fill:#89c8fd;"/><path d="M575.275,62.393c36.263,22.548 34.507,24.926 450.376,286.492c0.9,0.566 0.707,0.672 9.844,8.932c-73.27,-0.196 -808.154,-2.157 -915.88,0.69c-16.208,0.428 12.073,-13.822 43.037,-33.686c61.01,-39.14 401.795,-255.814 412.623,-262.428Z" style="fill:#fe636e;"/><path d="M1229.368,918.676c7.486,1.007 61.163,8.225 90.763,26.01c5.822,3.498 3.723,5.841 4.021,291.022c0.01,9.981 1.995,15.884 -7.415,12.511c-165.189,-59.218 -238.314,22.427 -238.323,-6.178c-0.082,-267.716 -3.071,-267.746 0.168,-290.782c0.553,-3.929 1.383,-9.836 44.176,-22.548c54.011,-16.044 94.938,-10.708 106.608,-10.035Z" style="fill:#ebeef0;"/><path d="M1017.198,941.095l0.451,3.988c1.446,23.455 -1.345,23.228 -0.031,293.75c0.014,2.958 -0.365,7.369 -0.42,8.008c-14.044,-4.744 -97.12,-32.807 -184.937,-11.556c-27.516,6.659 -48.856,18.309 -49.037,9.663c-1.426,-68.308 -0.078,-267.244 0.079,-290.482c0.041,-5.983 0.125,-18.51 67.694,-31.786c91.952,-18.066 157.04,14.544 166.2,18.415Z" style="fill:#ebeef0;"/><path d="M596.279,1063.91c-1.295,71.082 5.062,76.657 -4.596,77.358c-0.632,0.046 -99.773,0.02 -99.916,0.015c-9.111,-0.289 -7.429,-5.277 -7.429,-102.451c0,-201.211 -0.549,-203.211 3.659,-204.582c2.434,-0.794 181.214,-1.349 183.038,0.221c10.588,9.113 -60.781,57.936 -74.756,229.439Z" style="fill:#ebb977;"/><path d="M959.021,486.037c0.421,7.01 2.867,120.474 -1.481,130.999c-7.383,17.871 -16.26,14.885 -125.174,14.879c-44.766,-0.003 -37.921,-19.361 -37.921,-105.582c-0,-21.806 -6.692,-59.372 28.537,-59.742c115.609,-1.214 116.324,-1.433 124.706,3.986c8.358,5.404 7.686,6.135 11.333,15.46Z"/><path d="M506.16,614.183c-1.376,-14.216 -1.248,-13.959 -1.251,-28.476c-0.018,-95.55 -5.564,-118.247 27.445,-119.087c115.167,-2.931 118.608,-0.695 127.144,4.85c8.951,5.815 14.03,9.114 10.639,132.994c-0.939,34.319 -38.303,27.45 -56.521,27.45c-92.158,-0 -98.637,3.645 -107.456,-17.732Z"/><path d="M214.997,857.548c0.762,-63.35 -0.639,-113.615 0.899,-118.93c6.789,-23.459 33.973,-19.196 38.345,-19.203c109.651,-0.163 114.768,-1.995 122.525,12.801c4.543,8.666 4.485,9.163 3.646,122.247c-0.275,37.016 -33.62,30.172 -48.045,30.175c-100.263,0.023 -112.961,5.015 -117.369,-27.091Z"/><path d="M214.993,604.428c0.799,-65.045 -0.719,-113.292 1.001,-118.925c6.97,-22.831 33.066,-18.68 38.247,-18.689c110.982,-0.197 114.781,-1.769 122.369,12.354c4.628,8.614 4.534,9.128 3.803,122.17c-0.243,37.465 -31.527,30.576 -60.546,30.576c-87.933,-0 -100.782,5.34 -104.873,-27.487Z"/><path d="M1232.898,725.276c292.772,147.295 318.558,565.781 -0.246,732.88c-0.128,-3.439 -3.284,-1.795 -3.411,-5.232c-0.012,-0.319 -0.013,-0.344 3.125,-2.488c12.242,-8.364 86.583,-59.156 128.583,-133.479l-0.806,-3.85c10.462,-8.215 10.687,-8.348 13.724,-21.075c5.146,-7.709 5.838,-7.002 9.191,-15.318c8.55,-21.207 101.494,-204.548 -21.357,-410.492c-44.766,-75.045 -106.307,-119.004 -107.46,-119.738l-3.125,-2.654l-2.569,-1.873l-3.681,-2.312l-3.125,-2.361l-2.057,-1.576l-4.193,-2.511l-3.125,-2.335l0.532,-5.585Z" style="fill:#60b6fe;"/><path d="M979.231,407.746c28.831,-0.032 45.068,-0.985 47.871,2.158c2.656,2.979 1.377,220.328 0.646,221.854c-1.693,3.53 -2.84,1.881 -48.308,7.845c1.324,-50.402 -0.499,-110.534 0.613,-228.896l-0.821,-2.961Z" style="fill:#d1d1d6;"/><path d="M873.173,1133.971c7.324,-0.657 50.787,-9.628 106.23,10.717c21.143,7.758 19.727,33.889 7.935,42.626c-17.235,12.769 -18.953,5.265 -39.662,-0.387c-75.072,-20.486 -114.321,26.34 -129.679,-8.069c-16.657,-37.318 50.174,-43.837 55.176,-44.887Z"/><path d="M904.262,1040.262c6.12,0.255 38.333,-0.451 75.309,13.383c18.669,6.985 22.902,31.578 5.546,44.006c-28.067,20.096 -34.562,-26.763 -134.388,2.362c-2.808,0.819 -25.681,7.492 -33.575,-14.464c-15.85,-44.083 84.131,-45.141 87.108,-45.287Z"/><path d="M1235.298,1134.084c4.979,1.059 71.244,8.322 53.508,45.472c-15.741,32.972 -58.145,-12.921 -128.07,7.114c-0.576,0.165 -22.949,10.939 -37.966,2.521c-12.318,-6.906 -22.233,-36.022 9.926,-46.237c32.468,-10.313 56.441,-14.616 102.602,-8.869Z"/><path d="M1204.201,1040.28c6.94,0.645 72.504,6.735 83.762,23.953c9.722,14.869 -1.745,44.306 -30.297,36.06c-97.795,-28.244 -100.891,12.111 -131.047,-0.23c-17.24,-7.056 -17.823,-26.809 -12.071,-35.665c13.946,-21.474 82.231,-23.859 89.653,-24.118Z"/><path d="M891.808,949.636c20.593,-0.07 20.409,-1.116 37.56,0.791c92.751,10.31 66.801,51.188 53.217,57.585c-17.785,8.376 -18.135,0.996 -37.583,-4.087c-61.616,-16.104 -100.327,15.388 -118.251,2.701c-4.674,-3.308 -43.528,-47.889 65.057,-56.989Z"/><path d="M1216.671,949.669c1.077,0.14 90.287,4.819 72.931,45.812c-16.036,37.876 -51.543,-13.527 -134.911,10.464c-6.742,1.94 -27.32,12.771 -40.515,-8.051c-4.851,-7.654 -22.263,-48.969 102.496,-48.225Z"/><path d="M575.275,62.393c19.35,-11.622 20.316,-2.816 39.268,9.335c32.526,20.854 214.39,137.457 407.643,258.995c36.835,23.165 39.246,23.131 37.309,26.222c-1.02,1.628 -1.482,1.626 -23.999,0.872c-9.138,-8.26 -8.944,-8.366 -9.844,-8.932c-415.869,-261.566 -414.113,-263.944 -450.376,-286.492Z" style="fill:#fc4755;"/><path d="M264.968,795.082c0.022,-1.724 -1.582,-25.11 4.798,-25.529c59.337,-3.9 60.479,1.803 60.601,6.679c1.382,55.45 -0.051,56.789 -4.491,58.246c-0.956,0.314 -55.644,0.108 -55.865,0.091c-7.382,-0.589 -5.029,-27.871 -5.043,-39.487Z" style="fill:#d6ebfe;"/><path d="M264.968,566.957c0.772,-22.537 -1.221,-46.713 2.392,-49.101c3.069,-2.028 58.277,-0.851 58.716,-0.747c4.635,1.099 6.767,2.583 4.241,59.39c-0.215,4.841 -1.982,7.41 -60.34,5.322c-7.489,-0.268 -3.968,-4.013 -5.009,-14.865Z" style="fill:#d6ebfe;"/><path d="M879.241,581.917c-10.856,-0.01 -33.502,2.6 -34.702,-5.542c-0.175,-1.187 -0.085,-46.044 -0.077,-50.047c0.025,-12.401 10.157,-9.684 53.53,-9.512c15.204,0.061 11.835,7.546 11.715,56.382c-0.032,13.154 -23.065,8.695 -30.466,8.719Z" style="fill:#d6ebfe;"/><path d="M554.921,551.332c0.012,-10.861 -2.642,-33.29 5.562,-34.439c0.916,-0.128 52.385,-0.096 53.142,-0.024c4.766,0.449 8.791,1.756 6.443,59.49c-0.29,7.133 -12.875,5.67 -56.444,5.558c-13.115,-0.034 -8.686,-22.861 -8.703,-30.584Z" style="fill:#d6ebfe;"/><path d="M1017.198,941.095c15.947,8.313 11.266,14.978 11.266,47.738c-0,258.066 0.283,259.304 -2.04,259.958c-0.726,0.204 -0.683,-0.144 -9.225,-1.95c0.055,-0.639 0.434,-5.05 0.42,-8.008c-1.314,-270.522 1.477,-270.295 0.031,-293.75l-0.451,-3.988Z" style="fill:#d1d1d6;"/></g></svg>