<?xml version="1.0" encoding="UTF-8" standalone="no"?><!DOCTYPE svg PUBLIC "-//W3C//DTD SVG 1.1//EN" "http://www.w3.org/Graphics/SVG/1.1/DTD/svg11.dtd"><svg width="100%" height="100%" viewBox="0 0 913 785" version="1.1" xmlns="http://www.w3.org/2000/svg" xmlns:xlink="http://www.w3.org/1999/xlink" xml:space="preserve" xmlns:serif="http://www.serif.com/" style="fill-rule:evenodd;clip-rule:evenodd;stroke-linejoin:round;stroke-miterlimit:2;"><g><path d="M582.865,738.96c0.01,-21.122 3.345,-43.883 -7.076,-44.031c-71.362,-1.015 -73.434,-2.432 -75.431,3.268c-1.164,3.322 -0.152,3.226 -0.858,43.997c-21.157,43.102 -116.008,39.316 -122.557,9.667c-0.278,-1.256 0.771,-2.572 0.494,-3.829c3.771,-14.784 11.278,-13.485 9.347,-49.599c-0.611,-11.435 -11.892,-3.764 -92.181,-13.25c-26.803,-3.167 -33.318,-5.239 -33.368,-18.073c-0.861,-220.768 2.443,-228.78 -4.346,-225.358c-0.636,0.32 -6.692,6.822 -21.798,12.712c-50.317,19.618 -121.604,-60.156 10.316,-135.809c11.139,-6.388 15.768,-4.132 15.808,-17.158c0.843,-277.046 -4.351,-281.514 5.774,-286.033c45.097,-20.128 541.725,-22.559 553.248,4.41c3.9,9.127 -1.633,285.145 3.045,290.466c5.251,5.972 111.46,52.241 84.502,119.613c-9.235,23.08 -44.546,37.931 -75.07,17.32c-7.689,-5.192 -7.669,-6.715 -10.078,-5.17c-3.799,2.437 2.25,227.772 -3.308,234.238c-12.67,14.739 -119.771,11.219 -122.731,18.338c-8.286,19.927 4.107,41.909 5.893,45.077c0,0 2.453,7.625 2.667,8.289c-9.073,42.877 -111.669,31.019 -122.292,-9.084Z" style="fill:#201412;"/><path d="M769.429,17.345c1.876,2.653 2.035,2.575 1.428,5.776c-0.634,3.345 1.354,597.713 -0.878,654.29c-117.905,14.481 -491.175,9.315 -498.974,-8.006c-2.794,-6.206 -1.105,-324.107 -0.955,-352.29c0.979,-184.24 -0.945,-286.358 1.078,-291.398c7.531,-18.764 400.524,-20.983 498.302,-8.37Z" style="fill:#f7c888;"/><path d="M40.703,757.506c1.111,-14.029 -8.553,-9.116 -15.434,-21.331c-6.423,-11.401 -2.379,-15.302 -14.838,-19.924c-26.981,-10.009 6.894,-32.705 6.971,-39.735c0.531,-49.013 -8.303,-69.765 45.909,-70.688c71.561,-1.218 89.609,-4.543 99.484,30.156c4.715,16.568 -4.562,38.442 8.718,48.23c1.995,1.471 25.992,19.157 7.573,30.042c-9.096,5.375 -11.63,2.19 -16.907,11.565c-7.862,13.968 -21.413,17.475 -21.238,32.104c-6.264,17.761 -27.614,14.615 -33.734,2.839c-1.5,-2.886 -25.309,-13.481 -34.471,3.28c-2.358,4.313 -25.782,13.947 -32.033,-6.538Z" style="fill:#201412;"/><path d="M66.392,746.693c-41.861,-1.362 -39.639,-30.219 -39.752,-57.735c-0.213,-52.112 -3.348,-58.538 6.39,-67.607c11.119,-10.355 98.208,-8.295 107.588,-2.936c24.565,14.034 14.177,101.677 12.359,104.355c-20.693,30.494 -27.46,24.105 -86.585,23.922Z" style="fill:#876660;"/><path d="M582.865,738.96c10.623,40.102 113.219,51.961 122.292,9.084c0.438,0.152 192.782,16.374 36.317,29.212c-48.437,3.974 -214.26,11.522 -309.413,4.284c-5.043,-0.384 -50.451,0.384 -109.263,-6.269c-122.356,-13.84 51.827,-26.09 54.639,-27.238c0.278,1.256 -0.771,2.572 -0.494,3.829c6.549,29.649 101.4,33.436 122.557,-9.667c5.784,1.943 9.936,3.338 76.229,2.562c9.148,-0.107 6.879,-5.465 7.137,-5.797Z" style="fill:#aa9e8d;"/><path d="M769.429,17.345c4.816,0.298 4.551,0.655 9.595,0.929c2.911,12.645 -2.39,44.67 6.235,44.93c19.851,0.598 19.855,-0.262 21.553,0.038c2.634,0.466 2.444,0.21 5.11,0.44c0.009,3.326 0.018,6.652 0.026,9.978c-1.884,-0.515 -1.592,-1.326 -8.018,-1.314c-16.019,0.029 -23.703,-5.685 -23.705,10.396c-0.016,116.571 -0.271,117.138 1.652,118.911c2.888,2.663 3.431,1.282 29.5,0.496c0.834,6.109 0.757,5.949 0.621,12.105c-11.339,-4.305 -11.506,-2.21 -23.71,-2.06c-7.054,0.087 -8.042,0.91 -8.061,8.061c-0.327,121.496 1.955,121.462 2.038,121.534c2.529,2.194 2.936,0.936 29.074,0.987c0.224,2.998 0.449,5.996 0.673,8.993c-13.519,1.163 -13.293,-1.119 -26.756,0.483c-5.555,0.661 -5.128,3.569 -5.031,121.104c0.014,17.212 9.021,8.6 26.853,9.572c2.763,0.151 2.426,-0.244 4.869,-0.49l-0.028,9.982c-2.468,-0.248 -28.874,-2.903 -30.928,2.254c-0.242,0.608 -3.394,124.823 1.811,127.344c2.098,1.016 2.335,-1.266 29.119,1.038c0.009,3.326 0.018,6.652 0.026,9.978c-13.495,-2.212 -13.395,-1.888 -26.992,-1.218c-4.749,0.234 -4.733,18.054 -4.731,19.672c0.012,12.696 0.883,12.4 1.784,25.069c-11.335,0.448 -11.065,0.852 -12.03,0.853c2.232,-56.576 0.244,-650.944 0.878,-654.29c0.607,-3.201 0.448,-3.123 -1.428,-5.776Z" style="fill:#cf3339;"/><path d="M257.072,429.665c-60.129,50.391 -105.683,-13.33 -56.097,-65.483c20.868,-21.948 58.45,-47.477 59.868,-37.914c0.016,0.109 -0.003,91.004 -0.057,94.007c-0.096,5.295 -0.42,5.052 -3.713,9.39Z" style="fill:#6a3906;"/><path d="M825.645,429.735c-6.117,-7.847 -3.823,-25.974 -3.826,-28.246c-0.081,-77.007 -0.107,-77.375 0.844,-78.104c4.099,-3.142 40.853,23.565 46.409,28.635c73.856,67.416 12.006,125.135 -43.427,77.715Z" style="fill:#6a3906;"/><path d="M438.282,694.054c40.585,0.828 52.466,-1.473 52.55,7.47c0.418,44.357 0.582,54.243 -43.353,61.609c-30.095,5.046 -74.717,0.425 -54.197,-25.248c4.561,-5.707 2.302,-33.485 2.727,-39.404c0.616,-8.58 26.083,-4.873 42.273,-4.427Z" style="fill:#6a3906;"/><path d="M686.393,729.591c3.657,15.964 16.865,20.284 2.139,28.591c-25.427,14.344 -96.038,6.016 -96.579,-25.453c-0.431,-25.013 -1.551,-37.511 5.654,-37.813c6.92,-0.29 82.419,-3.457 86.562,-1.433c3.062,1.496 2.176,21.872 2.225,36.108Z" style="fill:#6a3906;"/><path d="M812.011,351.769c0.619,51.693 0.499,72.435 -0.064,130.669c-2.443,0.246 -2.107,0.64 -4.869,0.49c-17.832,-0.972 -26.839,7.641 -26.853,-9.572c-0.098,-117.535 -0.524,-120.443 5.031,-121.104c13.463,-1.602 13.236,0.68 26.756,-0.483Z" style="fill:#f8c989;"/><path d="M811.919,492.42c0.633,65.893 0.371,91.886 0.003,130.637c-26.784,-2.304 -27.021,-0.022 -29.119,-1.038c-5.205,-2.521 -2.054,-126.736 -1.811,-127.344c2.054,-5.157 28.46,-2.502 30.928,-2.254Z" style="fill:#f8c989;"/><path d="M811.997,214.254c0.213,10.28 2.236,107.762 -0.66,128.522c-26.138,-0.051 -26.545,1.207 -29.074,-0.987c-0.083,-0.072 -2.366,-0.038 -2.038,-121.534c0.019,-7.151 1.008,-7.974 8.061,-8.061c12.204,-0.151 12.371,-2.246 23.71,2.06Z" style="fill:#f8c989;"/><path d="M811.947,73.66c0.269,10.276 2.648,100.984 -0.572,128.489c-26.069,0.785 -26.612,2.167 -29.5,-0.496c-1.923,-1.773 -1.668,-2.34 -1.652,-118.911c0.002,-16.081 7.686,-10.367 23.705,-10.396c6.426,-0.012 6.134,0.799 8.018,1.314Z" style="fill:#f8c989;"/><path d="M582.865,738.96c-0.258,0.332 2.011,5.69 -7.137,5.797c-66.293,0.776 -70.445,-0.619 -76.229,-2.562c0.707,-40.771 -0.306,-40.675 0.858,-43.997c1.998,-5.7 4.07,-4.283 75.431,-3.268c10.421,0.148 7.086,22.909 7.076,44.031Z" style="fill:#fff;"/><path d="M40.703,757.506c6.251,20.485 29.675,10.852 32.033,6.538c9.161,-16.761 32.971,-6.165 34.471,-3.28c6.121,11.776 27.47,14.921 33.734,-2.839c14.467,-2.269 14.502,-1.592 28.116,4.023c44.051,18.168 -97.289,30.812 -146.636,15.267c-30.422,-9.584 -1.325,-19.957 18.283,-19.709Z" style="fill:#a99d8c;"/><path d="M96.22,648.289c-1.336,26.529 -4.473,28.327 11.9,49.165c10.316,13.128 31.905,17.337 20.712,22.701c-14.781,7.084 -36.947,-35.426 -40.988,-28.529c-25.827,44.09 -37.599,29.287 -37.903,25.639c-0.436,-5.246 36.894,-10.724 36,-65.801c-0.019,-1.182 -0.32,-19.708 8.355,-12.186c2.89,2.506 1.474,3.076 1.922,9.011Z" style="fill:#201412;"/><path d="M340.696,83.597c10.743,5.825 6.11,20.828 5.767,27.241c-0.71,13.278 6.483,6.779 19.831,7.334c9.064,0.377 11.289,12.053 0.277,10.582c-25.328,-3.384 -58.245,12.966 -68.332,8.809c-9.981,-4.114 7.862,-7.724 8.789,-7.912c16.112,-3.26 -0.893,-22.076 9.567,-33.853c13.461,16.878 -1.288,23.322 7.433,29.422c0.313,0.219 0.294,-0.196 3.97,-2.648l3.951,1.942c13.776,-4.137 1.705,-14.342 -0.542,-17.137c-2.567,-7.864 -1.698,-8.007 -6.352,-15.078c7.581,-4.992 7.287,-4.921 15.642,-8.702Z" style="fill:#231714;"/><path d="M779.024,18.274c12.518,1.305 12.354,0.755 24.613,3.252c12.598,2.565 8.514,20.679 8.284,42.156c-2.666,-0.229 -2.476,0.026 -5.11,-0.44c-1.698,-0.3 -1.702,0.56 -21.553,-0.038c-8.625,-0.26 -3.324,-32.285 -6.235,-44.93Z" style="fill:#f8c989;"/><path d="M811.947,633.035c0.042,2.713 0.458,29.443 0.132,33.922c-0.589,8.114 -23.199,8.821 -30.072,9.6c-0.902,-12.668 -1.773,-12.372 -1.784,-25.069c-0.001,-1.619 -0.018,-19.438 4.731,-19.672c13.597,-0.67 13.497,-0.994 26.992,1.218Z" style="fill:#f8c989;"/><path d="M308.267,167.239c-4.315,-29.119 14.526,-2.704 12.55,3.367c-0.632,1.94 -1.915,3.634 -2.486,5.592c-1.898,6.519 3.142,6.163 1.982,12.968c-4.39,25.764 5.949,45.95 -12.856,33.662c-4.573,-2.988 3.685,-6.458 3.936,-11.939c0.407,-8.865 -7.698,-3.643 -10.241,-4.268c-10.8,-2.654 23.526,-23.521 2.732,-22.629c-10.796,0.463 -7.893,-5.972 -6.01,-7.153c6.245,-3.917 7.768,-2.403 10.392,-9.599Z" style="fill:#231714;"/><path d="M349.13,183.427c4.581,-0.75 4.457,-0.552 11.347,-1.024c5.517,7.051 4.454,17.295 4.454,31.589c-0,14.747 -24.996,12.009 -29.741,9.3c-7.356,-4.2 -8.417,-27.789 -8.397,-27.844c1.473,-3.962 4.399,-2.068 4.632,-2.178c0.664,1.314 4.335,8.576 6.179,17.33c1.375,5.845 1.063,8.029 6.984,6.809c16.061,-3.308 10.916,-13.623 10.532,-18.926c-1.863,-4.277 -0.686,-5.78 -4.44,-6.047c-6.614,-0.472 -8.145,2.82 -11.424,-2.735c5.102,-3.032 4.791,-3.194 9.875,-6.276Z" style="fill:#221513;"/><path d="M485.41,172.073c43.317,15.037 -26.874,31.54 -28.022,10.637c-0.7,-12.751 25.63,-10.813 28.022,-10.637Z" style="fill:#fff;"/><path d="M610.368,171.814c24.401,5.133 12.071,21.928 -6.509,21.297c-21.378,-0.727 -25.959,-15.715 -9.557,-20.423c7.896,-2.267 7.836,-1.194 16.066,-0.873Z" style="fill:#fff;"/><path d="M479.016,209.665c32.541,10.4 -0.579,44.294 -14.252,22.198c-2.02,-3.265 -2.05,-10.553 -0.132,-14.071c4.282,-7.854 5.377,-6.929 14.384,-8.127Z" style="fill:#201412;"/><path d="M590.16,223.258c0.387,-1.272 3.283,-10.795 10.445,-12.922c8.328,-2.474 14.173,3.446 15.053,4.338c16.004,16.21 -21.125,42.294 -25.498,8.585Z" style="fill:#201412;"/><path d="M359.56,175.806c-5.879,1.055 -5.615,0.831 -11.49,2.702c-8.473,0.361 -18.306,3.703 -19.021,-30.111c-0.072,-3.419 6.405,-6.637 9.551,2.922c3.097,9.412 9.818,-2.551 15.107,-1.607c1.214,0.217 9.114,5.872 -8.719,12.706c-12.578,4.82 3.582,12.869 13.505,2.887c4.864,-4.893 13.243,3.942 1.067,10.502Z" style="fill:#231613;"/><path d="M529.253,265.838c-1.398,-0.647 -15.262,-7.06 -15.623,-11.26c-0.997,-11.605 15.502,6.213 30.964,3.809c8.215,-1.277 31.568,-14.408 23.39,-1.486c-8.751,13.827 -35.593,9.449 -38.732,8.937Z" style="fill:#201412;"/><path d="M313.796,65.171c12.527,15.361 19.502,6.917 21.36,6.403c0.627,-0.174 14.704,1.433 0.047,8.136c-7.795,3.383 -7.453,3.363 -15.691,6.176c-1.382,-1.023 -16.012,-11.854 -5.717,-20.715Z" style="fill:#231713;"/><path d="M322.52,89.099l2.533,3.201c4.655,7.07 3.785,7.214 6.352,15.078c-5.982,5.679 -2.72,6.948 -3.181,9.519l-0.228,5.675c-3.676,2.452 -3.657,2.867 -3.97,2.648c-8.722,-6.1 6.028,-12.544 -7.433,-29.422c1.976,-2.233 3.951,-4.466 5.927,-6.699Z" style="fill:#ddb27a;"/><path d="M58.389,664.085c1.425,-6.039 1.174,-6.13 1.539,-6.522c9.317,-10.006 10.921,16.209 5.86,21.436c-8.162,8.431 -7.443,-13.583 -7.4,-14.914Z" style="fill:#201412;"/><path d="M114.568,661.237c19.069,-20.658 7.963,24.679 -1.058,17.964c-4.708,-3.505 -1.679,-4.651 1.058,-17.964Z" style="fill:#201412;"/><path d="M339.255,189.703c3.28,5.555 4.81,2.263 11.424,2.735c3.754,0.268 2.577,1.771 4.44,6.047l-4.125,2.295c-0.563,0.003 -2.501,-0.886 -6.706,0.04c-4.966,1.094 -2.822,2.956 -2.839,8.061l-3.845,1.72c-1.845,-8.754 -5.515,-16.016 -6.179,-17.33c2.61,-1.189 5.221,-2.379 7.831,-3.568Z" style="fill:#e3b87d;"/><path d="M317.671,61.652c8.1,-5.743 7.401,-6.884 14.143,-8.306c7.675,-1.619 8.144,5.101 6.216,7.355c-9.686,11.323 -19.19,2.088 -20.359,0.951Z" style="fill:#201412;"/><path d="M355.119,198.485c0.384,5.303 5.529,15.617 -10.532,18.926c-5.921,1.22 -5.61,-0.964 -6.984,-6.809l3.845,-1.72c7.058,-1.634 9.123,-0.764 9.546,-8.101l4.125,-2.295Z" style="fill:#edc083;"/><path d="M335.203,79.71c1.831,1.296 3.662,2.591 5.493,3.887c-8.355,3.781 -8.062,3.711 -15.642,8.702l-2.533,-3.201l-3.008,-3.212c8.238,-2.813 7.895,-2.793 15.691,-6.176Z" style="fill:#9b7b56;"/><path d="M331.405,107.377c2.246,2.794 14.318,13 0.542,17.137c-0.001,-0.583 -0.009,-7.283 -0.009,-7.283c-1.075,-0.623 -2.638,0.289 -3.713,-0.335c0.461,-2.571 -2.802,-3.841 3.181,-9.519Z" style="fill:#7d6245;"/><path d="M350.994,200.78c-0.423,7.338 -2.488,6.467 -9.546,8.101c0.018,-5.105 -2.126,-6.967 2.839,-8.061c4.206,-0.927 6.143,-0.037 6.706,-0.04Z" style="fill:#31221b;"/><path d="M359.56,175.806c0.306,2.199 0.611,4.398 0.917,6.597c-6.89,0.472 -6.766,0.274 -11.347,1.024l-1.06,-4.919c5.875,-1.871 5.611,-1.647 11.49,-2.702Z" style="fill:#ab895f;"/><path d="M328.225,116.896c1.075,0.623 2.638,-0.289 3.713,0.335c0,0 0.008,6.7 0.009,7.283l-3.951,-1.942l0.228,-5.675Z" style="fill:#271a15;"/></g></svg>