<?xml version="1.0" encoding="UTF-8" standalone="no"?><!DOCTYPE svg PUBLIC "-//W3C//DTD SVG 1.1//EN" "http://www.w3.org/Graphics/SVG/1.1/DTD/svg11.dtd"><svg width="100%" height="100%" viewBox="0 0 1216 1855" version="1.1" xmlns="http://www.w3.org/2000/svg" xmlns:xlink="http://www.w3.org/1999/xlink" xml:space="preserve" xmlns:serif="http://www.serif.com/" style="fill-rule:evenodd;clip-rule:evenodd;stroke-linejoin:round;stroke-miterlimit:2;"><g id="Layer-1" serif:id="Layer 1"><g id="g984"></g><g id="g10"></g><g id="g1654"></g><g id="g3059"></g><g id="g3333"><g id="g3357"><g id="g3345"><path id="path22-5" d="M1024.254,1203.404c-0.562,15.129 -10.818,21.13 -28.102,27.112c0,0 -159.816,47.212 -388.595,47.212c-228.741,0 -388.09,-47.212 -388.09,-47.212c-16.081,-5.186 -27.558,-11.983 -28.082,-27.112c-0.055,-1.69 -5.904,-156.281 0,-329.885c6.195,-181.898 42.241,-343.791 43.794,-350.744c0.055,-0.275 0.11,-0.44 0.165,-0.699c17.343,-70.285 52.825,-171.099 123.363,-252.104c44.319,-50.883 96.503,-86.055 153.951,-104.369c-5.574,-19.343 -12.39,-43.056 -13.303,-47.309c-3.011,-13.847 3.749,-22.975 16.41,-22.975l22.626,0l0,-37.91c0,-31.715 25.714,-57.408 57.389,-57.408l24.063,0c31.695,0 57.369,25.694 57.369,57.408l0,37.91l22.665,0c12.973,0 19.304,11.303 16.391,22.975c-0.93,3.749 -7.768,27.772 -13.401,47.309c57.506,18.276 109.729,53.466 154.048,104.369c70.556,81.005 106.019,181.82 123.381,252.104c0.039,0.22 0.11,0.44 0.165,0.699c1.514,6.952 37.541,168.846 43.775,350.744c5.943,173.605 0.039,328.196 0,329.885" style="fill-rule:nonzero;"/><path id="path26" d="M290.001,535.181c-1.707,7.807 -36.55,167.099 -42.474,340.237c-1.943,57.487 -2.604,106.777 -2.604,157.427c0,64.769 1.068,110.894 1.828,141.463c-0.039,0.622 143.619,47.135 360.804,47.135c217.224,0 361.289,-42.843 361.309,-47.135c0.776,-30.569 1.828,-76.694 1.828,-141.463c0,-50.631 -0.622,-99.94 -2.62,-157.427c-5.884,-173.138 -40.726,-332.429 -42.377,-340.237c-19.149,-77.315 -98.328,-327.885 -317.883,-327.885c-219.516,0 -298.715,250.57 -317.806,327.885" style="fill:#ffe30b;fill-rule:nonzero;"/><path id="path30" d="M466.948,565.224c-16.159,0 -29.309,13.362 -29.309,29.675l0,89.337c0,16.411 13.15,29.633 29.309,29.633c16.217,0 29.321,-13.222 29.321,-29.633l0,-89.337c0,-16.313 -13.105,-29.675 -29.321,-29.675Zm286.212,0c-16.159,0 -29.303,13.362 -29.303,29.675l0,89.337c0,16.411 13.144,29.633 29.303,29.633c16.177,0 29.327,-13.222 29.327,-29.633l0,-89.337c0,-16.313 -13.15,-29.675 -29.327,-29.675Zm-274.652,288.91c-5.059,-0.248 -10.215,1.419 -14.557,5.157c-9.904,8.584 -11.92,24.549 -4.462,35.852c1.728,2.661 44.141,65.173 150.549,65.173c106.447,0 148.843,-62.494 150.549,-65.137c7.499,-11.342 5.443,-27.307 -4.462,-35.852c-9.905,-8.584 -24.066,-6.313 -31.641,4.932l0.226,-0.275c-1.301,1.865 -32.278,44.904 -114.642,44.904l-0.024,0c-82.345,0 -113.317,-43.037 -114.6,-44.904l0.165,0.275c-4.25,-6.325 -10.597,-9.807 -17.102,-10.126Z" style="fill-rule:nonzero;"/></g><g id="g3338"><path id="path42" d="M188.625,1615.65c0,-5.551 1.615,-10.048 4.844,-13.422c3.278,-3.424 5.038,-5.309 5.302,-5.551l-69.093,0c0.277,0.277 1.906,2.128 4.865,5.551c2.932,3.375 4.449,7.872 4.449,13.422l0,32.15l-115.009,0c-5.427,0 -10.635,-1.615 -15.672,-4.962c-5.011,-3.299 -7.775,-5.038 -8.312,-5.281l0,39.216l328.058,0l0,-39.216c-0.347,0.277 -2.959,1.982 -7.946,5.281c-5.038,3.347 -10.513,4.962 -16.454,4.962l-115.033,0l0.001,-32.15Zm79.631,-124.813c5.988,0 10.806,1.934 14.474,5.524c3.597,3.791 5.6,5.87 5.87,6.085l0,-40.537l-249.21,0l0,40.537c0.277,-0.208 2.252,-2.301 5.939,-6.085c3.618,-3.597 8.166,-5.524 13.569,-5.524l79.289,0c-1.102,28.361 -15.623,51.856 -43.69,70.413c-28.043,18.679 -56.16,28.092 -84.35,28.337l21.54,24.327c23.031,0 48.849,-6.452 77.455,-19.364c28.556,-12.909 46.796,-29.339 54.644,-49.216c8.141,19.877 26.503,36.307 55.108,49.216c28.581,12.909 54.399,19.364 77.406,19.364l21.149,-24.327c-27.653,-0.277 -55.451,-9.658 -83.494,-28.337c-28.092,-18.557 -42.81,-42.053 -44.106,-70.413l78.408,0Zm-167.452,226.374c-17.359,15.525 -26.013,34.522 -26.013,56.99c0,22.665 8.655,41.662 26.013,57.04c17.359,15.476 38.336,23.178 62.981,23.178c24.693,0 45.719,-7.702 63.225,-23.178c17.506,-15.378 26.258,-34.375 26.258,-57.04c0,-22.469 -8.752,-41.466 -26.258,-56.99c-17.506,-15.354 -38.532,-23.056 -63.225,-23.056c-24.645,0 -45.622,7.701 -62.981,23.056m90.609,21.222c7.897,11.002 11.833,22.884 11.833,35.769c0,12.69 -3.936,24.449 -11.833,35.158c-7.848,10.782 -17.041,16.112 -27.628,16.112c-10.269,0 -19.388,-5.33 -27.237,-16.112c-7.824,-10.709 -11.785,-22.469 -11.785,-35.158c0,-12.884 3.957,-24.767 11.785,-35.769c7.849,-10.88 16.968,-16.234 27.237,-16.234c10.586,0 19.78,5.357 27.628,16.234" style="fill-rule:nonzero;"/><path id="path46" d="M638.235,1757.377l105.694,0c6.771,0 12.713,-2.668 17.921,-7.8c5.135,-5.232 7.824,-8.043 8.118,-8.312l0,44.937l-312.606,0l0,-44.937c0.554,0.277 3.396,3.084 8.533,8.312c5.156,5.135 11.002,7.8 17.481,7.8l105.302,0l0,-76.013l-58.115,0c-11.931,0 -20.978,-3.105 -27.065,-9.266c-6.113,-6.258 -9.144,-15.427 -9.144,-27.896l0,-52.956c0,-8.777 -3.181,-15.697 -9.535,-20.635c-6.404,-4.99 -9.853,-7.579 -10.367,-7.824l209.749,0l0,-65.67l-174.004,0c-5.427,0 -9.999,1.247 -13.838,3.666c-3.742,2.516 -5.794,3.909 -6.064,4.158l0,-36.747l243.489,0l0,123.542l-189.847,0l0,60.707l174.028,0c5.919,0.208 10.953,-0.783 15.011,-3.084c4.061,-2.349 6.21,-3.618 6.501,-3.916l0,35.916l-101.244,0l0.003,76.019Z" style="fill-rule:nonzero;"/><path id="path50-0" d="M1080.302,1672.189l0,138.871c0,7.922 3.278,14.669 9.951,19.999c6.626,5.406 10.22,8.386 10.757,8.851l-90.266,0c0.554,-0.485 4.034,-3.444 10.391,-8.851c6.355,-5.33 9.559,-12.078 9.559,-19.999l0,-138.871l-134.959,0l0,-40.463c0.277,0.277 2.911,2.301 7.897,5.988c5.038,3.694 10.367,5.6 16.063,5.6l195.935,0c3.839,-7.139 6.501,-16.699 8.142,-28.581c1.615,-11.76 2.446,-24.107 2.446,-36.747l0,-87.162l-179.31,0c-5.939,0 -11.198,1.934 -15.818,5.551c-4.595,3.791 -7.188,5.87 -7.75,6.085l0,-40.561l252.461,0l0,116.573c0,12.053 -1.393,24.058 -4.276,35.891c-2.835,11.834 -6.528,21.564 -11.148,28.948l31.27,0c5.939,0 11.393,-1.906 16.283,-5.6c4.865,-3.694 7.457,-5.718 7.701,-5.988l0,40.463l-135.33,0.002Z" style="fill-rule:nonzero;"/></g></g></g></g></svg>