<?xml version="1.0" encoding="UTF-8" standalone="no"?><!DOCTYPE svg PUBLIC "-//W3C//DTD SVG 1.1//EN" "http://www.w3.org/Graphics/SVG/1.1/DTD/svg11.dtd"><svg width="100%" height="100%" viewBox="0 0 1301 1792" version="1.1" xmlns="http://www.w3.org/2000/svg" xmlns:xlink="http://www.w3.org/1999/xlink" xml:space="preserve" xmlns:serif="http://www.serif.com/" style="fill-rule:evenodd;clip-rule:evenodd;stroke-linejoin:round;stroke-miterlimit:2;"><g id="Layer-1" serif:id="Layer 1"><g id="g984"></g><g id="g10"></g><g id="g1654"></g><g id="g3059"></g><g id="g3129"><g id="g3105"><path id="path22-7" d="M654.834,0c-147.046,0 -275.089,97.618 -317.212,234.369c-1.899,-0.014 -3.816,-0.049 -5.731,-0.049c-183.012,0 -331.891,148.897 -331.891,331.909c0,176.617 138.054,322.192 314.294,331.427l2.802,0.146l2.808,-0.171c172.29,-8.277 300.246,-112.392 416.559,-218.341c140.907,-128.388 303.264,-170.67 496.265,-129.333l53.955,11.548c6.636,1.419 13.019,-3.286 13.513,-10.059c1.197,-16.333 1.863,-46.243 -5.457,-76.788c-11.082,-46.365 -40.689,-117.783 -123.499,-178.564c-57.892,-42.499 -125.925,-63.385 -199.158,-61.639c-42.072,-136.802 -170.133,-234.454 -317.249,-234.454Zm0,111.981c109.627,0 203.318,81.816 217.889,190.314l6.787,50.452c0.496,3.761 4.016,6.361 7.764,5.731l50.195,-8.435c95.363,-16.401 178.177,42.246 199.213,67.01c2.515,2.958 0.117,7.438 -3.766,7.196c-178.72,-10.381 -334.506,47.157 -471.838,172.278c-104.701,95.363 -209.81,181.572 -343.671,189.148c-115.441,-7.474 -205.45,-103.35 -205.45,-219.458c0,-121.273 98.661,-219.934 219.934,-219.934c12.981,0 26.304,1.216 39.575,3.625l50.763,9.216c3.761,0.701 7.354,-1.898 7.867,-5.713l6.873,-51.117c14.571,-108.498 108.239,-190.314 217.865,-190.314Zm463.91,514.014c-172.46,-1.319 -292.521,79.068 -390.399,168.225c-180.977,164.85 -351.661,254.757 -591.351,158.368c-7.576,-3.044 -15.717,2.976 -15.289,11.133c1.866,35.641 9.392,69.814 21.655,101.642c2.443,6.328 7.832,11.181 14.331,13.147c57.396,17.308 113.357,25.995 168.341,25.995c58.182,0 115.321,-9.679 171.93,-29.004c123.804,-42.243 224.036,-124.057 305.768,-198.505c128.354,-116.912 264.098,-179.733 482.495,-110.04c7.268,2.327 14.709,-2.99 14.709,-10.602l0,-93.262c0,-5.011 -3.37,-9.47 -8.209,-10.822c-63.481,-17.809 -121.187,-25.872 -173.981,-26.276Zm21.844,202.472c-152.271,1.58 -263.288,87.721 -369.781,186.999l0,0.006c-55.548,51.786 -111.78,92.337 -168.97,121.753c-6.414,3.301 -8.107,11.541 -3.558,17.151c20.523,25.397 44.708,47.702 71.747,66.138c3.558,2.409 8.223,2.581 11.951,0.433c56.25,-32.238 111.335,-73.416 165.173,-123.578c132.218,-123.24 242.447,-202.806 438.715,-129.248c7.285,2.734 15.082,-2.695 15.082,-10.461l0,-94.086c0,-4.891 -3.214,-9.265 -7.867,-10.736c-55.4,-17.412 -105.877,-24.855 -152.49,-24.371Z" style="fill:#227c38;fill-rule:nonzero;"/><path id="path26" d="M794.484,473.789c-34.821,-38.292 -85.033,-62.338 -140.872,-62.338c-105.129,0 -190.332,85.204 -190.332,190.332c0,37.01 10.603,71.539 28.886,100.767c53.308,-33.23 103.572,-76.807 153.836,-122.59c47.579,-43.337 96.971,-78.637 148.483,-106.171" style="fill:#f18d00;fill-rule:nonzero;"/></g><g id="g3114"><path id="path38" d="M355.446,1517.471c-68.988,-12.369 -115.085,-35.576 -138.292,-69.612c-23.198,34.036 -69.304,57.243 -138.283,69.612l-32.026,-43.155c42.077,-7.117 75.489,-20.264 100.244,-39.451c7.425,-5.569 13.755,-11.291 19.024,-17.168l-95.137,0l0,-55.686l292.358,0l0,55.686l-95.591,0c5.252,5.877 11.599,11.599 19.024,17.168c25.063,19.187 58.774,32.334 101.168,39.451l-32.488,43.155Z" style="fill-rule:nonzero;"/><path id="path42" d="M254.047,1671.768c10.983,6.963 16.475,16.013 16.475,27.15c0,10.521 -5.492,19.255 -16.475,26.218c-10.983,6.963 -23.284,10.436 -36.885,10.436c-13.626,0 -25.918,-3.473 -36.893,-10.436c-10.992,-6.963 -16.483,-15.697 -16.483,-26.218c0,-11.137 5.492,-20.188 16.483,-27.15c10.975,-6.954 23.267,-10.436 36.893,-10.436c13.601,0 25.901,3.482 36.885,10.436m169.617,-83.76l0,-55.686l-413.012,0l0,55.686l175.408,0l0,20.88c-19.802,4.029 -37.116,12.378 -51.965,25.063c-21.975,18.87 -32.95,40.529 -32.95,64.968c0,26.911 10.975,49.031 32.95,66.362c21.958,17.322 49.493,25.978 82.597,25.978c33.72,0 61.563,-8.657 83.529,-25.978c21.967,-17.33 32.95,-39.451 32.95,-66.362c0,-27.535 -10.983,-49.964 -32.95,-67.286c-14.542,-11.445 -31.718,-19.033 -51.512,-22.745l0,-20.88l174.955,0Z" style="fill-rule:nonzero;"/><path id="path46" d="M545.79,1529.997c60.323,0 118.173,-4.174 173.56,-12.523l5.098,52.898c-62.812,8.665 -143.245,12.994 -241.308,12.994l0,-135.504l141.534,0l0,-27.843l-141.534,0l0,-53.368l204.183,0l0,134.58l-141.534,0l0,28.767Z" style="fill-rule:nonzero;"/><path id="path50-7" d="M721.898,1723.51c-10.992,8.049 -24.062,12.07 -39.211,12.07c-15.158,0 -28.237,-4.02 -39.212,-12.07c-10.992,-8.041 -16.483,-18.562 -16.483,-31.556c0,-13.609 5.492,-24.43 16.483,-32.479c10.975,-8.041 24.054,-12.07 39.212,-12.07c15.149,0 28.22,4.029 39.211,12.07c10.975,8.049 16.475,18.87 16.475,32.479c0,12.994 -5.5,23.515 -16.475,31.556m45.011,-104.179c-22.737,-18.4 -50.973,-27.612 -84.693,-27.612c-33.104,0 -61.015,9.213 -83.76,27.612c-22.736,18.408 -34.105,42.616 -34.105,72.623c0,29.4 11.368,53.291 34.105,71.7c22.745,18.4 50.657,27.604 83.76,27.604c33.72,0 61.957,-9.204 84.693,-27.604c22.736,-18.408 34.113,-42.3 34.113,-71.7c0,-30.007 -11.377,-54.215 -34.113,-72.623" style="fill-rule:nonzero;"/><path id="path54-5" d="M805.659,1494.265l0,97.456l-62.649,0l0,-241.317l62.649,0l0,88.175l62.649,0l0,55.686l-62.649,0Z" style="fill-rule:nonzero;"/><path id="path58-1" d="M884.715,1568.932l0,55.686l167.983,0l0,166.623l64.959,0l0,-20.444l0.012,0l0,-146.179l172.628,0l0,-55.686l-405.582,0Z" style="fill-rule:nonzero;"/><path id="path62" d="M1224.143,1362.864l-282.564,0l0,55.686l219.914,0c0,42.077 -4.174,83.692 -12.532,124.837l59.869,5.098c10.205,-42.693 15.312,-104.564 15.312,-185.622Z" style="fill-rule:nonzero;"/></g></g></g></svg>