<?xml version="1.0" encoding="UTF-8" standalone="no"?><!DOCTYPE svg PUBLIC "-//W3C//DTD SVG 1.1//EN" "http://www.w3.org/Graphics/SVG/1.1/DTD/svg11.dtd"><svg width="100%" height="100%" viewBox="0 0 51 66" version="1.1" xmlns="http://www.w3.org/2000/svg" xmlns:xlink="http://www.w3.org/1999/xlink" xml:space="preserve" xmlns:serif="http://www.serif.com/" style="fill-rule:evenodd;clip-rule:evenodd;stroke-linejoin:round;stroke-miterlimit:2;"><g id="Background"><path d="M47.451,41.321l0.005,0.155c-0.2,0.306 -0.077,0.363 -2.044,4.089c-1.111,2.105 -5.208,7.9 -6.663,9.18c1.235,-2.315 -1.408,-5.805 -4.177,-2.799c-1.335,1.449 -4.383,4.682 -8.836,8.083c-0.692,0.528 -0.791,0.111 -3.095,-1.689c-6.67,-5.212 -21.085,-20.473 -17.08,-36.685c4.582,-18.546 26.676,-22.2 36.327,-7.142c7.548,11.777 1.188,23.995 1.12,25.13c-0.132,2.198 2.566,3.725 4.441,1.678Z" style="fill:#8ac84c;fill-opacity:1;"/><path d="M47.525,41.06c-0.025,0.087 -0.049,0.174 -0.074,0.26c-1.875,2.047 -4.573,0.52 -4.441,-1.678c0.068,-1.135 6.428,-13.354 -1.12,-25.13c-9.651,-15.058 -31.745,-11.405 -36.327,7.142c-4.005,16.212 10.41,31.473 17.08,36.685c2.304,1.8 2.403,2.217 3.095,1.689c4.452,-3.401 7.501,-6.634 8.836,-8.083c2.769,-3.006 5.412,0.484 4.177,2.799c-4.152,4.813 -9.292,8.766 -9.34,8.807c-0.023,0.019 -2.845,2.154 -3.197,2.263c-1.869,0.576 -2.454,-0.361 -5.116,-2.265c-1.083,-0.775 -22.027,-16.587 -21.062,-37.332c0.323,-6.945 2.173,-10.378 4.151,-14c0.304,-0.556 4.262,-6.981 11.243,-10.075c19.453,-8.622 40.043,10.037 33.998,33.53c-0.666,2.586 -1.539,4.903 -1.899,5.389Z" style="fill-opacity:1;"/><path d="M13.059,26.215c0.046,-0.403 0.068,-1.379 1.146,-2.111c0.863,-0.587 1.802,-0.322 1.954,-0.279c1.304,0.368 5.24,5.29 5.677,5.38c0.317,0.065 9.731,-11.302 11.456,-13.185c2.066,-2.255 5.739,0.956 3.426,3.589c-5.044,5.743 -4.867,5.875 -9.919,11.596c-2.515,2.848 -3.229,4.076 -4.233,4.251c-1.656,0.289 -1.728,-0.089 -6.709,-5.262c-2.575,-2.674 -2.68,-2.703 -2.798,-3.978Z"/><path d="M47.525,41.06c0.037,0.221 0.052,0.226 -0.069,0.415l-0.005,-0.155c0.025,-0.087 0.049,-0.174 0.074,-0.26Z" style="fill:#3a551f;fill-opacity:0.38;"/></g></svg>