<?xml version="1.0" encoding="UTF-8" standalone="no"?><!DOCTYPE svg PUBLIC "-//W3C//DTD SVG 1.1//EN" "http://www.w3.org/Graphics/SVG/1.1/DTD/svg11.dtd"><svg width="100%" height="100%" viewBox="0 0 1490 1492" version="1.1" xmlns="http://www.w3.org/2000/svg" xmlns:xlink="http://www.w3.org/1999/xlink" xml:space="preserve" xmlns:serif="http://www.serif.com/" style="fill-rule:evenodd;clip-rule:evenodd;stroke-linejoin:round;stroke-miterlimit:2;"><path d="M743.421,0c-393.146,0 -714.983,304.321 -743.421,690.154l54.254,0c28.396,-355.438 326.533,-636.071 689.167,-636.071c381.337,0 691.583,310.254 691.583,691.579c0,20.458 -1.008,40.683 -2.788,60.679l-130.188,-0.038c21.767,-27.6 34.238,-62.271 34.238,-98.837c0,-88.358 -71.892,-160.217 -160.225,-160.217c-88.321,0 -160.204,71.858 -160.204,160.217c0,36.567 12.487,71.238 34.133,98.837l-203.517,0l0,-52.75c0.675,0.058 1.329,0.112 2.029,0.112c89.613,0 162.433,-70.921 162.433,-157.979c0,-87.133 -72.821,-158.012 -162.433,-158.012c-41.688,0 -81.233,15.425 -111.379,43.379c-10.171,9.438 -10.758,25.267 -1.317,35.408c9.442,10.133 25.217,10.708 35.4,1.312c20.858,-19.396 48.267,-30.004 77.296,-30.004c61.958,0 112.379,48.396 112.379,107.917c0,59.492 -50.421,107.929 -112.379,107.929c-0.7,0 -1.354,0 -2.029,0.05l0,-120.988c0,-13.829 -11.212,-25.029 -25.046,-25.029c-13.812,0 -25,11.2 -25,25.029l0,223.679l-28.667,0l-110.271,-234.321c-4.108,-8.767 -12.954,-14.387 -22.667,-14.387c-9.717,0 -18.483,5.621 -22.638,14.387l-110.271,234.321l-28.658,0l0,-223.679c0,-11.096 -7.337,-20.925 -18.042,-24.008c-10.629,-3.133 -22.104,1.196 -28.1,10.587l-106.246,166.533l-106.287,-166.533c-5.95,-9.392 -17.425,-13.721 -28.104,-10.587c-10.679,3.083 -18.013,12.912 -18.013,24.008l0,223.679l-168.046,0c30.917,383.412 351.638,684.987 743.021,684.987c332.658,0 614.329,-217.892 710.387,-518.708l-57.25,0c-94.146,270.158 -351.287,464.617 -653.137,464.617c-343.617,0 -629.163,-251.996 -682.354,-580.833l132.408,0c13.825,0 25.05,-11.196 25.05,-25.071l0,-162.862l81.204,127.333c4.583,7.208 12.571,11.6 21.121,11.6c8.525,0 16.488,-4.392 21.092,-11.6l81.192,-127.333l0,162.862c0,13.875 11.242,25.071 25.067,25.071l69.571,0c9.671,0 18.525,-5.587 22.617,-14.371l94.417,-200.571l94.408,200.571c4.146,8.783 12.946,14.371 22.604,14.371l370.188,-0.025c11.867,0 22.121,-8.308 24.575,-19.921c2.392,-11.608 -3.654,-23.317 -14.471,-28.046c-40.225,-17.562 -66.188,-57.192 -66.188,-100.962c0,-60.754 49.429,-110.146 110.121,-110.146c60.742,0 110.133,49.392 110.133,110.146c0,43.771 -25.979,83.429 -66.188,100.962c-10.854,4.729 -16.904,16.458 -14.467,28.067c2.383,11.592 12.638,19.9 24.533,19.9l195.958,0.013l0,0.012l54.842,0c5.379,-36.146 8.242,-73.117 8.242,-110.758c0,-411.783 -333.858,-745.663 -745.675,-745.663" style="fill:#00aeef;fill-rule:nonzero;"/><path d="M716.742,1052.74l68.562,0l0,68.679l-68.562,0l0,-68.679Zm-61.479,126.737l0,22.15l190.825,0l0,-22.15l-81.733,0l0,-35.917l71.987,0l0,-22.142l-23.708,0l0,-68.679l23.708,0l0,-22.188l-171.308,0l0,22.188l24.358,0l0,68.679l-24.358,0l0,22.142l71.954,0l0,35.917l-81.725,0Z" style="fill:#00aeef;fill-rule:nonzero;"/><path d="M577.645,1027.177l0,195.217l27.358,0l0,-112.096l32.329,0l0,-22.162l-32.329,0l0,-60.958l-27.358,0Z" style="fill:#00aeef;fill-rule:nonzero;"/><path d="M522.063,1144.446l-52.908,0c-2.513,0 -4.517,-2.037 -4.517,-4.504l0,-86.767l52.933,0c2.462,0 4.492,2.025 4.492,4.5l0,86.771Zm-84.767,-113.438l0,121.521c0,7.787 6.279,14.054 14.083,14.054l98.058,0l0,-121.458c0,-7.792 -6.337,-14.117 -14.146,-14.117l-97.996,0Z" style="fill:#00aeef;fill-rule:nonzero;"/><path d="M964.702,1222.392l0,-78.833l84.817,0l0,-22.138l-24.621,0l0,-76.775c0,-7.758 -6.288,-14.092 -14.096,-14.092l-129.933,0l0,22.175l112.188,0c2.496,0 4.492,1.996 4.492,4.475l0,64.217l-138.7,0l0,22.138l78.537,0l0,78.833l27.317,0Z" style="fill:#00aeef;fill-rule:nonzero;"/></svg>