<?xml version="1.0" encoding="UTF-8" standalone="no"?><!DOCTYPE svg PUBLIC "-//W3C//DTD SVG 1.1//EN" "http://www.w3.org/Graphics/SVG/1.1/DTD/svg11.dtd"><svg width="100%" height="100%" viewBox="0 0 1789 1957" version="1.1" xmlns="http://www.w3.org/2000/svg" xmlns:xlink="http://www.w3.org/1999/xlink" xml:space="preserve" xmlns:serif="http://www.serif.com/" style="fill-rule:evenodd;clip-rule:evenodd;"><g id="Layer-1" serif:id="Layer 1"><g id="g984"></g><g id="g10"></g><g id="g1654"></g><g id="g3059"></g><g id="g18673"><g id="g18565"><path id="path18431" d="M1197.786,814.187l385.625,298.491" style="fill:none;fill-rule:nonzero;"/><path id="path22-4" d="M0.214,811.09c-0.199,137.984 122.488,352.706 459.91,330.796c13.147,166.52 100.789,376.86 429.446,376.86c305.45,0 416.142,-210.323 416.299,-394.389c0,0 477.649,17.529 482.241,-313.32l-1787.897,0.053Z" style="fill:#4ca94e;fill-rule:nonzero;"/><path id="path26" d="M0.214,811.09c-0.199,137.984 122.488,352.706 459.91,330.796c13.147,166.52 100.789,376.86 429.446,376.86c305.45,0 416.142,-210.323 416.299,-394.389c0,0 477.649,17.529 482.241,-313.32l-1787.897,0.053Z" style="fill:none;fill-rule:nonzero;"/><path id="path30" d="M1787.897,811.039c8.764,-245.398 -122.699,-427.255 -490.795,-396.58c0,-166.52 -119.614,-414.459 -407.535,-414.459c-296.668,0 -429.446,217.264 -429.603,401.33c0,0 -459.963,-19.737 -459.963,409.709l1787.897,0Z" style="fill:#3a589e;fill-rule:nonzero;"/><path id="path22-4-2" d="M1787.905,811.029l-1787.691,0.05c-0.005,3.89 0.099,7.856 0.298,11.862l229.059,0l-197.939,79.956l-15.174,0c2.494,7.213 5.187,14.436 8.293,21.671l10.296,-4.159l433.854,0l-96.364,98.983l-285.829,0c5.528,5.958 11.27,11.837 17.383,17.537l251.397,0l-86.401,88.763c6.449,1.724 13.083,3.284 19.797,4.775l91.074,-93.539l339.313,0l-70.02,169.798l-180.197,0c1.168,5.833 2.693,11.687 4.084,17.537l168.899,0l-74.385,180.428c4.353,4.477 8.875,8.883 13.558,13.172l79.828,-193.6l468.054,0l77.646,172.211c4.367,-4.78 8.581,-9.641 12.633,-14.61l-71.072,-157.602l146.304,0c1.332,-5.836 2.534,-11.677 3.622,-17.537l-157.833,0l-76.567,-169.798l407.407,0l71.688,55.486c6.726,-2.042 13.443,-4.238 20.156,-6.547l-63.215,-48.939l164.406,0c8.263,-5.503 16.287,-11.324 24.008,-17.537l-211.06,0l-127.894,-98.983l416.265,0c2.484,-5.674 4.775,-11.519 6.882,-17.511l-3.543,0l-222.845,-79.956l241.589,0c0.099,-2.102 0.149,-4.233 0.248,-6.368l-0.012,-5.544Zm-1511.593,11.914l287.498,0l-77.851,79.956l-407.561,0l197.913,-79.956Zm298.667,0l232.551,0l-32.969,79.956l-264.133,0l71.354,-73.306l-6.804,-6.651Zm248.83,0l124.299,0l36.05,79.956l-190.621,0l32.583,-79.006l-2.31,-0.95Zm143.505,0l227.493,0l103.296,79.956l-294.739,0l-36.05,-79.956Zm256.07,0l270.886,0l222.742,79.956l-390.307,0l-103.322,-79.956Zm-730.005,97.468l273.941,0l-40.799,98.983l-329.479,0l96.337,-98.983Zm292.942,0l205.745,0l44.626,98.983l-291.196,0l40.826,-98.983Zm224.951,0l309.452,0l127.843,98.983l-392.669,0l-44.626,-98.983Zm-272.991,116.52l306.319,0l76.593,169.798l-452.931,0l70.019,-169.798Z" style="fill:#fff;fill-rule:nonzero;"/><path id="path34" d="M1787.897,811.039c8.764,-245.398 -122.699,-427.255 -490.795,-396.58c0,-166.52 -119.614,-414.459 -407.535,-414.459c-296.668,0 -429.446,217.264 -429.603,401.33c0,0 -459.963,-19.737 -459.963,409.709l1787.897,0Z" style="fill:none;fill-rule:nonzero;"/><path id="path38" d="M642.723,560.539c0,0 99.333,29.202 93.479,134.372c0,0 -280.454,116.862 -286.291,397.317c0,0 49.658,-64.277 160.683,-99.333c0,0 166.52,-46.731 286.291,-216.178c0,0 67.186,46.748 55.512,192.812c0,0 172.357,-37.984 254.162,-207.414c0,0 -169.447,5.837 -186.975,-58.44c0,0 67.186,-35.057 131.463,-157.756c0,0 62.804,-102.243 208.886,-137.3c0,0 -273.163,-61.35 -489.34,189.885c0,0 -134.39,-134.373 -227.869,-37.967" style="fill:#fff;fill-rule:nonzero;"/><path id="path42" d="M642.723,560.539c0,0 99.333,29.202 93.479,134.372c0,0 -280.454,116.862 -286.291,397.317c0,0 49.658,-64.277 160.683,-99.333c0,0 166.52,-46.731 286.291,-216.178c0,0 67.186,46.748 55.512,192.812c0,0 172.357,-37.984 254.162,-207.414c0,0 -169.447,5.837 -186.975,-58.44c0,0 67.186,-35.057 131.463,-157.756c0,0 62.804,-102.243 208.886,-137.3c0,0 -273.163,-61.35 -489.34,189.885c0,0 -134.39,-134.373 -227.869,-37.967Z" style="fill:none;fill-rule:nonzero;stroke:#fff;stroke-width:5.26px;"/><path id="path18444" d="M-17.52,814.187l1805.425,0" style="fill:none;fill-rule:nonzero;"/><path id="path18395" d="M11.881,911.656l1776.223,0" style="fill:none;fill-rule:nonzero;"/><path id="path18389" d="M274.626,814.187l-268.763,108.589" style="fill:none;fill-rule:nonzero;"/></g><g id="text18631"><path id="path18651" d="M967.454,1649.02c-2.859,0 -4.291,1.432 -4.291,4.291l0,178.442l-56.403,0c-1.099,0 -2.196,0.439 -3.296,1.318c-0.88,0.66 -1.318,1.543 -1.318,2.643l0,20.776c0,1.1 0.439,2.093 1.318,2.972c1.099,0.88 2.196,1.318 3.296,1.318l56.403,0l0,30.017c0,3.078 1.432,4.614 4.291,4.614l29.352,0c2.859,0 4.291,-1.536 4.291,-4.614l0,-237.488c0,-2.859 -1.432,-4.291 -4.291,-4.291l-29.352,-0Zm-125.671,4.62c-11.215,0 -21.441,1.645 -30.676,4.944c-9.236,3.079 -17.262,7.369 -24.078,12.866c-6.597,5.277 -11.765,11.542 -15.503,18.799c-3.518,7.257 -5.28,14.954 -5.28,23.09c0,8.576 1.761,16.602 5.28,24.078c3.738,7.476 8.906,13.967 15.503,19.464c6.817,5.277 14.843,9.562 24.078,12.86c9.236,3.078 19.462,4.62 30.676,4.62c11.215,0 21.441,-1.542 30.676,-4.62c9.455,-3.298 17.481,-7.583 24.078,-12.86c6.817,-5.497 12.094,-11.988 15.832,-19.464c3.738,-7.476 5.609,-15.502 5.609,-24.078c0,-8.136 -1.871,-15.833 -5.609,-23.09c-3.738,-7.257 -9.016,-13.521 -15.832,-18.799c-6.597,-5.497 -14.623,-9.788 -24.078,-12.866c-9.236,-3.298 -19.462,-4.944 -30.676,-4.944Zm536.035,1.038c-1.099,0 -2.196,0.329 -3.296,0.989c-1.099,0.66 -1.648,1.653 -1.648,2.972l0,23.749c0,1.099 0.548,2.087 1.648,2.966c1.1,0.66 2.196,0.989 3.296,0.989l158.984,0c3.078,0 5.388,0.445 6.927,1.324c1.539,0.66 2.313,2.524 2.313,5.603c0,17.152 -1.103,34.417 -3.302,51.788c-2.199,17.152 -4.838,32.436 -7.916,45.85l-198.895,0c-1.319,0 -2.416,0.548 -3.296,1.648c-0.88,0.88 -1.318,1.977 -1.318,3.296l0,21.771c0,1.1 0.439,2.196 1.318,3.296c0.88,1.099 1.977,1.654 3.296,1.654l122.046,0l0,128.638c0,3.078 1.536,4.614 4.614,4.614l28.699,0c3.078,0 4.614,-1.536 4.614,-4.614l0,-128.638l127.319,0c1.099,0 2.203,-0.555 3.302,-1.654c1.1,-1.099 1.648,-2.196 1.648,-3.296l0,-21.771c0,-1.099 -0.548,-2.196 -1.648,-3.296c-1.099,-1.099 -2.203,-1.648 -3.302,-1.648l-52.112,0c3.958,-16.932 7.036,-34.635 9.235,-53.107c2.199,-18.471 3.296,-38.375 3.296,-59.705c0,-8.136 -1.865,-14.072 -5.603,-17.81c-3.738,-3.738 -9.125,-5.609 -16.162,-5.609l-184.058,0Zm-1186.06,16.028c-1.099,0 -2.203,0.548 -3.302,1.648c-0.88,0.88 -1.318,1.867 -1.318,2.966l0,108.85c0,9.895 2.2,16.934 6.598,21.112c4.398,3.958 11.875,5.933 22.43,5.933l56.073,0l0,67.291l-125.012,0c-3.079,0 -4.614,1.761 -4.614,5.28l0,21.436c0,1.099 0.439,2.202 1.318,3.302c0.88,1.099 1.977,1.648 3.296,1.648l287.292,0c1.1,0 2.203,-0.548 3.302,-1.648c1.1,-1.1 1.648,-2.203 1.648,-3.302l0,-21.436c0,-1.319 -0.548,-2.532 -1.648,-3.632c-1.099,-1.099 -2.202,-1.648 -3.302,-1.648l-124.347,0l0,-67.291l86.42,0c1.1,0 2.196,-0.329 3.296,-0.989c1.099,-0.66 1.648,-1.647 1.648,-2.966l0,-23.419c0,-1.099 -0.548,-2.087 -1.648,-2.966c-1.099,-0.88 -2.196,-1.324 -3.296,-1.324l-161.957,0c-3.078,0 -5.388,-0.548 -6.927,-1.648c-1.539,-1.099 -2.307,-3.299 -2.307,-6.598l0,-95.984c0,-1.099 -0.548,-2.087 -1.648,-2.966c-0.88,-1.099 -1.983,-1.648 -3.302,-1.648l-28.693,-0Zm650.024,11.957c5.497,0 10.556,0.884 15.173,2.643c4.838,1.539 9.012,3.739 12.531,6.598c3.738,2.639 6.596,5.936 8.575,9.894c2.199,3.738 3.302,7.803 3.302,12.201c0,4.618 -1.103,8.908 -3.302,12.866c-1.979,3.738 -4.837,7.035 -8.575,9.894c-3.518,2.639 -7.693,4.839 -12.531,6.598c-4.618,1.539 -9.676,2.307 -15.173,2.307c-5.277,0 -10.336,-0.768 -15.173,-2.307c-4.838,-1.759 -9.018,-3.959 -12.537,-6.598c-3.518,-2.859 -6.377,-6.156 -8.575,-9.894c-1.979,-3.958 -2.966,-8.248 -2.966,-12.866c0,-4.398 0.987,-8.463 2.966,-12.201c2.199,-3.958 5.057,-7.255 8.575,-9.894c3.518,-2.859 7.699,-5.059 12.537,-6.598c4.838,-1.759 9.896,-2.643 15.173,-2.643Zm103.076,99.86c-0.275,-0 -0.549,0.031 -0.824,0.085c-12.094,1.759 -26.391,3.301 -42.883,4.62c-16.492,1.099 -33.641,2.087 -51.453,2.966c-17.811,0.66 -35.734,1.209 -53.766,1.648c-17.811,0.22 -34.302,0.33 -49.475,0.33c-1.319,0 -2.416,0.548 -3.296,1.648c-0.88,0.88 -1.324,1.983 -1.324,3.302l0,20.447c0,1.319 0.445,2.532 1.324,3.632c0.88,1.099 1.977,1.648 3.296,1.648c4.398,0.22 9.566,0.33 15.503,0.33c5.937,0 12.202,-0.11 18.799,-0.33c6.597,-0.22 13.306,-0.33 20.123,-0.33c7.037,-0.22 13.85,-0.439 20.447,-0.659l0,44.861c0,1.319 0.445,2.526 1.324,3.625c1.1,0.88 2.306,1.318 3.625,1.318l27.374,0c1.319,0 2.422,-0.439 3.302,-1.318c1.099,-1.099 1.648,-2.306 1.648,-3.625l0,-47.498c6.817,-0.221 14.075,-0.555 21.771,-0.995c7.916,-0.66 15.833,-1.318 23.749,-1.978c7.916,-0.66 15.613,-1.318 23.09,-1.978c7.476,-0.88 14.29,-1.867 20.447,-2.966c1.1,-0.44 2.093,-1.104 2.972,-1.984c1.099,-1.099 1.538,-2.526 1.318,-4.285l-2.313,-18.805c-0.22,-1.319 -0.988,-2.306 -2.307,-2.966c-0.825,-0.495 -1.647,-0.744 -2.472,-0.745l0,0Zm-148.926,98.706c-1.099,0 -2.196,0.555 -3.296,1.654c-0.88,0.88 -1.318,1.867 -1.318,2.966l0,47.168c0,8.576 1.645,14.621 4.944,18.14c3.518,3.518 10.338,5.28 20.453,5.28l187.018,0c1.1,0 2.093,-0.329 2.972,-0.989c1.1,-0.66 1.648,-1.653 1.648,-2.972l0,-23.419c0,-1.099 -0.548,-2.087 -1.648,-2.966c-0.88,-0.88 -1.873,-1.318 -2.972,-1.318l-168.219,0c-2.419,0 -4.064,-0.329 -4.944,-0.989c-0.88,-0.66 -1.324,-2.092 -1.324,-4.291l0,-33.643c0,-1.099 -0.548,-2.087 -1.648,-2.966c-0.88,-1.099 -1.977,-1.654 -3.296,-1.654l-28.369,0Z" style="fill-rule:nonzero;"/></g></g></g></svg>