<?xml version="1.0" encoding="UTF-8" standalone="no"?><!DOCTYPE svg PUBLIC "-//W3C//DTD SVG 1.1//EN" "http://www.w3.org/Graphics/SVG/1.1/DTD/svg11.dtd"><svg width="100%" height="100%" viewBox="0 0 368 199" version="1.1" xmlns="http://www.w3.org/2000/svg" xmlns:xlink="http://www.w3.org/1999/xlink" xml:space="preserve" xmlns:serif="http://www.serif.com/" style="fill-rule:evenodd;clip-rule:evenodd;stroke-linejoin:round;stroke-miterlimit:2;"><g id="Background"><path d="M56.104,37.892c-0.225,2.142 -0.45,4.284 -0.676,6.426c0.144,2.121 0.287,4.243 0.431,6.364c-6,27.524 -22.119,27.847 -28.483,24.778c-1.726,-0.832 -1.475,-0.93 -3.318,-1.816c-1.419,-0.682 -1.37,-0.436 -2.869,-1.156c0.177,5.101 3.319,20.92 -7.068,26.545c-5.295,2.867 -10.719,-2.354 -6.392,-5.557c7.468,-5.53 5.793,-7.192 5.755,-46.032c-0.001,-1.211 -0.013,-13.255 -2.411,-14.944c-1.373,-0.967 -3.17,-1.16 -4.62,-2.007c-0.54,-0.315 -8.183,-9.287 5.367,-5.677c8.124,2.165 35.564,-21.984 44.283,13.076Z" style="fill:#948412;"/><path d="M97.133,75.001c-13.135,-31.699 16.932,-42.291 30.086,-33.608c27.999,18.482 -1.295,68.219 -30.086,33.608Z" style="fill:#0c0d0d;"/><path d="M214.985,134.838c23.513,-4.874 25.819,2.271 27.483,12.759c-0.025,1.923 2.265,17.607 -6.813,26.887c-9.169,9.373 -20.63,2.458 -23.631,2.3c-11.499,-0.605 -4.962,-6.547 -4.76,-19.95c0.43,-28.525 -1.589,-28.261 -2.087,-34.392c-0.224,-2.762 0.602,-2.388 2.164,-4.509c1.873,-2.545 1.708,-3.864 4.701,-2.521c7.182,3.224 1.72,5.953 2.944,19.426Z" style="fill:#101111;"/><path d="M44.562,112.738c0.51,2.341 1.02,4.682 1.53,7.024c-9.342,0.66 -36.24,-7.879 -37.562,21.431c-1.304,28.933 33.619,40.665 32.569,24.847c-0.629,-9.477 2.187,-9.674 -1,-18.693c-1.246,-3.526 -2.409,-2.074 -9.677,-3.806c-2.402,-2.165 -4.804,-4.33 -7.207,-6.495c9.07,-3.818 9.166,-0.499 19.744,1.132c8.711,1.344 5.422,7.582 5.11,18.744c-0.366,13.089 4.735,13.946 0.808,18.203c-13.549,14.691 -60.127,-4.524 -46.363,-43.233c9.504,-26.729 33.924,-18.404 42.047,-19.153Z" style="fill:#958514;"/><path d="M163.434,163.057c-0.167,3.211 -0.334,6.423 -0.5,9.634c-1.537,-0.07 -2.946,-1.031 -4.483,-1.101c-3.573,-0.162 -9.155,9.49 -21.744,7.254c-5.993,-1.064 -8.592,-3.191 -9.148,3.018c-1.025,11.449 -6.998,3.434 -7.105,0c-0.124,-3.961 3.418,-7.03 0.838,-12.654c-16.935,-36.913 25.387,-45.607 29.82,-31.02c1.795,5.906 -19.396,28.979 -15.438,32.004c4.489,3.43 12.52,-0.511 13.491,-0.987c1.116,-0.548 1.354,0.045 14.269,-6.147Z" style="fill:#161718;"/><path d="M197.19,69.206c0.936,1.935 1.872,3.87 2.808,5.806c-6.48,4.252 -13.96,14.517 -28.971,10.305c-9.484,-2.661 -4.046,6.379 -6.628,8.431c-2.986,2.373 -7.074,-2.034 -5.403,-8.692c2.774,-11.054 -2.252,-10.624 -2.963,-21.956c-2.05,-32.652 36.272,-26.407 32.928,-15.928c-1.943,6.089 -16.591,27.706 -16.545,28.159c0.405,4.073 7.36,3.376 8.053,3.307c4.93,-0.494 4.441,-1.47 16.723,-9.431Z" style="fill:#121314;"/><path d="M246.842,148.399c11.954,-29.587 32.906,-13.349 33.117,-10.265c0.75,10.941 -37.217,46.213 1.017,29.257c9.946,-4.411 2.701,14.94 -16.134,11.301c-5.851,-1.131 -8.481,-2.746 -8.405,3.131c0.149,11.614 -7.022,3.953 -7.196,-0.005c-0.271,-6.162 4.521,-6.368 0.737,-12.9c-2.914,-5.031 -2.862,-11.076 -3.137,-20.519Z" style="fill:#0e0f0f;"/><path d="M21.768,62.815c-0.108,-15.883 -3.222,-34.25 8.865,-36.865c31.706,-6.859 12.359,60.877 -0.705,40.531c-2.668,-4.155 -3.386,-3.157 -8.16,-3.667Z" style="fill:#deecf1;"/><path d="M163.434,163.057c-0.383,-23.087 -5.455,-31.019 4.308,-27.661c4.623,1.59 4.532,0.4 9.002,-1.562c1.433,-0.629 11.24,-4.933 19.032,4.499c8.749,10.589 1.323,40.693 -5.923,41.017c-7.298,0.326 -3.46,-3.636 -0.713,-10.458c0.875,-2.174 10.662,-26.48 -5.222,-28.832c-19.436,-2.878 -10.709,34.173 -13.657,37.719c-4.612,5.548 -7.351,2.098 -7.327,-5.089c0.167,-3.211 0.334,-6.423 0.5,-9.634Z" style="fill:#101111;"/><path d="M89.056,133.284c1.198,14.956 -0.208,14.857 0.761,29.789c0.208,3.215 3.762,8.117 3.834,9.345c0.427,7.254 -5.938,0.086 -15.4,4.609c-9.452,4.518 -31.594,1.26 -20.745,-32.979c1.992,-6.288 -4.84,-12.174 4.213,-11.894c10.368,0.32 1.273,16.558 0.648,18.529c-2.287,7.208 0.035,26.342 15.034,18.723c2.029,-1.031 6.934,-3.522 4.669,-28.062c-0.637,-6.904 0.044,-8.875 6.988,-8.06Z" style="fill:#111213;"/><path d="M212.142,45.194c-22.493,23.969 3.928,36.538 12.553,31.325c0.616,-0.373 14.864,-8.985 8.757,2.089c-3.88,7.036 -13.959,7.451 -15.323,7.507c-10.639,0.438 -17.204,-9.676 -18.13,-11.103c-0.936,-1.935 -1.872,-3.87 -2.808,-5.806c-0.415,-2.699 -3.799,-24.731 14.63,-30.839c22.969,-7.612 28.406,23.581 9.35,21.04c-6.052,-0.807 -5.172,-2.589 -5.73,-8.676c10.264,0.785 10.641,-0.203 10.955,-1.025c0.438,-1.148 -1.152,-5.066 -5.212,-5.98c-4.614,-1.039 -4.41,0.085 -9.041,1.468Z" style="fill:#0a0a0b;"/><path d="M127.658,53.433c16.348,24.88 -20.134,35.998 -26.095,9.879c-1.717,-7.523 6.95,-30.203 26.095,-9.879Z" style="fill:#deecf3;"/><path d="M323.738,19.07c1.265,1.27 3.181,1.754 4.446,3.024c6.417,6.442 4.345,10.488 3.908,11.342c-0.962,1.878 -2.87,5.604 -2.581,26.248l0.841,3.305c-2.075,1.718 -1.694,2.027 -5.111,4.234c-13.169,8.502 -9.635,-6.601 -10.733,-29.126c-0.353,-7.234 4.334,-6.915 5.112,-7.419c3.788,-2.452 -4.064,-6.064 -4.633,-6.327c2.917,-1.76 5.835,-3.521 8.752,-5.281Z" style="fill:#d2dce1;"/><path d="M337.142,155.175c-0.916,4.314 -0.853,4.303 -0.989,4.659c-0.713,1.862 -1.558,1.138 -2.33,3.153c-1.729,-1.364 -18.781,-14.82 -5.673,-26.937c11.717,-10.832 27.045,1.871 23.04,-7.33c-4.599,-10.565 4.845,-6.82 6.852,-2.94c0.858,1.658 -0.262,8.57 1.253,11.984c4.292,9.667 7.478,15.865 -6.599,23.126c-0.195,-2.445 -0.391,-4.89 -0.586,-7.334c3.568,-10.746 1.747,-13.063 -9.396,-15.147c-6.508,-1.217 -8.774,2.09 -9.208,2.723c-7.424,10.835 3.406,13.848 3.636,14.044Z" style="fill:#0c0d0d;"/><path d="M339.409,34.958c0.461,-0.664 -0.685,-2.335 2.986,-4.297c7.354,-3.931 12.593,3.141 10.716,13.507c-0.546,1.659 0.665,1.569 0.154,3.121c-0.217,0.659 -0.328,0.552 -4.422,7.456c-4.718,0.47 -4.77,0.252 -5.091,0.507c-0.951,0.756 -2.411,1.915 0.639,15.175c-0.264,0.76 -2.646,7.599 -4.07,9.192c-3.236,3.62 -6.642,4.406 -2.398,7.022c6.522,4.021 6.93,-0.137 7.298,0.317c4.013,4.939 -4.816,6.495 -5.493,6.615c-4.948,0.872 -4.589,1.33 -8.705,3.915c-4.152,-16.28 3.776,-21.062 3.648,-21.809c-0.328,-1.914 -3.989,-1.999 -4.318,-3.913l3.253,-2.069c0.264,-0.282 3.304,-3.519 3.304,-3.519c0.052,-0.908 -0.924,-1.677 -0.873,-2.585c-0.595,-0.97 0.195,-2.42 -0.4,-3.39c-0.575,-0.938 -1.275,0.64 -1.915,-0.384c-0.806,-1.289 0.757,-1.469 -0.039,-2.741c1.621,-1.77 2.42,-0.962 3.086,-3.371c0.277,-1.001 0.731,-2.64 1.738,-12.865c7.824,6.311 7.578,6.722 8.441,6.808c0.989,0.099 -0.251,-1.977 -0.254,-2.971c-0.035,-10.063 -4.049,-7.754 -7.287,-9.721Z" style="fill:#c7d0d3;"/><path d="M326.789,15.623c6.619,0.696 6.434,0.909 9.669,0.706c4.532,8.219 6.539,5.42 15.88,6.514c1.608,0.188 10.102,-0.005 7.044,24.954c-3.627,-1.366 -3.902,-0.752 -6.271,-3.629c1.878,-10.366 -3.361,-17.438 -10.716,-13.507c-3.671,1.962 -2.525,3.633 -2.986,4.297c-0.3,1.961 -0.6,3.922 -0.901,5.883c-1.007,10.226 -1.461,11.864 -1.738,12.865c-0.667,2.409 -1.466,1.601 -3.086,3.371l-4.174,2.607c-0.289,-20.644 1.62,-24.37 2.581,-26.248c0.438,-0.854 2.51,-4.9 -3.908,-11.342c-1.265,-1.27 -3.181,-1.754 -4.446,-3.024c1.017,-1.149 2.034,-2.298 3.051,-3.447Z" style="fill:#939595;"/><path d="M218.874,142.185c13.246,-2.962 17.197,-1.941 17.49,11.528c0.451,20.782 -21.437,25.562 -21.741,9.363c-0.087,-4.637 -2.567,-15.386 4.252,-20.891Z" style="fill:#dfedf3;"/><path d="M291.217,143.707c-0.277,-0.617 -3.053,-6.813 -2.944,-7.924c0.674,-6.839 5.383,2.462 13.786,-1.462c19.681,-9.193 18.831,7.299 15.898,9.974c-5.506,5.021 -4.724,-6.29 -9.488,-5.509c-16.591,2.722 -0.194,40.209 -12.366,39.74c-7.875,-0.303 0.958,-8.765 -4.886,-34.819Z" style="fill:#131414;"/><path d="M61.979,41.572c0.604,-0.002 2.014,-2.021 5.792,-0.022c3.346,1.771 3.519,2.187 6.657,0.242c12.641,-7.835 21.914,-1.273 15.81,9.51c-4.418,7.805 -4.158,-8.26 -9.914,-5.491c-14.294,6.877 -4.359,33.331 -7.347,38.292c-0.47,0.78 -8.171,7.301 -7.578,-8.495c0.787,-20.951 -3.217,-26.175 -3.419,-34.038Z" style="fill:#121313;"/><path d="M314.987,24.352c0.57,0.262 8.421,3.875 4.633,6.327c-0.779,0.504 -5.465,0.184 -5.112,7.419c1.098,22.525 -2.436,37.628 10.733,29.126c3.417,-2.206 3.037,-2.515 5.111,-4.234c0.036,1.754 -1.377,1.236 -1.341,2.993c0.006,0.289 0.044,2.148 1.47,3.3c0.818,0.661 2.309,-0.247 3.127,0.414l-3.253,2.069c-5.706,3.341 -5.62,3.43 -6.163,3.608c-2.298,0.757 -17.157,-0.051 -17.703,-0.519c-0.764,-0.656 -0.798,-1.929 -1.562,-2.585c5.303,-5.533 3.173,-6.383 3.195,-9.11l-0.127,-6.414c0.179,-10.952 -2.051,-10.764 -0.968,-21.689c1.312,-13.237 6.556,-10.242 7.959,-10.706Z" style="fill:#979899;"/><path d="M244.216,78.307c-2.764,-26.766 1.017,-27.257 -2.162,-33.545c-3.032,-5.996 2.297,-19.794 6.878,-18.245c1.144,0.387 1.574,0.532 3.803,14.609c0.269,1.698 -1.379,5.121 -1.502,9.386c-0.851,29.323 2.667,29.308 2.352,31.716c-0.105,0.806 -3.264,7.973 -9.368,-3.92Z" style="fill:#131415;"/><path d="M269.849,47.629c-26.81,2.296 -27.235,-1.493 -33.577,1.576c-6.048,2.926 -19.751,-2.643 -18.123,-7.196c0.407,-1.137 0.56,-1.565 14.673,-3.547c1.703,-0.239 5.096,1.468 9.358,1.666c29.304,1.363 29.35,-2.155 31.752,-1.798c0.804,0.12 7.914,3.402 -4.083,9.298Z" style="fill:#131415;"/><path d="M128.916,138.446c-23.038,1.666 -23.411,-1.17 -28.856,1.114c-5.192,2.178 -16.98,-2.016 -15.59,-5.419c0.347,-0.85 0.478,-1.17 12.604,-2.625c1.463,-0.176 4.383,1.108 8.047,1.265c25.189,1.076 25.221,-1.555 27.287,-1.283c0.691,0.091 6.809,2.561 -3.491,6.949Z" style="fill:#131415;"/><path d="M103.594,172.015c-1.902,-11.003 -1.035,-10.897 -1.232,-27.697c-0.077,-6.594 -2.083,-5.876 -2.308,-6.922c-0.54,-2.511 1.955,-15.871 5.381,-18.129c6.357,-4.19 3.478,2.319 5.044,9.799c2.529,12.078 -3.462,28.474 0.758,40.452c5.075,14.403 -5.303,6.527 -5.749,6.032c-0.894,-0.993 -0.999,-2.541 -1.894,-3.534Z" style="fill:#0e0f0f;"/><path d="M348.389,162.117c1.151,0.762 -0.316,3.295 0.835,4.058c3.887,2.574 4.649,-0.723 8.742,1.336c21.135,10.632 -1.788,41.167 -28.261,28.308l2.282,-4.589c2.273,0.244 29.67,3.186 25.748,-12.398c-1.467,-5.83 -4.558,-6.204 -15.08,-7.601c0.004,-0.441 0.947,-0.48 0.951,-0.922c0.012,-1.439 -0.933,-2.783 -0.907,-4.222c0.075,-4.107 1.85,-2.75 5.69,-3.97Z" style="fill:#1f2021;"/><path d="M144.239,88.088c0,-1.261 0.004,-15.758 0.004,-15.758c1.71,-25.928 -5.783,-29.721 1.67,-31.559c7.302,-1.8 5.246,2.525 5.014,9.999c-1.16,37.444 3.856,39.045 -4.568,50.033c-3.896,5.082 -12.454,2.957 -6.547,-3.397c3.611,-3.884 3.296,-4.067 4.428,-9.318Z" style="fill:#282a2b;"/><path d="M252.837,98.461c8.638,-2.475 8.353,-3.184 9.106,-3.377c35.303,-9.027 36.728,-6.905 37.37,-3.968c0.235,1.074 1.504,2.317 0.836,3.19c-1.039,1.355 -17.691,2.631 -32.154,6.369c-9.176,2.982 -9.045,4.175 -18.666,2.872c0.734,-1.211 -0.328,-1.37 0.457,-2.663c0.162,-0.267 0.226,-0.179 3.052,-2.422Z" style="fill:#b2b6b8;"/><path d="M337.142,155.175c-0.23,-0.196 -11.06,-3.209 -3.636,-14.044c0.434,-0.634 2.7,-3.94 9.208,-2.723c11.143,2.084 12.963,4.4 9.396,15.147c-3.724,1.918 -4.129,4.372 -6.988,1.323c-3.712,-3.959 -7.375,0.092 -7.98,0.298Z" style="fill:#ddebf1;"/><path d="M344.392,70.427c3.493,-0.944 3.32,-1.031 6.919,-0.829c-0.097,1.858 -0.194,3.716 -0.291,5.575c0.096,1.181 0.193,2.362 0.289,3.542l-0.139,6.134c-1.84,12.734 -3.402,12.578 -3.753,13.252c-8.522,0.997 -8.779,3.15 -16.393,-0.614c4.116,-2.585 3.757,-3.043 8.705,-3.915c0.677,-0.119 9.506,-1.676 5.493,-6.615c-0.369,-0.454 -0.776,3.704 -7.298,-0.317c-4.244,-2.616 -0.838,-3.403 2.398,-7.022c1.425,-1.593 3.806,-8.433 4.07,-9.192Z" style="fill:#727171;"/><path d="M308.539,97.383c1.044,0.201 2.092,-0.781 3.136,-0.58c5.655,1.09 2.441,3.438 2.086,9.42c3.985,15.736 19.761,12.426 16.12,19.126c-3.826,7.041 -12.269,-8.294 -21.207,-2.3c-2.725,1.827 -2.764,-0.067 -3.536,-0.342c-4.911,-1.748 -0.519,-2.958 2.775,-6.876c2.599,-3.092 0.951,-3.449 -1.414,-6.681c0.158,-0.85 -0.853,-1.648 -0.696,-2.497c0.312,-1.681 1.198,-1.082 1.667,-2.731c0.145,-0.51 0.079,-0.484 1.069,-6.539Z" style="fill:#909192;"/><path d="M258.587,162.576c-0.014,-0.007 -5.37,1.159 -5.314,-8.987c0.09,-16.383 21.55,-20.145 16.746,-9.485c-4.509,10.004 -5.152,9.521 -11.432,18.472Z" style="fill:#e0eef4;"/><path d="M163.45,67.479c-0.339,-1.401 -2.954,-6.502 0.532,-14.198c1.545,-3.412 5.643,-7.754 10.117,-8.116c13.532,-1.097 -4.993,25.585 -9.269,24.175c-0.733,-0.242 -0.646,-1.619 -1.379,-1.861Z" style="fill:#e0eef4;"/><path d="M130.398,162.065c-0.964,-0.168 -1.907,0.782 -2.871,0.615c-8.069,-1.403 1.022,-30.924 11.958,-24.16c4.626,2.861 -0.995,11.069 -1.162,11.371c-1.381,2.496 -7.275,11.211 -7.926,12.174Z" style="fill:#e0eef4;"/><path d="M331.024,97.488c7.614,3.764 7.87,1.611 16.393,0.614c0.763,7.456 0.548,7.352 0.678,7.979l1.18,4.327c-10.915,-1.144 -11.075,1.843 -21.612,-1.09c-0.03,-0.751 -1.619,-0.788 -1.649,-1.539c-0.058,-1.435 4.556,-9.497 5.011,-10.292Z" style="fill:#898a8a;"/><path d="M337.142,155.175c0.605,-0.206 4.268,-4.257 7.98,-0.298c2.859,3.049 3.264,0.595 6.988,-1.323c0.195,2.445 0.391,4.89 0.586,7.334c-1.436,0.41 -2.872,0.819 -4.307,1.229c-3.84,1.22 -5.615,-0.136 -5.69,3.97c-0.026,1.439 0.919,2.783 0.907,4.222c-0.004,0.441 -0.947,0.48 -0.951,0.922c-1.723,0.518 -14.555,4.537 -11.687,-1.723c0.954,-2.082 1.782,-1.299 2.659,-3.302c0.721,-1.647 -0.477,-1.683 0.196,-3.22c0.772,-2.015 1.617,-1.291 2.33,-3.153c0.136,-0.356 0.073,-0.345 0.989,-4.659Z" style="fill:#0e0f0f;"/><path d="M359.428,93.508c1.264,3.496 2.274,3.289 1.385,6.978c-3.381,14.018 -7.481,10.93 -11.538,9.923l-1.18,-4.327c0.381,-0.309 3.323,0.045 5.165,-4.191c1.11,-2.553 1.295,-2.285 6.168,-8.382Z" style="fill:#8b8f90;"/><path d="M326.789,15.623c1.667,-14.005 2.557,-14.531 3.632,-15.165c3.307,-1.953 4.989,2.944 5.149,3.412c0.325,0.945 -0.077,0.894 0.888,12.46c-3.235,0.203 -3.05,-0.01 -9.669,-0.706Z" style="fill:#b8bdbf;"/><path d="M351.17,84.85c1.316,1.368 -1.483,1.956 -0.123,3.37c0.295,0.306 0.448,-0.284 5.025,1.728c0,0 3.087,3.275 3.356,3.559c-4.873,6.098 -5.058,5.829 -6.168,8.382c-1.842,4.236 -4.785,3.882 -5.165,4.191c-0.13,-0.627 0.086,-0.523 -0.678,-7.979c0.352,-0.674 1.914,-0.518 3.753,-13.252Z" style="fill:#bfc5c8;"/><path d="M331.987,191.231l-2.282,4.589c-0.899,-0.795 -10.166,-8.984 -2.892,-14.717c4.362,-3.438 11.531,1.704 7.985,4.44c-3.51,2.709 -3.709,2.425 -3.878,2.767c-0.783,1.583 1.864,1.308 1.066,2.922Z" style="fill:#2c2e2f;"/><path d="M348.843,54.745c0.075,0.417 0.94,5.209 0.94,5.209c0.11,1.075 -0.544,2.201 -0.228,3.234c0.604,1.975 1.642,1.19 2.171,3.121c0.462,1.686 -0.907,1.493 -0.415,3.289c-3.599,-0.203 -3.426,-0.115 -6.919,0.829c-3.05,-13.26 -1.591,-14.42 -0.639,-15.175c0.32,-0.255 0.372,-0.037 5.091,-0.507Z" style="fill:#929698;"/><path d="M315.219,90.311c-13.112,-0.283 -8.224,-6.037 -7.575,-6.503c1.221,-0.878 13.204,1.283 13.311,1.354c10.718,7.043 -5.123,5.219 -5.736,5.149Z" style="fill:#8b8d8e;"/><path d="M44.562,112.738c2.466,-12.488 10.461,-0.724 7.65,3.373c-0.323,0.47 -0.45,0.268 -6.12,3.651c-0.51,-2.341 -1.02,-4.682 -1.53,-7.024Z" style="fill:#97871d;"/><path d="M23.216,137.046c2.402,2.165 4.804,4.33 7.207,6.495c-4.692,4.436 -5.063,8.897 -9.528,4.099c-3.427,-3.683 1.766,-9.926 2.321,-10.593Z" style="fill:#aaa674;"/><path d="M212.142,45.194c4.631,-1.383 4.426,-2.507 9.041,-1.468c4.06,0.914 5.649,4.833 5.212,5.98c-0.314,0.822 -0.69,1.811 -10.955,1.025c-1.099,-1.846 -2.199,-3.692 -3.298,-5.537Z" style="fill:#b3bfc2;"/><path d="M339.409,34.958c3.237,1.967 7.252,-0.342 7.287,9.721c0.003,0.994 1.243,3.07 0.254,2.971c-0.863,-0.086 -0.617,-0.498 -8.441,-6.808c0.3,-1.961 0.6,-3.922 0.901,-5.883Z" style="fill:#c0c9cc;"/><path d="M361.962,74.881c11.811,7.982 -0.063,8.116 -0.678,7.947c-5.439,-1.491 -3.231,-3.721 0.678,-7.947Z" style="fill:#9fa0a1;"/><path d="M303.76,75.756c-0.423,0.767 -5,9.07 -7.094,8.342c-3.966,-1.379 -3.183,-2.738 -0.848,-6.241c2.647,-0.7 5.295,-1.4 7.942,-2.1Z" style="fill:#bfc4c6;"/><path d="M307.996,56.747l0.127,6.414c-6.37,-0.02 -9.881,2.956 -9.425,-3.4c0.056,-0.78 0.097,-1.357 9.298,-3.014Z" style="fill:#c6d0d3;"/><path d="M289.18,72.983c-2.773,5.036 -3.134,7.778 -7.894,4.414c-0.591,-0.418 -4.274,-7.375 7.894,-4.414Z" style="fill:#b3b9bc;"/><path d="M330.352,62.99c1.895,0.201 3.791,0.402 5.686,0.604c-0.052,0.908 0.924,1.677 0.873,2.585c0,0 -3.039,3.237 -3.304,3.519c-0.818,-0.661 -2.309,0.247 -3.127,-0.414c-1.426,-1.152 -1.464,-3.011 -1.47,-3.3c-0.036,-1.758 1.377,-1.239 1.341,-2.993Z" style="fill:#575656;"/><path d="M151.399,28.72c-1.092,0.697 -0.96,2.603 -2.052,3.301c-6.678,4.264 -6.385,-10.549 -0.058,-6.591c1.105,0.691 1.006,2.599 2.11,3.29Z" style="fill:#0f1010;"/><path d="M252.837,98.461c-2.825,2.243 -2.89,2.156 -3.052,2.422c-0.784,1.293 0.278,1.452 -0.457,2.663c-5.778,-0.081 -6.066,0.401 -6.12,-0.085c-0.504,-4.581 8.761,-4.964 9.628,-5Z" style="fill:#d5e0e5;"/><path d="M333.685,57.078c0.796,1.272 -0.767,1.452 0.039,2.741c0.64,1.024 1.34,-0.554 1.915,0.384c0.595,0.97 -0.195,2.42 0.4,3.39c-1.895,-0.201 -3.791,-0.402 -5.686,-0.604l-0.841,-3.305l4.174,-2.607Z" style="fill:#aeb3b5;"/><path d="M55.428,44.318c0.625,1.244 3.016,0.802 3.641,2.045c0,0 -2.953,3.973 -3.21,4.319c-0.144,-2.121 -0.287,-4.243 -0.431,-6.364Z" style="fill:#baba9e;"/></g></svg>