<?xml version="1.0" encoding="UTF-8" standalone="no"?><!DOCTYPE svg PUBLIC "-//W3C//DTD SVG 1.1//EN" "http://www.w3.org/Graphics/SVG/1.1/DTD/svg11.dtd"><svg width="100%" height="100%" viewBox="0 0 350 350" version="1.1" xmlns="http://www.w3.org/2000/svg" xmlns:xlink="http://www.w3.org/1999/xlink" xml:space="preserve" xmlns:serif="http://www.serif.com/" style="fill-rule:evenodd;clip-rule:evenodd;stroke-linejoin:round;stroke-miterlimit:2;"><path d="M349.992,174.996c0,96.646 -78.346,175 -174.996,175c-96.646,0 -174.996,-78.354 -174.996,-175c0,-96.646 78.35,-174.996 174.996,-174.996c96.65,0 174.996,78.35 174.996,174.996" style="fill:#004a8d;fill-rule:nonzero;"/><path d="M340.885,174.996c0,91.613 -74.271,165.887 -165.887,165.887c-91.617,0 -165.883,-74.275 -165.883,-165.887c0,-91.612 74.267,-165.887 165.883,-165.887c91.617,0 165.887,74.275 165.887,165.887" style="fill:#fff;fill-rule:nonzero;"/><path d="M99.959,174.08l-3.667,-2.075l0,-8.488l3.667,2.067l3.662,-2.067l0,8.488l-3.662,2.075Z" style="fill:#004a8d;fill-rule:nonzero;"/><path d="M113.804,174.08l-3.662,-2.075l0,-8.488l3.662,2.067l3.667,-2.067l0,8.488l-3.667,2.075Z" style="fill:#004a8d;fill-rule:nonzero;"/><path d="M127.651,174.08l-3.658,-2.075l0,-8.488l3.662,2.067l3.662,-2.067l0,8.488l-3.667,2.075Z" style="fill:#004a8d;fill-rule:nonzero;"/><path d="M141.504,174.08l-3.667,-2.075l0,-8.488l3.667,2.067l3.662,-2.067l0,8.488l-3.662,2.075Z" style="fill:#004a8d;fill-rule:nonzero;"/><path d="M155.348,174.08l-3.662,-2.075l0,-8.488l3.662,2.067l3.662,-2.067l0,8.488l-3.662,2.075Z" style="fill:#004a8d;fill-rule:nonzero;"/><path d="M196.889,174.08l-3.658,-2.075l0,-8.488l3.662,2.067l3.662,-2.067l0,8.488l-3.667,2.075Z" style="fill:#004a8d;fill-rule:nonzero;"/><path d="M210.738,174.08l-3.658,-2.075l0,-8.488l3.662,2.067l3.662,-2.067l0,8.488l-3.667,2.075Z" style="fill:#004a8d;fill-rule:nonzero;"/><path d="M224.583,174.08l-3.658,-2.075l0,-8.488l3.662,2.067l3.662,-2.067l0,8.488l-3.667,2.075Z" style="fill:#004a8d;fill-rule:nonzero;"/><path d="M238.432,174.08l-3.658,-2.075l0,-8.488l3.658,2.067l3.667,-2.067l0,8.488l-3.667,2.075Z" style="fill:#004a8d;fill-rule:nonzero;"/><path d="M252.28,174.08l-3.662,-2.075l0,-8.488l3.662,2.067l3.667,-2.067l0,8.488l-3.667,2.075Z" style="fill:#004a8d;fill-rule:nonzero;"/><path d="M99.959,156.745l-3.667,-2.067l0,-8.496l3.667,2.071l3.662,-2.071l0,8.496l-3.662,2.067Z" style="fill:#004a8d;fill-rule:nonzero;"/><path d="M113.804,156.745l-3.662,-2.067l0,-8.496l3.662,2.071l3.667,-2.071l0,8.496l-3.667,2.067Z" style="fill:#004a8d;fill-rule:nonzero;"/><path d="M127.651,156.745l-3.658,-2.067l0,-8.496l3.662,2.071l3.662,-2.071l0,8.496l-3.667,2.067Z" style="fill:#004a8d;fill-rule:nonzero;"/><path d="M141.504,156.745l-3.667,-2.067l0,-8.496l3.667,2.071l3.662,-2.071l0,8.496l-3.662,2.067Z" style="fill:#004a8d;fill-rule:nonzero;"/><path d="M155.348,156.745l-3.662,-2.067l0,-8.496l3.662,2.071l3.662,-2.071l0,8.496l-3.662,2.067Z" style="fill:#004a8d;fill-rule:nonzero;"/><path d="M196.889,156.745l-3.658,-2.067l0,-8.496l3.662,2.071l3.662,-2.071l0,8.496l-3.667,2.067Z" style="fill:#004a8d;fill-rule:nonzero;"/><path d="M210.738,156.745l-3.658,-2.067l0,-8.496l3.662,2.071l3.662,-2.071l0,8.496l-3.667,2.067Z" style="fill:#004a8d;fill-rule:nonzero;"/><path d="M224.583,156.745l-3.658,-2.067l0,-8.496l3.662,2.071l3.662,-2.071l0,8.496l-3.667,2.067Z" style="fill:#004a8d;fill-rule:nonzero;"/><path d="M238.432,156.745l-3.658,-2.067l0,-8.496l3.658,2.071l3.667,-2.071l0,8.496l-3.667,2.067Z" style="fill:#004a8d;fill-rule:nonzero;"/><path d="M252.28,156.745l-3.662,-2.067l0,-8.496l3.662,2.071l3.667,-2.071l0,8.496l-3.667,2.067Z" style="fill:#004a8d;fill-rule:nonzero;"/><path d="M99.959,139.417l-3.667,-2.075l0,-8.488l3.667,2.067l3.662,-2.067l0,8.488l-3.662,2.075Z" style="fill:#004a8d;fill-rule:nonzero;"/><path d="M113.804,139.417l-3.662,-2.075l0,-8.488l3.662,2.067l3.667,-2.067l0,8.488l-3.667,2.075Z" style="fill:#004a8d;fill-rule:nonzero;"/><path d="M127.651,139.417l-3.658,-2.075l0,-8.488l3.662,2.067l3.662,-2.067l0,8.488l-3.667,2.075Z" style="fill:#004a8d;fill-rule:nonzero;"/><path d="M141.504,139.417l-3.667,-2.075l0,-8.488l3.667,2.067l3.662,-2.067l0,8.488l-3.662,2.075Z" style="fill:#004a8d;fill-rule:nonzero;"/><path d="M155.348,139.417l-3.662,-2.075l0,-8.488l3.662,2.067l3.662,-2.067l0,8.488l-3.662,2.075Z" style="fill:#004a8d;fill-rule:nonzero;"/><path d="M169.197,139.417l-3.667,-2.075l0,-8.488l3.667,2.067l3.662,-2.067l0,8.488l-3.662,2.075Z" style="fill:#004a8d;fill-rule:nonzero;"/><path d="M183.048,139.417l-3.667,-2.075l0,-8.488l3.667,2.067l3.662,-2.067l0,8.488l-3.662,2.075Z" style="fill:#004a8d;fill-rule:nonzero;"/><path d="M196.889,139.417l-3.658,-2.075l0,-8.488l3.662,2.067l3.662,-2.067l0,8.488l-3.667,2.075Z" style="fill:#004a8d;fill-rule:nonzero;"/><path d="M210.738,139.417l-3.658,-2.075l0,-8.488l3.662,2.067l3.662,-2.067l0,8.488l-3.667,2.075Z" style="fill:#004a8d;fill-rule:nonzero;"/><path d="M224.583,139.417l-3.658,-2.075l0,-8.488l3.662,2.067l3.662,-2.067l0,8.488l-3.667,2.075Z" style="fill:#004a8d;fill-rule:nonzero;"/><path d="M238.432,139.417l-3.658,-2.075l0,-8.488l3.658,2.067l3.667,-2.067l0,8.488l-3.667,2.075Z" style="fill:#004a8d;fill-rule:nonzero;"/><path d="M252.28,139.417l-3.662,-2.075l0,-8.488l3.662,2.067l3.667,-2.067l0,8.488l-3.667,2.075Z" style="fill:#004a8d;fill-rule:nonzero;"/><path d="M99.959,122.082l-3.667,-2.071l0,-8.492l3.667,2.071l3.662,-2.071l0,8.492l-3.662,2.071Z" style="fill:#004a8d;fill-rule:nonzero;"/><path d="M113.804,122.082l-3.662,-2.071l0,-8.492l3.662,2.071l3.667,-2.071l0,8.492l-3.667,2.071Z" style="fill:#004a8d;fill-rule:nonzero;"/><path d="M127.651,122.082l-3.658,-2.071l0,-8.492l3.662,2.071l3.662,-2.071l0,8.492l-3.667,2.071Z" style="fill:#004a8d;fill-rule:nonzero;"/><path d="M141.504,122.082l-3.667,-2.071l0,-8.492l3.667,2.071l3.662,-2.071l0,8.492l-3.662,2.071Z" style="fill:#004a8d;fill-rule:nonzero;"/><path d="M155.348,122.082l-3.662,-2.071l0,-8.492l3.662,2.071l3.662,-2.071l0,8.492l-3.662,2.071Z" style="fill:#004a8d;fill-rule:nonzero;"/><path d="M169.197,122.082l-3.667,-2.071l0,-8.492l3.667,2.071l3.662,-2.071l0,8.492l-3.662,2.071Z" style="fill:#004a8d;fill-rule:nonzero;"/><path d="M183.048,122.082l-3.667,-2.071l0,-8.492l3.667,2.071l3.662,-2.071l0,8.492l-3.662,2.071Z" style="fill:#004a8d;fill-rule:nonzero;"/><path d="M196.889,122.082l-3.658,-2.071l0,-8.492l3.662,2.071l3.662,-2.071l0,8.492l-3.667,2.071Z" style="fill:#004a8d;fill-rule:nonzero;"/><path d="M210.738,122.082l-3.658,-2.071l0,-8.492l3.662,2.071l3.662,-2.071l0,8.492l-3.667,2.071Z" style="fill:#004a8d;fill-rule:nonzero;"/><path d="M224.583,122.082l-3.658,-2.071l0,-8.492l3.662,2.071l3.662,-2.071l0,8.492l-3.667,2.071Z" style="fill:#004a8d;fill-rule:nonzero;"/><path d="M238.432,122.082l-3.658,-2.071l0,-8.492l3.658,2.071l3.667,-2.071l0,8.492l-3.667,2.071Z" style="fill:#004a8d;fill-rule:nonzero;"/><path d="M252.28,122.082l-3.662,-2.071l0,-8.492l3.662,2.071l3.667,-2.071l0,8.492l-3.667,2.071Z" style="fill:#004a8d;fill-rule:nonzero;"/><path d="M155.348,104.751l-3.662,-2.071l0,-8.487l3.662,2.067l3.662,-2.067l0,8.487l-3.662,2.071Z" style="fill:#004a8d;fill-rule:nonzero;"/><path d="M169.197,104.751l-3.667,-2.071l0,-8.487l3.667,2.067l3.662,-2.067l0,8.487l-3.662,2.071Z" style="fill:#004a8d;fill-rule:nonzero;"/><path d="M183.048,104.751l-3.667,-2.071l0,-8.487l3.667,2.067l3.662,-2.067l0,8.487l-3.662,2.071Z" style="fill:#004a8d;fill-rule:nonzero;"/><path d="M196.889,104.751l-3.658,-2.071l0,-8.487l3.662,2.067l3.662,-2.067l0,8.487l-3.667,2.071Z" style="fill:#004a8d;fill-rule:nonzero;"/><path d="M169.197,87.417l-3.667,-2.071l0,-8.487l3.667,2.067l3.662,-2.067l0,8.487l-3.662,2.071Z" style="fill:#004a8d;fill-rule:nonzero;"/><path d="M183.048,87.417l-3.667,-2.071l0,-8.487l3.667,2.067l3.662,-2.067l0,8.487l-3.662,2.071Z" style="fill:#004a8d;fill-rule:nonzero;"/><path d="M117.792,230.57l-2.933,0l0,-21.838l-9.054,0l0,-2.771l9.054,0l0,-11.162l2.933,0l0,35.771Zm-9.846,-13.296l-1.983,2.062l-8.254,-8.142c-1.042,2.096 -2.312,3.842 -3.817,5.246c-1.504,1.404 -2.9,2.446 -4.167,3.133l-1.871,-2.217c1.513,-0.825 2.817,-1.762 3.896,-2.829c1.083,-1.054 1.971,-2.175 2.658,-3.371c0.692,-1.188 1.204,-2.404 1.55,-3.658c0.342,-1.238 0.517,-2.471 0.517,-3.683l0,-5.321l3.138,0l0,4.483c0,0.983 -0.071,1.917 -0.208,2.8c-0.121,0.888 -0.312,1.721 -0.55,2.521l9.092,8.975Z" style="fill:#004a8d;fill-rule:nonzero;"/><path d="M145.109,201.908c0,-1.396 -0.579,-2.5 -1.742,-3.296c-1.162,-0.792 -2.587,-1.183 -4.25,-1.183c-1.612,0 -3,0.396 -4.15,1.204c-1.15,0.808 -1.733,1.9 -1.733,3.275c0,1.508 0.592,2.638 1.767,3.379c1.175,0.738 2.554,1.113 4.117,1.113c0.767,0 1.513,-0.096 2.242,-0.267c0.729,-0.167 1.371,-0.425 1.925,-0.771c0.558,-0.371 1,-0.842 1.333,-1.408c0.325,-0.562 0.492,-1.258 0.492,-2.046m3.175,0.042c0,1.138 -0.246,2.146 -0.75,3.038c-0.504,0.883 -1.167,1.621 -1.988,2.208c-0.846,0.608 -1.825,1.054 -2.938,1.363c-1.113,0.304 -2.279,0.454 -3.492,0.454c-1.246,0 -2.421,-0.142 -3.517,-0.433c-1.096,-0.292 -2.042,-0.742 -2.838,-1.35c-0.825,-0.579 -1.471,-1.313 -1.946,-2.183c-0.475,-0.871 -0.717,-1.896 -0.717,-3.05c0,-1.088 0.229,-2.079 0.692,-2.967c0.467,-0.887 1.108,-1.633 1.933,-2.242c0.821,-0.633 1.767,-1.121 2.854,-1.471c1.088,-0.342 2.267,-0.517 3.537,-0.517c1.267,0 2.463,0.158 3.592,0.487c1.121,0.308 2.1,0.771 2.917,1.388c0.821,0.6 1.467,1.35 1.946,2.237c0.475,0.879 0.713,1.896 0.713,3.037m8.104,12.192l-15.408,0l0,3.612l7.583,0l0,8.329l-14.883,0l0,3.183l15.838,0l0,2.775l-18.938,0l0,-8.575l14.808,0l0,-3.054l-15.046,0l0,-2.658l7.621,0l0,-3.612l-15.242,0l0,-2.704l33.667,0l0,2.704Z" style="fill:#004a8d;fill-rule:nonzero;"/><path d="M184.338,214.732l-19.183,0l0,-15.8l19.1,0l0,2.742l-16.15,0l0,10.358l16.233,0l0,2.7Zm7.7,11.238l-33.546,0l0,-2.733l15.167,0l0,-7.271l2.975,0l0,7.271l15.404,0l0,2.733Z" style="fill:#004a8d;fill-rule:nonzero;"/><path d="M223.01,230.57l-2.942,0l0,-21.838l-9.05,0l0,-2.771l9.05,0l0,-11.162l2.942,0l0,35.771Zm-9.846,-13.296l-1.988,2.062l-8.258,-8.142c-1.033,2.096 -2.3,3.842 -3.812,5.246c-1.512,1.404 -2.9,2.446 -4.171,3.133l-1.867,-2.217c1.508,-0.825 2.808,-1.762 3.896,-2.829c1.083,-1.054 1.971,-2.175 2.658,-3.371c0.683,-1.188 1.204,-2.404 1.55,-3.658c0.342,-1.238 0.508,-2.471 0.508,-3.683l0,-5.321l3.146,0l0,4.483c0,0.983 -0.075,1.917 -0.2,2.8c-0.133,0.888 -0.321,1.721 -0.562,2.521l9.1,8.975Z" style="fill:#004a8d;fill-rule:nonzero;"/><path d="M262.51,208.179l-6.467,0l0,12.713l-2.979,0l0,-26.092l2.979,0l0,10.646l6.467,0l0,2.733Zm-5.958,23.471l-18.975,0l0,-11.475l2.979,0l0,8.688l15.996,0l0,2.787Zm-10.038,-33.75c0,1.4 -0.025,2.675 -0.083,3.829c-0.054,1.154 -0.133,2.229 -0.242,3.238c-0.104,1.033 -0.254,2.017 -0.45,2.958c-0.2,0.942 -0.433,1.896 -0.696,2.875l-3.017,0c0.421,-1.346 0.75,-2.867 0.967,-4.567c0.229,-1.688 0.371,-3.567 0.421,-5.633l-12.704,0l0,-2.7l15.804,0Zm4.883,17.787c-0.929,0.129 -1.854,0.275 -2.783,0.417c-0.929,0.146 -1.996,0.271 -3.213,0.375c-1.242,0.104 -2.696,0.192 -4.354,0.258c-1.646,0.071 -3.646,0.1 -5.971,0.1l-7.262,0l0,-2.696l7.104,0l0,-7.908l2.979,0l0,7.908c0.713,0 1.658,-0.021 2.842,-0.062c1.171,-0.033 2.4,-0.1 3.667,-0.175c1.296,-0.083 2.567,-0.188 3.812,-0.3c1.237,-0.125 2.304,-0.275 3.179,-0.458l0,2.542Z" style="fill:#004a8d;fill-rule:nonzero;"/><path d="M68.563,251.624c0,1.354 -0.475,2.358 -1.404,3.004c-0.946,0.642 -2.204,0.958 -3.787,0.958c-0.608,0 -1.238,-0.062 -1.875,-0.204c-0.646,-0.121 -1.175,-0.25 -1.604,-0.371l0,-1.588c0.071,0.025 0.225,0.088 0.446,0.188c0.237,0.088 0.521,0.183 0.85,0.275c0.325,0.1 0.696,0.196 1.108,0.271c0.417,0.079 0.821,0.125 1.25,0.125c0.425,0 0.838,-0.046 1.229,-0.125c0.396,-0.075 0.746,-0.221 1.05,-0.413c0.304,-0.192 0.55,-0.438 0.737,-0.746c0.183,-0.317 0.275,-0.7 0.275,-1.158c0,-0.442 -0.083,-0.817 -0.263,-1.125c-0.171,-0.304 -0.375,-0.571 -0.625,-0.796c-0.267,-0.246 -0.562,-0.45 -0.875,-0.633c-0.321,-0.158 -0.621,-0.325 -0.913,-0.479c-0.437,-0.217 -0.912,-0.442 -1.429,-0.7c-0.517,-0.242 -0.996,-0.546 -1.429,-0.867c-0.446,-0.333 -0.817,-0.713 -1.104,-1.125c-0.296,-0.417 -0.442,-0.904 -0.442,-1.45c0,-1.238 0.425,-2.15 1.279,-2.725c0.846,-0.592 1.938,-0.888 3.238,-0.888c0.333,0 0.662,0.025 1,0.075c0.346,0.062 0.662,0.112 0.967,0.162c0.304,0.062 0.579,0.129 0.829,0.183c0.242,0.058 0.429,0.1 0.562,0.108l0,1.45c-0.15,-0.062 -0.554,-0.183 -1.225,-0.371c-0.667,-0.188 -1.433,-0.308 -2.308,-0.363c-0.792,0 -1.433,0.208 -1.921,0.596c-0.496,0.396 -0.737,0.946 -0.737,1.625c0,0.308 0.071,0.575 0.196,0.8c0.133,0.217 0.308,0.421 0.517,0.612c0.229,0.196 0.483,0.375 0.767,0.542c0.283,0.167 0.575,0.325 0.879,0.487l1.55,0.713c0.308,0.192 0.638,0.383 1.013,0.579c0.371,0.212 0.721,0.458 1.054,0.75c0.312,0.308 0.575,0.658 0.796,1.075c0.221,0.417 0.337,0.938 0.35,1.546" style="fill:#004a8d;fill-rule:nonzero;"/><path d="M77.207,249.418c0,-0.288 -0.033,-0.604 -0.108,-0.946c-0.075,-0.333 -0.196,-0.65 -0.392,-0.938c-0.171,-0.287 -0.408,-0.533 -0.708,-0.725c-0.304,-0.188 -0.683,-0.287 -1.129,-0.287c-0.846,0 -1.558,0.258 -2.129,0.767c-0.579,0.508 -0.912,1.217 -1.004,2.129l5.471,0Zm1.604,1.175l-7.054,0c0.038,0.575 0.208,1.175 0.492,1.792c0.292,0.604 0.817,1.125 1.571,1.533c0.158,0.112 0.413,0.2 0.754,0.275c0.358,0.088 0.75,0.129 1.208,0.142c0.438,0 0.888,-0.046 1.371,-0.142c0.483,-0.087 0.942,-0.262 1.379,-0.525l0,1.167c-0.579,0.304 -1.2,0.496 -1.854,0.604c-0.65,0.092 -1.296,0.117 -1.933,0.046c-0.629,-0.071 -1.217,-0.208 -1.762,-0.421c-0.546,-0.225 -0.983,-0.504 -1.325,-0.871c-0.45,-0.433 -0.825,-0.987 -1.108,-1.65c-0.3,-0.671 -0.438,-1.458 -0.438,-2.329c0,-1.421 0.412,-2.592 1.258,-3.504c0.838,-0.9 2.025,-1.354 3.558,-1.354c0.646,0 1.221,0.121 1.704,0.375c0.483,0.254 0.892,0.575 1.208,0.971c0.317,0.396 0.562,0.837 0.717,1.338c0.171,0.496 0.254,0.992 0.254,1.5l0,1.054Z" style="fill:#004a8d;fill-rule:nonzero;"/><path d="M88.277,250.476c0,-0.492 -0.067,-0.975 -0.175,-1.458c-0.117,-0.471 -0.3,-0.892 -0.55,-1.267c-0.242,-0.371 -0.567,-0.667 -0.967,-0.892c-0.396,-0.221 -0.879,-0.333 -1.446,-0.333c-0.537,0 -1.004,0.104 -1.392,0.325c-0.383,0.225 -0.696,0.508 -0.946,0.863c-0.254,0.375 -0.438,0.792 -0.55,1.275c-0.117,0.467 -0.171,0.971 -0.171,1.5c0,0.512 0.054,1.004 0.171,1.467c0.113,0.463 0.3,0.871 0.567,1.229c0.25,0.358 0.575,0.642 0.979,0.854c0.392,0.217 0.867,0.312 1.421,0.312c0.542,0 1.004,-0.096 1.383,-0.312c0.392,-0.213 0.708,-0.513 0.95,-0.871c0.246,-0.354 0.425,-0.771 0.542,-1.233c0.117,-0.479 0.183,-0.963 0.183,-1.458m1.658,0c0,1.5 -0.412,2.721 -1.258,3.646c-0.838,0.917 -2,1.388 -3.479,1.388c-1.392,0 -2.525,-0.433 -3.408,-1.312c-0.892,-0.871 -1.333,-2.108 -1.333,-3.708c0,-0.688 0.096,-1.342 0.296,-1.95c0.183,-0.621 0.475,-1.167 0.854,-1.633c0.396,-0.471 0.888,-0.833 1.479,-1.117c0.592,-0.275 1.275,-0.425 2.071,-0.425c1.479,0 2.646,0.483 3.5,1.417c0.854,0.938 1.279,2.167 1.279,3.696" style="fill:#004a8d;fill-rule:nonzero;"/><path d="M100.443,255.27l-1.362,0l0,-2.279l-0.042,0c-0.212,0.688 -0.629,1.271 -1.246,1.762c-0.629,0.492 -1.492,0.733 -2.6,0.733c-0.442,0 -0.846,-0.075 -1.208,-0.225c-0.371,-0.158 -0.692,-0.371 -0.954,-0.646c-0.263,-0.262 -0.471,-0.583 -0.629,-0.942c-0.15,-0.363 -0.229,-0.763 -0.229,-1.183l0,-6.938l1.45,0l0,6.188c0,0.287 0.033,0.583 0.096,0.879c0.054,0.292 0.162,0.567 0.317,0.804c0.167,0.233 0.379,0.429 0.658,0.575c0.283,0.146 0.638,0.221 1.075,0.221c0.775,0 1.446,-0.292 1.992,-0.896c0.546,-0.6 0.921,-1.304 1.117,-2.133c0.046,-0.258 0.079,-0.512 0.1,-0.762c0.029,-0.25 0.046,-0.496 0.062,-0.75l0,-4.125l1.404,0l0,9.717Z" style="fill:#004a8d;fill-rule:nonzero;"/><rect x="103.502" y="241.271" width="1.504" height="14.075" style="fill:#004a8d;"/><path d="M127.986,255.347l-1.425,0l0,-12.312l-0.042,0l-4.362,12.312l-1.558,0l-4.371,-12.312l-0.042,0l0,12.312l-1.421,0l0,-14.075l2.392,0l4.208,11.996l0.046,0l4.192,-11.996l2.383,0l0,14.075Z" style="fill:#004a8d;fill-rule:nonzero;"/><path d="M137.685,249.418c0,-0.288 -0.037,-0.604 -0.113,-0.946c-0.067,-0.333 -0.204,-0.65 -0.383,-0.938c-0.175,-0.287 -0.412,-0.533 -0.713,-0.725c-0.308,-0.188 -0.679,-0.287 -1.133,-0.287c-0.846,0 -1.558,0.258 -2.129,0.767c-0.575,0.508 -0.908,1.217 -1,2.129l5.471,0Zm1.604,1.175l-7.054,0c0.037,0.575 0.196,1.175 0.483,1.792c0.3,0.604 0.821,1.125 1.579,1.533c0.154,0.112 0.408,0.2 0.754,0.275c0.358,0.088 0.754,0.129 1.204,0.142c0.433,0 0.892,-0.046 1.379,-0.142c0.479,-0.087 0.942,-0.262 1.375,-0.525l0,1.167c-0.579,0.304 -1.196,0.496 -1.85,0.604c-0.654,0.092 -1.3,0.117 -1.933,0.046c-0.633,-0.071 -1.229,-0.208 -1.767,-0.421c-0.542,-0.225 -0.983,-0.504 -1.329,-0.871c-0.45,-0.433 -0.821,-0.987 -1.108,-1.65c-0.287,-0.671 -0.442,-1.458 -0.442,-2.329c0,-1.421 0.421,-2.592 1.267,-3.504c0.838,-0.9 2.017,-1.354 3.554,-1.354c0.646,0 1.221,0.121 1.696,0.375c0.5,0.254 0.904,0.575 1.221,0.971c0.312,0.396 0.558,0.837 0.721,1.338c0.167,0.496 0.25,0.992 0.25,1.5l0,1.054Z" style="fill:#004a8d;fill-rule:nonzero;"/><path d="M146.629,246.883l-2.863,0l0,5.233c0,0.3 0.017,0.587 0.042,0.862c0.029,0.279 0.1,0.513 0.217,0.725c0.104,0.208 0.279,0.379 0.496,0.488c0.229,0.121 0.533,0.183 0.917,0.183c0.221,0 0.438,-0.004 0.633,-0.025c0.196,-0.021 0.367,-0.058 0.496,-0.096l0,1.225c-0.25,0.042 -0.492,0.079 -0.721,0.079c-0.233,0.004 -0.467,0.004 -0.688,0.004c-0.975,0 -1.7,-0.2 -2.183,-0.604c-0.467,-0.396 -0.713,-1.025 -0.713,-1.85l0,-6.225l-1.725,0l0,-1.175l1.725,0l0,-2.379l1.504,-0.912l0,3.292l2.863,0l0,1.175Z" style="fill:#004a8d;fill-rule:nonzero;"/><path d="M154.341,246.883c-0.425,0 -0.854,0.054 -1.287,0.146c-0.425,0.104 -0.825,0.254 -1.192,0.463c-0.371,0.217 -0.692,0.492 -0.971,0.829c-0.283,0.338 -0.479,0.733 -0.6,1.196c-0.062,0.271 -0.117,0.55 -0.15,0.842c-0.029,0.296 -0.05,0.612 -0.05,0.954l0,4.012l-1.438,0l0,-9.712l1.438,0l0,2.167l0.05,0c0.375,-0.787 0.917,-1.379 1.608,-1.779c0.692,-0.417 1.558,-0.6 2.592,-0.6l0,1.483Z" style="fill:#004a8d;fill-rule:nonzero;"/><path d="M163.128,250.476c0,-0.492 -0.067,-0.975 -0.175,-1.458c-0.112,-0.471 -0.296,-0.892 -0.542,-1.267c-0.25,-0.371 -0.575,-0.667 -0.971,-0.892c-0.404,-0.221 -0.883,-0.333 -1.45,-0.333c-0.542,0 -1.008,0.104 -1.392,0.325c-0.383,0.225 -0.7,0.508 -0.95,0.863c-0.254,0.375 -0.433,0.792 -0.542,1.275c-0.112,0.467 -0.171,0.971 -0.171,1.5c0,0.512 0.058,1.004 0.171,1.467c0.108,0.463 0.3,0.871 0.567,1.229c0.25,0.358 0.571,0.642 0.967,0.854c0.4,0.217 0.879,0.312 1.429,0.312c0.542,0 1,-0.096 1.388,-0.312c0.383,-0.213 0.704,-0.513 0.954,-0.871c0.233,-0.354 0.412,-0.771 0.533,-1.233c0.117,-0.479 0.183,-0.963 0.183,-1.458m1.654,0c0,1.5 -0.412,2.721 -1.25,3.646c-0.842,0.917 -2,1.388 -3.483,1.388c-1.383,0 -2.521,-0.433 -3.412,-1.312c-0.883,-0.871 -1.325,-2.108 -1.325,-3.708c0,-0.688 0.092,-1.342 0.287,-1.95c0.192,-0.621 0.483,-1.167 0.858,-1.633c0.404,-0.471 0.892,-0.833 1.479,-1.117c0.592,-0.275 1.279,-0.425 2.075,-0.425c1.475,0 2.646,0.483 3.496,1.417c0.858,0.938 1.275,2.167 1.275,3.696" style="fill:#004a8d;fill-rule:nonzero;"/><path d="M173.93,250.505c0,-0.521 -0.058,-1.033 -0.167,-1.517c-0.113,-0.496 -0.279,-0.912 -0.492,-1.271c-0.217,-0.375 -0.496,-0.671 -0.817,-0.888c-0.325,-0.221 -0.704,-0.321 -1.142,-0.321c-0.754,0 -1.392,0.346 -1.921,1.05c-0.533,0.692 -0.796,1.625 -0.796,2.771c0,0.4 0.042,0.825 0.142,1.296c0.083,0.458 0.25,0.892 0.475,1.3c0.208,0.396 0.483,0.729 0.838,1c0.354,0.258 0.787,0.388 1.304,0.388c0.433,0 0.817,-0.1 1.137,-0.312c0.325,-0.208 0.592,-0.488 0.8,-0.833c0.208,-0.358 0.375,-0.767 0.479,-1.217c0.104,-0.458 0.158,-0.933 0.158,-1.446m1.588,0.025c0,0.637 -0.092,1.254 -0.267,1.858c-0.183,0.592 -0.446,1.129 -0.792,1.596c-0.35,0.463 -0.787,0.829 -1.3,1.108c-0.496,0.275 -1.092,0.412 -1.767,0.412c-0.8,0 -1.421,-0.192 -1.879,-0.571c-0.45,-0.388 -0.775,-0.854 -0.979,-1.392l-0.037,0l0,5.513l-1.446,0l0,-13.5l1.446,0l0,1.842l0.037,0c0.083,-0.237 0.204,-0.479 0.35,-0.725c0.167,-0.242 0.371,-0.467 0.621,-0.667c0.246,-0.196 0.521,-0.35 0.85,-0.479c0.325,-0.129 0.696,-0.192 1.137,-0.192c0.554,0 1.083,0.125 1.567,0.35c0.488,0.225 0.908,0.567 1.275,1c0.363,0.433 0.654,0.975 0.871,1.629c0.204,0.646 0.312,1.383 0.312,2.217" style="fill:#004a8d;fill-rule:nonzero;"/><path d="M184.833,250.476c0,-0.492 -0.054,-0.975 -0.167,-1.458c-0.113,-0.471 -0.296,-0.892 -0.55,-1.267c-0.25,-0.371 -0.571,-0.667 -0.971,-0.892c-0.387,-0.221 -0.879,-0.333 -1.446,-0.333c-0.537,0 -1,0.104 -1.379,0.325c-0.392,0.225 -0.704,0.508 -0.958,0.863c-0.25,0.375 -0.433,0.792 -0.55,1.275c-0.112,0.467 -0.171,0.971 -0.171,1.5c0,0.512 0.058,1.004 0.171,1.467c0.117,0.463 0.304,0.871 0.571,1.229c0.254,0.358 0.575,0.642 0.971,0.854c0.4,0.217 0.871,0.312 1.421,0.312c0.546,0 1.008,-0.096 1.396,-0.312c0.383,-0.213 0.696,-0.513 0.946,-0.871c0.242,-0.354 0.425,-0.771 0.542,-1.233c0.113,-0.479 0.175,-0.963 0.175,-1.458m1.667,0c0,1.5 -0.421,2.721 -1.262,3.646c-0.838,0.917 -2,1.388 -3.471,1.388c-1.392,0 -2.529,-0.433 -3.417,-1.312c-0.888,-0.871 -1.329,-2.108 -1.329,-3.708c0,-0.688 0.096,-1.342 0.287,-1.95c0.192,-0.621 0.479,-1.167 0.858,-1.633c0.404,-0.471 0.9,-0.833 1.479,-1.117c0.596,-0.275 1.279,-0.425 2.075,-0.425c1.483,0 2.642,0.483 3.492,1.417c0.863,0.938 1.287,2.167 1.287,3.696" style="fill:#004a8d;fill-rule:nonzero;"/><rect x="188.856" y="241.271" width="1.504" height="14.075" style="fill:#004a8d;"/><path d="M194.968,255.408l-1.587,0l0,-9.721l1.587,0l0,9.721Zm0.137,-12.175l-1.908,0l0,-1.9l1.908,0l0,1.9Z" style="fill:#004a8d;fill-rule:nonzero;"/><path d="M202.935,246.883l-2.85,0l0,5.233c0,0.3 0.008,0.587 0.042,0.862c0.025,0.279 0.088,0.513 0.208,0.725c0.108,0.208 0.275,0.379 0.496,0.488c0.229,0.121 0.529,0.183 0.912,0.183c0.225,0 0.446,-0.004 0.642,-0.025c0.196,-0.021 0.354,-0.058 0.492,-0.096l0,1.225c-0.25,0.042 -0.487,0.079 -0.721,0.079c-0.238,0.004 -0.463,0.004 -0.688,0.004c-0.975,0 -1.708,-0.2 -2.179,-0.604c-0.475,-0.396 -0.712,-1.025 -0.712,-1.85l0,-6.225l-1.725,0l0,-1.175l1.725,0l0,-2.379l1.508,-0.912l0,3.292l2.85,0l0,1.175Z" style="fill:#004a8d;fill-rule:nonzero;"/><path d="M210.809,251.64l0,-1.012c-0.338,-0.013 -0.75,-0.021 -1.233,-0.013c-0.492,0.013 -0.967,0.067 -1.446,0.179c-0.221,0.062 -0.454,0.146 -0.704,0.242c-0.246,0.1 -0.471,0.217 -0.679,0.383c-0.217,0.158 -0.383,0.35 -0.517,0.571c-0.133,0.217 -0.2,0.458 -0.2,0.733c0,0.642 0.204,1.071 0.617,1.279c0.412,0.225 0.854,0.329 1.329,0.329c0.196,0 0.425,-0.037 0.683,-0.112c0.254,-0.079 0.521,-0.192 0.779,-0.333c0.254,-0.146 0.483,-0.325 0.7,-0.521c0.208,-0.2 0.367,-0.421 0.467,-0.675c0.088,-0.15 0.142,-0.317 0.163,-0.492c0.037,-0.171 0.042,-0.358 0.042,-0.558m1.508,3.629l-1.508,0l0,-1.233l-0.042,0c-0.067,0.112 -0.196,0.246 -0.396,0.412c-0.204,0.167 -0.454,0.325 -0.771,0.488c-0.317,0.154 -0.688,0.287 -1.104,0.392c-0.412,0.113 -0.867,0.158 -1.354,0.158c-0.342,0 -0.679,-0.058 -1,-0.171c-0.329,-0.108 -0.621,-0.283 -0.888,-0.5c-0.262,-0.229 -0.475,-0.5 -0.633,-0.817c-0.154,-0.312 -0.238,-0.679 -0.238,-1.071c0,-0.708 0.225,-1.342 0.675,-1.871c0.45,-0.538 0.992,-0.896 1.625,-1.1c0.396,-0.121 0.808,-0.212 1.229,-0.262c0.425,-0.05 0.829,-0.075 1.217,-0.075c0.363,-0.013 0.704,-0.017 0.996,-0.008c0.292,0.008 0.521,0.008 0.683,0.008l0,-0.979c0,-0.158 -0.021,-0.362 -0.075,-0.608c-0.058,-0.254 -0.163,-0.488 -0.321,-0.713c-0.158,-0.229 -0.387,-0.421 -0.683,-0.592c-0.3,-0.162 -0.696,-0.242 -1.179,-0.242c-0.638,0 -1.15,0.146 -1.546,0.429c-0.392,0.3 -0.596,0.675 -0.596,1.162l-1.75,0c0,-0.346 0.092,-0.667 0.246,-0.987c0.171,-0.325 0.417,-0.617 0.75,-0.892c0.329,-0.254 0.738,-0.475 1.217,-0.637c0.488,-0.163 1.042,-0.242 1.679,-0.242c1.267,0 2.208,0.308 2.833,0.933c0.621,0.629 0.933,1.4 0.933,2.317l0,6.7Z" style="fill:#004a8d;fill-rule:nonzero;"/><path d="M223.02,255.31l-1.387,0l0,-5.396c0,-0.342 -0.008,-0.7 -0.038,-1.058c-0.029,-0.375 -0.108,-0.704 -0.233,-1c-0.125,-0.312 -0.325,-0.562 -0.6,-0.762c-0.271,-0.196 -0.658,-0.312 -1.171,-0.35c-0.675,-0.037 -1.279,0.242 -1.833,0.829c-0.546,0.6 -0.942,1.367 -1.179,2.279c-0.054,0.283 -0.096,0.533 -0.121,0.762c-0.029,0.238 -0.033,0.463 -0.033,0.7l0,3.996l-1.392,0l0,-9.725l1.392,0l0,2.246l0.033,0c0.058,-0.162 0.158,-0.4 0.317,-0.675c0.167,-0.271 0.371,-0.546 0.638,-0.808c0.279,-0.271 0.612,-0.5 1.021,-0.688c0.408,-0.2 0.9,-0.304 1.479,-0.304c0.871,0 1.612,0.287 2.208,0.846c0.6,0.562 0.9,1.296 0.9,2.167l0,6.942Z" style="fill:#004a8d;fill-rule:nonzero;"/><path d="M240.908,255.347l-8.071,0l0,-14.058l1.612,0l0,12.729l6.458,0l0,1.329Z" style="fill:#004a8d;fill-rule:nonzero;"/><path d="M244.043,255.408l-1.583,0l0,-9.721l1.583,0l0,9.721Zm0.133,-12.175l-1.908,0l0,-1.9l1.908,0l0,1.9Z" style="fill:#004a8d;fill-rule:nonzero;"/><path d="M254.016,250.647c0,-0.221 -0.008,-0.454 -0.029,-0.688c-0.017,-0.229 -0.05,-0.479 -0.092,-0.762c-0.079,-0.675 -0.317,-1.275 -0.725,-1.787c-0.404,-0.525 -1.012,-0.787 -1.829,-0.787c-0.45,0 -0.846,0.133 -1.212,0.421c-0.358,0.275 -0.663,0.625 -0.896,1.046c-0.25,0.421 -0.433,0.9 -0.558,1.429c-0.129,0.525 -0.192,1.046 -0.192,1.567c0,0.396 0.046,0.792 0.142,1.208c0.096,0.392 0.25,0.754 0.479,1.075c0.204,0.317 0.479,0.567 0.817,0.771c0.338,0.2 0.754,0.3 1.238,0.3c0.917,0 1.617,-0.363 2.112,-1.092c0.504,-0.704 0.746,-1.608 0.746,-2.7m1.667,-0.087c0,1.671 -0.421,2.921 -1.279,3.754c-0.854,0.838 -1.933,1.25 -3.246,1.25c-0.883,0 -1.6,-0.142 -2.15,-0.421c-0.546,-0.292 -0.979,-0.646 -1.296,-1.083c-0.308,-0.446 -0.508,-0.942 -0.617,-1.467c-0.108,-0.533 -0.163,-1.042 -0.163,-1.521l0,-9.825l1.45,0l0,6.012l0.042,0c0.05,-0.133 0.154,-0.308 0.304,-0.521c0.158,-0.208 0.358,-0.417 0.608,-0.612c0.267,-0.196 0.579,-0.371 0.929,-0.513c0.363,-0.146 0.779,-0.221 1.25,-0.221c1.033,0 1.883,0.263 2.55,0.787c0.667,0.517 1.133,1.275 1.375,2.271c0.079,0.312 0.142,0.642 0.183,0.983c0.029,0.346 0.058,0.717 0.058,1.125" style="fill:#004a8d;fill-rule:nonzero;"/><path d="M263.593,246.883c-0.425,0 -0.85,0.054 -1.275,0.146c-0.433,0.104 -0.829,0.254 -1.2,0.463c-0.375,0.217 -0.7,0.492 -0.971,0.829c-0.279,0.338 -0.471,0.733 -0.604,1.196c-0.054,0.271 -0.113,0.55 -0.15,0.842c-0.029,0.296 -0.042,0.612 -0.042,0.954l0,4.012l-1.45,0l0,-9.712l1.45,0l0,2.167l0.042,0c0.379,-0.787 0.917,-1.379 1.608,-1.779c0.7,-0.417 1.554,-0.6 2.592,-0.6l0,1.483Z" style="fill:#004a8d;fill-rule:nonzero;"/><path d="M271.09,251.64l0,-1.012c-0.346,-0.013 -0.758,-0.021 -1.246,-0.013c-0.479,0.013 -0.954,0.067 -1.429,0.179c-0.229,0.062 -0.467,0.146 -0.704,0.242c-0.254,0.1 -0.479,0.217 -0.688,0.383c-0.208,0.158 -0.383,0.35 -0.521,0.571c-0.125,0.217 -0.196,0.458 -0.196,0.733c0,0.642 0.2,1.071 0.617,1.279c0.404,0.225 0.854,0.329 1.325,0.329c0.204,0 0.433,-0.037 0.688,-0.112c0.254,-0.079 0.517,-0.192 0.783,-0.333c0.254,-0.146 0.483,-0.325 0.696,-0.521c0.208,-0.2 0.371,-0.421 0.467,-0.675c0.087,-0.15 0.137,-0.317 0.175,-0.492c0.017,-0.171 0.033,-0.358 0.033,-0.558m1.504,3.629l-1.504,0l0,-1.233l-0.033,0c-0.075,0.112 -0.212,0.246 -0.404,0.412c-0.2,0.167 -0.454,0.325 -0.779,0.488c-0.304,0.154 -0.683,0.287 -1.096,0.392c-0.417,0.113 -0.867,0.158 -1.358,0.158c-0.342,0 -0.675,-0.058 -1.004,-0.171c-0.321,-0.108 -0.617,-0.283 -0.879,-0.5c-0.262,-0.229 -0.471,-0.5 -0.637,-0.817c-0.154,-0.312 -0.233,-0.679 -0.233,-1.071c0,-0.708 0.221,-1.342 0.679,-1.871c0.446,-0.538 0.983,-0.896 1.617,-1.1c0.396,-0.121 0.817,-0.212 1.229,-0.262c0.425,-0.05 0.829,-0.075 1.212,-0.075c0.371,-0.013 0.704,-0.017 1.004,-0.008c0.288,0.008 0.521,0.008 0.683,0.008l0,-0.979c0,-0.158 -0.025,-0.362 -0.083,-0.608c-0.046,-0.254 -0.163,-0.488 -0.317,-0.713c-0.154,-0.229 -0.383,-0.421 -0.683,-0.592c-0.3,-0.162 -0.696,-0.242 -1.179,-0.242c-0.637,0 -1.15,0.146 -1.55,0.429c-0.392,0.3 -0.592,0.675 -0.592,1.162l-1.75,0c0,-0.346 0.087,-0.667 0.25,-0.987c0.167,-0.325 0.417,-0.617 0.746,-0.892c0.329,-0.254 0.738,-0.475 1.221,-0.637c0.483,-0.163 1.038,-0.242 1.675,-0.242c1.267,0 2.208,0.308 2.833,0.933c0.625,0.629 0.933,1.4 0.933,2.317l0,6.7Z" style="fill:#004a8d;fill-rule:nonzero;"/><path d="M281.04,246.883c-0.421,0 -0.85,0.054 -1.279,0.146c-0.429,0.104 -0.829,0.254 -1.196,0.463c-0.371,0.217 -0.696,0.492 -0.975,0.829c-0.279,0.338 -0.471,0.733 -0.592,1.196c-0.067,0.271 -0.121,0.55 -0.154,0.842c-0.029,0.296 -0.05,0.612 -0.05,0.954l0,4.012l-1.442,0l0,-9.712l1.442,0l0,2.167l0.042,0c0.383,-0.787 0.925,-1.379 1.617,-1.779c0.7,-0.417 1.554,-0.6 2.587,-0.6l0,1.483Z" style="fill:#004a8d;fill-rule:nonzero;"/><path d="M290.358,245.569l-4.992,13.508l-1.512,0l1.442,-3.921l-4.012,-9.587l1.483,0l3.212,7.558l0.038,0l2.854,-7.558l1.488,0Z" style="fill:#004a8d;fill-rule:nonzero;"/></svg>