<?xml version="1.0" encoding="UTF-8" standalone="no"?><!DOCTYPE svg PUBLIC "-//W3C//DTD SVG 1.1//EN" "http://www.w3.org/Graphics/SVG/1.1/DTD/svg11.dtd"><svg width="100%" height="100%" viewBox="0 0 534 534" version="1.1" xmlns="http://www.w3.org/2000/svg" xmlns:xlink="http://www.w3.org/1999/xlink" xml:space="preserve" xmlns:serif="http://www.serif.com/" style="fill-rule:evenodd;clip-rule:evenodd;stroke-linejoin:round;stroke-miterlimit:2;"><path d="M260.259,231.488c-10.529,-7.979 -65.283,-46.546 -131.8,-39.963l0,183.896c0,0 53.792,-14.525 99.892,7.879c38.358,-8.417 71.333,-26.938 43.55,-67.571c0,0 -42.192,-54.458 -11.642,-84.242" style="fill:#ee2b74;fill-rule:nonzero;"/><path d="M303.744,382.908c45.921,-21.837 99.075,-7.487 99.075,-7.487l0,-183.896c-27.442,-2.712 -53.054,2.188 -74.438,9.417c-22.558,8.038 -71.342,30.821 -57.7,74.433c0,0 5.471,18.717 28.663,36.346c0,0 41.492,27.246 9.904,65.113c0,0 -3.046,4.029 -5.504,6.075" style="fill:#78278b;fill-rule:nonzero;"/><path d="M272.067,223.297c0,0 47.342,-41.067 122.925,-41.067l0,-15.562c0,0 -85.55,7.35 -122.925,56.629" style="fill:#a068ae;fill-rule:nonzero;"/><path d="M259.339,223.297c0,0 -47.346,-41.067 -122.929,-41.067l0,-15.562c0,0 85.55,7.35 122.929,56.629" style="fill:#f36b9e;fill-rule:nonzero;"/><path d="M272.478,219.835c0,0 36.55,-52.308 110.058,-60.079l0,-17.092c0,0 -74.342,15.358 -110.058,77.171" style="fill:#c9a9d1;fill-rule:nonzero;"/><path d="M259.756,219.835c0,0 -36.55,-52.308 -110.058,-60.079l0,-17.092c0,0 74.342,15.358 110.058,77.171" style="fill:#f8aac8;fill-rule:nonzero;"/><path d="M5.767,266.767c0,-143.917 117.083,-261.004 260.996,-261.004c143.917,0 260.996,117.088 260.996,261.004c0,143.913 -117.079,260.996 -260.996,260.996c-143.912,0 -260.996,-117.083 -260.996,-260.996m-5.767,0c0,147.092 119.667,266.762 266.762,266.762c147.096,0 266.767,-119.671 266.767,-266.762c0,-147.1 -119.671,-266.767 -266.767,-266.767c-147.096,0 -266.762,119.667 -266.762,266.767" style="fill:#a6a8ab;fill-rule:nonzero;"/><path d="M75.292,266.767c0,-105.579 85.892,-191.475 191.471,-191.475c105.579,0 191.475,85.896 191.475,191.475c0,105.575 -85.896,191.471 -191.475,191.471c-105.579,0 -191.471,-85.896 -191.471,-191.471m-2.888,0c0,107.167 87.188,194.354 194.358,194.354c107.167,0 194.358,-87.188 194.358,-194.354c0,-107.175 -87.192,-194.358 -194.358,-194.358c-107.171,0 -194.358,87.183 -194.358,194.358" style="fill:#a6a8ab;fill-rule:nonzero;"/><path d="M50.347,264.805c0,5.6 -4.538,10.142 -10.137,10.142c-5.592,0 -10.138,-4.542 -10.138,-10.142c0,-5.596 4.546,-10.146 10.138,-10.146c5.6,0 10.137,4.55 10.137,10.146" style="fill:#78278b;fill-rule:nonzero;"/><path d="M506.011,264.805c0,5.6 -4.542,10.142 -10.142,10.142c-5.587,0 -10.133,-4.542 -10.133,-10.142c0,-5.596 4.546,-10.146 10.133,-10.146c5.6,0 10.142,4.55 10.142,10.146" style="fill:#78278b;fill-rule:nonzero;"/><path d="M95.952,424.347l-17.275,-20.988l17.792,-14.642l17.275,20.988l-4.158,3.421l-13.612,-16.542l-9.396,7.729l13.617,16.546l-4.242,3.488Zm-5.017,16.608l-29.25,-35.538l4.2,-3.45l12.725,15.458l6.237,-5.133l3.692,4.492l-6.233,5.129l12.829,15.588l-4.2,3.454Z" style="fill:#231f20;fill-rule:nonzero;"/><path d="M129.139,479.275l-4.546,-3.45l17.433,-22.996l-9.479,-7.183l3.321,-4.375l9.479,7.188l8.846,-11.667l4.546,3.446l-29.6,39.038Zm1.238,-22.308l-5.604,0.887l-2.267,-15.096c-2.683,1.167 -5.354,1.85 -8.017,2.062c-2.658,0.212 -5.112,0.167 -7.358,-0.142l-0.408,-5.783c2.362,0.446 4.592,0.554 6.671,0.329c2.083,-0.221 3.988,-0.662 5.717,-1.342c1.725,-0.675 3.267,-1.529 4.621,-2.575c1.354,-1.046 2.508,-2.196 3.462,-3.454l4.554,-6.004l4.804,3.646l-3.904,5.146c-0.758,1 -1.55,1.912 -2.371,2.725c-0.825,0.821 -1.658,1.579 -2.512,2.283l2.613,17.317Z" style="fill:#231f20;fill-rule:nonzero;"/><path d="M200.292,481.118l-7.796,-3.4l-6.692,15.346l-5.279,-2.304l14.475,-33.208l5.283,2.3l-5.596,12.833l7.8,3.396l-2.196,5.038Zm-13.617,-22.796c-0.846,1.946 -1.633,3.663 -2.367,5.167c-0.733,1.504 -1.458,2.896 -2.179,4.188c-0.75,1.275 -1.525,2.488 -2.317,3.633c-0.787,1.142 -1.675,2.3 -2.662,3.475l-5.575,-2.433c1.596,-1.767 2.979,-3.55 4.154,-5.35c1.175,-1.792 2.308,-3.808 3.396,-6.033l-15.35,-6.692l2.175,-4.988l20.725,9.033Zm-5.917,47.929l-24.621,-10.738l6.562,-15.046l5.329,2.317l-4.371,10.021l19.296,8.413l-2.196,5.033Zm1.304,-22.517c-1.375,-0.363 -2.742,-0.721 -4.108,-1.083c-1.371,-0.363 -2.875,-0.821 -4.512,-1.379c-1.683,-0.538 -3.571,-1.217 -5.662,-2.025c-2.092,-0.817 -4.571,-1.85 -7.429,-3.092l-9.133,-3.979l2.175,-4.988l8.879,3.871l3.963,-9.079l5.229,2.279l-3.958,9.083c0.971,0.383 2.142,0.833 3.521,1.358c1.375,0.521 2.808,1.046 4.3,1.579c1.492,0.533 3.004,1.037 4.542,1.508c1.538,0.471 2.971,0.842 4.3,1.113l-2.104,4.833Z" style="fill:#231f20;fill-rule:nonzero;"/><path d="M209.407,492.257l6.491,1.549l1.551,-6.499l-6.491,-1.549l-1.551,6.499Z" style="fill:#231f20;"/><path d="M265.331,487.946l0.212,-3.279l-7.629,-0.496l0.333,-5.104l-4.621,-0.3l-0.792,12.142l4.621,0.3l0.246,-3.758l7.629,0.496Zm-3.033,23.321c0.108,-1.646 -0.408,-3 -1.542,-4.062c-1.137,-1.062 -2.633,-1.654 -4.496,-1.783c-1.9,-0.117 -3.471,0.3 -4.725,1.262c-1.246,0.963 -1.921,2.192 -2.017,3.7c-0.104,1.575 0.363,2.908 1.408,4c1.046,1.096 2.604,1.704 4.683,1.842c2.079,0.138 3.683,-0.258 4.825,-1.192c1.142,-0.933 1.762,-2.188 1.862,-3.767m5.913,0.337c-0.104,1.604 -0.525,3.063 -1.254,4.367c-0.733,1.3 -1.683,2.379 -2.854,3.237c-1.175,0.862 -2.517,1.496 -4.037,1.925c-1.517,0.417 -3.121,0.579 -4.804,0.467c-1.792,-0.117 -3.412,-0.492 -4.863,-1.125c-1.454,-0.638 -2.7,-1.471 -3.746,-2.513c-1.05,-1.037 -1.837,-2.229 -2.358,-3.579c-0.525,-1.35 -0.738,-2.787 -0.638,-4.329c0.104,-1.537 0.508,-2.942 1.221,-4.208c0.713,-1.267 1.654,-2.333 2.825,-3.192c1.171,-0.892 2.521,-1.55 4.037,-1.971c1.521,-0.425 3.142,-0.579 4.858,-0.467c1.617,0.104 3.146,0.467 4.6,1.083c1.45,0.617 2.721,1.408 3.808,2.375c1.05,1.008 1.871,2.183 2.467,3.538c0.596,1.346 0.842,2.812 0.738,4.392m1.917,-10.396l-5.637,-0.371l0.492,-7.521l-6.662,-0.433l-0.25,3.817l-27.667,-1.804l0.358,-5.429l5.8,0.379c0.037,-0.608 0.071,-1.254 0.1,-1.933c0.025,-0.683 0.058,-1.346 0.104,-1.992c-0.05,-1.517 -0.246,-2.75 -0.6,-3.704c-0.346,-0.958 -0.588,-1.587 -0.708,-1.883l5.075,-1.771c0.233,0.338 0.608,1.125 1.142,2.363c0.529,1.242 0.821,2.854 0.871,4.833c-0.013,0.787 -0.037,1.571 -0.071,2.342c-0.033,0.775 -0.071,1.479 -0.112,2.125l4.675,0.304l0.792,-12.142l-15.308,-0.996l0.35,-5.371l25.892,1.688l-0.338,5.154l7.467,0.488l0.567,-8.65l5.637,0.371l-1.967,30.137Z" style="fill:#231f20;fill-rule:nonzero;"/><path d="M321.04,505.011c-0.275,-1.629 -1.15,-2.846 -2.613,-3.65c-1.467,-0.804 -3,-1.071 -4.592,-0.8c-1.767,0.3 -3.167,1.1 -4.204,2.412c-1.033,1.296 -1.421,2.696 -1.167,4.183c0.262,1.554 1.083,2.775 2.45,3.65c1.367,0.879 2.975,1.158 4.817,0.846c1.658,-0.288 3.033,-1.046 4.113,-2.287c1.083,-1.238 1.479,-2.696 1.196,-4.354m6.354,-11.733l-5.625,0.958l-2.283,-13.371l-5.358,0.912l1.921,11.25l-5.625,0.958l-4.492,-26.321l5.629,-0.958l1.671,9.817l5.363,-0.913l-1.867,-10.933l5.625,-0.958l5.042,29.558Zm-0.517,10.738c0.258,1.521 0.175,3 -0.254,4.438c-0.425,1.442 -1.121,2.75 -2.083,3.938c-0.938,1.137 -2.087,2.117 -3.458,2.938c-1.375,0.817 -2.854,1.358 -4.45,1.629c-1.696,0.292 -3.333,0.279 -4.917,-0.033c-1.583,-0.317 -2.988,-0.854 -4.213,-1.629c-1.267,-0.808 -2.321,-1.817 -3.167,-3.038c-0.846,-1.225 -1.4,-2.596 -1.658,-4.112c-0.25,-1.488 -0.171,-2.938 0.242,-4.358c0.413,-1.421 1.104,-2.696 2.071,-3.85c0.933,-1.175 2.079,-2.171 3.454,-2.996c1.371,-0.808 2.871,-1.358 4.5,-1.633c1.588,-0.275 3.167,-0.25 4.729,0.067c1.567,0.317 2.983,0.871 4.25,1.675c1.292,0.762 2.379,1.746 3.258,2.942c0.879,1.192 1.442,2.537 1.696,4.025m-18.621,-14.079l-3.196,4.642l-10.329,-7.417c-0.837,2.146 -1.938,4.167 -3.308,6.054c-1.371,1.892 -3.033,3.529 -4.979,4.921l-4.596,-3.587c1.283,-0.8 2.512,-1.85 3.696,-3.146c1.179,-1.287 2.196,-2.758 3.046,-4.392c0.808,-1.671 1.392,-3.479 1.746,-5.433c0.358,-1.958 0.35,-4.029 -0.021,-6.221l-0.662,-3.875l5.837,-0.992l0.663,3.871c0.188,1.096 0.279,2.238 0.279,3.421c0.004,1.179 -0.058,2.346 -0.192,3.5l12.017,8.654Z" style="fill:#231f20;fill-rule:nonzero;"/><path d="M376.867,460.797l-7.742,3.379l5,11.446l-5.333,2.325l-12.392,-28.363l5.333,-2.329l5.212,11.938l7.746,-3.379l2.175,4.983Zm4.804,33.85l-5.179,2.267l-5.154,-11.792l-18.992,8.296l-2.175,-4.983l24.171,-10.558l7.329,16.771Zm-31.908,-33.642c-0.808,0.396 -2.146,1.012 -4.004,1.867c-1.863,0.846 -3.896,1.7 -6.113,2.55c-1.867,0.658 -3.446,0.967 -4.737,0.921c-1.288,-0.042 -2.154,-0.121 -2.6,-0.246l-0.092,-4.775c0.196,-0.008 0.483,-0.012 0.871,-0.029c0.388,-0.008 0.821,-0.046 1.308,-0.096c0.517,-0.071 1.079,-0.167 1.688,-0.3c0.612,-0.129 1.25,-0.321 1.921,-0.575c1.954,-0.733 3.833,-1.521 5.646,-2.346c1.808,-0.833 3.129,-1.467 3.954,-1.908l2.158,4.938Zm8.325,3.996l-11.296,4.938c-1.183,0.512 -2.188,1.071 -3.004,1.667c-0.817,0.587 -1.433,1.483 -1.854,2.683c-0.467,1.262 -0.387,2.567 0.233,3.896c0.621,1.333 1.596,2.163 2.908,2.492c1.363,0.342 2.754,0.158 4.163,-0.558c1.412,-0.712 2.358,-1.688 2.842,-2.913c0.363,-0.783 0.325,-1.654 -0.108,-2.6c-0.433,-0.946 -1.296,-1.467 -2.592,-1.567l2.329,-5.017c0.938,0.175 1.842,0.538 2.708,1.083c0.863,0.537 1.579,1.238 2.146,2.087c0.579,0.879 0.979,1.892 1.204,3.029c0.221,1.133 0.175,2.379 -0.133,3.725c-0.292,1.225 -0.9,2.383 -1.833,3.471c-0.933,1.1 -2.029,2.037 -3.292,2.825c-1.275,0.754 -2.654,1.312 -4.137,1.688c-1.483,0.375 -2.9,0.404 -4.246,0.096c-1.5,-0.292 -2.775,-0.842 -3.846,-1.675c-1.062,-0.825 -1.925,-1.762 -2.575,-2.808c-0.608,-1.029 -1.008,-2.1 -1.208,-3.233c-0.2,-1.121 -0.167,-2.154 0.092,-3.092c-0.017,-0.033 0.021,-0.167 0.113,-0.4c0.092,-0.238 0.2,-0.442 0.321,-0.613l-5.475,2.392l-1.983,-4.542l26.542,-11.587l1.983,4.533Z" style="fill:#231f20;fill-rule:nonzero;"/><path d="M423.153,460.13l-2.683,-3.508l-11.546,8.829l2.683,3.508l11.546,-8.829Zm7.933,0.708l-20.829,15.925l-12.85,-16.804l4.617,-3.533l3.629,4.75l11.546,-8.829l-3.629,-4.75l4.658,-3.562l12.858,16.804Zm-19.433,-29.392l-0.333,5.675l-15.167,0.554c0.062,2.796 -0.396,5.55 -1.371,8.267c-0.975,2.712 -2.137,4.896 -3.488,6.562l-5.783,-1.275c1.492,-1.95 2.604,-3.875 3.342,-5.771c0.742,-1.9 1.183,-3.671 1.325,-5.317c0.171,-1.663 0.079,-3.192 -0.275,-4.571c-0.354,-1.379 -0.887,-2.538 -1.608,-3.479l-1.275,-1.662l4.7,-3.6l1.733,2.267c0.375,0.483 0.7,0.983 0.971,1.492c0.283,0.512 0.525,1.025 0.738,1.538l16.492,-0.679Zm13.254,4.571l-37.033,28.321l-3.204,-4.192l37.033,-28.321l3.204,4.192Z" style="fill:#231f20;fill-rule:nonzero;"/><path d="M474.81,412.645l-16.833,20.933l-12.796,-10.288l3.642,-4.529l8.521,6.842l13.188,-16.4l4.279,3.442Zm-19.117,-25.454l-5.333,6.625l13.05,10.496l-3.608,4.483l-28.238,-22.696l3.613,-4.492l10.908,8.767l5.329,-6.629l4.279,3.446Zm-2.262,18.275c-0.712,1.229 -1.421,2.458 -2.129,3.683c-0.708,1.225 -1.546,2.554 -2.517,3.988c-0.963,1.483 -2.108,3.125 -3.446,4.929c-1.333,1.804 -2.979,3.921 -4.937,6.354l-6.238,7.762l-4.237,-3.404l6.071,-7.55l-7.721,-6.208l3.575,-4.446l7.721,6.204c0.625,-0.833 1.371,-1.846 2.233,-3.033c0.871,-1.192 1.754,-2.442 2.658,-3.742c0.908,-1.296 1.788,-2.625 2.65,-3.983c0.863,-1.354 1.596,-2.646 2.204,-3.858l4.113,3.304Zm-23.308,-11.133c1.654,1.329 3.108,2.546 4.363,3.642c1.254,1.1 2.412,2.171 3.467,3.204c1.033,1.062 2,2.125 2.896,3.192c0.892,1.067 1.779,2.225 2.654,3.483l-3.812,4.738c-1.287,-2.004 -2.642,-3.808 -4.071,-5.417c-1.425,-1.604 -3.071,-3.225 -4.933,-4.858l-10.488,13.046l-4.238,-3.408l14.163,-17.621Z" style="fill:#231f20;fill-rule:nonzero;"/><path d="M135.678,112.246l-3.579,3.625l-18.337,-18.096l-7.462,7.562l-3.488,-3.446l7.458,-7.558l-9.304,-9.183l3.579,-3.629l31.133,30.725Zm-19.6,-3.675l0.133,5.062l-13.625,0.263c0.717,2.508 1.017,4.954 0.896,7.333c-0.117,2.383 -0.442,4.546 -0.975,6.496l-5.171,-0.3c0.667,-2.05 1.021,-4.004 1.067,-5.875c0.046,-1.871 -0.133,-3.608 -0.525,-5.212c-0.396,-1.604 -0.979,-3.071 -1.746,-4.388c-0.767,-1.325 -1.654,-2.479 -2.658,-3.467l-4.792,-4.729l3.783,-3.833l4.104,4.054c0.8,0.787 1.513,1.588 2.142,2.417c0.625,0.821 1.204,1.65 1.729,2.483l15.638,-0.304Z" style="fill:#231f20;fill-rule:nonzero;"/><path d="M143.887,64.166c-0.821,-1.258 -1.979,-1.925 -3.471,-1.988c-1.492,-0.058 -2.938,0.362 -4.333,1.271c-1.45,0.946 -2.438,2.092 -2.954,3.442c-0.517,1.35 -0.354,2.667 0.479,3.958c0.808,1.233 1.925,1.888 3.358,1.942c1.438,0.062 2.875,-0.379 4.329,-1.321c1.396,-0.908 2.396,-2.013 2.996,-3.325c0.604,-1.304 0.467,-2.633 -0.404,-3.979m4.458,-2.842c0.75,1.158 1.188,2.379 1.308,3.65c0.125,1.279 0,2.538 -0.383,3.779c-0.421,1.229 -1.096,2.413 -2.017,3.55c-0.929,1.133 -2.075,2.146 -3.446,3.037c-1.287,0.838 -2.617,1.454 -3.987,1.846c-1.367,0.396 -2.713,0.546 -4.037,0.446c-1.296,-0.117 -2.5,-0.487 -3.617,-1.112c-1.121,-0.633 -2.071,-1.554 -2.854,-2.763c-0.792,-1.208 -1.258,-2.458 -1.413,-3.754c-0.154,-1.296 -0.025,-2.575 0.379,-3.829c0.379,-1.238 1.025,-2.425 1.933,-3.55c0.913,-1.129 2.042,-2.129 3.383,-3.004c1.317,-0.854 2.683,-1.475 4.092,-1.858c1.417,-0.383 2.779,-0.504 4.092,-0.362c1.296,0.113 2.521,0.492 3.667,1.142c1.146,0.65 2.112,1.575 2.9,2.783m16.496,7.742l-15.275,9.925l1.312,2.017l7.575,-4.921l6.158,9.471l-14.633,9.508l1.179,1.812l15.596,-10.138l2.671,4.108l-20.029,13.021l-6.392,-9.838l14.592,-9.479l-1.046,-1.613l-14.796,9.613l-2.562,-3.95l7.371,-4.792l-1.308,-2.017l-14.954,9.717l-2.617,-4.025l34.538,-22.45l2.621,4.029Z" style="fill:#231f20;fill-rule:nonzero;"/><path d="M209.968,74.147l-4.825,1.775l-3.633,-9.875l-17.279,6.346l-1.692,-4.6l22.108,-8.129l5.321,14.483Zm-8.879,-23.875l-21.833,8.025l-6.533,-17.775l21.562,-7.929l1.675,4.558l-16.783,6.171l0.717,1.937l16.242,-5.967l1.688,4.596l-16.242,5.971l0.783,2.121l17.05,-6.267l1.675,4.558Zm11.021,3.788l-38.621,14.192l-1.671,-4.558l38.617,-14.192l1.675,4.558Z" style="fill:#231f20;fill-rule:nonzero;"/><path d="M254.627,44.407l-5,0.671l-0.621,-4.617l-8.192,1.092l-0.642,-4.763l8.196,-1.096l-0.458,-3.429l-8.196,1.1l-0.646,-4.817l8.196,-1.096l-0.9,-6.721l5,-0.667l3.262,24.342Zm2.383,20.683l-23.392,3.133l-1.604,-11.958l17.008,-2.279l-0.333,-2.479l-17.242,2.312l-0.646,-4.812l22.483,-3.013l1.604,11.958l-16.912,2.267l0.333,2.475l18.054,-2.417l0.646,4.812Zm-23.137,-25.029l-0.6,-4.479l-9.246,1.242l0.604,4.471l9.242,-1.233Zm5.742,4.125l-19.392,2.596l-2.658,-19.817l5.054,-0.675l0.767,5.712l9.242,-1.233l-0.767,-5.717l5.1,-0.683l2.654,19.817Z" style="fill:#231f20;fill-rule:nonzero;"/><path d="M301.016,65.774l-5.129,-0.396l3.383,-43.613l5.125,0.396l-3.379,43.613Zm-9.229,-17.154l-3.783,3.367l-8.942,-10.283c-1.421,2.204 -3.083,4.025 -4.975,5.471c-1.896,1.446 -3.796,2.592 -5.692,3.442l-3.104,-4.15c2.033,-0.9 3.775,-1.938 5.233,-3.113c1.458,-1.171 2.671,-2.412 3.637,-3.713c0.942,-1.346 1.667,-2.721 2.175,-4.129c0.512,-1.408 0.821,-2.812 0.933,-4.217l0.529,-6.854l5.367,0.421l-0.458,5.892c-0.087,1.117 -0.238,2.175 -0.462,3.167c-0.221,1 -0.479,1.95 -0.771,2.862l10.312,11.838Z" style="fill:#231f20;fill-rule:nonzero;"/><path d="M347.065,48.273c-0.683,2.238 -1.521,4.442 -2.521,6.613c-0.996,2.179 -2.35,4.258 -4.067,6.254l-5.238,-1.6c1.988,-2.238 3.5,-4.458 4.537,-6.654c1.038,-2.196 1.9,-4.408 2.583,-6.65l1.246,-4.096l-18.988,-5.783l1.4,-4.6l23.863,7.275l-2.817,9.242Zm0.788,25.112l-39.358,-11.996l1.417,-4.646l9.613,2.929l3.808,-12.504l4.921,1.5l-3.812,12.508l4,1.217l3.812,-12.508l4.967,1.512l-3.812,12.508l15.863,4.837l-1.417,4.642Z" style="fill:#231f20;fill-rule:nonzero;"/><path d="M389.289,63.767c0.767,-1.333 0.863,-2.696 0.283,-4.079c-0.575,-1.379 -1.583,-2.483 -3.029,-3.312c-1.5,-0.858 -2.971,-1.175 -4.413,-0.95c-1.442,0.229 -2.546,1.008 -3.308,2.342c-0.733,1.279 -0.829,2.592 -0.288,3.933c0.542,1.346 1.562,2.446 3.062,3.308c1.442,0.829 2.892,1.175 4.333,1.042c1.442,-0.133 2.562,-0.892 3.358,-2.283m4.562,2.671c-0.683,1.196 -1.562,2.146 -2.637,2.862c-1.075,0.712 -2.258,1.2 -3.55,1.458c-1.304,0.213 -2.667,0.179 -4.096,-0.104c-1.425,-0.279 -2.85,-0.829 -4.267,-1.646c-1.333,-0.762 -2.483,-1.671 -3.45,-2.725c-0.971,-1.046 -1.688,-2.192 -2.163,-3.425c-0.462,-1.188 -0.662,-2.438 -0.596,-3.746c0.067,-1.312 0.458,-2.588 1.179,-3.842c0.712,-1.254 1.612,-2.254 2.688,-3.004c1.075,-0.746 2.271,-1.246 3.592,-1.483c1.275,-0.233 2.625,-0.213 4.05,0.05c1.417,0.258 2.821,0.783 4.212,1.579c1.363,0.779 2.525,1.717 3.492,2.804c0.963,1.087 1.675,2.262 2.133,3.525c0.479,1.233 0.675,2.508 0.6,3.833c-0.075,1.325 -0.467,2.608 -1.188,3.863m-16.279,13.717l2.004,-3.504l-6.379,-3.654l-2.004,3.504l6.379,3.654Zm17.021,5.096l-10.633,-6.092l-2.008,3.504l2.75,1.575l-7.883,13.763l-4.462,-2.554l5.45,-9.513l-15.887,-9.104l2.433,-4.258l2.375,1.367l2.008,-3.5l-9.837,-5.642l2.363,-4.129l35.7,20.458l-2.367,4.125Z" style="fill:#231f20;fill-rule:nonzero;"/><path d="M427.715,116.014l-3.808,-3.458l6.108,-6.725l-6.375,-5.787l3.267,-3.588l6.371,5.775l8.95,-9.854l3.804,3.454l-18.317,20.183Zm0.671,-26.987c-0.471,-0.338 -1.25,-0.967 -2.338,-1.892c-1.087,-0.921 -2.3,-2.033 -3.629,-3.325c-0.504,-0.504 -0.95,-1.046 -1.342,-1.642c-0.392,-0.596 -0.713,-1.154 -0.967,-1.688c-0.275,-0.554 -0.492,-1.054 -0.65,-1.5c-0.158,-0.446 -0.242,-0.758 -0.25,-0.942l3.792,-1.817c0.075,0.154 0.188,0.388 0.337,0.7c0.15,0.308 0.342,0.65 0.562,1.029c0.25,0.396 0.533,0.821 0.863,1.267c0.325,0.446 0.717,0.9 1.171,1.354c1.167,1.146 2.283,2.175 3.346,3.067c1.062,0.908 1.829,1.529 2.304,1.867l-3.2,3.521Zm-11.629,29.692c0.987,-1.092 1.337,-2.321 1.042,-3.692c-0.292,-1.362 -1.008,-2.571 -2.146,-3.604c-1.208,-1.096 -2.525,-1.7 -3.95,-1.796c-1.425,-0.104 -2.583,0.342 -3.492,1.338c-0.946,1.046 -1.3,2.271 -1.062,3.675c0.242,1.408 0.962,2.658 2.171,3.758c1.162,1.058 2.438,1.654 3.829,1.792c1.392,0.138 2.592,-0.354 3.608,-1.471m5.879,-14.2l-4.996,0.85l-2.679,-8.917c-2.175,-0.033 -4.183,-0.317 -6.012,-0.85c-1.829,-0.533 -3.562,-1.183 -5.213,-1.942l0.471,-5.025c3.417,1.717 6.462,2.663 9.137,2.842c2.675,0.175 5.05,-0.042 7.129,-0.671l-8.325,-7.558l3.163,-3.487l13.812,12.537c-1.075,0.8 -2.325,1.567 -3.754,2.304c-1.425,0.742 -3.154,1.246 -5.183,1.533l2.45,8.383Zm-1.967,17.754c-0.946,1.046 -2.029,1.808 -3.242,2.288c-1.212,0.471 -2.467,0.688 -3.762,0.638c-1.317,-0.029 -2.617,-0.321 -3.908,-0.883c-1.283,-0.562 -2.496,-1.358 -3.633,-2.392c-1.213,-1.1 -2.167,-2.279 -2.858,-3.542c-0.7,-1.254 -1.113,-2.529 -1.242,-3.817c-0.175,-1.283 -0.067,-2.533 0.329,-3.758c0.392,-1.221 1.054,-2.346 1.979,-3.362c0.904,-0.996 1.958,-1.717 3.162,-2.158c1.204,-0.446 2.467,-0.633 3.788,-0.558c1.292,0.054 2.6,0.35 3.921,0.9c1.317,0.546 2.525,1.317 3.617,2.308c1.067,0.971 1.946,2.067 2.625,3.296c0.683,1.225 1.137,2.475 1.354,3.758c0.175,1.288 0.104,2.558 -0.221,3.825c-0.325,1.263 -0.963,2.417 -1.908,3.458" style="fill:#231f20;fill-rule:nonzero;"/></svg>