<?xml version="1.0" encoding="UTF-8" standalone="no"?><!DOCTYPE svg PUBLIC "-//W3C//DTD SVG 1.1//EN" "http://www.w3.org/Graphics/SVG/1.1/DTD/svg11.dtd"><svg width="100%" height="100%" viewBox="0 0 2614 1671" version="1.1" xmlns="http://www.w3.org/2000/svg" xmlns:xlink="http://www.w3.org/1999/xlink" xml:space="preserve" xmlns:serif="http://www.serif.com/" style="fill-rule:evenodd;clip-rule:evenodd;stroke-linejoin:round;stroke-miterlimit:2;"><g id="Layer-1" serif:id="Layer 1"><g id="g984"></g><g id="g10"></g><g id="g1654"></g><g id="g3059"></g><g id="g31151"><g id="g31075"><rect id="path30790" x="-0" y="0" width="835.427" height="835.47" style="fill:#10bbef;fill-rule:nonzero;"/><path id="path30802" d="M643.14,1385.81l-225.448,-321.989l-225.419,321.989c-39.749,56.734 -117.918,70.47 -174.623,30.792c-6.467,-4.536 -12.306,-9.616 -17.642,-15.053l0,269.404l835.413,0l0,-269.433c-5.351,5.452 -11.189,10.546 -17.671,15.081c-56.677,39.678 -134.874,25.941 -174.609,-30.792" style="fill:#27348b;fill-rule:nonzero;"/><path id="path30806" d="M835.427,835.47l-271.493,0l271.493,387.708l0,-387.708Z" style="fill:#27348b;fill-rule:nonzero;"/><path id="path30810" d="M0.004,835.47l0,387.694l271.45,-387.694l-271.45,0Z" style="fill:#27348b;fill-rule:nonzero;"/><path id="path30814" d="M417.695,626.611l-146.249,208.864l292.498,0l-146.249,-208.864Z" style="fill:#fff;fill-rule:nonzero;"/><path id="path30818" d="M563.94,835.47l-292.484,0l-271.45,387.694l0,178.387c5.337,5.437 11.175,10.517 17.643,15.053c56.705,39.678 134.874,25.941 174.623,-30.792l225.419,-321.989l225.448,321.989c39.75,56.734 117.932,70.47 174.609,30.792c6.482,-4.536 12.334,-9.63 17.686,-15.081l0,-178.344l-271.493,-387.708Z" style="fill:#fff;fill-rule:nonzero;"/></g><path id="path30820" d="M1826.544,732.341l-69.683,0l0,-221.268l69.683,0l0,221.268Zm215.41,-315.035l-68.661,0l0,296.624c-21.74,8.034 -53.466,15.138 -77.996,15.138l0,-217.995l48.594,0l0,-66.578l-304.192,0l0,66.578l48.426,0l0,221.268l-56.275,0l0,66.596l218.497,0c24.12,-0.158 75.206,-2.325 122.945,-15.343l0,134.978c0,18.95 15.398,34.367 34.368,34.367c18.913,0 34.293,-15.417 34.293,-34.367l0,-274.475l78.628,0l0,-66.54l-78.628,0l-0,-160.251Z" style="fill:#273587;fill-rule:nonzero;"/><path id="path30824" d="M2529.977,675.901c15.194,-50.175 17.519,-110.02 17.723,-135.647l0,-95.756l-368.911,0l0,66.577l300.213,0l0,28.919c-0.106,20.382 -2.251,90.939 -21.796,135.907l-327.457,0l0,66.54l200.756,0l0,176.146c0,18.931 15.379,34.349 34.33,34.349c19.006,0 34.349,-15.417 34.349,-34.349l0,-176.146l214.22,0l0,-66.54l-83.426,0Z" style="fill:#273587;fill-rule:nonzero;"/><path id="path30828" d="M1401.566,873.913c-12.069,5.318 -25.924,8.331 -40.616,8.331c-20.55,0 -39.463,-5.914 -54.229,-15.733c-18.913,-12.701 -31.02,-31.801 -31.02,-53.206c0,-38.013 38.254,-68.921 85.249,-68.921c47.014,0 85.193,30.909 85.193,68.921c0,26.129 -18.021,48.91 -44.577,60.608m-5.951,-269.899l-69.274,0l0,71.896l-214.015,0l0,67.079l114.167,0c-13.576,20.662 -21.424,44.652 -21.424,70.316c0,76.973 69.906,139.626 155.881,139.626c85.974,0 155.936,-62.654 155.936,-139.626c0,-25.664 -7.922,-49.654 -21.461,-70.316l114.205,0l0,-67.079l-214.015,0l0,-71.896Z" style="fill:#273587;fill-rule:nonzero;"/><path id="path30832" d="M1360.994,514.867c52.518,85.9 143.811,122.425 199.119,130.924l0,-72.064c-38.403,-8.871 -137.507,-42.643 -162.985,-156.42l-72.343,0c-25.459,114.111 -125.14,147.735 -163.245,156.476l0,72.045c55.289,-8.406 146.824,-44.893 199.454,-130.961" style="fill:#273587;fill-rule:nonzero;"/><path id="path30858" d="M1557.517,1076.49c-15.694,0 -33.035,5.959 -42.598,16.954l0,-12.184l-33.701,0l0,145.356l33.701,0l0,-84.837c0,-20.507 14.283,-33.716 32.133,-33.716c17.864,0 32.169,13.209 32.169,33.802l0,84.751l33.737,0c0,0 -0.024,-60.705 -0.024,-90.56c0,-37.978 -21.911,-59.566 -55.419,-59.566" style="fill:#27348b;fill-rule:nonzero;"/><path id="path30862" d="M1235.482,1114.57c-31.395,-7.528 -44.617,-15.429 -44.617,-30.471c0,-12.814 11.697,-23.824 31.746,-23.824c17.821,0 35.385,6.955 52.941,20.063l18.38,-25.908c-19.777,-15.866 -42.347,-24.54 -70.748,-24.54c-38.737,0 -66.579,23.587 -66.579,55.34c0,35.886 25.908,51.064 63.248,60.003c36.18,8.631 44.03,14.483 44.03,28.401c0,14.748 -13.402,26.467 -34.532,26.467c-24.268,0 -42.891,-9.19 -61.608,-25.335l-20.586,24.511c23.408,20.887 51.53,31.202 81.37,31.202c40.936,0 69.594,-20.343 69.594,-56.844c0,-32.276 -21.381,-49.173 -62.639,-59.065" style="fill:#27348b;fill-rule:nonzero;"/><path id="path30866" d="M1703.566,1193.768c-22.04,0 -39.876,-17.836 -39.876,-39.869c0,-22.026 17.835,-39.861 39.876,-39.861c21.997,0 39.876,17.836 39.876,39.861c0,22.033 -17.878,39.869 -39.876,39.869m39.876,-101.749c-11.496,-7.413 -25.177,-11.769 -39.876,-11.769c-40.678,0 -73.663,32.949 -73.663,73.634c0,40.692 32.985,73.67 73.663,73.67c14.698,0 28.379,-4.355 39.876,-11.783l0,8.03c-0.859,22.721 -18.538,40.843 -40.327,40.843c-18.581,0 -34.231,-13.194 -38.923,-31.173l-34.303,0c5.437,35.535 36.144,62.79 73.226,62.79c39.446,0 71.793,-30.808 74.1,-69.645l0,-145.356l-33.773,0l-0,10.759Z" style="fill:#27348b;fill-rule:nonzero;"/><path id="path30870" d="M1876.307,1193.768c-22.019,0 -39.868,-17.836 -39.868,-39.869c0,-22.026 17.85,-39.861 39.868,-39.861c22.012,0 39.861,17.836 39.861,39.861c0,22.033 -17.85,39.869 -39.861,39.869m0,-113.517c-14.734,0 -28.437,4.355 -39.933,11.812l0,-10.802l-33.73,0l0,215.001l33.73,0l0,-80.547c11.496,7.457 25.199,11.84 39.933,11.84c40.678,0 73.663,-32.978 73.663,-73.67c0,-40.685 -32.985,-73.634 -73.663,-73.634" style="fill:#27348b;fill-rule:nonzero;"/><path id="path30874" d="M1386.853,1195.81c-23.15,0 -41.91,-18.745 -41.91,-41.917c0,-23.15 18.759,-41.91 41.91,-41.91c23.15,0 41.917,18.76 41.917,41.91c0,23.172 -18.767,41.917 -41.917,41.917m0,-119.334c-42.77,0 -77.452,34.64 -77.452,77.402c0,42.769 34.683,77.438 77.452,77.438c42.755,0 77.438,-34.668 77.438,-77.438c0,-42.762 -34.683,-77.402 -77.438,-77.402" style="fill:#27348b;fill-rule:nonzero;"/><path id="path30878" d="M2034.898,1193.768c-21.983,0 -39.847,-17.836 -39.847,-39.869c0,-22.026 17.864,-39.861 39.847,-39.861c22.04,0 39.89,17.836 39.89,39.861c0,22.033 -17.85,39.869 -39.89,39.869m39.962,-112.507l0,10.802c-11.511,-7.457 -25.199,-11.812 -39.962,-11.812c-40.656,0 -73.627,32.949 -73.627,73.634c0,40.692 32.971,73.67 73.627,73.67c14.763,0 28.451,-4.384 39.962,-11.84l0,10.565l33.737,0l0,-145.02l-33.737,0Z" style="fill:#27348b;fill-rule:nonzero;"/><path id="path30866-3" d="M2316.066,1193.768c-22.04,0 -39.876,-17.836 -39.876,-39.869c0,-22.026 17.835,-39.861 39.876,-39.861c21.997,0 39.876,17.836 39.876,39.861c0,22.033 -17.878,39.869 -39.876,39.869m39.876,-101.749c-11.496,-7.413 -25.177,-11.769 -39.876,-11.769c-40.678,0 -73.663,32.949 -73.663,73.634c0,40.692 32.985,73.67 73.663,73.67c14.698,0 28.379,-4.355 39.876,-11.783l0,8.03c-0.859,22.721 -18.538,40.843 -40.327,40.843c-18.581,0 -34.231,-13.194 -38.923,-31.173l-34.303,0c5.437,35.535 36.144,62.79 73.226,62.79c39.446,0 71.793,-30.808 74.1,-69.645l0,-145.356l-33.773,0l0,10.759Z" style="fill:#27348b;fill-rule:nonzero;"/><path id="path30858-3" d="M2472.631,1231.387c15.694,0 33.035,-5.959 42.598,-16.954l0,12.184l33.701,0l0,-145.356l-33.701,0l0,84.837c0,20.507 -14.283,33.716 -32.133,33.716c-17.864,0 -32.169,-13.209 -32.169,-33.802l0,-84.751l-33.737,0c0,0 0.024,60.705 0.024,90.56c-0,37.978 21.911,59.566 55.419,59.566" style="fill:#27348b;fill-rule:nonzero;"/><rect id="path30858-3-7" x="2127.949" y="1131.985" width="97.174" height="33.698" style="fill:#27348b;fill-rule:nonzero;"/></g></g></svg>