<?xml version="1.0" encoding="UTF-8" standalone="no"?><!DOCTYPE svg PUBLIC "-//W3C//DTD SVG 1.1//EN" "http://www.w3.org/Graphics/SVG/1.1/DTD/svg11.dtd"><svg width="100%" height="100%" viewBox="0 0 2931 1209" version="1.1" xmlns="http://www.w3.org/2000/svg" xmlns:xlink="http://www.w3.org/1999/xlink" xml:space="preserve" xmlns:serif="http://www.serif.com/" style="fill-rule:evenodd;clip-rule:evenodd;stroke-linejoin:round;stroke-miterlimit:2;"><g id="Layer-1" serif:id="Layer 1"><g id="g984"></g><g id="g10"></g><g id="g1654"></g><g id="g3059"></g><g id="g12"><path id="path18-8" d="M2005.494,479.205l-80.998,0l0,-257.111l80.998,0l0,257.111Zm250.304,-366.052l-79.828,0l0,344.657c-25.27,9.325 -62.067,17.584 -90.615,17.584l0,-253.29l56.459,0l0,-77.343l-353.418,0l0,77.343l56.261,0l0,257.101l-65.408,0l0,77.385l253.854,0c28.099,-0.209 87.409,-2.663 142.867,-17.824l0,156.827c0,22.032 17.929,39.909 39.919,39.909c22.043,0 39.909,-17.877 39.909,-39.909l0,-318.917l91.346,0l0,-77.333l-91.346,0l0,-186.19Z" style="fill:#007147;fill-rule:nonzero;"/><g id="g20"><path id="path22-8" d="M2833.086,413.602c17.689,-58.297 20.383,-127.809 20.571,-157.6l0,-111.238l-428.599,0l0,77.343l348.792,0l0,33.602c-0.146,23.682 -2.6,105.662 -25.332,157.892l-380.473,0l0,77.322l233.283,0l0,204.547l0.021,0c0,0.042 -0.021,0.084 -0.021,0.115c0,22.032 17.866,39.93 39.899,39.93c22.085,0 39.899,-17.897 39.899,-39.93c0,-0.031 -0.01,-0.073 -0.01,-0.115l0.01,0l0,-204.547l248.915,0l0,-77.322l-96.953,0Z" style="fill:#007147;fill-rule:nonzero;"/></g><g id="g24"><path id="path26" d="M1506.518,643.701c-14.034,6.182 -30.104,9.69 -47.166,9.69c-23.912,0 -45.851,-6.871 -62.996,-18.305c-22.001,-14.702 -36.056,-36.954 -36.056,-61.806c0,-44.169 44.42,-80.1 99.052,-80.1c54.601,0 99.01,35.931 99.01,80.1c0,30.355 -20.999,56.835 -51.844,70.42m-6.944,-313.623l-80.466,0l0,83.515l-248.695,0l0,77.98l132.696,0c-15.757,24.027 -24.946,51.886 -24.946,81.708c0,89.456 81.28,162.226 181.188,162.226c99.877,0 181.167,-72.801 181.167,-162.226c0,-29.822 -9.158,-57.681 -24.925,-81.708l132.675,0l0,-77.98l-248.695,0l0,-83.515Z" style="fill:#007147;fill-rule:nonzero;"/></g><g id="g28"><path id="path30" d="M1459.376,226.529c61.054,99.814 167.154,142.261 231.393,152.108l0,-83.723c-44.639,-10.327 -159.835,-49.547 -189.354,-181.763l-84.12,0c-29.582,132.602 -145.383,171.665 -189.636,181.825l0,83.713c64.197,-9.774 170.569,-52.189 231.717,-152.16" style="fill:#007147;fill-rule:nonzero;"/></g><g id="g32"><path id="path34" d="M867.034,242.156c-31.429,-48.327 -66.357,-88.654 -101.897,-127.159c-78.559,-21.269 -163.453,-51.696 -242.637,-98.267l-26.681,-16.729l-26.668,16.729c-78.468,46.142 -162.777,76.413 -240.959,97.682c-35.67,38.584 -70.741,79.04 -102.3,127.511c106.879,-18.42 242.429,-54.168 369.927,-123.569c128.018,69.674 264.153,105.448 371.214,123.803" style="fill:#007147;fill-rule:nonzero;"/></g><g id="g36"><path id="path38" d="M968.149,466.257c-10.446,-38.87 -23.923,-75.853 -39.676,-110.951c-109.077,-15.09 -266.391,-50.304 -405.973,-132.376l-26.668,-15.688l-26.694,15.688c-138.633,81.525 -295.491,116.818 -404.673,132.077c-15.805,35.149 -29.334,72.198 -39.793,111.133c110.912,-11.083 298.444,-43.371 471.16,-137.371c173.314,94.339 361.549,126.522 472.317,137.488" style="fill:#007147;fill-rule:nonzero;"/></g><g id="g40"><path id="path42" d="M987.922,571.571c-104.472,-9.73 -297.755,-40.678 -465.423,-139.283l-26.668,-15.688l-26.694,15.688c-166.537,97.929 -359.337,129.137 -464.252,139.088c-4.189,37.413 -5.62,72.848 -4.54,106.333c106.124,-8.677 309.436,-38.323 495.486,-139.583c186.726,101.649 390.792,131.127 496.605,139.687c1.093,-33.458 -0.338,-68.868 -4.514,-106.242" style="fill:#007147;fill-rule:nonzero;"/></g><g id="g44"><path id="path46" d="M495.817,625.961l-26.681,15.688c-162.647,95.639 -350.375,127.641 -456.785,138.36c7.792,37.166 19.071,71.326 33.237,102.586c112.59,-12.944 287.959,-46.779 450.229,-135.121c162.803,88.615 338.771,122.385 451.322,135.251c14.153,-31.234 25.445,-65.368 33.25,-102.521c-106.033,-10.498 -294.164,-42.278 -457.891,-138.555l-26.681,-15.688Z" style="fill:#007147;fill-rule:nonzero;"/></g><g id="g48"><path id="path50-8" d="M889.284,977.372c-105.604,-17.77 -243.144,-53.674 -366.778,-126.366l-26.681,-15.701l-0.013,0l-26.668,15.701c-123.634,72.692 -261.174,108.596 -366.778,126.366c27.891,34.928 57.069,61.427 91.945,85.805c76.478,-17.275 164.845,-46.389 248.881,-85.805l0,230.903l105.266,0l0,-230.903c84.036,39.416 172.39,68.529 248.868,85.805c34.876,-24.378 64.068,-50.877 91.958,-85.805" style="fill:#b47d4f;fill-rule:nonzero;"/></g><g id="text2384"></g></g><g id="text4734"><path id="path10536" d="M1274.615,1065.261c51.639,0 82.139,-31.104 82.139,-67.644c0,-32.312 -17.817,-49.525 -44.995,-60.699l-29.292,-12.381c-19.025,-7.549 -34.728,-13.287 -34.728,-29.292c0,-14.797 12.381,-23.555 32.01,-23.555c18.421,0 33.218,6.644 47.411,18.421l22.649,-28.084c-18.119,-18.421 -44.089,-28.688 -70.06,-28.688c-45.297,0 -77.308,28.084 -77.308,64.624c0,32.614 22.649,50.733 45.297,60.095l29.896,12.683c19.931,8.456 33.52,13.589 33.52,30.198c0,15.703 -12.381,25.669 -35.634,25.669c-19.629,0 -40.768,-9.965 -56.773,-24.763l-25.669,30.802c21.743,20.837 51.639,32.614 81.536,32.614Z" style="fill:#007147;fill-rule:nonzero;"/><path id="path10538" d="M1479.784,1065.261c59.189,0 99.956,-44.391 99.956,-116.867c0,-72.476 -40.768,-115.056 -99.956,-115.056c-59.189,0 -99.956,42.278 -99.956,115.056c0,72.476 40.768,116.867 99.956,116.867Zm0,-38.654c-33.218,0 -54.357,-30.5 -54.357,-78.214c0,-48.015 21.139,-76.704 54.357,-76.704c33.218,0 54.357,28.688 54.357,76.704c0,47.713 -21.139,78.214 -54.357,78.214Z" style="fill:#007147;fill-rule:nonzero;"/><path id="path10540" d="M1618.215,1061.033l42.278,0l0,-89.689c0,-25.669 -3.322,-53.753 -5.436,-77.912l1.51,0l22.649,48.015l64.624,119.585l45.298,0l0,-223.769l-42.278,0l0,89.387c0,25.367 3.624,54.961 5.738,78.214l-1.51,0l-22.347,-48.317l-64.926,-119.283l-45.599,0l0,223.769Z" style="fill:#007147;fill-rule:nonzero;"/><path id="path10542" d="M1935.118,1065.261c31.104,0 57.377,-12.079 72.476,-26.876l0,-100.862l-79.422,0l0,36.54l39.56,0l0,44.089c-6.342,5.436 -17.213,8.456 -27.782,8.456c-44.09,0 -66.436,-29.292 -66.436,-77.912c0,-48.015 25.971,-77.006 63.114,-77.006c20.233,0 32.916,8.154 44.089,18.723l23.555,-28.386c-14.495,-14.797 -36.842,-28.688 -69.154,-28.688c-59.491,0 -107.204,43.184 -107.204,116.867c0,74.59 46.505,115.056 107.204,115.056Z" style="fill:#007147;fill-rule:nonzero;"/><path id="path10544" d="M2050.296,1061.033l44.694,0l0,-79.421l29.896,0c48.015,0 86.367,-22.951 86.367,-73.986c0,-52.847 -38.05,-70.362 -87.575,-70.362l-73.382,0l0,223.769Zm44.694,-114.754l0,-73.382l25.367,0c30.802,0 47.109,8.758 47.109,34.728c0,25.669 -14.797,38.654 -45.599,38.654l-26.876,-0Z" style="fill:#007147;fill-rule:nonzero;"/><path id="path10546" d="M2278.114,944.468c6.644,-23.253 13.287,-48.619 19.025,-73.08l1.51,0c6.342,24.159 12.381,49.827 19.327,73.08l6.644,24.461l-53.149,0l6.644,-24.461Zm-77.308,116.565l45.297,0l15.703,-57.377l72.476,0l15.703,57.377l46.807,0l-71.872,-223.769l-52.545,0l-71.57,223.769Z" style="fill:#007147;fill-rule:nonzero;"/><rect id="path10548" x="2405.07" y="958.661" width="82.441" height="31.708" style="fill:#007147;fill-rule:nonzero;"/><path id="path10550" d="M2620.205,1065.261c31.104,0 57.377,-12.079 72.476,-26.876l0,-100.862l-79.422,0l0,36.54l39.56,0l0,44.089c-6.342,5.436 -17.213,8.456 -27.782,8.456c-44.09,0 -66.436,-29.292 -66.436,-77.912c0,-48.015 25.971,-77.006 63.114,-77.006c20.233,0 32.916,8.154 44.089,18.723l23.555,-28.386c-14.495,-14.797 -36.842,-28.688 -69.154,-28.688c-59.491,0 -107.204,43.184 -107.204,116.867c0,74.59 46.505,115.056 107.204,115.056Z" style="fill:#007147;fill-rule:nonzero;"/><path id="path10552" d="M2821.146,1065.261c54.659,0 86.367,-30.5 86.367,-104.788l0,-123.209l-42.882,0l0,127.135c0,46.505 -16.911,62.208 -43.486,62.208c-25.971,0 -42.278,-15.703 -42.278,-62.208l0,-127.135l-44.694,0l0,123.209c0,74.288 32.614,104.788 86.971,104.788Z" style="fill:#007147;fill-rule:nonzero;"/></g></g></svg>