<?xml version="1.0" encoding="UTF-8" standalone="no"?><!DOCTYPE svg PUBLIC "-//W3C//DTD SVG 1.1//EN" "http://www.w3.org/Graphics/SVG/1.1/DTD/svg11.dtd"><svg width="100%" height="100%" viewBox="0 0 842 818" version="1.1" xmlns="http://www.w3.org/2000/svg" xmlns:xlink="http://www.w3.org/1999/xlink" xml:space="preserve" xmlns:serif="http://www.serif.com/" style="fill-rule:evenodd;clip-rule:evenodd;stroke-linejoin:round;stroke-miterlimit:2;"><path d="M208.248,345.295c0,-6.096 2.429,-10.042 6.338,-13.238c4.112,-3.363 8.075,-4.417 14.696,-4.417l35.833,0c4.675,0 6.2,-3.654 6.2,-6.817l0,-21.917c0,-1.7 -0.288,-3.158 -0.562,-4.396c-0.533,-0.95 -1.375,-1.688 -1.933,-2.171c-1.096,-0.254 -1.925,-0.504 -2.742,-0.504l-48.108,0c-3.304,0 -5.771,-0.717 -7.417,-2.662c-1.938,-1.708 -2.763,-3.871 -2.763,-6.817c0,-2.896 0.825,-5.342 2.763,-7.304c1.646,-1.95 4.112,-2.929 7.417,-2.929l49.213,0c4.404,0 8.533,0.242 12.108,0.5c3.304,0.479 6.329,1.208 9.071,2.429c2.492,1.233 4.696,2.938 6.337,4.875c1.396,2.429 2.204,5.579 2.204,9.5l0,41.113c0,6.104 -2.204,10.475 -6.325,13.396c-4.396,2.921 -9.904,4.396 -16.521,4.396l-41.875,0l0,30.9c0,3.163 0.271,5.363 0.833,6.554c0.533,1.471 3.021,1.942 7.958,1.942l84.942,0c3.308,0 5.796,0.979 7.704,2.438c1.646,1.958 2.496,4.162 2.496,7.083c0,3.146 -0.85,5.592 -2.496,7.55c-1.908,2.183 -4.396,3.142 -7.45,3.142l-94.529,0c-6.633,0 -12.125,-1.446 -16.529,-4.371c-4.667,-2.667 -6.879,-7.308 -6.879,-13.9l0.017,-44.375Z" style="fill:#717174;fill-rule:nonzero;"/><rect x="338.558" y="335.747" width="39.321" height="18.779" style="fill:#717174;"/><path d="M87.75,354.706c0,1.492 -1.208,2.7 -2.704,2.7l-57.454,0c-1.496,0 -2.713,-1.208 -2.713,-2.7l0,-59.183c0,-1.496 1.217,-2.708 2.713,-2.708l57.454,0c1.496,0 2.704,1.213 2.704,2.708l0,59.183Zm19.296,-78.204c-3.571,-3.4 -8.254,-5.117 -14.008,-5.117l-73.325,0c-5.767,0 -10.438,1.717 -14.012,5.117c-3.846,3.413 -5.7,7.804 -5.7,13.146l0,68.971c0,5.338 2.067,9.738 5.921,13.133c3.563,3.408 8.25,5.121 14.008,5.121l72.883,0c5.763,0 10.446,-1.712 14.021,-5.121c3.838,-3.396 5.917,-7.796 5.917,-13.133l0,-68.971c0,-5.342 -1.854,-9.733 -5.704,-13.146" style="fill:#717174;fill-rule:nonzero;"/><path d="M758.437,377.208c-15.392,-10.221 -27.517,-21.921 -36.033,-35.05c-8.817,-12.913 -12.908,-27.033 -12.908,-42.133l0,-27.75c0,-2.921 -1.433,-5.104 -4.117,-6.579c-2.963,-1.196 -5.942,-2.525 -9.504,-2.525c-0.108,0 -0.204,0.004 -0.312,0.004c-0.104,0 -0.204,-0.004 -0.308,-0.004c-3.567,0 -6.542,1.329 -9.513,2.525c-2.679,1.475 -4.108,3.658 -4.108,6.579l0,27.75c0,15.1 -4.087,29.221 -12.913,42.133c-8.517,13.129 -20.637,24.829 -36.029,35.05c-2.992,1.821 -4.138,4.625 -4.138,7.05c0,2.683 1.363,5.088 3.571,7.529c2.467,2.458 5.504,3.662 8.8,3.662c2.767,0 4.787,-0.771 6.883,-1.95c11.012,-6.825 20.092,-14.371 27.796,-23.104c7.979,-8.292 15.287,-17.533 19.958,-27.275c4.671,9.742 11.975,18.983 19.954,27.275c7.725,8.733 16.783,16.279 27.804,23.104c2.179,1.208 4.112,1.95 6.888,1.95c3.287,0 6.325,-1.204 8.796,-3.662c2.208,-2.442 3.567,-4.846 3.567,-7.529c0,-2.425 -1.163,-4.979 -4.133,-7.05" style="fill:#717174;fill-rule:nonzero;"/><path d="M170.548,125.528c-9.688,0 -17.533,-7.854 -17.533,-17.533c0,-9.679 7.846,-17.533 17.533,-17.533c9.679,0 17.533,7.854 17.533,17.533c0,9.679 -7.854,17.533 -17.533,17.533m0,-55.479c-20.963,0 -37.954,16.987 -37.954,37.946c0,16.371 13.929,27.162 13.929,27.162c6.021,4.667 11.113,14.713 11.113,22.338l0,58.554c0.088,6.383 4.938,9.983 11.162,10.642c0.304,0.017 1.171,0.075 1.317,0.075c0.479,0 0.908,-0.042 1.363,-0.075c6.229,-0.662 11.092,-4.271 11.162,-10.658l0,-58.329c0,-7.617 5.325,-17.608 11.404,-22.192c0,0 14.458,-10.912 14.458,-27.517c0,-20.958 -16.992,-37.946 -37.954,-37.946" style="fill:#f68933;fill-rule:nonzero;"/><path d="M803.05,125.528c-9.683,0 -17.529,-7.854 -17.529,-17.533c0,-9.679 7.846,-17.533 17.529,-17.533c9.683,0 17.538,7.854 17.538,17.533c0,9.679 -7.854,17.533 -17.538,17.533m0,-55.479c-20.954,0 -37.954,16.987 -37.954,37.946c0,16.371 13.938,27.162 13.938,27.162c6.017,4.667 11.108,14.713 11.108,22.338l0,58.554c0.079,6.383 4.938,9.983 11.167,10.642c0.292,0.017 1.163,0.075 1.308,0.075c0.483,0 0.908,-0.042 1.371,-0.075c6.225,-0.662 11.083,-4.271 11.15,-10.658l0,-58.329c0,-7.617 5.329,-17.608 11.408,-22.192c0,0 14.458,-10.912 14.458,-27.517c0,-20.958 -16.992,-37.946 -37.954,-37.946" style="fill:#a0ce67;fill-rule:nonzero;"/><path d="M524.41,147.85c-9.679,0 -17.529,-7.854 -17.529,-17.537c0,-9.683 7.85,-17.529 17.529,-17.529c9.683,0 17.542,7.846 17.542,17.529c0,9.683 -7.858,17.537 -17.542,17.537m0,-55.487c-20.958,0 -37.95,16.987 -37.95,37.95c0,16.367 13.938,27.158 13.938,27.158c6.017,4.663 11.108,14.713 11.108,22.338l0,60.179c0.083,6.387 4.933,9.996 11.167,10.65c0.296,0.021 1.167,0.075 1.304,0.075c0.492,0 0.917,-0.046 1.367,-0.075c6.233,-0.662 11.083,-4.271 11.158,-10.662l0,-59.954c0,-7.613 5.333,-17.604 11.412,-22.192c0,0 14.45,-10.917 14.45,-27.517c0,-20.963 -16.983,-37.95 -37.954,-37.95" style="fill:#f68933;fill-rule:nonzero;"/><path d="M388.71,179.21c-9.692,0 -17.533,-7.85 -17.533,-17.533c0,-9.683 7.842,-17.533 17.533,-17.533c9.688,0 17.529,7.85 17.529,17.533c0,9.683 -7.842,17.533 -17.529,17.533m0,-55.479c-20.967,0 -37.958,16.983 -37.958,37.946c0,16.367 13.938,27.167 13.938,27.167c6.029,4.658 11.121,14.708 11.121,22.329l0,-0.246l0,5.121c0.075,6.383 4.929,9.983 11.154,10.646c0.296,0.013 1.167,0.071 1.308,0.071c0.488,0 0.913,-0.042 1.371,-0.071c6.233,-0.667 11.087,-4.275 11.158,-10.662l0,-5.104l0,0.458c0,-7.617 5.321,-17.612 11.404,-22.192c0,0 14.458,-10.917 14.458,-27.517c0,-20.963 -16.996,-37.946 -37.954,-37.946" style="fill:#a0ce67;fill-rule:nonzero;"/><path d="M333.156,55.483c-9.688,0 -17.533,-7.85 -17.533,-17.529c0,-9.683 7.846,-17.533 17.533,-17.533c9.688,0 17.533,7.85 17.533,17.533c0,9.679 -7.846,17.529 -17.533,17.529m0,-55.483c-20.958,0 -37.954,16.992 -37.954,37.954c0,16.367 13.929,27.158 13.929,27.158c6.021,4.671 11.117,14.717 11.117,22.338l0,128.596c0.075,6.383 4.938,9.988 11.163,10.646c0.292,0.017 1.163,0.071 1.312,0.071c0.479,0 0.908,-0.037 1.367,-0.071c6.225,-0.663 11.083,-4.275 11.158,-10.663l0,-128.367c0,-7.617 5.325,-17.608 11.404,-22.2c0,0 14.458,-10.913 14.458,-27.508c0,-20.963 -16.996,-37.954 -37.954,-37.954" style="fill:#00bce4;fill-rule:nonzero;"/><path d="M171.427,250.991c-0.046,-0.008 -0.846,-0.071 -1.217,-0.075c-0.504,0.004 -0.975,0.05 -1.458,0.075c-6.196,0.692 -11.029,4.275 -11.117,10.646l0,205.154c0.088,6.358 4.921,9.95 11.117,10.642c0.483,0.029 0.954,0.071 1.458,0.071c0.35,0 1.162,-0.058 1.217,-0.062c6.254,-0.637 11.125,-4.258 11.208,-10.65l0,-205.154c-0.083,-6.396 -4.958,-10.017 -11.208,-10.646" style="fill:#717174;fill-rule:nonzero;"/><path d="M803.9,250.991c-0.046,-0.008 -0.85,-0.071 -1.217,-0.075c-0.5,0.004 -0.971,0.05 -1.462,0.075c-6.196,0.692 -11.029,4.275 -11.108,10.646l0,205.154c0.079,6.358 4.913,9.95 11.108,10.642c0.479,0.029 0.958,0.071 1.462,0.071c0.354,0 1.163,-0.058 1.217,-0.062c6.254,-0.637 11.129,-4.258 11.208,-10.65l0,-205.154c-0.079,-6.396 -4.954,-10.017 -11.208,-10.646" style="fill:#717174;fill-rule:nonzero;"/><path d="M389.6,250.991c-0.046,-0.008 -0.85,-0.071 -1.217,-0.075c-0.504,0.004 -0.975,0.05 -1.463,0.075c-6.2,0.692 -11.021,4.275 -11.108,10.646l0,205.154c0.088,6.358 4.908,9.95 11.108,10.642c0.488,0.029 0.954,0.071 1.463,0.071c0.35,0 1.162,-0.058 1.217,-0.062c6.25,-0.637 11.129,-4.258 11.208,-10.65l0,-205.154c-0.079,-6.396 -4.958,-10.017 -11.208,-10.646" style="fill:#717174;fill-rule:nonzero;"/><path d="M334.049,250.991c-0.042,-0.008 -0.846,-0.071 -1.212,-0.075c-0.504,0.004 -0.971,0.05 -1.463,0.075c-6.192,0.692 -11.033,4.275 -11.1,10.646l0,254.833c0.067,6.362 4.904,9.954 11.1,10.642c0.483,0.017 0.958,0.071 1.463,0.071c0.354,0 1.167,-0.062 1.217,-0.062c6.25,-0.642 11.121,-4.254 11.204,-10.65l0,-254.833c-0.083,-6.396 -4.954,-10.017 -11.208,-10.646" style="fill:#717174;fill-rule:nonzero;"/><path d="M636.008,416.429c-0.513,-5.046 -3.433,-8.992 -8.6,-9.058l-90.925,0l0.017,-0.008l0,-47.437l-24.992,0l0,47.437l0.017,0.008l-89.412,0c-5.171,0.067 -8.096,4.012 -8.617,9.067c0,0.029 -0.042,0.683 -0.046,0.975c0.004,0.408 0.042,0.792 0.058,1.183c0.546,5.004 3.454,8.908 8.604,8.983l205.296,0c5.138,-0.075 8.038,-3.979 8.592,-8.983c0.025,-0.392 0.067,-0.775 0.067,-1.183c0,-0.283 -0.05,-0.933 -0.058,-0.983" style="fill:#717174;fill-rule:nonzero;"/><path d="M597.447,358.788c-0.596,-4.85 -3.388,-8.596 -8.304,-8.804c-0.304,-0.017 -0.829,-0.087 -1.158,-0.087l-108.421,0.071c-1.492,0 -2.7,-1.208 -2.7,-2.708l0,-52.633c0,-1.504 1.208,-2.708 2.7,-2.708l105.362,-0.008c0.346,0 0.671,-0.017 0.996,-0.033c4.983,-0.217 7.812,-4.092 8.312,-9.062c0.008,-0.012 0.025,-0.242 0.038,-0.488c-0.004,-0.675 -0.038,-1.329 -0.092,-1.979c-0.554,-4.217 -2.788,-7.592 -6.638,-8.467c-0.788,-0.121 -1.733,-0.238 -2.679,-0.238l-113.167,0c-5.771,0 -10.45,1.717 -14.021,5.125c-3.846,3.4 -5.696,7.796 -5.696,13.133l0,62.204c0,5.342 2.071,9.733 5.921,13.137c3.571,3.4 8.246,5.117 14.013,5.117l115.796,0c0,0 2.421,0.05 4.692,-1.008c0.142,-0.071 0.279,-0.137 0.421,-0.208c0.3,-0.167 0.604,-0.367 0.892,-0.579c0.096,-0.075 0.204,-0.133 0.296,-0.204c0.017,-0.025 0.033,-0.033 0.05,-0.042l-0.012,-0.004c1.967,-1.625 3.125,-4.213 3.438,-7.204c0,-0.025 0.025,-0.371 0.042,-0.675c-0.008,-0.558 -0.038,-1.104 -0.079,-1.646" style="fill:#717174;fill-rule:nonzero;"/><path d="M517.435,600.157l0,53.192l67.283,0c4.567,0 8.062,1.308 10.179,3.871c2.083,2.571 3.142,5.775 3.142,9.346c0,3.492 -1.058,6.413 -3.142,8.996c-2.117,2.579 -5.612,3.862 -10.179,3.862l-227.346,0c-4.896,0 -8.037,-1.283 -9.817,-3.862c-2.083,-2.583 -2.792,-5.504 -2.792,-8.996c0,-3.571 0.708,-6.775 2.792,-9.346c1.779,-2.562 4.921,-3.871 9.817,-3.871l63.796,0l0,-53.192l30.125,0l0,53.192l37.042,0l0,-53.192l29.1,0Z" style="fill:#717174;fill-rule:nonzero;"/><path d="M470.921,791.726c-22.467,0 -40.637,-16.729 -40.637,-37.308c0,-20.637 18.171,-37.346 40.637,-37.346c22.433,0 40.637,16.708 40.637,37.346c0,20.579 -18.204,37.308 -40.637,37.308m0,-100.842c-38.208,0 -69.158,28.442 -69.158,63.533c0,35.058 30.95,63.504 69.158,63.504c38.188,0 69.142,-28.446 69.142,-63.504c0,-35.092 -30.954,-63.533 -69.142,-63.533" style="fill:#717174;fill-rule:nonzero;"/><path d="M470.921,601.488c-22.467,0 -40.637,-16.729 -40.637,-37.342c0,-20.608 18.171,-37.325 40.637,-37.325c22.433,0 40.637,16.717 40.637,37.325c0,20.612 -18.204,37.342 -40.637,37.342m0,-100.854c-38.208,0 -69.158,28.442 -69.158,63.512c0,35.079 30.95,63.525 69.158,63.525c38.188,0 69.142,-28.446 69.142,-63.525c0,-35.071 -30.954,-63.512 -69.142,-63.512" style="fill:#717174;fill-rule:nonzero;"/><path d="M812.518,600.69c-1.971,-2.4 -5.225,-3.579 -9.104,-3.579l-31.758,0l0,-83.321c-0.1,-7.825 -6.067,-12.254 -13.725,-13.033c-0.046,0 -1.033,-0.083 -1.479,-0.083c-0.617,0 -1.204,0.067 -1.783,0.1c-7.592,0.837 -13.504,5.233 -13.604,13.017l0,191.754c0.1,7.783 6.004,12.179 13.596,13.017c0.587,0.042 1.175,0.092 1.792,0.092c0.429,0 1.417,-0.062 1.487,-0.075c7.65,-0.783 13.617,-5.208 13.717,-13.033l0,-83.083l31.758,0c3.879,0 7.133,-1.213 9.104,-4.192c1.604,-2.4 2.587,-5.367 2.587,-8.358c0,-3.583 -0.983,-6.846 -2.587,-9.221" style="fill:#717174;fill-rule:nonzero;"/><path d="M791.327,774.445c-0.004,-0.508 -0.067,-0.983 -0.108,-1.475c-0.596,-4.875 -3.038,-8.837 -7.204,-10.275c-0.496,-0.146 -0.987,-0.317 -1.529,-0.417c-0.129,-0.021 -0.275,-0.025 -0.417,-0.042c-0.629,-0.096 -1.292,-0.138 -1.967,-0.171c-0.163,0 -0.312,-0.029 -0.479,-0.029l-84.696,0c-14.033,0 -12.962,-8.725 -12.962,-8.725l0,-53.679c-0.196,-7.087 -5.458,-11.188 -12.321,-12.142c-1.05,-0.112 -2.033,-0.163 -2.95,-0.163c-0.312,0.017 -0.633,0.021 -0.958,0.042c-7.25,0.804 -12.888,4.987 -12.987,12.417c0,0.017 -0.008,0.025 -0.008,0.033l0,62.517c0,4.167 0.667,8.042 2.592,11.333c1.65,2.996 3.571,5.679 6.171,7.458c2.275,2.075 5.192,3.583 8.754,4.746c3.267,0.587 6.483,1.2 10.383,1.2l99.004,0c2.871,-0.008 5.362,-0.821 7.262,-2.188c0.921,-0.746 1.725,-1.638 2.35,-2.679c0.075,-0.142 0.146,-0.275 0.212,-0.404c0.167,-0.296 0.308,-0.604 0.446,-0.913c0.246,-0.546 0.454,-1.083 0.629,-1.646c0.046,-0.154 0.104,-0.308 0.146,-0.471c0.146,-0.454 0.225,-0.921 0.317,-1.383c0.067,-0.346 0.142,-0.692 0.179,-1.054c0.075,-0.583 0.146,-1.167 0.146,-1.746c0,-0.042 -0.004,-0.092 -0.004,-0.146" style="fill:#717174;fill-rule:nonzero;"/><path d="M715.83,627.842c-17.621,-11.625 -31.508,-24.962 -41.254,-39.908c-10.092,-14.696 -14.779,-30.783 -14.779,-47.971l0,-16.537c-0.238,-6.954 -4.95,-11.296 -11.388,-12.813c-0.008,0 -0.008,0 -0.021,-0.004c-0.796,-0.188 -1.621,-0.308 -2.471,-0.404c-0.525,-0.058 -1.046,-0.142 -1.608,-0.15c-0.075,0 -0.138,0 -0.213,-0.008c-0.087,0.008 -0.167,0.017 -0.25,0.017c-0.033,0 -0.075,-0.008 -0.1,-0.008c-0.292,0.008 -0.575,0.025 -0.85,0.042c-0.404,0.017 -0.788,0.067 -1.171,0.108c-7.638,0.958 -13.546,5.408 -13.821,13.196c0,0.125 -0.038,0.221 -0.042,0.354l0,12.862l0.042,0l0,3.346c0,17.188 -4.696,33.275 -14.796,47.971c-9.733,14.946 -23.612,28.283 -41.258,39.908c-3.329,2.25 -4.717,5.271 -4.717,8.025c0,3.054 1.558,5.808 4.083,8.583c2.821,2.8 6.304,4.167 10.071,4.167c3.171,0 5.55,-0.9 7.888,-2.221c12.604,-7.754 22.996,-16.354 31.821,-26.304c9.133,-9.442 17.5,-19.962 22.85,-31.058c5.354,11.096 13.721,21.617 22.846,31.058c8.833,9.95 19.208,18.55 31.829,26.304c2.321,1.421 4.708,2.221 7.883,2.221c3.762,0 7.233,-1.367 10.071,-4.167c2.525,-2.775 4.083,-5.529 4.083,-8.583c0,-2.754 -1.142,-5.817 -4.729,-8.025" style="fill:#717174;fill-rule:nonzero;"/></svg>